<?xml version="1.0" encoding="UTF-8"?>
<!--Generator: Apple Native CoreSVG 175-->
<!DOCTYPE svg
PUBLIC "-//W3C//DTD SVG 1.1//EN"
       "http://www.w3.org/Graphics/SVG/1.1/DTD/svg11.dtd">
<svg version="1.1" xmlns="http://www.w3.org/2000/svg" xmlns:xlink="http://www.w3.org/1999/xlink" width="3300" height="2200">
 <!--glyph: "uni10012C.medium", point size: 100.0, font version: "17.1d1e1", template writer version: "65.1"-->
 <g id="Notes">
  <rect height="2200" id="artboard" style="fill:white;opacity:1" width="3300" x="0" y="0"/>
  <line style="fill:none;stroke:black;opacity:1;stroke-width:0.5;" x1="263" x2="3036" y1="292" y2="292"/>
  <text style="stroke:none;fill:black;font-family:sans-serif;font-size:13;font-weight:bold;" transform="matrix(1 0 0 1 263 322)">Weight/Scale Variations</text>
  <text style="stroke:none;fill:black;font-family:sans-serif;font-size:13;text-anchor:middle;" transform="matrix(1 0 0 1 559.711 322)">Ultralight</text>
  <text style="stroke:none;fill:black;font-family:sans-serif;font-size:13;text-anchor:middle;" transform="matrix(1 0 0 1 856.422 322)">Thin</text>
  <text style="stroke:none;fill:black;font-family:sans-serif;font-size:13;text-anchor:middle;" transform="matrix(1 0 0 1 1153.13 322)">Light</text>
  <text style="stroke:none;fill:black;font-family:sans-serif;font-size:13;text-anchor:middle;" transform="matrix(1 0 0 1 1449.84 322)">Regular</text>
  <text style="stroke:none;fill:black;font-family:sans-serif;font-size:13;text-anchor:middle;" transform="matrix(1 0 0 1 1746.56 322)">Medium</text>
  <text style="stroke:none;fill:black;font-family:sans-serif;font-size:13;text-anchor:middle;" transform="matrix(1 0 0 1 2043.27 322)">Semibold</text>
  <text style="stroke:none;fill:black;font-family:sans-serif;font-size:13;text-anchor:middle;" transform="matrix(1 0 0 1 2339.98 322)">Bold</text>
  <text style="stroke:none;fill:black;font-family:sans-serif;font-size:13;text-anchor:middle;" transform="matrix(1 0 0 1 2636.69 322)">Heavy</text>
  <text style="stroke:none;fill:black;font-family:sans-serif;font-size:13;text-anchor:middle;" transform="matrix(1 0 0 1 2933.4 322)">Black</text>
  <line style="fill:none;stroke:black;opacity:1;stroke-width:0.5;" x1="263" x2="3036" y1="1903" y2="1903"/>
  <g transform="matrix(1 0 0 1 263 1933)">
   <path d="M9.24805 0.830078Q10.8691 0.830078 12.2949 0.214844Q13.7207-0.400391 14.8096-1.49414Q15.8984-2.58789 16.5186-4.01367Q17.1387-5.43945 17.1387-7.05078Q17.1387-8.66211 16.5186-10.0879Q15.8984-11.5137 14.8047-12.6074Q13.7109-13.7012 12.2852-14.3164Q10.8594-14.9316 9.23828-14.9316Q7.62695-14.9316 6.20117-14.3164Q4.77539-13.7012 3.69141-12.6074Q2.60742-11.5137 1.9873-10.0879Q1.36719-8.66211 1.36719-7.05078Q1.36719-5.43945 1.9873-4.01367Q2.60742-2.58789 3.69629-1.49414Q4.78516-0.400391 6.21094 0.214844Q7.63672 0.830078 9.24805 0.830078ZM9.24805-0.654297Q7.91992-0.654297 6.7627-1.14746Q5.60547-1.64062 4.73145-2.51953Q3.85742-3.39844 3.36426-4.56055Q2.87109-5.72266 2.87109-7.05078Q2.87109-8.37891 3.35938-9.54102Q3.84766-10.7031 4.72168-11.582Q5.5957-12.4609 6.75293-12.9541Q7.91016-13.4473 9.23828-13.4473Q10.5762-13.4473 11.7334-12.9541Q12.8906-12.4609 13.7695-11.582Q14.6484-10.7031 15.1465-9.54102Q15.6445-8.37891 15.6445-7.05078Q15.6445-5.72266 15.1514-4.56055Q14.6582-3.39844 13.7842-2.51953Q12.9102-1.64062 11.748-1.14746Q10.5859-0.654297 9.24805-0.654297ZM5.6543-7.05078Q5.6543-6.72852 5.85938-6.52832Q6.06445-6.32812 6.40625-6.32812L8.51562-6.32812L8.51562-4.20898Q8.51562-3.88672 8.71094-3.67676Q8.90625-3.4668 9.23828-3.4668Q9.56055-3.4668 9.77051-3.67676Q9.98047-3.88672 9.98047-4.20898L9.98047-6.32812L12.0898-6.32812Q12.4219-6.32812 12.627-6.52832Q12.832-6.72852 12.832-7.05078Q12.832-7.38281 12.627-7.58789Q12.4219-7.79297 12.0898-7.79297L9.98047-7.79297L9.98047-9.90234Q9.98047-10.2344 9.77051-10.4443Q9.56055-10.6543 9.23828-10.6543Q8.90625-10.6543 8.71094-10.4443Q8.51562-10.2344 8.51562-9.90234L8.51562-7.79297L6.40625-7.79297Q6.06445-7.79297 5.85938-7.58789Q5.6543-7.38281 5.6543-7.05078Z"/>
  </g>
  <g transform="matrix(1 0 0 1 281.867 1933)">
   <path d="M11.709 2.91016Q13.75 2.91016 15.5518 2.12891Q17.3535 1.34766 18.7305-0.0292969Q20.1074-1.40625 20.8887-3.20801Q21.6699-5.00977 21.6699-7.05078Q21.6699-9.0918 20.8887-10.8936Q20.1074-12.6953 18.7305-14.0723Q17.3535-15.4492 15.5469-16.2305Q13.7402-17.0117 11.6992-17.0117Q9.6582-17.0117 7.85645-16.2305Q6.05469-15.4492 4.68262-14.0723Q3.31055-12.6953 2.5293-10.8936Q1.74805-9.0918 1.74805-7.05078Q1.74805-5.00977 2.5293-3.20801Q3.31055-1.40625 4.6875-0.0292969Q6.06445 1.34766 7.86621 2.12891Q9.66797 2.91016 11.709 2.91016ZM11.709 1.25Q9.98047 1.25 8.47656 0.605469Q6.97266-0.0390625 5.83496-1.17676Q4.69727-2.31445 4.05762-3.81836Q3.41797-5.32227 3.41797-7.05078Q3.41797-8.7793 4.05762-10.2832Q4.69727-11.7871 5.83008-12.9297Q6.96289-14.0723 8.4668-14.7119Q9.9707-15.3516 11.6992-15.3516Q13.4277-15.3516 14.9316-14.7119Q16.4355-14.0723 17.5781-12.9297Q18.7207-11.7871 19.3652-10.2832Q20.0098-8.7793 20.0098-7.05078Q20.0098-5.32227 19.3701-3.81836Q18.7305-2.31445 17.5928-1.17676Q16.4551-0.0390625 14.9463 0.605469Q13.4375 1.25 11.709 1.25ZM7.17773-7.05078Q7.17773-6.69922 7.41211-6.47461Q7.64648-6.25 8.01758-6.25L10.8887-6.25L10.8887-3.36914Q10.8887-2.99805 11.1133-2.76855Q11.3379-2.53906 11.6895-2.53906Q12.0605-2.53906 12.29-2.76855Q12.5195-2.99805 12.5195-3.36914L12.5195-6.25L15.4004-6.25Q15.7715-6.25 16.001-6.47461Q16.2305-6.69922 16.2305-7.05078Q16.2305-7.42188 16.001-7.65137Q15.7715-7.88086 15.4004-7.88086L12.5195-7.88086L12.5195-10.752Q12.5195-11.1328 12.29-11.3623Q12.0605-11.5918 11.6895-11.5918Q11.3379-11.5918 11.1133-11.3574Q10.8887-11.123 10.8887-10.752L10.8887-7.88086L8.01758-7.88086Q7.63672-7.88086 7.40723-7.65137Q7.17773-7.42188 7.17773-7.05078Z"/>
  </g>
  <g transform="matrix(1 0 0 1 305.646 1933)">
   <path d="M14.9707 5.66406Q17.0605 5.66406 18.96 5.01465Q20.8594 4.36523 22.4512 3.19336Q24.043 2.02148 25.2197 0.429688Q26.3965-1.16211 27.0459-3.06641Q27.6953-4.9707 27.6953-7.05078Q27.6953-9.14062 27.0459-11.04Q26.3965-12.9395 25.2197-14.5312Q24.043-16.123 22.4512-17.2998Q20.8594-18.4766 18.9551-19.126Q17.0508-19.7754 14.9609-19.7754Q12.8711-19.7754 10.9717-19.126Q9.07227-18.4766 7.48535-17.2998Q5.89844-16.123 4.72168-14.5312Q3.54492-12.9395 2.90039-11.04Q2.25586-9.14062 2.25586-7.05078Q2.25586-4.9707 2.90527-3.06641Q3.55469-1.16211 4.72656 0.429688Q5.89844 2.02148 7.49023 3.19336Q9.08203 4.36523 10.9814 5.01465Q12.8809 5.66406 14.9707 5.66406ZM14.9707 3.84766Q13.1641 3.84766 11.5283 3.2959Q9.89258 2.74414 8.53516 1.74805Q7.17773 0.751953 6.17676-0.610352Q5.17578-1.97266 4.62891-3.6084Q4.08203-5.24414 4.08203-7.05078Q4.08203-8.86719 4.62891-10.5029Q5.17578-12.1387 6.17188-13.501Q7.16797-14.8633 8.52539-15.8594Q9.88281-16.8555 11.5186-17.4023Q13.1543-17.9492 14.9609-17.9492Q16.7773-17.9492 18.4131-17.4023Q20.0488-16.8555 21.4111-15.8594Q22.7734-14.8633 23.7695-13.501Q24.7656-12.1387 25.3174-10.5029Q25.8691-8.86719 25.8691-7.05078Q25.8789-5.24414 25.332-3.6084Q24.7852-1.97266 23.7842-0.610352Q22.7832 0.751953 21.4209 1.74805Q20.0586 2.74414 18.4229 3.2959Q16.7871 3.84766 14.9707 3.84766ZM9.19922-7.05078Q9.19922-6.66992 9.45801-6.4209Q9.7168-6.17188 10.1172-6.17188L14.0625-6.17188L14.0625-2.2168Q14.0625-1.81641 14.3115-1.55762Q14.5605-1.29883 14.9512-1.29883Q15.3516-1.29883 15.6104-1.55273Q15.8691-1.80664 15.8691-2.2168L15.8691-6.17188L19.8242-6.17188Q20.2246-6.17188 20.4785-6.4209Q20.7324-6.66992 20.7324-7.05078Q20.7324-7.46094 20.4785-7.71484Q20.2246-7.96875 19.8242-7.96875L15.8691-7.96875L15.8691-11.9141Q15.8691-12.3242 15.6104-12.583Q15.3516-12.8418 14.9512-12.8418Q14.5605-12.8418 14.3115-12.583Q14.0625-12.3242 14.0625-11.9141L14.0625-7.96875L10.1172-7.96875Q9.70703-7.96875 9.45312-7.71484Q9.19922-7.46094 9.19922-7.05078Z"/>
  </g>
  <text style="stroke:none;fill:black;font-family:sans-serif;font-size:13;font-weight:bold;" transform="matrix(1 0 0 1 263 1953)">Design Variations</text>
  <text style="stroke:none;fill:black;font-family:sans-serif;font-size:13;" transform="matrix(1 0 0 1 263 1971)">Symbols are supported in up to nine weights and three scales.</text>
  <text style="stroke:none;fill:black;font-family:sans-serif;font-size:13;" transform="matrix(1 0 0 1 263 1989)">For optimal layout with text and other symbols, vertically align</text>
  <text style="stroke:none;fill:black;font-family:sans-serif;font-size:13;" transform="matrix(1 0 0 1 263 2007)">symbols with the adjacent text.</text>
  <line style="fill:none;stroke:#00AEEF;stroke-width:0.5;opacity:1.0;" x1="776" x2="776" y1="1919" y2="1933"/>
  <g transform="matrix(1 0 0 1 776 1933)">
   <path d="M3.31055 0.15625Q3.70117 0.15625 3.91602-0.00976562Q4.13086-0.175781 4.26758-0.585938L5.52734-4.0332L11.2891-4.0332L12.5488-0.585938Q12.6855-0.175781 12.9004-0.00976562Q13.1152 0.15625 13.4961 0.15625Q13.8867 0.15625 14.1162-0.0585938Q14.3457-0.273438 14.3457-0.644531Q14.3457-0.869141 14.2383-1.17188L9.6582-13.3691Q9.48242-13.8184 9.17969-14.043Q8.87695-14.2676 8.4082-14.2676Q7.5-14.2676 7.17773-13.3789L2.59766-1.16211Q2.49023-0.859375 2.49023-0.634766Q2.49023-0.263672 2.70996-0.0537109Q2.92969 0.15625 3.31055 0.15625ZM6.00586-5.51758L8.37891-12.0898L8.42773-12.0898L10.8008-5.51758Z"/>
  </g>
  <line style="fill:none;stroke:#00AEEF;stroke-width:0.5;opacity:1.0;" x1="793.197" x2="793.197" y1="1919" y2="1933"/>
  <text style="stroke:none;fill:black;font-family:sans-serif;font-size:13;font-weight:bold;" transform="matrix(1 0 0 1 776 1953)">Margins</text>
  <text style="stroke:none;fill:black;font-family:sans-serif;font-size:13;" transform="matrix(1 0 0 1 776 1971)">Leading and trailing margins on the left and right side of each symbol</text>
  <text style="stroke:none;fill:black;font-family:sans-serif;font-size:13;" transform="matrix(1 0 0 1 776 1989)">can be adjusted by modifying the x-location of the margin guidelines.</text>
  <text style="stroke:none;fill:black;font-family:sans-serif;font-size:13;" transform="matrix(1 0 0 1 776 2007)">Modifications are automatically applied proportionally to all</text>
  <text style="stroke:none;fill:black;font-family:sans-serif;font-size:13;" transform="matrix(1 0 0 1 776 2025)">scales and weights.</text>
  <g transform="matrix(1 0 0 1 1289 1933)">
   <path d="M2.8418 1.86523L4.54102 3.57422Q5.18555 4.22852 5.90332 4.17969Q6.62109 4.13086 7.31445 3.35938L18.0078-8.42773L17.041-9.4043L6.42578 2.27539Q6.16211 2.57812 5.89355 2.61719Q5.625 2.65625 5.27344 2.30469L4.10156 1.14258Q3.75 0.791016 3.79395 0.522461Q3.83789 0.253906 4.14062-0.0195312L15.6152-10.8203L14.6387-11.7871L3.04688-0.898438Q2.30469-0.214844 2.25098 0.498047Q2.19727 1.21094 2.8418 1.86523ZM9.25781-16.3281Q8.94531-16.0254 8.90625-15.6348Q8.86719-15.2441 9.04297-14.9512Q9.21875-14.6777 9.55566-14.541Q9.89258-14.4043 10.3809-14.5215Q11.4746-14.7754 12.5977-14.7314Q13.7207-14.6875 14.7949-13.9844L14.209-12.5293Q13.9551-11.9043 14.0674-11.4404Q14.1797-10.9766 14.5801-10.5664L16.875-8.25195Q17.2363-7.88086 17.5781-7.82227Q17.9199-7.76367 18.3398-7.8418L19.4043-8.03711L20.0684-7.36328L20.0293-6.80664Q20-6.43555 20.1221-6.12305Q20.2441-5.81055 20.6055-5.44922L21.3672-4.70703Q21.7285-4.3457 22.1533-4.33105Q22.5781-4.31641 22.9297-4.66797L25.8398-7.58789Q26.1914-7.93945 26.1816-8.35449Q26.1719-8.76953 25.8105-9.13086L25.0391-9.89258Q24.6875-10.2539 24.3799-10.3857Q24.0723-10.5176 23.7109-10.4883L23.1348-10.4395L22.4902-11.0742L22.7344-12.1973Q22.832-12.6172 22.6953-12.9834Q22.5586-13.3496 22.1191-13.7891L19.9219-15.9766Q18.6719-17.2168 17.2607-17.8369Q15.8496-18.457 14.4189-18.4814Q12.9883-18.5059 11.665-17.959Q10.3418-17.4121 9.25781-16.3281ZM10.752-15.957Q11.6602-16.6211 12.7002-16.9043Q13.7402-17.1875 14.8047-17.085Q15.8691-16.9824 16.8701-16.5137Q17.8711-16.0449 18.7012-15.2051L21.1328-12.793Q21.3086-12.6172 21.3525-12.4512Q21.3965-12.2852 21.3379-12.0312L21.0156-10.5469L22.5195-9.0625L23.5059-9.12109Q23.6914-9.13086 23.7891-9.09668Q23.8867-9.0625 24.0332-8.91602L24.6094-8.33984L22.168-5.89844L21.5918-6.47461Q21.4453-6.62109 21.4062-6.71875Q21.3672-6.81641 21.377-7.01172L21.4453-7.98828L19.9512-9.47266L18.4277-9.21875Q18.1836-9.16992 18.042-9.2041Q17.9004-9.23828 17.7148-9.41406L15.7129-11.416Q15.5176-11.5918 15.4932-11.7529Q15.4688-11.9141 15.5859-12.1875L16.4648-14.2773Q15.293-15.3711 13.8281-15.791Q12.3633-16.2109 10.8398-15.7617Q10.7227-15.7324 10.6885-15.8057Q10.6543-15.8789 10.752-15.957Z"/>
  </g>
  <text style="stroke:none;fill:black;font-family:sans-serif;font-size:13;font-weight:bold;" transform="matrix(1 0 0 1 1289 1953)">Exporting</text>
  <text style="stroke:none;fill:black;font-family:sans-serif;font-size:13;" transform="matrix(1 0 0 1 1289 1971)">Symbols should be outlined when exporting to ensure the</text>
  <text style="stroke:none;fill:black;font-family:sans-serif;font-size:13;" transform="matrix(1 0 0 1 1289 1989)">design is preserved when submitting to Xcode.</text>
  <text id="template-version" style="stroke:none;fill:black;font-family:sans-serif;font-size:13;text-anchor:end;" transform="matrix(1 0 0 1 3036 1933)">Template v.3.0</text>
  <text style="stroke:none;fill:black;font-family:sans-serif;font-size:13;text-anchor:end;" transform="matrix(1 0 0 1 3036 1951)">Requires Xcode 13 or greater</text>
  <text id="descriptive-name" style="stroke:none;fill:black;font-family:sans-serif;font-size:13;text-anchor:end;" transform="matrix(1 0 0 1 3036 1969)">Generated from arrow.up.arrow.down</text>
  <text style="stroke:none;fill:black;font-family:sans-serif;font-size:13;text-anchor:end;" transform="matrix(1 0 0 1 3036 1987)">Typeset at 100 points</text>
  <text style="stroke:none;fill:black;font-family:sans-serif;font-size:13;" transform="matrix(1 0 0 1 263 726)">Small</text>
  <text style="stroke:none;fill:black;font-family:sans-serif;font-size:13;" transform="matrix(1 0 0 1 263 1156)">Medium</text>
  <text style="stroke:none;fill:black;font-family:sans-serif;font-size:13;" transform="matrix(1 0 0 1 263 1586)">Large</text>
 </g>
 <g id="Guides">
  <g id="H-reference" style="fill:#27AAE1;stroke:none;" transform="matrix(1 0 0 1 339 696)">
   <path d="M0.976562 0L3.66211 0L29.3457-67.1387L30.0293-67.1387L30.0293-70.459L28.125-70.459ZM11.6699-24.4629L46.9727-24.4629L46.2402-26.709L12.4512-26.709ZM55.127 0L57.7637 0L30.6152-70.459L29.4434-70.459L29.4434-67.1387Z"/>
  </g>
  <line id="Baseline-S" style="fill:none;stroke:#27AAE1;opacity:1;stroke-width:0.5;" x1="263" x2="3036" y1="696" y2="696"/>
  <line id="Capline-S" style="fill:none;stroke:#27AAE1;opacity:1;stroke-width:0.5;" x1="263" x2="3036" y1="625.541" y2="625.541"/>
  <g id="H-reference" style="fill:#27AAE1;stroke:none;" transform="matrix(1 0 0 1 339 1126)">
   <path d="M0.976562 0L3.66211 0L29.3457-67.1387L30.0293-67.1387L30.0293-70.459L28.125-70.459ZM11.6699-24.4629L46.9727-24.4629L46.2402-26.709L12.4512-26.709ZM55.127 0L57.7637 0L30.6152-70.459L29.4434-70.459L29.4434-67.1387Z"/>
  </g>
  <line id="Baseline-M" style="fill:none;stroke:#27AAE1;opacity:1;stroke-width:0.5;" x1="263" x2="3036" y1="1126" y2="1126"/>
  <line id="Capline-M" style="fill:none;stroke:#27AAE1;opacity:1;stroke-width:0.5;" x1="263" x2="3036" y1="1055.54" y2="1055.54"/>
  <g id="H-reference" style="fill:#27AAE1;stroke:none;" transform="matrix(1 0 0 1 339 1556)">
   <path d="M0.976562 0L3.66211 0L29.3457-67.1387L30.0293-67.1387L30.0293-70.459L28.125-70.459ZM11.6699-24.4629L46.9727-24.4629L46.2402-26.709L12.4512-26.709ZM55.127 0L57.7637 0L30.6152-70.459L29.4434-70.459L29.4434-67.1387Z"/>
  </g>
  <line id="Baseline-L" style="fill:none;stroke:#27AAE1;opacity:1;stroke-width:0.5;" x1="263" x2="3036" y1="1556" y2="1556"/>
  <line id="Capline-L" style="fill:none;stroke:#27AAE1;opacity:1;stroke-width:0.5;" x1="263" x2="3036" y1="1485.54" y2="1485.54"/>
  <line id="left-margin-Regular-M" style="fill:none;stroke:#00AEEF;stroke-width:0.5;opacity:1.0;" x1="1380.25" x2="1380.25" y1="1030.79" y2="1150.12"/>
  <line id="right-margin-Regular-M" style="fill:none;stroke:#00AEEF;stroke-width:0.5;opacity:1.0;" x1="1519.44" x2="1519.44" y1="1030.79" y2="1150.12"/>
 </g>
 <g id="Symbols">
  <g id="Black-L" transform="matrix(1 0 0 1 2836.86 1556)">
   <path d="M50.7638-94.5211L19.1265-61.9587Q16.084-58.9162 16.084-54.6929Q16.084-50.3127 18.9138-47.4829Q21.7436-44.653 26.1239-44.653Q30.4225-44.653 33.1315-47.536L45.6389-60.6363L48.2905-63.8112L48.1001-53.9238L48.1001 17.1958Q48.1001 21.5748 51.0091 24.4747Q53.918 27.3745 58.2204 27.3745Q62.5799 27.3745 65.459 24.4747Q68.3381 21.5748 68.3381 17.1958L68.3381-53.9238L68.1503-63.8112L70.8006-60.6363L83.3093-47.536Q86.0171-44.653 90.3157-44.653Q94.6959-44.653 97.5264-47.4829Q100.357-50.3127 100.357-54.6929Q100.357-58.9162 97.313-61.9587L65.6977-94.5211Q62.5799-97.7557 58.2308-97.7667Q53.8816-97.7777 50.7638-94.5211ZM142.311 24.1179L173.949-8.50285Q176.991-11.5454 176.991-15.7686Q176.991-20.1489 174.15-22.9787Q171.31-25.8085 166.95-25.8085Q162.632-25.8085 159.944-22.9243L147.436-9.82525L144.785-6.67105L144.953-16.5377L144.953-87.6574Q144.953-92.0156 142.084-94.8856Q139.216-97.7557 134.855-97.7557Q130.533-97.7557 127.635-94.8856Q124.737-92.0156 124.737-87.6574L124.737-16.5377L124.925-6.67105L122.254-9.82525L109.745-22.9243Q107.058-25.8085 102.737-25.8085Q98.3793-25.8085 95.5488-22.9787Q92.7183-20.1489 92.7183-15.7686Q92.7183-11.5454 95.7609-8.50285L127.377 24.1179Q130.475 27.3745 134.834 27.3849Q139.194 27.3953 142.311 24.1179Z"/>
  </g>
  <g id="Heavy-L" transform="matrix(1 0 0 1 2541.9 1556)">
   <path d="M50.4963-93.9955L18.8072-61.4617Q16.084-58.7385 16.084-54.9829Q16.084-51.0845 18.5852-48.5833Q21.0864-46.0821 24.9848-46.0821Q28.7702-46.0821 31.2107-48.6504L43.9418-61.9231L48.4193-67.1688L48.1334-56.2048L48.1334 17.4478Q48.1334 21.3401 50.709 23.9068Q53.2845 26.4736 57.1146 26.4736Q60.9832 26.4736 63.5335 23.9068Q66.0837 21.3401 66.0837 17.4478L66.0837-56.2048L65.8098-67.1688L70.2814-61.9231L83.0185-48.6504Q85.453-46.0821 89.2383-46.0821Q93.1367-46.0821 95.6409-48.5833Q98.1452-51.0845 98.1452-54.9829Q98.1452-58.7385 95.416-61.4617L63.7627-93.9955Q60.9832-96.8642 57.1295-96.8821Q53.2757-96.9 50.4963-93.9955ZM139.078 23.5691L170.767-9.00938Q173.49-11.7325 173.49-15.4882Q173.49-19.3866 170.971-21.8878Q168.452-24.389 164.583-24.389Q160.774-24.389 158.363-21.8146L145.632-8.54798L141.155-3.33198L141.405-14.2663L141.405-87.9188Q141.405-91.7814 138.869-94.3228Q136.334-96.8642 132.459-96.8642Q128.606-96.8642 126.048-94.3228Q123.49-91.7814 123.49-87.9188L123.49-14.2663L123.764-3.33198L119.263-8.54798L106.526-21.8146Q104.121-24.389 100.3-24.389Q96.4372-24.389 93.933-21.8878Q91.4288-19.3866 91.4288-15.4882Q91.4288-11.7325 94.152-9.00938L125.811 23.5691Q128.561 26.4736 132.43 26.4885Q136.298 26.5034 139.078 23.5691Z"/>
  </g>
  <g id="Bold-L" transform="matrix(1 0 0 1 2247.45 1556)">
   <path d="M50.1768-93.2897L18.4068-60.8049Q16.084-58.4822 16.084-55.3158Q16.084-52.0313 18.173-49.9423Q20.262-47.8533 23.5465-47.8533Q26.6973-47.8533 28.8001-50.0295L41.9252-63.6244L48.5663-71.2471L48.1907-59.1363L48.1907 17.7152Q48.1907 20.9855 50.3459 23.1364Q52.5011 25.2873 55.7336 25.2873Q58.9812 25.2873 61.1146 23.1364Q63.2481 20.9855 63.2481 17.7152L63.2481-59.1363L62.901-71.2471L69.5278-63.6244L82.6672-50.0295Q84.7557-47.8533 87.9065-47.8533Q91.1911-47.8533 93.2872-49.9423Q95.3833-52.0313 95.3833-55.3158Q95.3833-58.4822 93.0463-60.8049L61.3274-93.2897Q58.9812-95.6943 55.7521-95.72Q52.5231-95.7456 50.1768-93.2897ZM134.879 22.8314L166.649-9.68249Q168.972-12.0053 168.972-15.1716Q168.972-18.4561 166.857-20.5451Q164.743-22.6341 161.495-22.6341Q158.322-22.6341 156.256-20.4438L143.131-6.86301L136.49 0.722723L136.814-11.3512L136.814-88.2026Q136.814-91.4359 134.699-93.5651Q132.584-95.6943 129.322-95.6943Q126.067-95.6943 123.937-93.5651Q121.808-91.4359 121.808-88.2026L121.808-11.3512L122.155 0.722723L115.491-6.86301L102.352-20.4438Q100.3-22.6341 97.0981-22.6341Q93.8648-22.6341 91.7686-20.5451Q89.6725-18.4561 89.6725-15.1716Q89.6725-12.0053 91.9953-9.68249L123.728 22.8314Q126.038 25.2873 129.285 25.3058Q132.533 25.3243 134.879 22.8314Z"/>
  </g>
  <g id="Semibold-L" transform="matrix(1 0 0 1 1952.3 1556)">
   <path d="M49.9566-92.803L18.1307-60.3522Q16.084-58.3055 16.084-55.5454Q16.084-52.684 17.8888-50.8792Q19.6936-49.0744 22.555-49.0744Q25.2683-49.0744 27.1382-50.9801L40.5351-64.7973L48.6676-74.0587L48.2302-61.1572L48.2302 17.8996Q48.2302 20.741 50.0956 22.6053Q51.961 24.4695 54.7816 24.4695Q57.601 24.4695 59.4471 22.6053Q61.2933 20.741 61.2933 17.8996L61.2933-61.1572L60.8956-74.0587L69.0083-64.7973L82.425-50.9801Q84.2751-49.0744 86.9884-49.0744Q89.8497-49.0744 91.6645-50.8792Q93.4792-52.684 93.4792-55.5454Q93.4792-58.3055 91.4126-60.3522L59.6486-92.803Q57.601-94.8878 54.8026-94.9188Q52.0042-94.9497 49.9566-92.803ZM131.984 22.3229L163.81-10.1465Q165.857-12.1933 165.857-14.9534Q165.857-17.8147 164.021-19.6195Q162.186-21.4243 159.366-21.4243Q156.631-21.4243 154.803-19.4987L141.406-5.70141L133.273 3.51801L133.649-9.34152L133.649-88.3983Q133.649-91.1978 131.824-93.0428Q129.999-94.8878 127.159-94.8878Q124.317-94.8878 122.482-93.0428Q120.648-91.1978 120.648-88.3983L120.648-9.34152L121.045 3.51801L112.891-5.70141L99.474-19.4987Q97.6659-21.4243 94.8908-21.4243Q92.0913-21.4243 90.2765-19.6195Q88.4618-17.8147 88.4618-14.9534Q88.4618-12.1933 90.5085-10.1465L122.292 22.3229Q124.298 24.4695 127.117 24.4905Q129.937 24.5115 131.984 22.3229Z"/>
  </g>
  <g id="Medium-L" transform="matrix(1 0 0 1 1656.77 1556)">
   <path d="M49.7896-92.434L17.9214-60.0089Q16.084-58.1715 16.084-55.7194Q16.084-53.1789 17.6733-51.5896Q19.2627-50.0003 21.8031-50.0003Q24.1847-50.0003 25.8781-51.701L39.481-65.6867L48.7444-76.1906L48.2602-62.6896L48.2602 18.0394Q48.2602 20.5557 49.9058 22.2025Q51.5514 23.8494 54.0598 23.8494Q56.5545 23.8494 58.1827 22.2025Q59.811 20.5557 59.811 18.0394L59.811-62.6896L59.3751-76.1906L68.6144-65.6867L82.2414-51.701Q83.9106-50.0003 86.2922-50.0003Q88.8327-50.0003 90.4341-51.5896Q92.0355-53.1789 92.0355-55.7194Q92.0355-58.1715 90.1739-60.0089L58.3757-92.434Q56.5545-94.2763 54.0826-94.3113Q51.6108-94.3462 49.7896-92.434ZM129.79 21.9373L161.658-10.4984Q163.495-12.3358 163.495-14.7879Q163.495-17.3283 161.871-18.9177Q160.247-20.507 157.752-20.507Q155.349-20.507 153.701-18.7821L140.098-4.82063L130.835 5.63751L131.249-7.81772L131.249-88.5466Q131.249-91.0172 129.644-92.6467Q128.038-94.2763 125.52-94.2763Q122.99-94.2763 121.379-92.6467Q119.768-91.0172 119.768-88.5466L119.768-7.81772L120.204 5.63751L110.919-4.82063L97.2921-18.7821Q95.6686-20.507 93.2171-20.507Q90.7466-20.507 89.1452-18.9177Q87.5437-17.3283 87.5437-14.7879Q87.5437-12.3358 89.3812-10.4984L121.204 21.9373Q122.979 23.8494 125.474 23.8723Q127.968 23.8952 129.79 21.9373Z"/>
  </g>
  <g id="Regular-L" transform="matrix(1 0 0 1 1361.6 1556)">
   <path d="M49.5718-91.9528L17.6484-59.5611Q16.084-57.9967 16.084-55.9464Q16.084-53.8245 17.3923-52.5162Q18.7006-51.2079 20.8225-51.2079Q22.7714-51.2079 24.2345-52.6412L38.1061-66.8467L48.8446-78.9712L48.2993-64.6883L48.2993 18.2217Q48.2993 20.3139 49.6583 21.6772Q51.0172 23.0406 53.1182 23.0406Q55.1894 23.0406 56.5335 21.6772Q57.8776 20.3139 57.8776 18.2217L57.8776-64.6883L57.3918-78.9712L68.1006-66.8467L82.0019-52.6412Q83.4353-51.2079 85.3842-51.2079Q87.5061-51.2079 88.8293-52.5162Q90.1524-53.8245 90.1524-55.9464Q90.1524-57.9967 88.5583-59.5611L56.7153-91.9528Q55.1894-93.4786 53.1435-93.5189Q51.0976-93.5591 49.5718-91.9528ZM126.927 21.4343L158.85-10.9573Q160.415-12.5218 160.415-14.572Q160.415-16.694 159.066-18.0022Q157.718-19.3105 155.646-19.3105Q153.677-19.3105 152.264-17.8475L138.393-3.6718L127.654 8.40208L128.119-5.83015L128.119-88.7402Q128.119-90.7816 126.8-92.1301Q125.481-93.4786 123.381-93.4786Q121.259-93.4786 119.94-92.1301Q118.621-90.7816 118.621-88.7402L118.621-5.83015L119.107 8.40208L108.347-3.6718L94.4461-17.8475Q93.0634-19.3105 91.0341-19.3105Q88.9926-19.3105 87.6694-18.0022Q86.3463-16.694 86.3463-14.572Q86.3463-12.5218 87.9107-10.9573L119.783 21.4343Q121.259 23.0406 123.33 23.0659Q125.401 23.0913 126.927 21.4343Z"/>
  </g>
  <g id="Light-L" transform="matrix(1 0 0 1 1067.03 1556)">
   <path d="M49.4281-91.1114L17.3406-58.8429Q16.084-57.5863 16.084-56.008Q16.084-54.4196 17.0742-53.4294Q18.0644-52.4392 19.6527-52.4392Q21.1707-52.4392 22.367-53.5853L37.2647-68.7142L48.8652-81.2697L48.4429-67.3972L48.4429 18.1191Q48.4429 19.6572 49.4633 20.7127Q50.4837 21.7682 52.0921 21.7682Q53.6503 21.7682 54.6455 20.7127Q55.6407 19.6572 55.6407 18.1191L55.6407-67.3972L55.319-81.2697L66.8693-68.7142L81.8172-53.5853Q82.9632-52.4392 84.4812-52.4392Q86.0696-52.4392 87.0849-53.4294Q88.1002-54.4196 88.1002-56.008Q88.1002-57.5863 86.7934-58.8429L54.7863-91.1114Q53.6503-92.2473 52.1072-92.2875Q50.5641-92.3278 49.4281-91.1114ZM122.781 20.5519L154.869-11.7166Q156.126-12.9732 156.126-14.5515Q156.126-16.1399 155.095-17.1301Q154.065-18.1203 152.507-18.1203Q151.009-18.1203 149.843-16.924L134.945-1.84534L123.344 10.68L123.686-3.1623L123.686-88.6786Q123.686-90.1865 122.706-91.2169Q121.726-92.2473 120.118-92.2473Q118.529-92.2473 117.549-91.2169Q116.569-90.1865 116.569-88.6786L116.569-3.1623L116.891 10.68L105.31-1.84534L90.3622-16.924Q89.2464-18.1203 87.648-18.1203Q86.1401-18.1203 85.1247-17.1301Q84.1094-16.1399 84.1094-14.5515Q84.1094-12.9732 85.366-11.7166L117.423 20.5519Q118.529 21.7682 120.087 21.7833Q121.646 21.7984 122.781 20.5519Z"/>
  </g>
  <g id="Thin-L" transform="matrix(1 0 0 1 773.154 1556)">
   <path d="M49.2381-89.9985L16.9334-57.8929Q16.084-57.0434 16.084-56.0894Q16.084-55.2068 16.6535-54.6373Q17.223-54.0678 18.1056-54.0678Q19.0536-54.0678 19.897-54.8338L36.1518-71.1841L48.8923-84.3096L48.6329-70.9799L48.6329 17.9834Q48.6329 18.7886 49.2054 19.437Q49.778 20.0854 50.735 20.0854Q51.6146 20.0854 52.1485 19.437Q52.6823 18.7886 52.6823 17.9834L52.6823-70.9799L52.5777-84.3096L65.2408-71.1841L81.573-54.8338Q82.339-54.0678 83.287-54.0678Q84.1696-54.0678 84.7778-54.6373Q85.386-55.2068 85.386-56.0894Q85.386-57.0434 84.4592-57.8929L52.2349-89.9985Q51.6146-90.6188 50.7365-90.659Q49.8584-90.6992 49.2381-89.9985ZM117.299 19.3848L149.603-12.7209Q150.453-13.5704 150.453-14.5244Q150.453-15.407 149.843-15.9765Q149.234-16.546 148.354-16.546Q147.48-16.546 146.64-15.7026L130.385 0.570293L117.645 13.6928L117.824 0.366159L117.824-88.5972Q117.824-89.3994 117.291-90.0091Q116.759-90.6188 115.802-90.6188Q114.919-90.6188 114.387-90.0091Q113.855-89.3994 113.855-88.5972L113.855 0.366159L113.959 13.6928L101.293 0.570293L84.961-15.7026Q84.198-16.546 83.1696-16.546Q82.3673-16.546 81.7591-15.9765Q81.1509-15.407 81.1509-14.5244Q81.1509-13.5704 82.0004-12.7209L114.302 19.3848Q114.919 20.0854 115.799 20.087Q116.679 20.0885 117.299 19.3848Z"/>
  </g>
  <g id="Ultralight-L" transform="matrix(1 0 0 1 477.895 1556)">
   <path d="M49.1408-89.4286L16.7249-57.4063Q16.084-56.7654 16.084-56.1311Q16.084-55.6099 16.438-55.2559Q16.792-54.9019 17.3132-54.9019Q17.9693-54.9019 18.632-55.4733L35.5819-72.4492L48.9062-85.8666L48.7302-72.815L48.7302 17.9139Q48.7302 18.3438 49.0734 18.7836Q49.4165 19.2235 50.0399 19.2235Q50.572 19.2235 50.8695 18.7836Q51.167 18.3438 51.167 17.9139L51.167-72.815L51.1736-85.8666L64.4066-72.4492L81.4478-55.4733Q82.0192-54.9019 82.6753-54.9019Q83.1965-54.9019 83.5962-55.2559Q83.9958-55.6099 83.9958-56.1311Q83.9958-56.7654 83.2636-57.4063L50.9281-89.4286Q50.572-89.7847 50.0345-89.8249Q49.4969-89.8651 49.1408-89.4286ZM114.491 18.787L146.907-13.2353Q147.547-13.8762 147.547-14.5105Q147.547-15.0317 147.153-15.3857Q146.759-15.7397 146.227-15.7397Q145.673-15.7397 144.999-15.077L128.05 1.80757L114.725 15.2359L114.821 2.17342L114.821-88.5555Q114.821-88.9962 114.518-89.3905Q114.215-89.7847 113.592-89.7847Q113.07-89.7847 112.767-89.3905Q112.464-88.9962 112.464-88.5555L112.464 2.17342L112.458 15.2359L99.2357 1.80757L82.1945-15.077Q81.6122-15.7397 80.8757-15.7397Q80.4349-15.7397 80.0353-15.3857Q79.6356-15.0317 79.6356-14.5105Q79.6356-13.8762 80.2765-13.2353L112.703 18.787Q113.07 19.2235 113.602 19.2181Q114.134 19.2126 114.491 18.787Z"/>
  </g>
  <g id="Black-M" transform="matrix(1 0 0 1 2857.39 1126)">
   <path d="M39.5394-81.5028L15.0509-56.2676Q12.4609-53.6777 12.4609-50.0678Q12.4609-46.3324 14.8926-43.9007Q17.3243-41.469 21.0597-41.469Q24.7728-41.469 27.0662-43.934L36.703-54.0604L37.3048-54.7988L37.2561-48.1195L37.2561 5.15618Q37.2561 8.89187 39.7504 11.3831Q42.2447 13.8744 45.9172 13.8744Q49.647 13.8744 52.113 11.3831Q54.5789 8.89187 54.5789 5.15618L54.5789-48.1195L54.5296-54.7988L55.1317-54.0604L64.7682-43.934Q67.0619-41.469 70.7749-41.469Q74.5103-41.469 76.9419-43.9007Q79.3734-46.3324 79.3734-50.0678Q79.3734-53.6777 76.7838-56.2676L52.3005-81.5028Q49.647-84.2704 45.9199-84.273Q42.1928-84.2757 39.5394-81.5028ZM112.472 11.1015L136.961-14.1908Q139.55-16.7807 139.55-20.3906Q139.55-24.126 137.116-26.5577Q134.682-28.9894 130.952-28.9894Q127.233-28.9894 124.945-26.5247L115.308-16.398L114.707-15.6651L114.75-22.3389L114.75-75.6146Q114.75-79.3447 112.287-81.8076Q109.824-84.2704 106.094-84.2704Q102.416-84.2704 99.9242-81.8076Q97.4325-79.3447 97.4325-75.6146L97.4325-22.3389L97.4818-15.6651L96.8742-16.398L87.2377-26.5247Q84.9495-28.9894 81.2313-28.9894Q77.5011-28.9894 75.0695-26.5577Q72.638-24.126 72.638-20.3906Q72.638-16.7807 75.2279-14.1908L99.7109 11.1015Q102.359 13.8744 106.089 13.8771Q109.819 13.8799 112.472 11.1015Z"/>
  </g>
  <g id="Heavy-M" transform="matrix(1 0 0 1 2562.2 1126)">
   <path d="M39.2911-81.0667L14.7671-55.848Q12.4609-53.5418 12.4609-50.3455Q12.4609-47.032 14.6007-44.8922Q16.7405-42.7524 20.0541-42.7524Q23.3052-42.7524 25.3607-44.9363L35.1215-55.146L37.4288-57.869L37.2753-50.0994L37.2753 5.41192Q37.2753 8.72304 39.475 10.917Q41.6746 13.111 44.9308 13.111Q48.2281 13.111 50.4048 10.917Q52.5814 8.72304 52.5814 5.41192L52.5814-50.0994L52.4328-57.869L54.7376-55.146L64.5009-44.9363Q66.554-42.7524 69.805-42.7524Q73.1186-42.7524 75.2596-44.8922Q77.4007-47.032 77.4007-50.3455Q77.4007-53.5418 75.0921-55.848L50.5868-81.0667Q48.2281-83.5126 44.9389-83.5219Q41.6497-83.5313 39.2911-81.0667ZM109.693 10.6464L134.217-14.6159Q136.523-16.922 136.523-20.1183Q136.523-23.4319 134.374-25.5717Q132.225-27.7115 128.928-27.7115Q125.663-27.7115 123.624-25.5251L113.863-15.3179L111.556-12.6111L111.69-20.3645L111.69-75.8758Q111.69-79.1707 109.522-81.3416Q107.353-83.5126 104.054-83.5126Q100.784-83.5126 98.5933-81.3416Q96.403-79.1707 96.403-75.8758L96.403-20.3645L96.5516-12.6111L94.2305-15.3179L84.4673-25.5251Q82.4304-27.7115 79.1607-27.7115Q75.8658-27.7115 73.7248-25.5717Q71.5837-23.4319 71.5837-20.1183Q71.5837-16.922 73.8899-14.6159L98.3976 10.6464Q100.74 13.111 104.037 13.1191Q107.335 13.1273 109.693 10.6464Z"/>
  </g>
  <g id="Bold-M" transform="matrix(1 0 0 1 2267.18 1126)">
   <path d="M39.0133-80.5788L14.4496-55.3786Q12.4609-53.3899 12.4609-50.6562Q12.4609-47.8146 14.2742-46.0013Q16.0875-44.188 18.9292-44.188Q21.6634-44.188 23.4529-46.0576L33.3524-56.3604L37.5675-61.3035L37.2968-52.3142L37.2968 5.69802Q37.2968 8.53419 39.1669 10.3956Q41.037 12.2571 43.8274 12.2571Q46.6408 12.2571 48.4939 10.3956Q50.3469 8.53419 50.3469 5.69802L50.3469-52.3142L50.0873-61.3035L54.2969-56.3604L64.2019-46.0576Q65.9858-44.188 68.7201-44.188Q71.5618-44.188 73.3778-46.0013Q75.1939-47.8146 75.1939-50.6562Q75.1939-53.3899 73.1997-55.3786L48.6697-80.5788Q46.6408-82.6648 43.8415-82.6817Q41.0422-82.6986 39.0133-80.5788ZM106.585 10.1374L131.149-15.0915Q133.137-17.0801 133.137-19.8138Q133.137-22.6555 131.307-24.4687Q129.477-26.282 126.664-26.282Q123.907-26.282 122.145-24.4069L112.246-14.1096L108.031-9.19475L108.268-18.1559L108.268-76.168Q108.268-78.976 106.429-80.8204Q104.59-82.6648 101.771-82.6648Q98.9577-82.6648 97.1045-80.8204Q95.2513-78.976 95.2513-76.168L95.2513-18.1559L95.511-9.19475L91.2731-14.1096L81.3681-24.4069Q79.6124-26.282 76.8444-26.282Q74.0365-26.282 72.2204-24.4687Q70.4044-22.6555 70.4044-19.8138Q70.4044-17.0801 72.3931-15.0915L96.9285 10.1374Q98.9292 12.2571 101.743 12.2712Q104.556 12.2853 106.585 10.1374Z"/>
  </g>
  <g id="Semibold-M" transform="matrix(1 0 0 1 1971.63 1126)">
   <path d="M38.8218-80.2425L14.2308-55.055Q12.4609-53.2851 12.4609-50.8704Q12.4609-48.3541 14.0491-46.7659Q15.6373-45.1777 18.1537-45.1777Q20.5317-45.1777 22.1377-46.8306L32.1328-57.1976L37.6632-63.6712L37.3117-53.841L37.3117 5.89525Q37.3117 8.40399 38.9545 10.0362Q40.5974 11.6684 43.0667 11.6684Q45.5466 11.6684 47.1765 10.0362Q48.8065 8.40399 48.8065 5.89525L48.8065-53.841L48.4703-63.6712L53.993-57.1976L63.9957-46.8306Q65.5941-45.1777 67.9721-45.1777Q70.4885-45.1777 72.0805-46.7659Q73.6725-48.3541 73.6725-50.8704Q73.6725-53.2851 71.895-55.055L47.3482-80.2425Q45.5466-82.0804 43.085-82.1025Q40.6233-82.1245 38.8218-80.2425ZM104.442 9.7864L129.033-15.4193Q130.803-17.1891 130.803-19.6038Q130.803-22.1202 129.193-23.7084Q127.582-25.2966 125.103-25.2966Q122.696-25.2966 121.126-23.6361L111.131-13.2766L105.601-6.83953L105.908-16.6333L105.908-76.3695Q105.908-78.8417 104.296-80.4611Q102.685-82.0804 100.197-82.0804Q97.6989-82.0804 96.0781-80.4611Q94.4574-78.8417 94.4574-76.3695L94.4574-16.6333L94.7936-6.83953L89.2344-13.2766L79.2316-23.6361Q77.6697-25.2966 75.2476-25.2966Q72.7753-25.2966 71.1833-23.7084Q69.5914-22.1202 69.5914-19.6038Q69.5914-17.1891 71.3612-15.4193L95.9157 9.7864Q97.6808 11.6684 100.161 11.6867Q102.641 11.7049 104.442 9.7864Z"/>
  </g>
  <g id="Medium-M" transform="matrix(1 0 0 1 1675.81 1126)">
   <path d="M38.6766-79.9875L14.0648-54.8096Q12.4609-53.2057 12.4609-51.0328Q12.4609-48.7631 13.8784-47.3456Q15.2959-45.9282 17.5656-45.9282Q19.6735-45.9282 21.1404-47.4167L31.208-57.8324L37.7357-65.4666L37.3229-54.9987L37.3229 6.04479Q37.3229 8.30527 38.7935 9.76367Q40.264 11.2221 42.4899 11.2221Q44.7169 11.2221 46.1777 9.76367Q47.6384 8.30527 47.6384 6.04479L47.6384-54.9987L47.2442-65.4666L53.7626-57.8324L63.8395-47.4167Q65.2971-45.9282 67.405-45.9282Q69.6747-45.9282 71.0968-47.3456Q72.5189-48.7631 72.5189-51.0328Q72.5189-53.2057 70.9058-54.8096L46.3461-79.9875Q44.7169-81.6372 42.5113-81.6633Q40.3058-81.6893 38.6766-79.9875ZM102.817 9.52029L127.429-15.6679Q129.033-17.2718 129.033-19.4446Q129.033-21.7144 127.589-23.1318Q126.146-24.5493 123.919-24.5493Q121.778-24.5493 120.353-23.0516L110.286-12.645L103.758-5.0537L104.119-15.4787L104.119-76.5223Q104.119-78.74 102.679-80.1886Q101.24-81.6372 99.0039-81.6372Q96.7444-81.6372 95.2999-80.1886Q93.8554-78.74 93.8554-76.5223L93.8554-15.4787L94.2496-5.0537L87.6885-12.645L77.6116-23.0516Q76.1967-24.5493 74.0368-24.5493Q71.8191-24.5493 70.397-23.1318Q68.9749-21.7144 68.9749-19.4446Q68.9749-17.2718 70.5788-15.6679L95.1477 9.52029Q96.7342 11.2221 98.9611 11.2435Q101.188 11.2648 102.817 9.52029Z"/>
  </g>
  <g id="Regular-M" transform="matrix(1 0 0 1 1380.25 1126)">
   <path d="M38.4872-79.6549L13.8484-54.4895Q12.4609-53.1021 12.4609-51.2447Q12.4609-49.2967 13.6558-48.1018Q14.8506-46.907 16.7986-46.907Q18.5541-46.907 19.8396-48.1812L30.0018-58.6604L37.8303-67.8083L37.3376-56.5088L37.3376 6.23986Q37.3376 8.1765 38.5834 9.40818Q39.8292 10.6399 41.7376 10.6399Q43.6347 10.6399 44.8748 9.40818Q46.1149 8.1765 46.1149 6.23986L46.1149-56.5088L45.6449-67.8083L53.4621-58.6604L63.6356-48.1812Q64.9098-46.907 66.6653-46.907Q68.6133-46.907 69.8138-48.1018Q71.0143-49.2967 71.0143-51.2447Q71.0143-53.1021 69.6155-54.4895L45.039-79.6549Q43.6347-81.0592 41.7631-81.0904Q39.8915-81.1215 38.4872-79.6549ZM100.698 9.17319L125.337-15.9921Q126.724-17.3796 126.724-19.237Q126.724-21.185 125.498-22.3798Q124.272-23.5747 122.375-23.5747Q120.58-23.5747 119.345-22.2892L109.183-11.8212L101.355-2.72436L101.785-13.9729L101.785-76.7215Q101.785-78.6072 100.571-79.8332Q99.3558-81.0592 97.4475-81.0592Q95.4995-81.0592 94.2848-79.8332Q93.0702-78.6072 93.0702-76.7215L93.0702-13.9729L93.5401-2.72436L85.6721-11.8212L75.4985-22.2892Q74.2753-23.5747 72.4575-23.5747Q70.5718-23.5747 69.3713-22.3798Q68.1708-21.185 68.1708-19.237Q68.1708-17.3796 69.5582-15.9921L94.1461 9.17319Q95.4995 10.6399 97.3965 10.6653Q99.2935 10.6908 100.698 9.17319Z"/>
  </g>
  <g id="Light-M" transform="matrix(1 0 0 1 1085.46 1126)">
   <path d="M38.3584-78.9005L13.5724-53.8456Q12.4609-52.7341 12.4609-51.2999Q12.4609-49.8303 13.3706-48.9206Q14.2803-48.0109 15.7499-48.0109Q17.119-48.0109 18.1653-49.0275L29.2475-60.3348L37.8487-69.869L37.4664-58.9375L37.4664 6.14786Q37.4664 7.58773 38.4086 8.54342Q39.3509 9.49912 40.8177 9.49912Q42.2547 9.49912 43.1821 8.54342Q44.1094 7.58773 44.1094 6.14786L44.1094-58.9375L43.7866-69.869L52.3581-60.3348L63.47-49.0275Q64.4866-48.0109 65.8557-48.0109Q67.3253-48.0109 68.2499-48.9206Q69.1744-49.8303 69.1744-51.2999Q69.1744-52.7341 68.0332-53.8456L43.3095-78.9005Q42.2547-79.9553 40.8339-79.9864Q39.4132-80.0176 38.3584-78.9005ZM96.9813 8.38203L121.767-16.6729Q122.879-17.7844 122.879-19.2186Q122.879-20.6882 121.938-21.5979Q120.997-22.5075 119.56-22.5075Q118.188-22.5075 117.174-21.4612L106.092-10.1837L97.491-0.682075L97.811-11.581L97.811-76.6663Q97.811-78.0736 96.8999-79.0145Q95.9888-79.9553 94.522-79.9553Q93.0524-79.9553 92.1413-79.0145Q91.2303-78.0736 91.2303-76.6663L91.2303-11.581L91.553-0.682075L82.949-10.1837L71.8371-21.4612Q70.8531-22.5075 69.4217-22.5075Q68.0144-22.5075 67.0898-21.5979Q66.1653-20.6882 66.1653-19.2186Q66.1653-17.7844 67.2767-16.6729L92.0302 8.38203Q93.0524 9.49912 94.4895 9.5154Q95.9265 9.53168 96.9813 8.38203Z"/>
  </g>
  <g id="Thin-M" transform="matrix(1 0 0 1 791.295 1126)">
   <path d="M38.1881-77.9028L13.2074-52.9939Q12.4609-52.2474 12.4609-51.3729Q12.4609-50.536 12.9934-50.0035Q13.5259-49.471 14.3628-49.471Q15.2209-49.471 15.9509-50.1469L28.2498-62.5492L37.873-72.5944L37.6368-62.1496L37.6368 6.02619Q37.6368 6.80904 38.1775 7.39972Q38.7182 7.9904 39.601 7.9904Q40.4297 7.9904 40.9433 7.39972Q41.457 6.80904 41.457 6.02619L41.457-62.1496L41.3289-72.5944L50.8981-62.5492L63.251-50.1469Q63.9269-49.471 64.785-49.471Q65.6219-49.471 66.1815-50.0035Q66.741-50.536 66.741-51.3729Q66.741-52.2474 65.9405-52.9939L41.0221-77.9028Q40.4297-78.4952 39.6051-78.5264Q38.7805-78.5575 38.1881-77.9028ZM92.0658 7.33566L117.046-17.5733Q117.793-18.3197 117.793-19.1943Q117.793-20.0312 117.229-20.5637Q116.666-21.0962 115.837-21.0962Q115.025-21.0962 114.303-20.3662L102.004-8.01797L92.3808 2.01902L92.5548-8.41755L92.5548-76.5933Q92.5548-77.368 92.0452-77.9316Q91.5357-78.4952 90.6529-78.4952Q89.816-78.4952 89.3064-77.9316Q88.7968-77.368 88.7968-76.5933L88.7968-8.41755L88.925 2.01902L79.3476-8.01797L66.9946-20.3662Q66.327-21.0962 65.4065-21.0962Q64.6319-21.0962 64.0724-20.5637Q63.5129-20.0312 63.5129-19.1943Q63.5129-18.3197 64.2593-17.5733L89.2318 7.33566Q89.816 7.9904 90.6447 7.99451Q91.4734 7.99862 92.0658 7.33566Z"/>
  </g>
  <g id="Ultralight-M" transform="matrix(1 0 0 1 495.887 1126)">
   <path d="M38.1008-77.3918L13.0204-52.5576Q12.4609-51.9982 12.4609-51.4103Q12.4609-50.8974 12.8002-50.5581Q13.1395-50.2188 13.6524-50.2188Q14.2488-50.2188 14.8167-50.7202L27.7388-63.6834L37.8855-73.9903L37.724-63.7948L37.724 5.96387Q37.724 6.4102 38.0591 6.81392Q38.3941 7.21764 38.9778 7.21764Q39.4949 7.21764 39.7967 6.81392Q40.0985 6.4102 40.0985 5.96387L40.0985-63.7948L40.07-73.9903L50.1502-63.6834L63.1388-50.7202Q63.6402-50.2188 64.2366-50.2188Q64.7495-50.2188 65.122-50.5581Q65.4946-50.8974 65.4946-51.4103Q65.4946-51.9982 64.8686-52.5576L39.8505-77.3918Q39.4949-77.7474 38.9756-77.7786Q38.4564-77.8097 38.1008-77.3918ZM89.5481 6.79972L114.628-18.0344Q115.188-18.5939 115.188-19.1818Q115.188-19.6947 114.818-20.034Q114.447-20.3733 113.93-20.3733Q113.404-20.3733 112.832-19.8053L99.9102-6.90869L89.7634 3.4025L89.8626-6.79725L89.8626-76.5559Q89.8626-77.0065 89.5587-77.377Q89.2548-77.7474 88.6711-77.7474Q88.1583-77.7474 87.8544-77.377Q87.5505-77.0065 87.5505-76.5559L87.5505-6.79725L87.5789 3.4025L77.5029-6.90869L64.5143-19.8053Q64.0087-20.3733 63.35-20.3733Q62.8994-20.3733 62.5269-20.034Q62.1543-19.6947 62.1543-19.1818Q62.1543-18.5939 62.7138-18.0344L87.7984 6.79972Q88.1583 7.21764 88.6754 7.21552Q89.1925 7.2134 89.5481 6.79972Z"/>
  </g>
  <g id="Black-S" transform="matrix(1 0 0 1 2873.49 696)">
   <path d="M31.0547-71.582L11.8652-51.8066Q9.76562-49.707 9.76562-46.7773Q9.76562-43.75 11.7432-41.7725Q13.7207-39.7949 16.748-39.7949Q19.7754-39.7949 21.6309-41.7969L29.1992-49.7559L29.1992-49.7559L29.1992-44.873L29.1992-3.66211Q29.1992-0.634766 31.2256 1.3916Q33.252 3.41797 36.2305 3.41797Q39.2578 3.41797 41.2598 1.3916Q43.2617-0.634766 43.2617-3.66211L43.2617-44.873L43.2617-49.7559L43.2617-49.7559L50.8301-41.7969Q52.6855-39.7949 55.7129-39.7949Q58.7402-39.7949 60.7178-41.7725Q62.6953-43.75 62.6953-46.7773Q62.6953-49.707 60.5957-51.8066L41.4062-71.582Q39.2578-73.8281 36.2305-73.8281Q33.2031-73.8281 31.0547-71.582ZM88.7695 1.17188L107.959-18.6523Q110.059-20.752 110.059-23.6816Q110.059-26.709 108.081-28.6865Q106.104-30.6641 103.076-30.6641Q100.049-30.6641 98.1934-28.6621L90.625-20.7031L90.625-20.7031L90.625-25.5859L90.625-66.7969Q90.625-69.8242 88.623-71.8262Q86.6211-73.8281 83.5938-73.8281Q80.6152-73.8281 78.5889-71.8262Q76.5625-69.8242 76.5625-66.7969L76.5625-25.5859L76.5625-20.7031L76.5625-20.7031L68.9941-28.6621Q67.1387-30.6641 64.1113-30.6641Q61.084-30.6641 59.1064-28.6865Q57.1289-26.709 57.1289-23.6816Q57.1289-20.752 59.2285-18.6523L78.418 1.17188Q80.5664 3.41797 83.5938 3.41797Q86.6211 3.41797 88.7695 1.17188Z"/>
  </g>
  <g id="Heavy-S" transform="matrix(1 0 0 1 2577.83 696)">
   <path d="M30.8588-71.3054L11.6578-51.5301Q9.76562-49.6379 9.76562-47.0078Q9.76562-44.2801 11.53-42.5158Q13.2943-40.7515 16.022-40.7515Q18.7036-40.7515 20.3862-42.546L27.9431-50.4704L29.3029-52.1184L29.1992-46.256L29.1992-3.43162Q29.1992-0.703912 31.0124 1.10349Q32.8255 2.91089 35.5044 2.91089Q38.2206 2.91089 40.0151 1.10349Q41.8096-0.703912 41.8096-3.43162L41.8096-46.256L41.7059-52.1184L43.0658-50.4704L50.6226-42.546Q52.3052-40.7515 54.9868-40.7515Q57.7146-40.7515 59.4789-42.5158Q61.2432-44.2801 61.2432-47.0078Q61.2432-49.6379 59.3511-51.5301L40.1616-71.3054Q38.2206-73.321 35.5102-73.3268Q32.7998-73.3326 30.8588-71.3054ZM86.868 0.883763L106.069-18.9289Q107.961-20.8211 107.961-23.4512Q107.961-26.1789 106.191-27.9432Q104.421-29.7075 101.705-29.7075Q99.0116-29.7075 97.3405-27.913L89.7837-19.9886L88.4238-18.3521L88.516-24.203L88.516-67.0274Q88.516-69.7435 86.7273-71.5323Q84.9385-73.321 82.2223-73.321Q79.5319-73.321 77.7245-71.5323Q75.9171-69.7435 75.9171-67.0274L75.9171-24.203L76.0209-18.3521L74.6494-19.9886L67.0926-27.913Q65.4215-29.7075 62.7284-29.7075Q60.0122-29.7075 58.2479-27.9432Q56.4835-26.1789 56.4835-23.4512Q56.4835-20.8211 58.3757-18.9289L77.5652 0.883763Q79.4946 2.91089 82.2108 2.91665Q84.927 2.92242 86.868 0.883763Z"/>
  </g>
  <g id="Bold-S" transform="matrix(1 0 0 1 2282.29 696)">
   <path d="M30.6396-70.9961L11.4258-51.2207Q9.76562-49.5605 9.76562-47.2656Q9.76562-44.873 11.2915-43.3472Q12.8174-41.8213 15.21-41.8213Q17.5049-41.8213 18.9941-43.3838L26.5381-51.2695L29.4189-54.7607L29.1992-47.8027L29.1992-3.17383Q29.1992-0.78125 30.7739 0.78125Q32.3486 2.34375 34.6924 2.34375Q37.0605 2.34375 38.623 0.78125Q40.1855-0.78125 40.1855-3.17383L40.1855-47.8027L39.9658-54.7607L42.8467-51.2695L50.3906-43.3838Q51.8799-41.8213 54.1748-41.8213Q56.5674-41.8213 58.0933-43.3472Q59.6191-44.873 59.6191-47.2656Q59.6191-49.5605 57.959-51.2207L38.7695-70.9961Q37.0605-72.7539 34.7046-72.7661Q32.3486-72.7783 30.6396-70.9961ZM84.7412 0.561523L103.955-19.2383Q105.615-20.8984 105.615-23.1934Q105.615-25.5859 104.077-27.1118Q102.539-28.6377 100.171-28.6377Q97.8516-28.6377 96.3867-27.0752L88.8428-19.1895L85.9619-15.7227L86.1572-22.6562L86.1572-67.2852Q86.1572-69.6533 84.6069-71.2036Q83.0566-72.7539 80.6885-72.7539Q78.3203-72.7539 76.7578-71.2036Q75.1953-69.6533 75.1953-67.2852L75.1953-22.6562L75.415-15.7227L72.5098-19.1895L64.9658-27.0752Q63.501-28.6377 61.1816-28.6377Q58.8135-28.6377 57.2876-27.1118Q55.7617-25.5859 55.7617-23.1934Q55.7617-20.8984 57.4219-19.2383L76.6113 0.561523Q78.2959 2.34375 80.6641 2.35596Q83.0322 2.36816 84.7412 0.561523Z"/>
  </g>
  <g id="Semibold-S" transform="matrix(1 0 0 1 1986.38 696)">
   <path d="M30.4886-70.7828L11.2658-51.0074Q9.76562-49.5072 9.76562-47.4434Q9.76562-45.2818 11.1271-43.9204Q12.4886-42.5589 14.6501-42.5589Q16.6784-42.5589 18.0344-43.9614L25.5694-51.8205L29.4989-56.5825L29.1992-48.8691L29.1992-2.99609Q29.1992-0.83457 30.6095 0.559082Q32.0198 1.95273 34.1325 1.95273Q36.2607 1.95273 37.6633 0.559082Q39.0658-0.83457 39.0658-2.99609L39.0658-48.8691L38.7661-56.5825L42.6956-51.8205L50.2307-43.9614Q51.5866-42.5589 53.6149-42.5589Q55.7765-42.5589 57.1379-43.9204Q58.4994-45.2818 58.4994-47.4434Q58.4994-49.5072 56.9992-51.0074L37.8098-70.7828Q36.2607-72.3629 34.1492-72.3795Q32.0376-72.3962 30.4886-70.7828ZM83.2749 0.339355L102.498-19.4516Q103.998-20.9518 103.998-23.0156Q103.998-25.1771 102.62-26.5386Q101.242-27.9001 99.1134-27.9001Q97.0518-27.9001 95.7291-26.4976L88.194-18.6385L84.2646-13.9098L84.531-21.5898L84.531-67.4629Q84.531-69.5911 83.1451-70.977Q81.7592-72.3629 79.631-72.3629Q77.485-72.3629 76.0913-70.977Q74.6977-69.5911 74.6977-67.4629L74.6977-21.5898L74.9974-13.9098L71.0346-18.6385L63.4995-26.4976Q62.1769-27.9001 60.1152-27.9001Q57.987-27.9001 56.6255-26.5386Q55.2641-25.1771 55.2641-23.0156Q55.2641-20.9518 56.7643-19.4516L75.9537 0.339355Q77.4694 1.95273 79.5977 1.96938Q81.7259 1.98604 83.2749 0.339355Z"/>
  </g>
  <g id="Medium-S" transform="matrix(1 0 0 1 1690.29 696)">
   <path d="M30.374-70.6211L11.1445-50.8457Q9.76562-49.4668 9.76562-47.5781Q9.76562-45.5918 11.0024-44.355Q12.2393-43.1182 14.2256-43.1182Q16.0518-43.1182 17.3066-44.3994L24.835-52.2383L29.5596-57.9639L29.1992-49.6777L29.1992-2.86133Q29.1992-0.875 30.4849 0.390625Q31.7705 1.65625 33.708 1.65625Q35.6543 1.65625 36.9355 0.390625Q38.2168-0.875 38.2168-2.86133L38.2168-49.6777L37.8564-57.9639L42.5811-52.2383L50.1094-44.3994Q51.3643-43.1182 53.1904-43.1182Q55.1768-43.1182 56.4136-44.355Q57.6504-45.5918 57.6504-47.5781Q57.6504-49.4668 56.2715-50.8457L37.082-70.6211Q35.6543-72.0664 33.728-72.0864Q31.8018-72.1064 30.374-70.6211ZM82.1631 0.170898L101.393-19.6133Q102.771-20.9922 102.771-22.8809Q102.771-24.8672 101.515-26.104Q100.258-27.3408 98.3115-27.3408Q96.4453-27.3408 95.2305-26.0596L87.7021-18.2207L82.9775-12.5352L83.2979-20.7812L83.2979-67.5977Q83.2979-69.5439 82.0366-70.8052Q80.7754-72.0664 78.8291-72.0664Q76.8516-72.0664 75.5859-70.8052Q74.3203-69.5439 74.3203-67.5977L74.3203-20.7812L74.6807-12.5352L69.916-18.2207L62.3877-26.0596Q61.1729-27.3408 59.3066-27.3408Q57.3604-27.3408 56.1235-26.104Q54.8867-24.8672 54.8867-22.8809Q54.8867-20.9922 56.2656-19.6133L75.4551 0.170898Q76.8428 1.65625 78.7891 1.67627Q80.7354 1.69629 82.1631 0.170898Z"/>
  </g>
  <g id="Regular-S" transform="matrix(1 0 0 1 1394.38 696)">
   <path d="M30.2246-70.4102L10.9863-50.6348Q9.76562-49.4141 9.76562-47.7539Q9.76562-45.9961 10.8398-44.9219Q11.9141-43.8477 13.6719-43.8477Q15.2344-43.8477 16.3574-44.9707L23.877-52.7832L29.6387-59.7656L29.1992-50.7324L29.1992-2.68555Q29.1992-0.927734 30.3223 0.170898Q31.4453 1.26953 33.1543 1.26953Q34.8633 1.26953 35.9863 0.170898Q37.1094-0.927734 37.1094-2.68555L37.1094-50.7324L36.6699-59.7656L42.4316-52.7832L49.9512-44.9707Q51.0742-43.8477 52.6367-43.8477Q54.3945-43.8477 55.4688-44.9219Q56.543-45.9961 56.543-47.7539Q56.543-49.4141 55.3223-50.6348L36.1328-70.4102Q34.8633-71.6797 33.1787-71.7041Q31.4941-71.7285 30.2246-70.4102ZM80.7129-0.0488281L99.9512-19.8242Q101.172-21.0449 101.172-22.7051Q101.172-24.4629 100.073-25.5371Q98.9746-26.6113 97.2656-26.6113Q95.6543-26.6113 94.5801-25.4883L87.0605-17.6758L81.2988-10.7422L81.6895-19.7266L81.6895-67.7734Q81.6895-69.4824 80.5908-70.5811Q79.4922-71.6797 77.7832-71.6797Q76.0254-71.6797 74.9268-70.5811Q73.8281-69.4824 73.8281-67.7734L73.8281-19.7266L74.2676-10.7422L68.457-17.6758L60.9375-25.4883Q59.8633-26.6113 58.252-26.6113Q56.543-26.6113 55.4688-25.5371Q54.3945-24.4629 54.3945-22.7051Q54.3945-21.0449 55.6152-19.8242L74.8047-0.0488281Q76.0254 1.26953 77.7344 1.29395Q79.4434 1.31836 80.7129-0.0488281Z"/>
  </g>
  <g id="Light-S" transform="matrix(1 0 0 1 1099.37 696)">
   <path d="M30.1107-69.7428L10.7422-50.0651Q9.76562-49.0885 9.76562-47.8027Q9.76562-46.4681 10.5876-45.6462Q11.4095-44.8242 12.7441-44.8242Q13.9648-44.8242 14.8763-45.7194L23.2096-54.2643L29.6549-61.5885L29.3132-52.8809L29.3132-2.76693Q29.3132-1.44857 30.1676-0.594076Q31.0221 0.260417 32.3405 0.260417Q33.6426 0.260417 34.4889-0.594076Q35.3353-1.44857 35.3353-2.76693L35.3353-52.8809L35.026-61.5885L41.4551-54.2643L49.8047-45.7194Q50.6999-44.8242 51.9206-44.8242Q53.2552-44.8242 54.0853-45.6462Q54.9154-46.4681 54.9154-47.8027Q54.9154-49.0885 53.9225-50.0651L34.6029-69.7428Q33.6426-70.7031 32.3568-70.7275Q31.071-70.752 30.1107-69.7428ZM77.4251-0.748698L96.7936-20.4264Q97.7702-21.403 97.7702-22.6888Q97.7702-24.0234 96.9238-24.8454Q96.0775-25.6673 94.7754-25.6673Q93.5384-25.6673 92.6595-24.7559L84.3262-16.2272L77.8809-8.93555L78.1738-17.6107L78.1738-67.7246Q78.1738-69.0104 77.3438-69.8568Q76.5137-70.7031 75.1953-70.7031Q73.8607-70.7031 73.0306-69.8568Q72.2005-69.0104 72.2005-67.7246L72.2005-17.6107L72.5098-8.93555L66.0482-16.2272L57.6986-24.7559Q56.8359-25.6673 55.5664-25.6673Q54.2806-25.6673 53.4505-24.8454Q52.6204-24.0234 52.6204-22.6888Q52.6204-21.403 53.597-20.4264L72.9329-0.748698Q73.8607 0.260417 75.1628 0.276693Q76.4648 0.292969 77.4251-0.748698Z"/>
  </g>
  <g id="Thin-S" transform="matrix(1 0 0 1 804.904 696)">
   <path d="M29.96-68.8603L10.4193-49.3117Q9.76562-48.658 9.76562-47.8673Q9.76562-47.0924 10.2539-46.6041Q10.7422-46.1158 11.5171-46.1158Q12.2858-46.1158 12.9174-46.7096L22.3271-56.2232L29.6765-63.9995L29.4638-55.7223L29.4638-2.87456Q29.4638-2.13741 29.9631-1.60582Q30.4624-1.07422 31.2642-1.07422Q32.0281-1.07422 32.5085-1.60582Q32.9889-2.13741 32.9889-2.87456L32.9889-55.7223L32.8519-63.9995L40.1635-56.2232L49.611-46.7096Q50.2048-46.1158 50.9734-46.1158Q51.7484-46.1158 52.2555-46.6041Q52.7627-47.0924 52.7627-47.8673Q52.7627-48.658 52.0713-49.3117L32.5794-68.8603Q32.0281-69.4115 31.2697-69.436Q30.5113-69.4604 29.96-68.8603ZM73.0768-1.67433L92.6175-21.2229Q93.2712-21.8766 93.2712-22.6673Q93.2712-23.4422 92.7585-23.9305Q92.2458-24.4188 91.4819-24.4188Q90.74-24.4188 90.1194-23.7872L80.7097-14.3114L73.3603-6.54612L73.5241-14.8122L73.5241-67.66Q73.5241-68.3862 73.0492-68.8988Q72.5743-69.4115 71.7726-69.4115Q70.9977-69.4115 70.5228-68.8988Q70.0479-68.3862 70.0479-67.66L70.0479-14.8122L70.1849-6.54612L62.8623-14.3114L53.4148-23.7872Q52.832-24.4188 52.0146-24.4188Q51.2884-24.4188 50.7812-23.9305Q50.2741-23.4422 50.2741-22.6673Q50.2741-21.8766 50.9277-21.2229L70.4574-1.67433Q70.9977-1.07422 71.7616-1.06871Q72.5255-1.06319 73.0768-1.67433Z"/>
  </g>
  <g id="Ultralight-S" transform="matrix(1 0 0 1 509.345 696)">
   <path d="M29.8828-68.4082L10.2539-48.9258Q9.76562-48.4375 9.76562-47.9004Q9.76562-47.4121 10.083-47.0947Q10.4004-46.7773 10.8887-46.7773Q11.4258-46.7773 11.9141-47.2168L21.875-57.2266L29.6875-65.2344L29.541-57.1777L29.541-2.92969Q29.541-2.49023 29.8584-2.12402Q30.1758-1.75781 30.7129-1.75781Q31.2012-1.75781 31.4941-2.12402Q31.7871-2.49023 31.7871-2.92969L31.7871-57.1777L31.7383-65.2344L39.502-57.2266L49.5117-47.2168Q49.9512-46.7773 50.4883-46.7773Q50.9766-46.7773 51.3184-47.0947Q51.6602-47.4121 51.6602-47.9004Q51.6602-48.4375 51.123-48.9258L31.543-68.4082Q31.2012-68.75 30.7129-68.7744Q30.2246-68.7988 29.8828-68.4082ZM70.8496-2.14844L90.4785-21.6309Q90.9668-22.1191 90.9668-22.6562Q90.9668-23.1445 90.625-23.4619Q90.2832-23.7793 89.7949-23.7793Q89.3066-23.7793 88.8184-23.291L78.8574-13.3301L71.0449-5.32227L71.1426-13.3789L71.1426-67.627Q71.1426-68.0664 70.8496-68.4082Q70.5566-68.75 70.0195-68.75Q69.5312-68.75 69.2383-68.4082Q68.9453-68.0664 68.9453-67.627L68.9453-13.3789L68.9941-5.32227L61.2305-13.3301L51.2207-23.291Q50.7812-23.7793 50.1953-23.7793Q49.7559-23.7793 49.4141-23.4619Q49.0723-23.1445 49.0723-22.6562Q49.0723-22.1191 49.5605-21.6309L69.1895-2.14844Q69.5312-1.75781 70.0195-1.75781Q70.5078-1.75781 70.8496-2.14844Z"/>
  </g>
 </g>
</svg>
