<?xml version="1.0" encoding="UTF-8"?>
<!--Generator: Apple Native CoreSVG 175-->
<!DOCTYPE svg
PUBLIC "-//W3C//DTD SVG 1.1//EN"
       "http://www.w3.org/Graphics/SVG/1.1/DTD/svg11.dtd">
<svg version="1.1" xmlns="http://www.w3.org/2000/svg" xmlns:xlink="http://www.w3.org/1999/xlink" width="3300" height="2200">
 <!--glyph: "uni1004B9.medium", point size: 100.0, font version: "17.1d1e1", template writer version: "65.1"-->
 <g id="Notes">
  <rect height="2200" id="artboard" style="fill:white;opacity:1" width="3300" x="0" y="0"/>
  <line style="fill:none;stroke:black;opacity:1;stroke-width:0.5;" x1="263" x2="3036" y1="292" y2="292"/>
  <text style="stroke:none;fill:black;font-family:sans-serif;font-size:13;font-weight:bold;" transform="matrix(1 0 0 1 263 322)">Weight/Scale Variations</text>
  <text style="stroke:none;fill:black;font-family:sans-serif;font-size:13;text-anchor:middle;" transform="matrix(1 0 0 1 559.711 322)">Ultralight</text>
  <text style="stroke:none;fill:black;font-family:sans-serif;font-size:13;text-anchor:middle;" transform="matrix(1 0 0 1 856.422 322)">Thin</text>
  <text style="stroke:none;fill:black;font-family:sans-serif;font-size:13;text-anchor:middle;" transform="matrix(1 0 0 1 1153.13 322)">Light</text>
  <text style="stroke:none;fill:black;font-family:sans-serif;font-size:13;text-anchor:middle;" transform="matrix(1 0 0 1 1449.84 322)">Regular</text>
  <text style="stroke:none;fill:black;font-family:sans-serif;font-size:13;text-anchor:middle;" transform="matrix(1 0 0 1 1746.56 322)">Medium</text>
  <text style="stroke:none;fill:black;font-family:sans-serif;font-size:13;text-anchor:middle;" transform="matrix(1 0 0 1 2043.27 322)">Semibold</text>
  <text style="stroke:none;fill:black;font-family:sans-serif;font-size:13;text-anchor:middle;" transform="matrix(1 0 0 1 2339.98 322)">Bold</text>
  <text style="stroke:none;fill:black;font-family:sans-serif;font-size:13;text-anchor:middle;" transform="matrix(1 0 0 1 2636.69 322)">Heavy</text>
  <text style="stroke:none;fill:black;font-family:sans-serif;font-size:13;text-anchor:middle;" transform="matrix(1 0 0 1 2933.4 322)">Black</text>
  <line style="fill:none;stroke:black;opacity:1;stroke-width:0.5;" x1="263" x2="3036" y1="1903" y2="1903"/>
  <g transform="matrix(1 0 0 1 263 1933)">
   <path d="M9.24805 0.830078Q10.8691 0.830078 12.2949 0.214844Q13.7207-0.400391 14.8096-1.49414Q15.8984-2.58789 16.5186-4.01367Q17.1387-5.43945 17.1387-7.05078Q17.1387-8.66211 16.5186-10.0879Q15.8984-11.5137 14.8047-12.6074Q13.7109-13.7012 12.2852-14.3164Q10.8594-14.9316 9.23828-14.9316Q7.62695-14.9316 6.20117-14.3164Q4.77539-13.7012 3.69141-12.6074Q2.60742-11.5137 1.9873-10.0879Q1.36719-8.66211 1.36719-7.05078Q1.36719-5.43945 1.9873-4.01367Q2.60742-2.58789 3.69629-1.49414Q4.78516-0.400391 6.21094 0.214844Q7.63672 0.830078 9.24805 0.830078ZM9.24805-0.654297Q7.91992-0.654297 6.7627-1.14746Q5.60547-1.64062 4.73145-2.51953Q3.85742-3.39844 3.36426-4.56055Q2.87109-5.72266 2.87109-7.05078Q2.87109-8.37891 3.35938-9.54102Q3.84766-10.7031 4.72168-11.582Q5.5957-12.4609 6.75293-12.9541Q7.91016-13.4473 9.23828-13.4473Q10.5762-13.4473 11.7334-12.9541Q12.8906-12.4609 13.7695-11.582Q14.6484-10.7031 15.1465-9.54102Q15.6445-8.37891 15.6445-7.05078Q15.6445-5.72266 15.1514-4.56055Q14.6582-3.39844 13.7842-2.51953Q12.9102-1.64062 11.748-1.14746Q10.5859-0.654297 9.24805-0.654297ZM5.6543-7.05078Q5.6543-6.72852 5.85938-6.52832Q6.06445-6.32812 6.40625-6.32812L8.51562-6.32812L8.51562-4.20898Q8.51562-3.88672 8.71094-3.67676Q8.90625-3.4668 9.23828-3.4668Q9.56055-3.4668 9.77051-3.67676Q9.98047-3.88672 9.98047-4.20898L9.98047-6.32812L12.0898-6.32812Q12.4219-6.32812 12.627-6.52832Q12.832-6.72852 12.832-7.05078Q12.832-7.38281 12.627-7.58789Q12.4219-7.79297 12.0898-7.79297L9.98047-7.79297L9.98047-9.90234Q9.98047-10.2344 9.77051-10.4443Q9.56055-10.6543 9.23828-10.6543Q8.90625-10.6543 8.71094-10.4443Q8.51562-10.2344 8.51562-9.90234L8.51562-7.79297L6.40625-7.79297Q6.06445-7.79297 5.85938-7.58789Q5.6543-7.38281 5.6543-7.05078Z"/>
  </g>
  <g transform="matrix(1 0 0 1 281.867 1933)">
   <path d="M11.709 2.91016Q13.75 2.91016 15.5518 2.12891Q17.3535 1.34766 18.7305-0.0292969Q20.1074-1.40625 20.8887-3.20801Q21.6699-5.00977 21.6699-7.05078Q21.6699-9.0918 20.8887-10.8936Q20.1074-12.6953 18.7305-14.0723Q17.3535-15.4492 15.5469-16.2305Q13.7402-17.0117 11.6992-17.0117Q9.6582-17.0117 7.85645-16.2305Q6.05469-15.4492 4.68262-14.0723Q3.31055-12.6953 2.5293-10.8936Q1.74805-9.0918 1.74805-7.05078Q1.74805-5.00977 2.5293-3.20801Q3.31055-1.40625 4.6875-0.0292969Q6.06445 1.34766 7.86621 2.12891Q9.66797 2.91016 11.709 2.91016ZM11.709 1.25Q9.98047 1.25 8.47656 0.605469Q6.97266-0.0390625 5.83496-1.17676Q4.69727-2.31445 4.05762-3.81836Q3.41797-5.32227 3.41797-7.05078Q3.41797-8.7793 4.05762-10.2832Q4.69727-11.7871 5.83008-12.9297Q6.96289-14.0723 8.4668-14.7119Q9.9707-15.3516 11.6992-15.3516Q13.4277-15.3516 14.9316-14.7119Q16.4355-14.0723 17.5781-12.9297Q18.7207-11.7871 19.3652-10.2832Q20.0098-8.7793 20.0098-7.05078Q20.0098-5.32227 19.3701-3.81836Q18.7305-2.31445 17.5928-1.17676Q16.4551-0.0390625 14.9463 0.605469Q13.4375 1.25 11.709 1.25ZM7.17773-7.05078Q7.17773-6.69922 7.41211-6.47461Q7.64648-6.25 8.01758-6.25L10.8887-6.25L10.8887-3.36914Q10.8887-2.99805 11.1133-2.76855Q11.3379-2.53906 11.6895-2.53906Q12.0605-2.53906 12.29-2.76855Q12.5195-2.99805 12.5195-3.36914L12.5195-6.25L15.4004-6.25Q15.7715-6.25 16.001-6.47461Q16.2305-6.69922 16.2305-7.05078Q16.2305-7.42188 16.001-7.65137Q15.7715-7.88086 15.4004-7.88086L12.5195-7.88086L12.5195-10.752Q12.5195-11.1328 12.29-11.3623Q12.0605-11.5918 11.6895-11.5918Q11.3379-11.5918 11.1133-11.3574Q10.8887-11.123 10.8887-10.752L10.8887-7.88086L8.01758-7.88086Q7.63672-7.88086 7.40723-7.65137Q7.17773-7.42188 7.17773-7.05078Z"/>
  </g>
  <g transform="matrix(1 0 0 1 305.646 1933)">
   <path d="M14.9707 5.66406Q17.0605 5.66406 18.96 5.01465Q20.8594 4.36523 22.4512 3.19336Q24.043 2.02148 25.2197 0.429688Q26.3965-1.16211 27.0459-3.06641Q27.6953-4.9707 27.6953-7.05078Q27.6953-9.14062 27.0459-11.04Q26.3965-12.9395 25.2197-14.5312Q24.043-16.123 22.4512-17.2998Q20.8594-18.4766 18.9551-19.126Q17.0508-19.7754 14.9609-19.7754Q12.8711-19.7754 10.9717-19.126Q9.07227-18.4766 7.48535-17.2998Q5.89844-16.123 4.72168-14.5312Q3.54492-12.9395 2.90039-11.04Q2.25586-9.14062 2.25586-7.05078Q2.25586-4.9707 2.90527-3.06641Q3.55469-1.16211 4.72656 0.429688Q5.89844 2.02148 7.49023 3.19336Q9.08203 4.36523 10.9814 5.01465Q12.8809 5.66406 14.9707 5.66406ZM14.9707 3.84766Q13.1641 3.84766 11.5283 3.2959Q9.89258 2.74414 8.53516 1.74805Q7.17773 0.751953 6.17676-0.610352Q5.17578-1.97266 4.62891-3.6084Q4.08203-5.24414 4.08203-7.05078Q4.08203-8.86719 4.62891-10.5029Q5.17578-12.1387 6.17188-13.501Q7.16797-14.8633 8.52539-15.8594Q9.88281-16.8555 11.5186-17.4023Q13.1543-17.9492 14.9609-17.9492Q16.7773-17.9492 18.4131-17.4023Q20.0488-16.8555 21.4111-15.8594Q22.7734-14.8633 23.7695-13.501Q24.7656-12.1387 25.3174-10.5029Q25.8691-8.86719 25.8691-7.05078Q25.8789-5.24414 25.332-3.6084Q24.7852-1.97266 23.7842-0.610352Q22.7832 0.751953 21.4209 1.74805Q20.0586 2.74414 18.4229 3.2959Q16.7871 3.84766 14.9707 3.84766ZM9.19922-7.05078Q9.19922-6.66992 9.45801-6.4209Q9.7168-6.17188 10.1172-6.17188L14.0625-6.17188L14.0625-2.2168Q14.0625-1.81641 14.3115-1.55762Q14.5605-1.29883 14.9512-1.29883Q15.3516-1.29883 15.6104-1.55273Q15.8691-1.80664 15.8691-2.2168L15.8691-6.17188L19.8242-6.17188Q20.2246-6.17188 20.4785-6.4209Q20.7324-6.66992 20.7324-7.05078Q20.7324-7.46094 20.4785-7.71484Q20.2246-7.96875 19.8242-7.96875L15.8691-7.96875L15.8691-11.9141Q15.8691-12.3242 15.6104-12.583Q15.3516-12.8418 14.9512-12.8418Q14.5605-12.8418 14.3115-12.583Q14.0625-12.3242 14.0625-11.9141L14.0625-7.96875L10.1172-7.96875Q9.70703-7.96875 9.45312-7.71484Q9.19922-7.46094 9.19922-7.05078Z"/>
  </g>
  <text style="stroke:none;fill:black;font-family:sans-serif;font-size:13;font-weight:bold;" transform="matrix(1 0 0 1 263 1953)">Design Variations</text>
  <text style="stroke:none;fill:black;font-family:sans-serif;font-size:13;" transform="matrix(1 0 0 1 263 1971)">Symbols are supported in up to nine weights and three scales.</text>
  <text style="stroke:none;fill:black;font-family:sans-serif;font-size:13;" transform="matrix(1 0 0 1 263 1989)">For optimal layout with text and other symbols, vertically align</text>
  <text style="stroke:none;fill:black;font-family:sans-serif;font-size:13;" transform="matrix(1 0 0 1 263 2007)">symbols with the adjacent text.</text>
  <line style="fill:none;stroke:#00AEEF;stroke-width:0.5;opacity:1.0;" x1="776" x2="776" y1="1919" y2="1933"/>
  <g transform="matrix(1 0 0 1 776 1933)">
   <path d="M3.31055 0.15625Q3.70117 0.15625 3.91602-0.00976562Q4.13086-0.175781 4.26758-0.585938L5.52734-4.0332L11.2891-4.0332L12.5488-0.585938Q12.6855-0.175781 12.9004-0.00976562Q13.1152 0.15625 13.4961 0.15625Q13.8867 0.15625 14.1162-0.0585938Q14.3457-0.273438 14.3457-0.644531Q14.3457-0.869141 14.2383-1.17188L9.6582-13.3691Q9.48242-13.8184 9.17969-14.043Q8.87695-14.2676 8.4082-14.2676Q7.5-14.2676 7.17773-13.3789L2.59766-1.16211Q2.49023-0.859375 2.49023-0.634766Q2.49023-0.263672 2.70996-0.0537109Q2.92969 0.15625 3.31055 0.15625ZM6.00586-5.51758L8.37891-12.0898L8.42773-12.0898L10.8008-5.51758Z"/>
  </g>
  <line style="fill:none;stroke:#00AEEF;stroke-width:0.5;opacity:1.0;" x1="793.197" x2="793.197" y1="1919" y2="1933"/>
  <text style="stroke:none;fill:black;font-family:sans-serif;font-size:13;font-weight:bold;" transform="matrix(1 0 0 1 776 1953)">Margins</text>
  <text style="stroke:none;fill:black;font-family:sans-serif;font-size:13;" transform="matrix(1 0 0 1 776 1971)">Leading and trailing margins on the left and right side of each symbol</text>
  <text style="stroke:none;fill:black;font-family:sans-serif;font-size:13;" transform="matrix(1 0 0 1 776 1989)">can be adjusted by modifying the x-location of the margin guidelines.</text>
  <text style="stroke:none;fill:black;font-family:sans-serif;font-size:13;" transform="matrix(1 0 0 1 776 2007)">Modifications are automatically applied proportionally to all</text>
  <text style="stroke:none;fill:black;font-family:sans-serif;font-size:13;" transform="matrix(1 0 0 1 776 2025)">scales and weights.</text>
  <g transform="matrix(1 0 0 1 1289 1933)">
   <path d="M2.8418 1.86523L4.54102 3.57422Q5.18555 4.22852 5.90332 4.17969Q6.62109 4.13086 7.31445 3.35938L18.0078-8.42773L17.041-9.4043L6.42578 2.27539Q6.16211 2.57812 5.89355 2.61719Q5.625 2.65625 5.27344 2.30469L4.10156 1.14258Q3.75 0.791016 3.79395 0.522461Q3.83789 0.253906 4.14062-0.0195312L15.6152-10.8203L14.6387-11.7871L3.04688-0.898438Q2.30469-0.214844 2.25098 0.498047Q2.19727 1.21094 2.8418 1.86523ZM9.25781-16.3281Q8.94531-16.0254 8.90625-15.6348Q8.86719-15.2441 9.04297-14.9512Q9.21875-14.6777 9.55566-14.541Q9.89258-14.4043 10.3809-14.5215Q11.4746-14.7754 12.5977-14.7314Q13.7207-14.6875 14.7949-13.9844L14.209-12.5293Q13.9551-11.9043 14.0674-11.4404Q14.1797-10.9766 14.5801-10.5664L16.875-8.25195Q17.2363-7.88086 17.5781-7.82227Q17.9199-7.76367 18.3398-7.8418L19.4043-8.03711L20.0684-7.36328L20.0293-6.80664Q20-6.43555 20.1221-6.12305Q20.2441-5.81055 20.6055-5.44922L21.3672-4.70703Q21.7285-4.3457 22.1533-4.33105Q22.5781-4.31641 22.9297-4.66797L25.8398-7.58789Q26.1914-7.93945 26.1816-8.35449Q26.1719-8.76953 25.8105-9.13086L25.0391-9.89258Q24.6875-10.2539 24.3799-10.3857Q24.0723-10.5176 23.7109-10.4883L23.1348-10.4395L22.4902-11.0742L22.7344-12.1973Q22.832-12.6172 22.6953-12.9834Q22.5586-13.3496 22.1191-13.7891L19.9219-15.9766Q18.6719-17.2168 17.2607-17.8369Q15.8496-18.457 14.4189-18.4814Q12.9883-18.5059 11.665-17.959Q10.3418-17.4121 9.25781-16.3281ZM10.752-15.957Q11.6602-16.6211 12.7002-16.9043Q13.7402-17.1875 14.8047-17.085Q15.8691-16.9824 16.8701-16.5137Q17.8711-16.0449 18.7012-15.2051L21.1328-12.793Q21.3086-12.6172 21.3525-12.4512Q21.3965-12.2852 21.3379-12.0312L21.0156-10.5469L22.5195-9.0625L23.5059-9.12109Q23.6914-9.13086 23.7891-9.09668Q23.8867-9.0625 24.0332-8.91602L24.6094-8.33984L22.168-5.89844L21.5918-6.47461Q21.4453-6.62109 21.4062-6.71875Q21.3672-6.81641 21.377-7.01172L21.4453-7.98828L19.9512-9.47266L18.4277-9.21875Q18.1836-9.16992 18.042-9.2041Q17.9004-9.23828 17.7148-9.41406L15.7129-11.416Q15.5176-11.5918 15.4932-11.7529Q15.4688-11.9141 15.5859-12.1875L16.4648-14.2773Q15.293-15.3711 13.8281-15.791Q12.3633-16.2109 10.8398-15.7617Q10.7227-15.7324 10.6885-15.8057Q10.6543-15.8789 10.752-15.957Z"/>
  </g>
  <text style="stroke:none;fill:black;font-family:sans-serif;font-size:13;font-weight:bold;" transform="matrix(1 0 0 1 1289 1953)">Exporting</text>
  <text style="stroke:none;fill:black;font-family:sans-serif;font-size:13;" transform="matrix(1 0 0 1 1289 1971)">Symbols should be outlined when exporting to ensure the</text>
  <text style="stroke:none;fill:black;font-family:sans-serif;font-size:13;" transform="matrix(1 0 0 1 1289 1989)">design is preserved when submitting to Xcode.</text>
  <text id="template-version" style="stroke:none;fill:black;font-family:sans-serif;font-size:13;text-anchor:end;" transform="matrix(1 0 0 1 3036 1933)">Template v.3.0</text>
  <text style="stroke:none;fill:black;font-family:sans-serif;font-size:13;text-anchor:end;" transform="matrix(1 0 0 1 3036 1951)">Requires Xcode 13 or greater</text>
  <text id="descriptive-name" style="stroke:none;fill:black;font-family:sans-serif;font-size:13;text-anchor:end;" transform="matrix(1 0 0 1 3036 1969)">Generated from airplane.circle.fill</text>
  <text style="stroke:none;fill:black;font-family:sans-serif;font-size:13;text-anchor:end;" transform="matrix(1 0 0 1 3036 1987)">Typeset at 100 points</text>
  <text style="stroke:none;fill:black;font-family:sans-serif;font-size:13;" transform="matrix(1 0 0 1 263 726)">Small</text>
  <text style="stroke:none;fill:black;font-family:sans-serif;font-size:13;" transform="matrix(1 0 0 1 263 1156)">Medium</text>
  <text style="stroke:none;fill:black;font-family:sans-serif;font-size:13;" transform="matrix(1 0 0 1 263 1586)">Large</text>
 </g>
 <g id="Guides">
  <g id="H-reference" style="fill:#27AAE1;stroke:none;" transform="matrix(1 0 0 1 339 696)">
   <path d="M0.976562 0L3.66211 0L29.3457-67.1387L30.0293-67.1387L30.0293-70.459L28.125-70.459ZM11.6699-24.4629L46.9727-24.4629L46.2402-26.709L12.4512-26.709ZM55.127 0L57.7637 0L30.6152-70.459L29.4434-70.459L29.4434-67.1387Z"/>
  </g>
  <line id="Baseline-S" style="fill:none;stroke:#27AAE1;opacity:1;stroke-width:0.5;" x1="263" x2="3036" y1="696" y2="696"/>
  <line id="Capline-S" style="fill:none;stroke:#27AAE1;opacity:1;stroke-width:0.5;" x1="263" x2="3036" y1="625.541" y2="625.541"/>
  <g id="H-reference" style="fill:#27AAE1;stroke:none;" transform="matrix(1 0 0 1 339 1126)">
   <path d="M0.976562 0L3.66211 0L29.3457-67.1387L30.0293-67.1387L30.0293-70.459L28.125-70.459ZM11.6699-24.4629L46.9727-24.4629L46.2402-26.709L12.4512-26.709ZM55.127 0L57.7637 0L30.6152-70.459L29.4434-70.459L29.4434-67.1387Z"/>
  </g>
  <line id="Baseline-M" style="fill:none;stroke:#27AAE1;opacity:1;stroke-width:0.5;" x1="263" x2="3036" y1="1126" y2="1126"/>
  <line id="Capline-M" style="fill:none;stroke:#27AAE1;opacity:1;stroke-width:0.5;" x1="263" x2="3036" y1="1055.54" y2="1055.54"/>
  <g id="H-reference" style="fill:#27AAE1;stroke:none;" transform="matrix(1 0 0 1 339 1556)">
   <path d="M0.976562 0L3.66211 0L29.3457-67.1387L30.0293-67.1387L30.0293-70.459L28.125-70.459ZM11.6699-24.4629L46.9727-24.4629L46.2402-26.709L12.4512-26.709ZM55.127 0L57.7637 0L30.6152-70.459L29.4434-70.459L29.4434-67.1387Z"/>
  </g>
  <line id="Baseline-L" style="fill:none;stroke:#27AAE1;opacity:1;stroke-width:0.5;" x1="263" x2="3036" y1="1556" y2="1556"/>
  <line id="Capline-L" style="fill:none;stroke:#27AAE1;opacity:1;stroke-width:0.5;" x1="263" x2="3036" y1="1485.54" y2="1485.54"/>
  <line id="left-margin-Regular-M" style="fill:none;stroke:#00AEEF;stroke-width:0.5;opacity:1.0;" x1="1391.32" x2="1391.32" y1="1030.79" y2="1150.12"/>
  <line id="right-margin-Regular-M" style="fill:none;stroke:#00AEEF;stroke-width:0.5;opacity:1.0;" x1="1508.37" x2="1508.37" y1="1030.79" y2="1150.12"/>
 </g>
 <g id="Symbols">
  <g id="Black-L" transform="matrix(1 0 0 1 2854.19 1556)">
   <path d="M79.1953 32.8057Q93.2356 32.8057 105.521 27.5107Q117.806 22.2158 127.174 12.8375Q136.542 3.45916 141.848-8.82607Q147.154-21.1113 147.154-35.1309Q147.154-49.1504 141.848-61.4357Q136.542-73.7209 127.164-83.0992Q117.785-92.4775 105.5-97.7725Q93.2149-103.067 79.1746-103.067Q65.1563-103.067 52.8704-97.7725Q40.5846-92.4775 31.2276-83.0992Q21.8707-73.7209 16.5647-61.4357Q11.2588-49.1504 11.2588-35.1309Q11.2588-21.1113 16.5647-8.82607Q21.8707 3.45916 31.238 12.8375Q40.6053 22.2158 52.8912 27.5107Q65.177 32.8057 79.1953 32.8057ZM121.111-35.053Q121.111-31.3924 117.124-28.7674Q113.137-26.1424 107.682-26.1424L94.0427-26.1424Q92.6942-26.1424 91.5814-25.066L69.8065-2.1945Q68.3861-0.554849 66.2522-0.554849L61.1253-0.554849Q59.7164-0.554849 59.0107-1.72571Q58.3049-2.89658 58.8446-4.24836L69.4049-26.2423L55.9259-27.7986L50.4824-18.7929Q49.4057-16.9002 47.1304-16.9002L45.6024-16.9002Q44.2337-16.9002 43.332-17.761Q42.4303-18.6218 42.4303-19.9542L42.4303-50.1519Q42.4303-51.4842 43.332-52.3451Q44.2337-53.2059 45.6024-53.2059L47.1304-53.2059Q49.4057-53.2059 50.4824-51.3132L55.9259-42.3074L69.4049-43.8638L58.8446-65.8577Q58.3049-67.2095 59.0107-68.3803Q59.7164-69.5512 61.1253-69.5512L66.2522-69.5512Q68.3861-69.5512 69.8065-67.9116L91.5814-45.04Q92.6942-43.9636 94.0427-43.9636L107.682-43.9636Q113.137-43.9636 117.124-41.3387Q121.111-38.7137 121.111-35.053Z"/>
  </g>
  <g id="Heavy-L" transform="matrix(1 0 0 1 2558.42 1556)">
   <path d="M78.2511 31.8476Q92.088 31.8476 104.202 26.6268Q116.316 21.406 125.559 12.1482Q134.802 2.89032 140.04-9.2236Q145.279-21.3375 145.279-35.1447Q145.279-48.9518 140.04-61.0657Q134.802-73.1796 125.544-82.4375Q116.286-91.6953 104.172-96.9161Q92.0582-102.137 78.2213-102.137Q64.4202-102.137 52.3033-96.9161Q40.1863-91.6953 30.9613-82.4375Q21.7362-73.1796 16.4975-61.0657Q11.2588-48.9518 11.2588-35.1447Q11.2588-21.3375 16.4975-9.2236Q21.7362 2.89032 30.9761 12.1482Q40.2161 21.406 52.333 26.6268Q64.45 31.8476 78.2511 31.8476ZM120.215-35.0763Q120.215-31.5178 116.3-29.0062Q112.385-26.4946 106.977-26.4946L93.27-26.4946Q91.7741-26.4946 90.6152-25.3445L68.5599-1.96283Q67.1722-0.369748 65.1357-0.369748L60.285-0.369748Q58.9782-0.369748 58.3188-1.45032Q57.6594-2.53089 58.1805-3.79905L68.969-26.5987L54.811-28.2192L49.2438-18.7462Q48.2137-16.9509 46.0134-16.9509L44.4854-16.9509Q43.2322-16.9509 42.4092-17.7307Q41.5861-18.5105 41.5861-19.7549L41.5861-50.3977Q41.5861-51.6421 42.4092-52.4219Q43.2322-53.2017 44.4854-53.2017L46.0134-53.2017Q48.2137-53.2017 49.2438-51.4064L54.811-41.9334L68.969-43.5539L58.1805-66.3536Q57.6594-67.6217 58.3188-68.7023Q58.9782-69.7829 60.285-69.7829L65.1357-69.7829Q67.1722-69.7829 68.5599-68.1898L90.6152-44.8081Q91.7741-43.6581 93.27-43.6581L106.977-43.6581Q112.385-43.6581 116.3-41.1464Q120.215-38.6348 120.215-35.0763Z"/>
  </g>
  <g id="Bold-L" transform="matrix(1 0 0 1 2262.89 1556)">
   <path d="M77.0653 30.6464Q90.6516 30.6464 102.549 25.52Q114.447 20.3937 123.533 11.2893Q132.619 2.1849 137.771-9.71291Q142.923-21.6107 142.923-35.1601Q142.923-48.7094 137.771-60.6072Q132.619-72.5051 123.515-81.6094Q114.41-90.7138 102.512-95.8402Q90.6146-100.967 77.0283-100.967Q63.4932-100.967 51.5882-95.8402Q39.6833-90.7138 30.623-81.6094Q21.5627-72.5051 16.4108-60.6072Q11.2588-48.7094 11.2588-35.1601Q11.2588-21.6107 16.4108-9.71291Q21.5627 2.1849 30.6415 11.2893Q39.7203 20.3937 51.6252 25.52Q63.5301 30.6464 77.0653 30.6464ZM119.037-35.1081Q119.037-31.684 115.221-29.3136Q111.406-26.9431 106.08-26.9431L92.3049-26.9431Q90.6384-26.9431 89.4251-25.7078L67.1365-1.83895Q65.797-0.30947 63.8867-0.30947L59.3535-0.30947Q58.1812-0.30947 57.5808-1.27609Q56.9804-2.24271 57.4779-3.40004L68.4929-27.0463L53.5061-28.7357L47.8093-18.7659Q46.8428-17.0969 44.7553-17.0969L43.2273-17.0969Q42.1148-17.0969 41.3898-17.7745Q40.6648-18.4522 40.6648-19.5868L40.6648-50.6295Q40.6648-51.764 41.3898-52.4417Q42.1148-53.1194 43.2273-53.1194L44.7553-53.1194Q46.8428-53.1194 47.8093-51.4503L53.5061-41.4805L68.4929-43.1699L57.4779-66.8162Q56.9804-67.9735 57.5808-68.9401Q58.1812-69.9068 59.3535-69.9068L63.8867-69.9068Q65.797-69.9068 67.1365-68.3773L89.4251-44.5084Q90.6384-43.2731 92.3049-43.2731L106.08-43.2731Q111.406-43.2731 115.221-40.9026Q119.037-38.5322 119.037-35.1081Z"/>
  </g>
  <g id="Semibold-L" transform="matrix(1 0 0 1 1966.99 1556)">
   <path d="M76.2478 29.8183Q89.6614 29.8183 101.41 24.757Q113.159 19.6958 122.137 10.6972Q131.114 1.6986 136.206-10.0502Q141.299-21.7991 141.299-35.1707Q141.299-48.5423 136.206-60.2912Q131.114-72.04 122.116-81.0386Q113.117-90.0372 101.368-95.0984Q89.6194-100.16 76.2058-100.16Q62.854-100.16 51.0953-95.0984Q39.3365-90.0372 30.3898-81.0386Q21.4432-72.04 16.351-60.2912Q11.2588-48.5423 11.2588-35.1707Q11.2588-21.7991 16.351-10.0502Q21.4432 1.6986 30.4108 10.6972Q39.3785 19.6958 51.1372 24.757Q62.896 29.8183 76.2478 29.8183ZM118.224-35.13Q118.224-31.7986 114.478-29.5255Q110.731-27.2524 105.462-27.2524L91.6396-27.2524Q89.8555-27.2524 88.6046-25.9583L66.1552-1.75355Q64.849-0.267914 63.0257-0.267914L58.7114-0.267914Q57.6318-0.267914 57.0721-1.15597Q56.5124-2.04403 56.9936-3.12497L68.1647-27.3549L52.6066-29.0918L46.8204-18.7795Q45.8977-17.1975 43.888-17.1975L42.36-17.1975Q41.3444-17.1975 40.687-17.8047Q40.0297-18.412 40.0297-19.4708L40.0297-50.7893Q40.0297-51.8481 40.687-52.4553Q41.3444-53.0626 42.36-53.0626L43.888-53.0626Q45.8977-53.0626 46.8204-51.4805L52.6066-41.1682L68.1647-42.9051L56.9936-67.1351Q56.5124-68.216 57.0721-69.1041Q57.6318-69.9922 58.7114-69.9922L63.0257-69.9922Q64.849-69.9922 66.1552-68.5065L88.6046-44.3018Q89.8555-43.0077 91.6396-43.0077L105.462-43.0077Q110.731-43.0077 114.478-40.7346Q118.224-38.4614 118.224-35.13Z"/>
  </g>
  <g id="Medium-L" transform="matrix(1 0 0 1 1670.89 1556)">
   <path d="M75.6279 29.1904Q88.9106 29.1904 100.546 24.1785Q112.182 19.1666 121.078 10.2482Q129.973 1.32986 135.02-10.306Q140.067-21.9419 140.067-35.1788Q140.067-48.4156 135.02-60.0515Q129.973-71.6874 121.055-80.6058Q112.137-89.5241 100.501-94.536Q88.8648-99.5479 75.5822-99.5479Q62.3695-99.5479 50.7215-94.536Q39.0736-89.5241 30.213-80.6058Q21.3525-71.6874 16.3056-60.0515Q11.2588-48.4156 11.2588-35.1788Q11.2588-21.9419 16.3056-10.306Q21.3525 1.32986 30.2359 10.2482Q39.1193 19.1666 50.7673 24.1785Q62.4152 29.1904 75.6279 29.1904ZM117.609-35.1467Q117.609-31.8855 113.914-29.6862Q110.22-27.4869 104.993-27.4869L91.1351-27.4869Q89.2618-27.4869 87.9825-26.1482L65.4111-1.68879Q64.1301-0.236405 62.3728-0.236405L58.2245-0.236405Q57.2152-0.236405 56.6863-1.0649Q56.1575-1.89339 56.6264-2.9164L67.9159-27.5889L51.9245-29.3618L46.0706-18.7898Q45.1811-17.2738 43.2303-17.2738L41.7023-17.2738Q40.7603-17.2738 40.1542-17.8277Q39.5481-18.3815 39.5481-19.3829L39.5481-50.9104Q39.5481-51.9118 40.1542-52.4657Q40.7603-53.0195 41.7023-53.0195L43.2303-53.0195Q45.1811-53.0195 46.0706-51.5035L51.9245-40.9315L67.9159-42.7044L56.6264-67.3769Q56.1575-68.3999 56.6863-69.2284Q57.2152-70.0569 58.2245-70.0569L62.3728-70.0569Q64.1301-70.0569 65.4111-68.6045L87.9825-44.1452Q89.2618-42.8064 91.1351-42.8064L104.993-42.8064Q110.22-42.8064 113.914-40.6071Q117.609-38.4078 117.609-35.1467Z"/>
  </g>
  <g id="Regular-L" transform="matrix(1 0 0 1 1374.98 1556)">
   <path d="M74.8194 28.3714Q87.9312 28.3714 99.4198 23.4239Q110.908 18.4764 119.697 9.66263Q128.485 0.848896 133.473-10.6396Q138.46-22.1282 138.46-35.1893Q138.46-48.2504 133.473-59.7389Q128.485-71.2275 119.671-80.0412Q110.858-88.8549 99.3691-93.8024Q87.8805-98.7499 74.7687-98.7499Q61.7374-98.7499 50.234-93.8024Q38.7306-88.8549 29.9824-80.0412Q21.2342-71.2275 16.2465-59.7389Q11.2588-48.2504 11.2588-35.1893Q11.2588-22.1282 16.2465-10.6396Q21.2342 0.848896 30.0077 9.66263Q38.7813 18.4764 50.2847 23.4239Q61.7881 28.3714 74.8194 28.3714ZM116.805-35.1683Q116.805-31.9989 113.179-29.8958Q109.552-27.7927 104.381-27.7927L90.477-27.7927Q88.4875-27.7927 87.171-26.3959L64.4407-1.60433Q63.1925-0.195306 61.5212-0.195306L57.5895-0.195306Q56.6718-0.195306 56.1832-0.946101Q55.6946-1.6969 56.1473-2.64434L67.5913-27.8941L51.0348-29.714L45.0925-18.8033Q44.2465-17.3733 42.3725-17.3733L40.8445-17.3733Q39.9984-17.3733 39.4592-17.8575Q38.9199-18.3417 38.9199-19.2682L38.9199-51.0684Q38.9199-51.995 39.4592-52.4791Q39.9984-52.9633 40.8445-52.9633L42.3725-52.9633Q44.2465-52.9633 45.0925-51.5334L51.0348-40.6227L67.5913-42.4426L56.1473-67.6923Q55.6946-68.6398 56.1832-69.3906Q56.6718-70.1414 57.5895-70.1414L61.5212-70.1414Q63.1925-70.1414 64.4407-68.7323L87.171-43.9408Q88.4875-42.5439 90.477-42.5439L104.381-42.5439Q109.552-42.5439 113.179-40.4409Q116.805-38.3378 116.805-35.1683Z"/>
  </g>
  <g id="Light-L" transform="matrix(1 0 0 1 1079.2 1556)">
   <path d="M73.8959 27.4479Q86.8436 27.4479 98.1577 22.5825Q109.472 17.717 118.137 9.03671Q126.802 0.356369 131.708-10.9577Q136.614-22.2718 136.614-35.1893Q136.614-48.1067 131.708-59.4208Q126.802-70.7349 118.122-79.4153Q109.442-88.0956 98.1275-92.961Q86.8134-97.8264 73.8658-97.8264Q60.9986-97.8264 49.6594-92.961Q38.3201-88.0956 29.6951-79.4153Q21.07-70.7349 16.1644-59.4208Q11.2588-48.1067 11.2588-35.1893Q11.2588-22.2718 16.1644-10.9577Q21.07 0.356369 29.7102 9.03671Q38.3503 17.717 49.6895 22.5825Q61.0287 27.4479 73.8959 27.4479ZM115.553-35.2094Q115.553-32.1836 112.06-30.1831Q108.567-28.1827 103.601-28.1827L89.7588-28.1827Q87.7282-28.1827 86.3912-26.7653L64.2354-2.56886Q63.0693-1.24193 61.5212-1.24193L57.651-1.24193Q56.877-1.24193 56.4397-1.90037Q56.0024-2.55882 56.4347-3.38313L67.6734-28.243L50.6244-30.0424L44.7437-19.3164Q43.9797-18.0095 42.3109-18.0095L40.783-18.0095Q40.019-18.0095 39.5515-18.4116Q39.0841-18.8137 39.0841-19.6581L39.0841-50.7606Q39.0841-51.605 39.5515-52.0071Q40.019-52.4092 40.783-52.4092L42.3109-52.4092Q43.9797-52.4092 44.7437-51.1024L50.6244-40.3764L67.6734-42.1758L56.4347-67.0356Q56.0024-67.8599 56.4397-68.5184Q56.877-69.1768 57.651-69.1768L61.5212-69.1768Q63.0693-69.1768 64.2354-67.8499L86.3912-43.6535Q87.7282-42.2361 89.7588-42.2361L103.601-42.2361Q108.567-42.2361 112.06-40.2357Q115.553-38.2352 115.553-35.2094Z"/>
  </g>
  <g id="Thin-L" transform="matrix(1 0 0 1 783.707 1556)">
   <path d="M72.6746 26.2265Q85.405 26.2265 96.4884 21.4696Q107.572 16.7128 116.074 8.20888Q124.577-0.295038 129.374-11.3784Q134.171-22.4618 134.171-35.1893Q134.171-47.9168 129.374-59.0001Q124.577-70.0835 116.073-78.5874Q107.569-87.0914 96.4854-91.8482Q85.402-96.605 72.6715-96.605Q60.0215-96.605 48.8994-91.8482Q37.7773-87.0914 29.3151-78.5874Q20.8529-70.0835 16.0558-59.0001Q11.2588-47.9168 11.2588-35.1893Q11.2588-22.4618 16.0558-11.3784Q20.8529-0.295038 29.3166 8.20888Q37.7803 16.7128 48.9024 21.4696Q60.0245 26.2265 72.6746 26.2265ZM113.898-35.2637Q113.898-32.4278 110.581-30.5631Q107.264-28.6984 102.57-28.6984L88.8088-28.6984Q86.7239-28.6984 85.3598-27.2538L63.964-3.84453Q62.9065-2.62617 61.5212-2.62617L57.7325-2.62617Q57.1484-2.62617 56.779-3.16247Q56.4095-3.69878 56.8146-4.36025L67.7819-28.7044L50.0815-30.4766L44.2823-19.9949Q43.6268-18.8509 42.2295-18.8509L40.7015-18.8509Q40.0461-18.8509 39.6737-19.1445Q39.3012-19.438 39.3012-20.1738L39.3012-50.3535Q39.3012-51.0893 39.6737-51.3829Q40.0461-51.6764 40.7015-51.6764L42.2295-51.6764Q43.6268-51.6764 44.2823-50.5324L50.0815-40.0507L67.7819-41.8229L56.8146-66.1671Q56.4095-66.8286 56.779-67.3649Q57.1484-67.9012 57.7325-67.9012L61.5212-67.9012Q62.9065-67.9012 63.964-66.6828L85.3598-43.2735Q86.7239-41.829 88.8088-41.829L102.57-41.829Q107.264-41.829 110.581-39.9642Q113.898-38.0995 113.898-35.2637Z"/>
  </g>
  <g id="Ultralight-L" transform="matrix(1 0 0 1 487.622 1556)">
   <path d="M72.049 25.6009Q84.6682 25.6009 95.6335 20.8997Q106.599 16.1984 115.018 7.78487Q123.437-0.628686 128.178-11.5939Q132.92-22.5591 132.92-35.1893Q132.92-47.8194 128.178-58.7847Q123.437-69.7499 115.023-78.1634Q106.61-86.577 95.6443-91.2782Q84.6791-95.9795 72.0598-95.9795Q59.521-95.9795 48.5101-91.2782Q37.4993-86.577 29.1205-78.1634Q20.7417-69.7499 16.0002-58.7847Q11.2588-47.8194 11.2588-35.1893Q11.2588-22.5591 16.0002-11.5939Q20.7417-0.628686 29.115 7.78487Q37.4884 16.1984 48.4992 20.8997Q59.5101 25.6009 72.049 25.6009ZM113.05-35.2915Q113.05-32.553 109.823-30.7577Q106.597-28.9625 102.041-28.9625L88.3222-28.9625Q86.2095-28.9625 84.8315-27.5041L63.825-4.49793Q62.8231-3.33517 61.5212-3.33517L57.7742-3.33517Q57.2874-3.33517 56.9527-3.80892Q56.6181-4.28266 57.0093-4.86072L67.8375-28.9407L49.8035-30.6991L44.0459-20.3425Q43.4461-19.2819 42.1878-19.2819L40.6598-19.2819Q40.06-19.2819 39.7362-19.5198Q39.4124-19.7577 39.4124-20.438L39.4124-50.145Q39.4124-50.8252 39.7362-51.0631Q40.06-51.3011 40.6598-51.3011L42.1878-51.3011Q43.4461-51.3011 44.0459-50.2405L49.8035-39.8839L67.8375-41.6422L57.0093-65.7222Q56.6181-66.3003 56.9527-66.774Q57.2874-67.2478 57.7742-67.2478L61.5212-67.2478Q62.8231-67.2478 63.825-66.085L84.8315-43.0789Q86.2095-41.6204 88.3222-41.6204L102.041-41.6204Q106.597-41.6204 109.823-39.8252Q113.05-38.03 113.05-35.2915Z"/>
  </g>
  <g id="Black-M" transform="matrix(1 0 0 1 2871.36 1126)">
   <path d="M62.0423 18.1784Q73.0725 18.1784 82.714 14.0236Q92.3555 9.86885 99.704 2.51762Q107.052-4.83361 111.21-14.4751Q115.367-24.1166 115.367-35.1412Q115.367-46.1659 111.21-55.8074Q107.052-65.4489 99.7012-72.8001Q92.35-80.1513 82.7085-84.3061Q73.067-88.4609 62.0368-88.4609Q51.0119-88.4609 41.3705-84.3061Q31.7292-80.1513 24.3833-72.8001Q17.0375-65.4489 12.8801-55.8074Q8.72266-46.1659 8.72266-35.1412Q8.72266-24.1166 12.8801-14.4751Q17.0375-4.83361 24.3861 2.51762Q31.7347 9.86885 41.376 14.0236Q51.0174 18.1784 62.0423 18.1784ZM94.4302-35.0783Q94.4302-32.1739 91.2975-30.0567Q88.1647-27.9396 83.925-27.9396L73.4256-27.9396Q72.5019-27.9396 71.6766-27.1662L55.1257-9.96568Q54.0082-8.66648 52.2879-8.66648L48.0869-8.66648Q46.927-8.66648 46.3474-9.63868Q45.7678-10.6109 46.199-11.7134L54.1566-28.0077L44.2308-29.1555L40.128-22.605Q39.265-21.0716 37.4655-21.0716L36.2817-21.0716Q35.1332-21.0716 34.3767-21.797Q33.6203-22.5225 33.6203-23.6191L33.6203-46.5375Q33.6203-47.6342 34.3767-48.3596Q35.1332-49.0851 36.2817-49.0851L37.4655-49.0851Q39.265-49.0851 40.128-47.5517L44.2308-41.0011L54.1566-42.149L46.199-58.4433Q45.7678-59.5458 46.3474-60.518Q46.927-61.4902 48.0869-61.4902L52.2879-61.4902Q54.0082-61.4902 55.1257-60.191L71.6766-42.9905Q72.5019-42.2171 73.4256-42.2171L83.925-42.2171Q88.1647-42.2171 91.2975-40.0999Q94.4302-37.9827 94.4302-35.0783Z"/>
  </g>
  <g id="Heavy-M" transform="matrix(1 0 0 1 2575.48 1126)">
   <path d="M61.2045 17.3271Q72.0509 17.3271 81.541 13.2372Q91.0312 9.14728 98.2688 1.90151Q105.506-5.34426 109.606-14.8344Q113.705-24.3245 113.705-35.1547Q113.705-45.985 109.606-55.4751Q105.506-64.9652 98.2607-72.2109Q91.0149-79.4567 81.5248-83.5466Q72.0347-87.6365 61.1882-87.6365Q50.3604-87.6365 40.8691-83.5466Q31.3778-79.4567 24.1495-72.2109Q16.9211-64.9652 12.8219-55.4751Q8.72266-45.985 8.72266-35.1547Q8.72266-24.3245 12.8219-14.8344Q16.9211-5.34426 24.1576 1.90151Q31.394 9.14728 40.8853 13.2372Q50.3767 17.3271 61.2045 17.3271ZM93.6696-35.0973Q93.6696-32.2795 90.5952-30.2637Q87.5207-28.2478 83.3085-28.2478L72.7365-28.2478Q71.6725-28.2478 70.8041-27.4043L53.9259-9.65023Q52.8329-8.38897 51.1964-8.38897L47.2597-8.38897Q46.1865-8.38897 45.6474-9.28143Q45.1083-10.1739 45.5233-11.206L53.7229-28.3239L43.1787-29.5364L38.9494-22.512Q38.1243-21.0625 36.3793-21.0625L35.1955-21.0625Q34.1523-21.0625 33.4661-21.7163Q32.7799-22.3701 32.7799-23.3884L32.7799-46.8062Q32.7799-47.8245 33.4661-48.4783Q34.1523-49.1321 35.1955-49.1321L36.3793-49.1321Q38.1243-49.1321 38.9494-47.6826L43.1787-40.6582L53.7229-41.8707L45.5233-58.9886Q45.1083-60.0207 45.6474-60.9132Q46.1865-61.8056 47.2597-61.8056L51.1964-61.8056Q52.8329-61.8056 53.9259-60.5444L70.8041-42.7903Q71.6725-41.9468 72.7365-41.9468L83.3085-41.9468Q87.5207-41.9468 90.5952-39.9309Q93.6696-37.9151 93.6696-35.0973Z"/>
  </g>
  <g id="Bold-M" transform="matrix(1 0 0 1 2279.69 1126)">
   <path d="M60.2672 16.3747Q70.9082 16.3747 80.2289 12.3574Q89.5497 8.34011 96.6634 1.21231Q103.777-5.9155 107.811-15.2363Q111.845-24.557 111.845-35.1698Q111.845-45.7825 107.811-55.1033Q103.777-64.4241 96.6493-71.5519Q89.5215-78.6797 80.2007-82.697Q70.8799-86.7143 60.2389-86.7143Q49.6317-86.7143 40.3082-82.697Q30.9846-78.6797 23.8878-71.5519Q16.791-64.4241 12.7568-55.1033Q8.72266-45.7825 8.72266-35.1698Q8.72266-24.557 12.7568-15.2363Q16.791-5.9155 23.902 1.21231Q31.0129 8.34011 40.3364 12.3574Q49.6599 16.3747 60.2672 16.3747ZM92.8188-35.1185Q92.8188-32.3976 89.8096-30.4951Q86.8003-28.5926 82.6188-28.5926L71.9656-28.5926Q70.7448-28.5926 69.828-27.6707L52.5838-9.29735Q51.5181-8.07855 49.9755-8.07855L46.3344-8.07855Q45.358-8.07855 44.8643-8.8818Q44.3706-9.68505 44.7675-10.6384L53.2378-28.6777L42.0018-29.9624L37.631-22.408Q36.8483-21.0523 35.1642-21.0523L33.9804-21.0523Q33.055-21.0523 32.4474-21.626Q31.8398-22.1997 31.8398-23.1303L31.8398-47.1068Q31.8398-48.0374 32.4474-48.6111Q33.055-49.1847 33.9804-49.1847L35.1642-49.1847Q36.8483-49.1847 37.631-47.829L42.0018-40.2746L53.2378-41.5594L44.7675-59.5987Q44.3706-60.552 44.8643-61.3553Q45.358-62.1585 46.3344-62.1585L49.9755-62.1585Q51.5181-62.1585 52.5838-60.9397L69.828-42.5664Q70.7448-41.6444 71.9656-41.6444L82.6188-41.6444Q86.8003-41.6444 89.8096-39.7419Q92.8188-37.8394 92.8188-35.1185Z"/>
  </g>
  <g id="Semibold-M" transform="matrix(1 0 0 1 1983.62 1126)">
   <path d="M59.621 15.7182Q70.1203 15.7182 79.3244 11.7509Q88.5284 7.78365 95.5566 0.737173Q102.585-6.30931 106.574-15.5133Q110.564-24.7174 110.564-35.1802Q110.564-45.643 106.574-54.847Q102.585-64.0511 95.5384-71.0975Q88.4919-78.144 79.2879-82.1113Q70.0838-86.0785 59.5845-86.0785Q49.1293-86.0785 39.9215-82.1113Q30.7136-78.144 23.7075-71.0975Q16.7013-64.0511 12.712-54.847Q8.72266-45.643 8.72266-35.1802Q8.72266-24.7174 12.712-15.5133Q16.7013-6.30931 23.7257 0.737173Q30.7501 7.78365 39.958 11.7509Q49.1658 15.7182 59.621 15.7182ZM92.2322-35.1332Q92.2322-32.4791 89.2679-30.6547Q86.3037-28.8304 82.1434-28.8304L71.4342-28.8304Q70.1052-28.8304 69.1551-27.8543L51.6585-9.05408Q50.6117-7.86454 49.1338-7.86454L45.6965-7.86454Q44.7869-7.86454 44.3245-8.60629Q43.8621-9.34805 44.2464-10.2471L52.9034-28.9215L41.1904-30.2561L36.722-22.3363Q35.9686-21.0453 34.3265-21.0453L33.1427-21.0453Q32.2985-21.0453 31.7451-21.5637Q31.1917-22.0822 31.1917-22.9523L31.1917-47.314Q31.1917-48.1842 31.7451-48.7026Q32.2985-49.221 33.1427-49.221L34.3265-49.221Q35.9686-49.221 36.722-47.93L41.1904-40.0102L52.9034-41.3448L44.2464-60.0192Q43.8621-60.9183 44.3245-61.66Q44.7869-62.4018 45.6965-62.4018L49.1338-62.4018Q50.6117-62.4018 51.6585-61.2122L69.1551-42.412Q70.1052-41.4359 71.4342-41.4359L82.1434-41.4359Q86.3037-41.4359 89.2679-39.6116Q92.2322-37.7873 92.2322-35.1332Z"/>
  </g>
  <g id="Medium-M" transform="matrix(1 0 0 1 1687.4 1126)">
   <path d="M59.1311 15.2203Q69.523 15.2203 78.6385 11.291Q87.754 7.36172 94.7174 0.376908Q101.681-6.60791 105.636-15.7234Q109.591-24.8389 109.591-35.1881Q109.591-45.5372 105.636-54.6527Q101.681-63.7682 94.696-70.753Q87.7112-77.7378 78.5957-81.6672Q69.4802-85.5965 59.0883-85.5965Q48.7484-85.5965 39.6283-81.6672Q30.5081-77.7378 23.5707-70.753Q16.6333-63.7682 12.678-54.6527Q8.72266-45.5372 8.72266-35.1881Q8.72266-24.8389 12.678-15.7234Q16.6333-6.60791 23.5921 0.376908Q30.5509 7.36172 39.671 11.291Q48.7912 15.2203 59.1311 15.2203ZM91.7875-35.1443Q91.7875-32.5408 88.8573-30.7757Q85.9271-29.0106 81.7829-29.0106L71.0312-29.0106Q69.6202-29.0106 68.6449-27.9936L50.9569-8.86963Q49.9245-7.70228 48.4956-7.70228L45.2128-7.70228Q44.3539-7.70228 43.9152-8.3974Q43.4765-9.09252 43.8513-9.9504L52.6498-29.1065L40.5752-30.4788L36.0328-22.282Q35.3016-21.04 33.6913-21.04L32.5075-21.04Q31.7249-21.04 31.2126-21.5165Q30.7003-21.9931 30.7003-22.8174L30.7003-47.4711Q30.7003-48.2954 31.2126-48.772Q31.7249-49.2485 32.5075-49.2485L33.6913-49.2485Q35.3016-49.2485 36.0328-48.0065L40.5752-39.8097L52.6498-41.182L43.8513-60.3381Q43.4765-61.196 43.9152-61.8911Q44.3539-62.5862 45.2128-62.5862L48.4956-62.5862Q49.9245-62.5862 50.9569-61.4189L68.6449-42.2949Q69.6202-41.2779 71.0312-41.2779L81.7829-41.2779Q85.9271-41.2779 88.8573-39.5128Q91.7875-37.7477 91.7875-35.1443Z"/>
  </g>
  <g id="Regular-M" transform="matrix(1 0 0 1 1391.32 1126)">
   <path d="M58.492 14.571Q68.7438 14.571 77.7439 10.6912Q86.7439 6.81138 93.6228-0.093004Q100.502-6.99738 104.413-15.9974Q108.324-24.9975 108.324-35.1983Q108.324-45.3992 104.413-54.3992Q100.502-63.3993 93.5973-70.3037Q86.693-77.2081 77.6929-81.0879Q68.6929-84.9677 58.441-84.9677Q48.2515-84.9677 39.2458-81.0879Q30.2401-77.2081 23.3923-70.3037Q16.5446-63.3993 12.6336-54.3992Q8.72266-45.3992 8.72266-35.1983Q8.72266-24.9975 12.6336-15.9974Q16.5446-6.99738 23.4178-0.093004Q30.291 6.81138 39.2968 10.6912Q48.3025 14.571 58.492 14.571ZM91.2074-35.1587Q91.2074-32.6213 88.3216-30.9335Q85.4359-29.2457 81.3126-29.2457L70.5056-29.2457Q68.9876-29.2457 67.9794-28.1752L50.0418-8.62903Q49.028-7.49062 47.6631-7.49062L44.5819-7.49062Q43.789-7.49062 43.3813-8.12492Q42.9735-8.75922 43.336-9.56341L52.319-29.3477L39.7727-30.7693L35.1339-22.2111Q34.4316-21.0331 32.8628-21.0331L31.6791-21.0331Q30.9768-21.0331 30.518-21.455Q30.0593-21.8769 30.0593-22.6414L30.0593-47.676Q30.0593-48.4406 30.518-48.8625Q30.9768-49.2844 31.6791-49.2844L32.8628-49.2844Q34.4316-49.2844 35.1339-48.1064L39.7727-39.5481L52.319-40.9698L43.336-60.754Q42.9735-61.5582 43.3813-62.1925Q43.789-62.8268 44.5819-62.8268L47.6631-62.8268Q49.028-62.8268 50.0418-61.6884L67.9794-42.1422Q68.9876-41.0717 70.5056-41.0717L81.3126-41.0717Q85.4359-41.0717 88.3216-39.3839Q91.2074-37.6961 91.2074-35.1587Z"/>
  </g>
  <g id="Light-M" transform="matrix(1 0 0 1 1095.44 1126)">
   <path d="M57.664 13.743Q67.7687 13.743 76.6123 9.93683Q85.456 6.13061 92.2245-0.654174Q98.993-7.43896 102.83-16.2826Q106.668-25.1263 106.668-35.1983Q106.668-45.2704 102.83-54.1141Q98.993-62.9577 92.2082-69.7425Q85.4234-76.5273 76.5798-80.3335Q67.7361-84.1397 57.6315-84.1397Q47.5892-84.1397 38.7306-80.3335Q29.8721-76.5273 23.1348-69.7425Q16.3974-62.9577 12.56-54.1141Q8.72266-45.2704 8.72266-35.1983Q8.72266-25.1263 12.56-16.2826Q16.3974-7.43896 23.151-0.654174Q29.9047 6.13061 38.7632 9.93683Q47.6217 13.743 57.664 13.743ZM90.085-35.1955Q90.085-32.7869 87.3189-31.1911Q84.5527-29.5953 80.6135-29.5953L69.8617-29.5953Q68.3069-29.5953 67.2803-28.5064L49.8578-9.49378Q48.9176-8.42897 47.6631-8.42897L44.6371-8.42897Q43.973-8.42897 43.6113-8.98047Q43.2495-9.53198 43.5936-10.2258L52.3926-29.6604L39.4047-31.0637L34.8211-22.671Q34.1924-21.6034 32.8076-21.6034L31.6239-21.6034Q30.9952-21.6034 30.6008-21.9517Q30.2065-22.3 30.2065-22.991L30.2065-47.4Q30.2065-48.091 30.6008-48.4393Q30.9952-48.7876 31.6239-48.7876L32.8076-48.7876Q34.1924-48.7876 34.8211-47.72L39.4047-39.3273L52.3926-40.7306L43.5936-60.1653Q43.2495-60.8591 43.6113-61.4106Q43.973-61.9621 44.6371-61.9621L47.6631-61.9621Q48.9176-61.9621 49.8578-60.8973L67.2803-41.8847Q68.3069-40.7957 69.8617-40.7957L80.6135-40.7957Q84.5527-40.7957 87.3189-39.1999Q90.085-37.6041 90.085-35.1955Z"/>
  </g>
  <g id="Thin-M" transform="matrix(1 0 0 1 799.822 1126)">
   <path d="M56.569 12.648Q66.479 12.648 75.1158 8.93913Q83.7526 5.23025 90.3751-1.39637Q96.9976-8.02298 100.738-16.6598Q104.478-25.2966 104.478-35.1983Q104.478-45.1001 100.738-53.7369Q96.9976-62.3737 90.371-69.0003Q83.7444-75.6269 75.1076-79.3358Q66.4707-83.0447 56.5608-83.0447Q46.7131-83.0447 38.0493-79.3358Q29.3854-75.6269 22.7941-69.0003Q16.2027-62.3737 12.4627-53.7369Q8.72266-45.1001 8.72266-35.1983Q8.72266-25.2966 12.4627-16.6598Q16.2027-8.02298 22.7982-1.39637Q29.3936 5.23025 38.0575 8.93913Q46.7214 12.648 56.569 12.648ZM88.6006-35.2442Q88.6006-33.0059 85.9927-31.5318Q83.3847-30.0577 79.6888-30.0577L69.01-30.0577Q67.4065-30.0577 66.3556-28.9444L49.6145-10.6375Q48.7716-9.67001 47.6631-9.67001L44.7101-9.67001Q44.2164-9.67001 43.9154-10.112Q43.6145-10.554 43.9342-11.1018L52.4899-30.0741L38.918-31.453L34.4074-23.2794Q33.8761-22.3578 32.7346-22.3578L31.5509-22.3578Q31.0195-22.3578 30.7103-22.6088Q30.4012-22.8597 30.4012-23.4534L30.4012-47.035Q30.4012-47.6287 30.7103-47.8796Q31.0195-48.1306 31.5509-48.1306L32.7346-48.1306Q33.8761-48.1306 34.4074-47.209L38.918-39.0353L52.4899-40.4143L43.9342-59.3866Q43.6145-59.9344 43.9154-60.3764Q44.2164-60.8184 44.7101-60.8184L47.6631-60.8184Q48.7716-60.8184 49.6145-59.8509L66.3556-41.544Q67.4065-40.4307 69.01-40.4307L79.6888-40.4307Q83.3847-40.4307 85.9927-38.9566Q88.6006-37.4824 88.6006-35.2442Z"/>
  </g>
  <g id="Ultralight-M" transform="matrix(1 0 0 1 503.672 1126)">
   <path d="M56.0081 12.0871Q65.8184 12.0871 74.3492 8.42811Q82.8801 4.76909 89.4278-1.77651Q95.9756-8.32211 99.6657-16.853Q103.356-25.3839 103.356-35.1983Q103.356-45.0128 99.6657-53.5437Q95.9756-62.0746 89.43-68.6202Q82.8844-75.1658 74.3535-78.8248Q65.8226-82.4838 56.0124-82.4838Q46.2644-82.4838 37.7003-78.8248Q29.1361-75.1658 22.6196-68.6202Q16.103-62.0746 12.4128-53.5437Q8.72266-45.0128 8.72266-35.1983Q8.72266-25.3839 12.4128-16.853Q16.103-8.32211 22.6175-1.77651Q29.1319 4.76909 37.6961 8.42811Q46.2602 12.0871 56.0081 12.0871ZM87.8403-35.2691Q87.8403-33.1181 85.3134-31.7063Q82.7864-30.2945 79.2151-30.2945L68.5738-30.2945Q66.9454-30.2945 65.8819-29.1688L49.4899-11.2233Q48.6968-10.3057 47.6631-10.3057L44.7475-10.3057Q44.341-10.3057 44.0712-10.6916Q43.8015-11.0775 44.1087-11.5505L52.5398-30.286L38.6688-31.6525L34.1955-23.591Q33.7141-22.7442 32.6972-22.7442L31.5135-22.7442Q31.032-22.7442 30.7664-22.9453Q30.5009-23.1464 30.5009-23.6902L30.5009-46.8481Q30.5009-47.3918 30.7664-47.593Q31.032-47.7941 31.5135-47.7941L32.6972-47.7941Q33.7141-47.7941 34.1955-46.9472L38.6688-38.8858L52.5398-40.2522L44.1087-58.9877Q43.8015-59.4607 44.0712-59.8467Q44.341-60.2326 44.7475-60.2326L47.6631-60.2326Q48.6968-60.2326 49.4899-59.315L65.8819-41.3695Q66.9454-40.2438 68.5738-40.2438L79.2151-40.2438Q82.7864-40.2438 85.3134-38.8319Q87.8403-37.4201 87.8403-35.2691Z"/>
  </g>
  <g id="Black-S" transform="matrix(1 0 0 1 2884.57 696)">
   <path d="M48.8281 6.83594Q57.5195 6.83594 65.1123 3.56445Q72.7051 0.292969 78.4912-5.49316Q84.2773-11.2793 87.5488-18.8721Q90.8203-26.4648 90.8203-35.1562Q90.8203-43.8477 87.5488-51.4404Q84.2773-59.0332 78.4912-64.8193Q72.7051-70.6055 65.1123-73.877Q57.5195-77.1484 48.8281-77.1484Q40.1367-77.1484 32.5439-73.877Q24.9512-70.6055 19.165-64.8193Q13.3789-59.0332 10.1074-51.4404Q6.83594-43.8477 6.83594-35.1562Q6.83594-26.4648 10.1074-18.8721Q13.3789-11.2793 19.165-5.49316Q24.9512 0.292969 32.5439 3.56445Q40.1367 6.83594 48.8281 6.83594ZM74.1699-35.1074Q74.1699-32.8125 71.7041-31.1279Q69.2383-29.4434 65.918-29.4434L57.7148-29.4434Q57.0312-29.4434 56.3965-28.8574L43.5547-15.5762Q42.6758-14.5508 41.3086-14.5508L37.9395-14.5508Q37.0117-14.5508 36.5479-15.332Q36.084-16.1133 36.4258-16.9922L42.5781-29.4922L34.9609-30.3711L31.7871-25.3906Q31.1035-24.1699 29.6875-24.1699L28.7598-24.1699Q27.832-24.1699 27.2217-24.7559Q26.6113-25.3418 26.6113-26.2207L26.6113-43.9941Q26.6113-44.873 27.2217-45.459Q27.832-46.0449 28.7598-46.0449L29.6875-46.0449Q31.1035-46.0449 31.7871-44.8242L34.9609-39.8438L42.5781-40.7227L36.4258-53.2227Q36.084-54.1016 36.5479-54.8828Q37.0117-55.6641 37.9395-55.6641L41.3086-55.6641Q42.6758-55.6641 43.5547-54.6387L56.3965-41.3574Q57.0312-40.7715 57.7148-40.7715L65.918-40.7715Q69.2383-40.7715 71.7041-39.0869Q74.1699-37.4023 74.1699-35.1074Z"/>
  </g>
  <g id="Heavy-S" transform="matrix(1 0 0 1 2588.47 696)">
   <path d="M48.2173 6.21362Q56.7704 6.21362 64.2537 2.98823Q71.737-0.237157 77.4425-5.94838Q83.1479-11.6596 86.3791-19.1429Q89.6102-26.6262 89.6102-35.1678Q89.6102-43.7094 86.3791-51.1927Q83.1479-58.6759 77.4367-64.3872Q71.7255-70.0984 64.2422-73.3238Q56.7589-76.5492 48.2058-76.5492Q39.6642-76.5492 32.1809-73.3238Q24.6976-70.0984 18.9979-64.3872Q13.2982-58.6759 10.0671-51.1927Q6.83594-43.7094 6.83594-35.1678Q6.83594-26.6262 10.0671-19.1429Q13.2982-11.6596 19.0037-5.94838Q24.7092-0.237157 32.1924 2.98823Q39.6757 6.21362 48.2173 6.21362ZM73.6628-35.1189Q73.6628-32.8816 71.2316-31.272Q68.8004-29.6623 65.48-29.6623L57.2078-29.6623Q56.4089-29.6623 55.7396-29.0188L42.5521-15.1959Q41.6847-14.1935 40.3751-14.1935L37.2249-14.1935Q36.3548-14.1935 35.9198-14.9172Q35.4847-15.6408 35.815-16.4736L42.1978-29.7227L34.1081-30.6592L30.8191-25.2523Q30.1585-24.0893 28.7655-24.0893L27.8378-24.0893Q26.9907-24.0893 26.4323-24.6233Q25.8738-25.1574 25.8738-25.9787L25.8738-44.2592Q25.8738-45.0805 26.4323-45.6146Q26.9907-46.1486 27.8378-46.1486L28.7655-46.1486Q30.1585-46.1486 30.8191-44.9856L34.1081-39.5787L42.1978-40.5152L35.815-53.7643Q35.4847-54.5971 35.9198-55.3207Q36.3548-56.0444 37.2249-56.0444L40.3751-56.0444Q41.6847-56.0444 42.5521-55.042L55.7396-41.2191Q56.4089-40.5756 57.2078-40.5756L65.48-40.5756Q68.8004-40.5756 71.2316-38.9659Q73.6628-37.3562 73.6628-35.1189Z"/>
  </g>
  <g id="Bold-S" transform="matrix(1 0 0 1 2292.43 696)">
   <path d="M47.5342 5.51758Q55.9326 5.51758 63.2935 2.34375Q70.6543-0.830078 76.2695-6.45752Q81.8848-12.085 85.0708-19.4458Q88.2568-26.8066 88.2568-35.1807Q88.2568-43.5547 85.0708-50.9155Q81.8848-58.2764 76.2573-63.9038Q70.6299-69.5312 63.269-72.7051Q55.9082-75.8789 47.5098-75.8789Q39.1357-75.8789 31.7749-72.7051Q24.4141-69.5312 18.811-63.9038Q13.208-58.2764 10.022-50.9155Q6.83594-43.5547 6.83594-35.1807Q6.83594-26.8066 10.022-19.4458Q13.208-12.085 18.8232-6.45752Q24.4385-0.830078 31.7993 2.34375Q39.1602 5.51758 47.5342 5.51758ZM73.0957-35.1318Q73.0957-32.959 70.7031-31.4331Q68.3105-29.9072 64.9902-29.9072L56.6406-29.9072Q55.7129-29.9072 55.0049-29.1992L41.4307-14.7705Q40.5762-13.7939 39.3311-13.7939L36.4258-13.7939Q35.6201-13.7939 35.2173-14.4531Q34.8145-15.1123 35.1318-15.8936L41.7725-29.9805L33.1543-30.9814L29.7363-25.0977Q29.1016-23.999 27.7344-23.999L26.8066-23.999Q26.0498-23.999 25.5493-24.4751Q25.0488-24.9512 25.0488-25.708L25.0488-44.5557Q25.0488-45.3125 25.5493-45.7886Q26.0498-46.2646 26.8066-46.2646L27.7344-46.2646Q29.1016-46.2646 29.7363-45.166L33.1543-39.2822L41.7725-40.2832L35.1318-54.3701Q34.8145-55.1514 35.2173-55.8105Q35.6201-56.4697 36.4258-56.4697L39.3311-56.4697Q40.5762-56.4697 41.4307-55.4932L55.0049-41.0645Q55.7129-40.3564 56.6406-40.3564L64.9902-40.3564Q68.3105-40.3564 70.7031-38.8306Q73.0957-37.3047 73.0957-35.1318Z"/>
  </g>
  <g id="Semibold-S" transform="matrix(1 0 0 1 1996.19 696)">
   <path d="M47.0632 5.0377Q55.355 5.0377 62.6314 1.89941Q69.9078-1.23887 75.4608-6.80854Q81.0139-12.3782 84.1688-19.6546Q87.3237-26.9311 87.3237-35.1896Q87.3237-43.448 84.1688-50.7245Q81.0139-58.0009 75.4442-63.5706Q69.8745-69.1402 62.5981-72.2785Q55.3217-75.4168 47.0299-75.4168Q38.7714-75.4168 31.495-72.2785Q24.2186-69.1402 18.6822-63.5706Q13.1458-58.0009 9.99087-50.7245Q6.83594-43.448 6.83594-35.1896Q6.83594-26.9311 9.99087-19.6546Q13.1458-12.3782 18.6988-6.80854Q24.2519-1.23887 31.5283 1.89941Q38.8047 5.0377 47.0632 5.0377ZM72.7047-35.1407Q72.7047-33.0123 70.3388-31.5442Q67.9729-30.0761 64.6525-30.0761L56.2496-30.0761Q55.233-30.0761 54.4983-29.3236L40.6575-14.4772Q39.8119-13.5185 38.6112-13.5185L35.8748-13.5185Q35.1136-13.5185 34.733-14.1332Q34.3523-14.7479 34.6608-15.4937L41.4792-30.1582L32.4967-31.2036L28.9898-24.991Q28.3729-23.9368 27.0234-23.9368L26.0957-23.9368Q25.4011-23.9368 24.9406-24.3729Q24.4801-24.809 24.4801-25.5214L24.4801-44.7601Q24.4801-45.4725 24.9406-45.9085Q25.4011-46.3446 26.0957-46.3446L27.0234-46.3446Q28.3729-46.3446 28.9898-45.2904L32.4967-39.0778L41.4792-40.1232L34.6608-54.7878Q34.3523-55.5335 34.733-56.1482Q35.1136-56.763 35.8748-56.763L38.6112-56.763Q39.8119-56.763 40.6575-55.8042L54.4983-40.9578Q55.233-40.2054 56.2496-40.2054L64.6525-40.2054Q67.9729-40.2054 70.3388-38.7373Q72.7047-37.2691 72.7047-35.1407Z"/>
  </g>
  <g id="Medium-S" transform="matrix(1 0 0 1 1699.83 696)">
   <path d="M46.7061 4.67383Q54.917 4.67383 62.1294 1.5625Q69.3418-1.54883 74.8477-7.07471Q80.3535-12.6006 83.4849-19.813Q86.6162-27.0254 86.6162-35.1963Q86.6162-43.3672 83.4849-50.5796Q80.3535-57.792 74.8276-63.3179Q69.3018-68.8438 62.0894-71.9551Q54.877-75.0664 46.666-75.0664Q38.4951-75.0664 31.2827-71.9551Q24.0703-68.8438 18.5845-63.3179Q13.0986-57.792 9.96729-50.5796Q6.83594-43.3672 6.83594-35.1963Q6.83594-27.0254 9.96729-19.813Q13.0986-12.6006 18.6045-7.07471Q24.1104-1.54883 31.3228 1.5625Q38.5352 4.67383 46.7061 4.67383ZM72.4082-35.1475Q72.4082-33.0527 70.0625-31.6284Q67.7168-30.2041 64.3965-30.2041L55.9531-30.2041Q54.8691-30.2041 54.1143-29.418L40.0713-14.2549Q39.2324-13.3096 38.0654-13.3096L35.457-13.3096Q34.7295-13.3096 34.3657-13.8906Q34.002-14.4717 34.3037-15.1904L41.2568-30.293L31.998-31.3721L28.4238-24.9102Q27.8203-23.8896 26.4844-23.8896L25.5566-23.8896Q24.9092-23.8896 24.479-24.2954Q24.0488-24.7012 24.0488-25.3799L24.0488-44.915Q24.0488-45.5938 24.479-45.9995Q24.9092-46.4053 25.5566-46.4053L26.4844-46.4053Q27.8203-46.4053 28.4238-45.3848L31.998-38.9229L41.2568-40.002L34.3037-55.1045Q34.002-55.8232 34.3657-56.4043Q34.7295-56.9854 35.457-56.9854L38.0654-56.9854Q39.2324-56.9854 40.0713-56.04L54.1143-40.877Q54.8691-40.0908 55.9531-40.0908L64.3965-40.0908Q67.7168-40.0908 70.0625-38.6665Q72.4082-37.2422 72.4082-35.1475Z"/>
  </g>
  <g id="Regular-S" transform="matrix(1 0 0 1 1403.58 696)">
   <path d="M46.2402 4.19922Q54.3457 4.19922 61.4746 1.12305Q68.6035-1.95312 74.0479-7.42188Q79.4922-12.8906 82.5928-20.0195Q85.6934-27.1484 85.6934-35.2051Q85.6934-43.2617 82.5928-50.3906Q79.4922-57.5195 74.0234-62.9883Q68.5547-68.457 61.4258-71.5332Q54.2969-74.6094 46.1914-74.6094Q38.1348-74.6094 31.0059-71.5332Q23.877-68.457 18.457-62.9883Q13.0371-57.5195 9.93652-50.3906Q6.83594-43.2617 6.83594-35.2051Q6.83594-27.1484 9.93652-20.0195Q13.0371-12.8906 18.4814-7.42188Q23.9258-1.95312 31.0547 1.12305Q38.1836 4.19922 46.2402 4.19922ZM72.0215-35.1562Q72.0215-33.1055 69.7021-31.7383Q67.3828-30.3711 64.0625-30.3711L55.5664-30.3711Q54.3945-30.3711 53.6133-29.541L39.3066-13.9648Q38.4766-13.0371 37.3535-13.0371L34.9121-13.0371Q34.2285-13.0371 33.8867-13.5742Q33.5449-14.1113 33.8379-14.7949L40.9668-30.4688L31.3477-31.5918L27.6855-24.8047Q27.0996-23.8281 25.7812-23.8281L24.8535-23.8281Q24.2676-23.8281 23.877-24.1943Q23.4863-24.5605 23.4863-25.1953L23.4863-45.1172Q23.4863-45.752 23.877-46.1182Q24.2676-46.4844 24.8535-46.4844L25.7812-46.4844Q27.0996-46.4844 27.6855-45.5078L31.3477-38.7207L40.9668-39.8438L33.8379-55.5176Q33.5449-56.2012 33.8867-56.7383Q34.2285-57.2754 34.9121-57.2754L37.3535-57.2754Q38.4766-57.2754 39.3066-56.3477L53.6133-40.7715Q54.3945-39.9414 55.5664-39.9414L64.0625-39.9414Q67.3828-39.9414 69.7021-38.5742Q72.0215-37.207 72.0215-35.1562Z"/>
  </g>
  <g id="Light-S" transform="matrix(1 0 0 1 1107.6 696)">
   <path d="M45.5078 3.4668Q53.4831 3.4668 60.4736 0.455729Q67.4642-2.55534 72.8109-7.91829Q78.1576-13.2812 81.193-20.2718Q84.2285-27.2624 84.2285-35.2051Q84.2285-43.1478 81.193-50.1383Q78.1576-57.1289 72.7946-62.4919Q67.4316-67.8548 60.4411-70.8659Q53.4505-73.877 45.4753-73.877Q37.5488-73.877 30.5501-70.8659Q23.5514-67.8548 18.2292-62.4919Q12.9069-57.1289 9.87142-50.1383Q6.83594-43.1478 6.83594-35.2051Q6.83594-27.2624 9.87142-20.2718Q12.9069-13.2812 18.2454-7.91829Q23.584-2.55534 30.5827 0.455729Q37.5814 3.4668 45.5078 3.4668ZM71.0286-35.1888Q71.0286-33.252 68.8151-31.9661Q66.6016-30.6803 63.444-30.6803L54.9967-30.6803Q53.7923-30.6803 52.9948-29.834L39.1439-14.7298Q38.3789-13.8672 37.3535-13.8672L34.9609-13.8672Q34.3913-13.8672 34.0902-14.3311Q33.7891-14.7949 34.0658-15.3809L41.0319-30.7454L31.0221-31.8522L27.4089-25.2116Q26.888-24.3327 25.7324-24.3327L24.8047-24.3327Q24.2839-24.3327 23.9502-24.6338Q23.6165-24.9349 23.6165-25.5046L23.6165-44.873Q23.6165-45.4427 23.9502-45.7438Q24.2839-46.0449 24.8047-46.0449L25.7324-46.0449Q26.888-46.0449 27.4089-45.166L31.0221-38.5254L41.0319-39.6322L34.0658-54.9967Q33.7891-55.5827 34.0902-56.0465Q34.3913-56.5104 34.9609-56.5104L37.3535-56.5104Q38.3789-56.5104 39.1439-55.6478L52.9948-40.5436Q53.7923-39.6973 54.9967-39.6973L63.444-39.6973Q66.6016-39.6973 68.8151-38.4115Q71.0286-37.1257 71.0286-35.1888Z"/>
  </g>
  <g id="Thin-S" transform="matrix(1 0 0 1 811.859 696)">
   <path d="M44.5391 2.49811Q52.3422 2.49811 59.1498-0.426852Q65.9573-3.35181 71.1749-8.57485Q76.3924-13.7979 79.3418-20.6055Q82.2911-27.4131 82.2911-35.2051Q82.2911-42.9971 79.3418-49.8047Q76.3924-56.6123 71.1694-61.8353Q65.9463-67.0583 59.1387-69.9833Q52.3311-72.9083 44.5281-72.9083Q36.7739-72.9083 29.9474-69.9833Q23.1209-67.0583 17.9278-61.8353Q12.7347-56.6123 9.78531-49.8047Q6.83594-42.9971 6.83594-35.2051Q6.83594-27.4131 9.78531-20.6055Q12.7347-13.7979 17.9333-8.57485Q23.1319-3.35181 29.9584-0.426852Q36.7849 2.49811 44.5391 2.49811ZM69.7155-35.2319Q69.7155-33.4457 67.6419-32.2675Q65.5683-31.0893 62.626-31.0893L54.2433-31.0893Q52.9958-31.0893 52.1768-30.2215L38.9286-15.7416Q38.2497-14.965 37.3535-14.965L35.0255-14.965Q34.6065-14.965 34.3592-15.332Q34.112-15.699 34.3671-16.1558L41.118-31.1114L30.5916-32.1966L27.0429-25.7497Q26.6082-25 25.6678-25L24.7401-25Q24.3054-25 24.0471-25.215Q23.7887-25.43 23.7887-25.9136L23.7887-44.5502Q23.7887-45.0337 24.0471-45.2487Q24.3054-45.4637 24.7401-45.4637L25.6678-45.4637Q26.6082-45.4637 27.0429-44.714L30.5916-38.2671L41.118-39.3523L34.3671-54.3079Q34.112-54.7647 34.3592-55.1317Q34.6065-55.4987 35.0255-55.4987L37.3535-55.4987Q38.2497-55.4987 38.9286-54.7222L52.1768-40.2423Q52.9958-39.3744 54.2433-39.3744L62.626-39.3744Q65.5683-39.3744 67.6419-38.1962Q69.7155-37.018 69.7155-35.2319Z"/>
  </g>
  <g id="Ultralight-S" transform="matrix(1 0 0 1 515.644 696)">
   <path d="M44.043 2.00195Q51.7578 2.00195 58.4717-0.878906Q65.1855-3.75977 70.3369-8.91113Q75.4883-14.0625 78.3936-20.7764Q81.2988-27.4902 81.2988-35.2051Q81.2988-42.9199 78.3936-49.6338Q75.4883-56.3477 70.3369-61.499Q65.1855-66.6504 58.4717-69.5312Q51.7578-72.4121 44.043-72.4121Q36.377-72.4121 29.6387-69.5312Q22.9004-66.6504 17.7734-61.499Q12.6465-56.3477 9.74121-49.6338Q6.83594-42.9199 6.83594-35.2051Q6.83594-27.4902 9.74121-20.7764Q12.6465-14.0625 17.7734-8.91113Q22.9004-3.75977 29.6387-0.878906Q36.377 2.00195 44.043 2.00195ZM69.043-35.2539Q69.043-33.5449 67.041-32.4219Q65.0391-31.2988 62.207-31.2988L53.8574-31.2988Q52.5879-31.2988 51.7578-30.4199L38.8184-16.2598Q38.1836-15.5273 37.3535-15.5273L35.0586-15.5273Q34.7168-15.5273 34.4971-15.8447Q34.2773-16.1621 34.5215-16.5527L41.1621-31.2988L30.3711-32.373L26.8555-26.0254Q26.4648-25.3418 25.6348-25.3418L24.707-25.3418Q24.3164-25.3418 24.0967-25.5127Q23.877-25.6836 23.877-26.123L23.877-44.3848Q23.877-44.8242 24.0967-44.9951Q24.3164-45.166 24.707-45.166L25.6348-45.166Q26.4648-45.166 26.8555-44.4824L30.3711-38.1348L41.1621-39.209L34.5215-53.9551Q34.2773-54.3457 34.4971-54.6631Q34.7168-54.9805 35.0586-54.9805L37.3535-54.9805Q38.1836-54.9805 38.8184-54.248L51.7578-40.0879Q52.5879-39.209 53.8574-39.209L62.207-39.209Q65.0391-39.209 67.041-38.0859Q69.043-36.9629 69.043-35.2539Z"/>
  </g>
 </g>
</svg>
