<?xml version="1.0" encoding="UTF-8"?>
<!--Generator: Apple Native CoreSVG 175-->
<!DOCTYPE svg
PUBLIC "-//W3C//DTD SVG 1.1//EN"
       "http://www.w3.org/Graphics/SVG/1.1/DTD/svg11.dtd">
<svg version="1.1" xmlns="http://www.w3.org/2000/svg" xmlns:xlink="http://www.w3.org/1999/xlink" width="3300" height="2200">
 <!--glyph: "uni1004AC.medium", point size: 100.0, font version: "17.1d1e1", template writer version: "65.1"-->
 <g id="Notes">
  <rect height="2200" id="artboard" style="fill:white;opacity:1" width="3300" x="0" y="0"/>
  <line style="fill:none;stroke:black;opacity:1;stroke-width:0.5;" x1="263" x2="3036" y1="292" y2="292"/>
  <text style="stroke:none;fill:black;font-family:sans-serif;font-size:13;font-weight:bold;" transform="matrix(1 0 0 1 263 322)">Weight/Scale Variations</text>
  <text style="stroke:none;fill:black;font-family:sans-serif;font-size:13;text-anchor:middle;" transform="matrix(1 0 0 1 559.711 322)">Ultralight</text>
  <text style="stroke:none;fill:black;font-family:sans-serif;font-size:13;text-anchor:middle;" transform="matrix(1 0 0 1 856.422 322)">Thin</text>
  <text style="stroke:none;fill:black;font-family:sans-serif;font-size:13;text-anchor:middle;" transform="matrix(1 0 0 1 1153.13 322)">Light</text>
  <text style="stroke:none;fill:black;font-family:sans-serif;font-size:13;text-anchor:middle;" transform="matrix(1 0 0 1 1449.84 322)">Regular</text>
  <text style="stroke:none;fill:black;font-family:sans-serif;font-size:13;text-anchor:middle;" transform="matrix(1 0 0 1 1746.56 322)">Medium</text>
  <text style="stroke:none;fill:black;font-family:sans-serif;font-size:13;text-anchor:middle;" transform="matrix(1 0 0 1 2043.27 322)">Semibold</text>
  <text style="stroke:none;fill:black;font-family:sans-serif;font-size:13;text-anchor:middle;" transform="matrix(1 0 0 1 2339.98 322)">Bold</text>
  <text style="stroke:none;fill:black;font-family:sans-serif;font-size:13;text-anchor:middle;" transform="matrix(1 0 0 1 2636.69 322)">Heavy</text>
  <text style="stroke:none;fill:black;font-family:sans-serif;font-size:13;text-anchor:middle;" transform="matrix(1 0 0 1 2933.4 322)">Black</text>
  <line style="fill:none;stroke:black;opacity:1;stroke-width:0.5;" x1="263" x2="3036" y1="1903" y2="1903"/>
  <g transform="matrix(1 0 0 1 263 1933)">
   <path d="M9.24805 0.830078Q10.8691 0.830078 12.2949 0.214844Q13.7207-0.400391 14.8096-1.49414Q15.8984-2.58789 16.5186-4.01367Q17.1387-5.43945 17.1387-7.05078Q17.1387-8.66211 16.5186-10.0879Q15.8984-11.5137 14.8047-12.6074Q13.7109-13.7012 12.2852-14.3164Q10.8594-14.9316 9.23828-14.9316Q7.62695-14.9316 6.20117-14.3164Q4.77539-13.7012 3.69141-12.6074Q2.60742-11.5137 1.9873-10.0879Q1.36719-8.66211 1.36719-7.05078Q1.36719-5.43945 1.9873-4.01367Q2.60742-2.58789 3.69629-1.49414Q4.78516-0.400391 6.21094 0.214844Q7.63672 0.830078 9.24805 0.830078ZM9.24805-0.654297Q7.91992-0.654297 6.7627-1.14746Q5.60547-1.64062 4.73145-2.51953Q3.85742-3.39844 3.36426-4.56055Q2.87109-5.72266 2.87109-7.05078Q2.87109-8.37891 3.35938-9.54102Q3.84766-10.7031 4.72168-11.582Q5.5957-12.4609 6.75293-12.9541Q7.91016-13.4473 9.23828-13.4473Q10.5762-13.4473 11.7334-12.9541Q12.8906-12.4609 13.7695-11.582Q14.6484-10.7031 15.1465-9.54102Q15.6445-8.37891 15.6445-7.05078Q15.6445-5.72266 15.1514-4.56055Q14.6582-3.39844 13.7842-2.51953Q12.9102-1.64062 11.748-1.14746Q10.5859-0.654297 9.24805-0.654297ZM5.6543-7.05078Q5.6543-6.72852 5.85938-6.52832Q6.06445-6.32812 6.40625-6.32812L8.51562-6.32812L8.51562-4.20898Q8.51562-3.88672 8.71094-3.67676Q8.90625-3.4668 9.23828-3.4668Q9.56055-3.4668 9.77051-3.67676Q9.98047-3.88672 9.98047-4.20898L9.98047-6.32812L12.0898-6.32812Q12.4219-6.32812 12.627-6.52832Q12.832-6.72852 12.832-7.05078Q12.832-7.38281 12.627-7.58789Q12.4219-7.79297 12.0898-7.79297L9.98047-7.79297L9.98047-9.90234Q9.98047-10.2344 9.77051-10.4443Q9.56055-10.6543 9.23828-10.6543Q8.90625-10.6543 8.71094-10.4443Q8.51562-10.2344 8.51562-9.90234L8.51562-7.79297L6.40625-7.79297Q6.06445-7.79297 5.85938-7.58789Q5.6543-7.38281 5.6543-7.05078Z"/>
  </g>
  <g transform="matrix(1 0 0 1 281.867 1933)">
   <path d="M11.709 2.91016Q13.75 2.91016 15.5518 2.12891Q17.3535 1.34766 18.7305-0.0292969Q20.1074-1.40625 20.8887-3.20801Q21.6699-5.00977 21.6699-7.05078Q21.6699-9.0918 20.8887-10.8936Q20.1074-12.6953 18.7305-14.0723Q17.3535-15.4492 15.5469-16.2305Q13.7402-17.0117 11.6992-17.0117Q9.6582-17.0117 7.85645-16.2305Q6.05469-15.4492 4.68262-14.0723Q3.31055-12.6953 2.5293-10.8936Q1.74805-9.0918 1.74805-7.05078Q1.74805-5.00977 2.5293-3.20801Q3.31055-1.40625 4.6875-0.0292969Q6.06445 1.34766 7.86621 2.12891Q9.66797 2.91016 11.709 2.91016ZM11.709 1.25Q9.98047 1.25 8.47656 0.605469Q6.97266-0.0390625 5.83496-1.17676Q4.69727-2.31445 4.05762-3.81836Q3.41797-5.32227 3.41797-7.05078Q3.41797-8.7793 4.05762-10.2832Q4.69727-11.7871 5.83008-12.9297Q6.96289-14.0723 8.4668-14.7119Q9.9707-15.3516 11.6992-15.3516Q13.4277-15.3516 14.9316-14.7119Q16.4355-14.0723 17.5781-12.9297Q18.7207-11.7871 19.3652-10.2832Q20.0098-8.7793 20.0098-7.05078Q20.0098-5.32227 19.3701-3.81836Q18.7305-2.31445 17.5928-1.17676Q16.4551-0.0390625 14.9463 0.605469Q13.4375 1.25 11.709 1.25ZM7.17773-7.05078Q7.17773-6.69922 7.41211-6.47461Q7.64648-6.25 8.01758-6.25L10.8887-6.25L10.8887-3.36914Q10.8887-2.99805 11.1133-2.76855Q11.3379-2.53906 11.6895-2.53906Q12.0605-2.53906 12.29-2.76855Q12.5195-2.99805 12.5195-3.36914L12.5195-6.25L15.4004-6.25Q15.7715-6.25 16.001-6.47461Q16.2305-6.69922 16.2305-7.05078Q16.2305-7.42188 16.001-7.65137Q15.7715-7.88086 15.4004-7.88086L12.5195-7.88086L12.5195-10.752Q12.5195-11.1328 12.29-11.3623Q12.0605-11.5918 11.6895-11.5918Q11.3379-11.5918 11.1133-11.3574Q10.8887-11.123 10.8887-10.752L10.8887-7.88086L8.01758-7.88086Q7.63672-7.88086 7.40723-7.65137Q7.17773-7.42188 7.17773-7.05078Z"/>
  </g>
  <g transform="matrix(1 0 0 1 305.646 1933)">
   <path d="M14.9707 5.66406Q17.0605 5.66406 18.96 5.01465Q20.8594 4.36523 22.4512 3.19336Q24.043 2.02148 25.2197 0.429688Q26.3965-1.16211 27.0459-3.06641Q27.6953-4.9707 27.6953-7.05078Q27.6953-9.14062 27.0459-11.04Q26.3965-12.9395 25.2197-14.5312Q24.043-16.123 22.4512-17.2998Q20.8594-18.4766 18.9551-19.126Q17.0508-19.7754 14.9609-19.7754Q12.8711-19.7754 10.9717-19.126Q9.07227-18.4766 7.48535-17.2998Q5.89844-16.123 4.72168-14.5312Q3.54492-12.9395 2.90039-11.04Q2.25586-9.14062 2.25586-7.05078Q2.25586-4.9707 2.90527-3.06641Q3.55469-1.16211 4.72656 0.429688Q5.89844 2.02148 7.49023 3.19336Q9.08203 4.36523 10.9814 5.01465Q12.8809 5.66406 14.9707 5.66406ZM14.9707 3.84766Q13.1641 3.84766 11.5283 3.2959Q9.89258 2.74414 8.53516 1.74805Q7.17773 0.751953 6.17676-0.610352Q5.17578-1.97266 4.62891-3.6084Q4.08203-5.24414 4.08203-7.05078Q4.08203-8.86719 4.62891-10.5029Q5.17578-12.1387 6.17188-13.501Q7.16797-14.8633 8.52539-15.8594Q9.88281-16.8555 11.5186-17.4023Q13.1543-17.9492 14.9609-17.9492Q16.7773-17.9492 18.4131-17.4023Q20.0488-16.8555 21.4111-15.8594Q22.7734-14.8633 23.7695-13.501Q24.7656-12.1387 25.3174-10.5029Q25.8691-8.86719 25.8691-7.05078Q25.8789-5.24414 25.332-3.6084Q24.7852-1.97266 23.7842-0.610352Q22.7832 0.751953 21.4209 1.74805Q20.0586 2.74414 18.4229 3.2959Q16.7871 3.84766 14.9707 3.84766ZM9.19922-7.05078Q9.19922-6.66992 9.45801-6.4209Q9.7168-6.17188 10.1172-6.17188L14.0625-6.17188L14.0625-2.2168Q14.0625-1.81641 14.3115-1.55762Q14.5605-1.29883 14.9512-1.29883Q15.3516-1.29883 15.6104-1.55273Q15.8691-1.80664 15.8691-2.2168L15.8691-6.17188L19.8242-6.17188Q20.2246-6.17188 20.4785-6.4209Q20.7324-6.66992 20.7324-7.05078Q20.7324-7.46094 20.4785-7.71484Q20.2246-7.96875 19.8242-7.96875L15.8691-7.96875L15.8691-11.9141Q15.8691-12.3242 15.6104-12.583Q15.3516-12.8418 14.9512-12.8418Q14.5605-12.8418 14.3115-12.583Q14.0625-12.3242 14.0625-11.9141L14.0625-7.96875L10.1172-7.96875Q9.70703-7.96875 9.45312-7.71484Q9.19922-7.46094 9.19922-7.05078Z"/>
  </g>
  <text style="stroke:none;fill:black;font-family:sans-serif;font-size:13;font-weight:bold;" transform="matrix(1 0 0 1 263 1953)">Design Variations</text>
  <text style="stroke:none;fill:black;font-family:sans-serif;font-size:13;" transform="matrix(1 0 0 1 263 1971)">Symbols are supported in up to nine weights and three scales.</text>
  <text style="stroke:none;fill:black;font-family:sans-serif;font-size:13;" transform="matrix(1 0 0 1 263 1989)">For optimal layout with text and other symbols, vertically align</text>
  <text style="stroke:none;fill:black;font-family:sans-serif;font-size:13;" transform="matrix(1 0 0 1 263 2007)">symbols with the adjacent text.</text>
  <line style="fill:none;stroke:#00AEEF;stroke-width:0.5;opacity:1.0;" x1="776" x2="776" y1="1919" y2="1933"/>
  <g transform="matrix(1 0 0 1 776 1933)">
   <path d="M3.31055 0.15625Q3.70117 0.15625 3.91602-0.00976562Q4.13086-0.175781 4.26758-0.585938L5.52734-4.0332L11.2891-4.0332L12.5488-0.585938Q12.6855-0.175781 12.9004-0.00976562Q13.1152 0.15625 13.4961 0.15625Q13.8867 0.15625 14.1162-0.0585938Q14.3457-0.273438 14.3457-0.644531Q14.3457-0.869141 14.2383-1.17188L9.6582-13.3691Q9.48242-13.8184 9.17969-14.043Q8.87695-14.2676 8.4082-14.2676Q7.5-14.2676 7.17773-13.3789L2.59766-1.16211Q2.49023-0.859375 2.49023-0.634766Q2.49023-0.263672 2.70996-0.0537109Q2.92969 0.15625 3.31055 0.15625ZM6.00586-5.51758L8.37891-12.0898L8.42773-12.0898L10.8008-5.51758Z"/>
  </g>
  <line style="fill:none;stroke:#00AEEF;stroke-width:0.5;opacity:1.0;" x1="793.197" x2="793.197" y1="1919" y2="1933"/>
  <text style="stroke:none;fill:black;font-family:sans-serif;font-size:13;font-weight:bold;" transform="matrix(1 0 0 1 776 1953)">Margins</text>
  <text style="stroke:none;fill:black;font-family:sans-serif;font-size:13;" transform="matrix(1 0 0 1 776 1971)">Leading and trailing margins on the left and right side of each symbol</text>
  <text style="stroke:none;fill:black;font-family:sans-serif;font-size:13;" transform="matrix(1 0 0 1 776 1989)">can be adjusted by modifying the x-location of the margin guidelines.</text>
  <text style="stroke:none;fill:black;font-family:sans-serif;font-size:13;" transform="matrix(1 0 0 1 776 2007)">Modifications are automatically applied proportionally to all</text>
  <text style="stroke:none;fill:black;font-family:sans-serif;font-size:13;" transform="matrix(1 0 0 1 776 2025)">scales and weights.</text>
  <g transform="matrix(1 0 0 1 1289 1933)">
   <path d="M2.8418 1.86523L4.54102 3.57422Q5.18555 4.22852 5.90332 4.17969Q6.62109 4.13086 7.31445 3.35938L18.0078-8.42773L17.041-9.4043L6.42578 2.27539Q6.16211 2.57812 5.89355 2.61719Q5.625 2.65625 5.27344 2.30469L4.10156 1.14258Q3.75 0.791016 3.79395 0.522461Q3.83789 0.253906 4.14062-0.0195312L15.6152-10.8203L14.6387-11.7871L3.04688-0.898438Q2.30469-0.214844 2.25098 0.498047Q2.19727 1.21094 2.8418 1.86523ZM9.25781-16.3281Q8.94531-16.0254 8.90625-15.6348Q8.86719-15.2441 9.04297-14.9512Q9.21875-14.6777 9.55566-14.541Q9.89258-14.4043 10.3809-14.5215Q11.4746-14.7754 12.5977-14.7314Q13.7207-14.6875 14.7949-13.9844L14.209-12.5293Q13.9551-11.9043 14.0674-11.4404Q14.1797-10.9766 14.5801-10.5664L16.875-8.25195Q17.2363-7.88086 17.5781-7.82227Q17.9199-7.76367 18.3398-7.8418L19.4043-8.03711L20.0684-7.36328L20.0293-6.80664Q20-6.43555 20.1221-6.12305Q20.2441-5.81055 20.6055-5.44922L21.3672-4.70703Q21.7285-4.3457 22.1533-4.33105Q22.5781-4.31641 22.9297-4.66797L25.8398-7.58789Q26.1914-7.93945 26.1816-8.35449Q26.1719-8.76953 25.8105-9.13086L25.0391-9.89258Q24.6875-10.2539 24.3799-10.3857Q24.0723-10.5176 23.7109-10.4883L23.1348-10.4395L22.4902-11.0742L22.7344-12.1973Q22.832-12.6172 22.6953-12.9834Q22.5586-13.3496 22.1191-13.7891L19.9219-15.9766Q18.6719-17.2168 17.2607-17.8369Q15.8496-18.457 14.4189-18.4814Q12.9883-18.5059 11.665-17.959Q10.3418-17.4121 9.25781-16.3281ZM10.752-15.957Q11.6602-16.6211 12.7002-16.9043Q13.7402-17.1875 14.8047-17.085Q15.8691-16.9824 16.8701-16.5137Q17.8711-16.0449 18.7012-15.2051L21.1328-12.793Q21.3086-12.6172 21.3525-12.4512Q21.3965-12.2852 21.3379-12.0312L21.0156-10.5469L22.5195-9.0625L23.5059-9.12109Q23.6914-9.13086 23.7891-9.09668Q23.8867-9.0625 24.0332-8.91602L24.6094-8.33984L22.168-5.89844L21.5918-6.47461Q21.4453-6.62109 21.4062-6.71875Q21.3672-6.81641 21.377-7.01172L21.4453-7.98828L19.9512-9.47266L18.4277-9.21875Q18.1836-9.16992 18.042-9.2041Q17.9004-9.23828 17.7148-9.41406L15.7129-11.416Q15.5176-11.5918 15.4932-11.7529Q15.4688-11.9141 15.5859-12.1875L16.4648-14.2773Q15.293-15.3711 13.8281-15.791Q12.3633-16.2109 10.8398-15.7617Q10.7227-15.7324 10.6885-15.8057Q10.6543-15.8789 10.752-15.957Z"/>
  </g>
  <text style="stroke:none;fill:black;font-family:sans-serif;font-size:13;font-weight:bold;" transform="matrix(1 0 0 1 1289 1953)">Exporting</text>
  <text style="stroke:none;fill:black;font-family:sans-serif;font-size:13;" transform="matrix(1 0 0 1 1289 1971)">Symbols should be outlined when exporting to ensure the</text>
  <text style="stroke:none;fill:black;font-family:sans-serif;font-size:13;" transform="matrix(1 0 0 1 1289 1989)">design is preserved when submitting to Xcode.</text>
  <text id="template-version" style="stroke:none;fill:black;font-family:sans-serif;font-size:13;text-anchor:end;" transform="matrix(1 0 0 1 3036 1933)">Template v.3.0</text>
  <text style="stroke:none;fill:black;font-family:sans-serif;font-size:13;text-anchor:end;" transform="matrix(1 0 0 1 3036 1951)">Requires Xcode 13 or greater</text>
  <text id="descriptive-name" style="stroke:none;fill:black;font-family:sans-serif;font-size:13;text-anchor:end;" transform="matrix(1 0 0 1 3036 1969)">Generated from bag.circle.fill</text>
  <text style="stroke:none;fill:black;font-family:sans-serif;font-size:13;text-anchor:end;" transform="matrix(1 0 0 1 3036 1987)">Typeset at 100 points</text>
  <text style="stroke:none;fill:black;font-family:sans-serif;font-size:13;" transform="matrix(1 0 0 1 263 726)">Small</text>
  <text style="stroke:none;fill:black;font-family:sans-serif;font-size:13;" transform="matrix(1 0 0 1 263 1156)">Medium</text>
  <text style="stroke:none;fill:black;font-family:sans-serif;font-size:13;" transform="matrix(1 0 0 1 263 1586)">Large</text>
 </g>
 <g id="Guides">
  <g id="H-reference" style="fill:#27AAE1;stroke:none;" transform="matrix(1 0 0 1 339 696)">
   <path d="M0.976562 0L3.66211 0L29.3457-67.1387L30.0293-67.1387L30.0293-70.459L28.125-70.459ZM11.6699-24.4629L46.9727-24.4629L46.2402-26.709L12.4512-26.709ZM55.127 0L57.7637 0L30.6152-70.459L29.4434-70.459L29.4434-67.1387Z"/>
  </g>
  <line id="Baseline-S" style="fill:none;stroke:#27AAE1;opacity:1;stroke-width:0.5;" x1="263" x2="3036" y1="696" y2="696"/>
  <line id="Capline-S" style="fill:none;stroke:#27AAE1;opacity:1;stroke-width:0.5;" x1="263" x2="3036" y1="625.541" y2="625.541"/>
  <g id="H-reference" style="fill:#27AAE1;stroke:none;" transform="matrix(1 0 0 1 339 1126)">
   <path d="M0.976562 0L3.66211 0L29.3457-67.1387L30.0293-67.1387L30.0293-70.459L28.125-70.459ZM11.6699-24.4629L46.9727-24.4629L46.2402-26.709L12.4512-26.709ZM55.127 0L57.7637 0L30.6152-70.459L29.4434-70.459L29.4434-67.1387Z"/>
  </g>
  <line id="Baseline-M" style="fill:none;stroke:#27AAE1;opacity:1;stroke-width:0.5;" x1="263" x2="3036" y1="1126" y2="1126"/>
  <line id="Capline-M" style="fill:none;stroke:#27AAE1;opacity:1;stroke-width:0.5;" x1="263" x2="3036" y1="1055.54" y2="1055.54"/>
  <g id="H-reference" style="fill:#27AAE1;stroke:none;" transform="matrix(1 0 0 1 339 1556)">
   <path d="M0.976562 0L3.66211 0L29.3457-67.1387L30.0293-67.1387L30.0293-70.459L28.125-70.459ZM11.6699-24.4629L46.9727-24.4629L46.2402-26.709L12.4512-26.709ZM55.127 0L57.7637 0L30.6152-70.459L29.4434-70.459L29.4434-67.1387Z"/>
  </g>
  <line id="Baseline-L" style="fill:none;stroke:#27AAE1;opacity:1;stroke-width:0.5;" x1="263" x2="3036" y1="1556" y2="1556"/>
  <line id="Capline-L" style="fill:none;stroke:#27AAE1;opacity:1;stroke-width:0.5;" x1="263" x2="3036" y1="1485.54" y2="1485.54"/>
  <line id="left-margin-Regular-M" style="fill:none;stroke:#00AEEF;stroke-width:0.5;opacity:1.0;" x1="1391.32" x2="1391.32" y1="1030.79" y2="1150.12"/>
  <line id="right-margin-Regular-M" style="fill:none;stroke:#00AEEF;stroke-width:0.5;opacity:1.0;" x1="1508.37" x2="1508.37" y1="1030.79" y2="1150.12"/>
 </g>
 <g id="Symbols">
  <g id="Black-L" transform="matrix(1 0 0 1 2854.19 1556)">
   <path d="M79.1953 32.8057Q93.2356 32.8057 105.521 27.5107Q117.806 22.2158 127.174 12.8375Q136.542 3.45916 141.848-8.82607Q147.154-21.1113 147.154-35.1309Q147.154-49.1504 141.848-61.4357Q136.542-73.7209 127.164-83.0992Q117.785-92.4775 105.5-97.7725Q93.2149-103.067 79.1746-103.067Q65.1563-103.067 52.8704-97.7725Q40.5846-92.4775 31.2276-83.0992Q21.8707-73.7209 16.5647-61.4357Q11.2588-49.1504 11.2588-35.1309Q11.2588-21.1113 16.5647-8.82607Q21.8707 3.45916 31.238 12.8375Q40.6053 22.2158 52.8912 27.5107Q65.177 32.8057 79.1953 32.8057ZM61.0186-2.45391Q55.3721-2.45391 52.2549-5.54975Q49.1377-8.64559 49.1377-14.2506L49.1377-46.4699Q49.1377-52.0749 52.2549-55.102Q55.3721-58.1291 61.0186-58.1291L63.6849-58.1291Q63.7861-64.4984 68.2847-68.7648Q72.7833-73.0312 79.2161-73.0312Q85.6293-73.0312 90.1377-68.7648Q94.646-64.4984 94.7265-58.1291L97.3928-58.1291Q103.039-58.1291 106.157-55.1013Q109.274-52.0736 109.274-46.4699L109.274-14.2506Q109.274-8.64687 106.209-5.55039Q103.144-2.45391 97.7244-2.45391ZM73.209-58.1291L85.2036-58.1291Q85.1816-60.9888 83.5833-62.769Q81.9849-64.5491 79.2161-64.5491Q76.4862-64.5491 74.869-62.769Q73.2518-60.9888 73.209-58.1291Z"/>
  </g>
  <g id="Heavy-L" transform="matrix(1 0 0 1 2558.42 1556)">
   <path d="M78.2511 31.8476Q92.088 31.8476 104.202 26.6268Q116.316 21.406 125.559 12.1482Q134.802 2.89032 140.04-9.2236Q145.279-21.3375 145.279-35.1447Q145.279-48.9518 140.04-61.0657Q134.802-73.1796 125.544-82.4375Q116.286-91.6953 104.172-96.9161Q92.0582-102.137 78.2213-102.137Q64.4202-102.137 52.3033-96.9161Q40.1863-91.6953 30.9613-82.4375Q21.7362-73.1796 16.4975-61.0657Q11.2588-48.9518 11.2588-35.1447Q11.2588-21.3375 16.4975-9.2236Q21.7362 2.89032 30.9761 12.1482Q40.2161 21.406 52.333 26.6268Q64.45 31.8476 78.2511 31.8476ZM59.7977-2.6938Q54.25-2.6938 51.244-5.66703Q48.238-8.64026 48.238-14.1284L48.238-47.0629Q48.238-52.5511 51.244-55.4648Q54.25-58.3786 59.7977-58.3786L63.1441-58.3786Q63.2543-64.4975 67.627-68.6712Q71.9997-72.845 78.2808-72.845Q84.5382-72.845 88.9228-68.6712Q93.3074-64.4975 93.3878-58.3786L96.7342-58.3786Q102.282-58.3786 105.288-55.4618Q108.294-52.5451 108.294-47.0629L108.294-14.1284Q108.294-8.64629 105.365-5.67005Q102.437-2.6938 97.2104-2.6938ZM71.8381-58.3786L84.6999-58.3786Q84.6641-61.3642 82.9476-63.1981Q81.2312-65.0319 78.2808-65.0319Q75.3514-65.0319 73.6275-63.1981Q71.9036-61.3642 71.8381-58.3786Z"/>
  </g>
  <g id="Bold-L" transform="matrix(1 0 0 1 2262.89 1556)">
   <path d="M77.0653 30.6464Q90.6516 30.6464 102.549 25.52Q114.447 20.3937 123.533 11.2893Q132.619 2.1849 137.771-9.71291Q142.923-21.6107 142.923-35.1601Q142.923-48.7094 137.771-60.6072Q132.619-72.5051 123.515-81.6094Q114.41-90.7138 102.512-95.8402Q90.6146-100.967 77.0283-100.967Q63.4932-100.967 51.5882-95.8402Q39.6833-90.7138 30.623-81.6094Q21.5627-72.5051 16.4108-60.6072Q11.2588-48.7094 11.2588-35.1601Q11.2588-21.6107 16.4108-9.71291Q21.5627 2.1849 30.6415 11.2893Q39.7203 20.3937 51.6252 25.52Q63.5301 30.6464 77.0653 30.6464ZM58.2852-3.06576Q52.8912-3.06576 50.0269-5.886Q47.1625-8.70625 47.1625-14.0263L47.1625-47.8185Q47.1625-53.1385 50.0269-55.911Q52.8912-58.6836 58.2852-58.6836L62.4787-58.6836Q62.5961-64.4792 66.7934-68.5349Q70.9908-72.5906 77.1023-72.5906Q83.191-72.5906 87.3997-68.5349Q91.6084-64.4792 91.6888-58.6836L95.8823-58.6836Q101.276-58.6836 104.141-55.9039Q107.005-53.1242 107.005-47.8185L107.005-14.0263Q107.005-8.72048 104.24-5.89312Q101.475-3.06576 96.4742-3.06576ZM70.1001-58.6836L84.0817-58.6836Q84.0305-61.8446 82.1646-63.7543Q80.2988-65.664 77.1023-65.664Q73.9121-65.664 72.0502-63.7543Q70.1883-61.8446 70.1001-58.6836Z"/>
  </g>
  <g id="Semibold-L" transform="matrix(1 0 0 1 1966.99 1556)">
   <path d="M76.2478 29.8183Q89.6614 29.8183 101.41 24.757Q113.159 19.6958 122.137 10.6972Q131.114 1.6986 136.206-10.0502Q141.299-21.7991 141.299-35.1707Q141.299-48.5423 136.206-60.2912Q131.114-72.04 122.116-81.0386Q113.117-90.0372 101.368-95.0984Q89.6194-100.16 76.2058-100.16Q62.854-100.16 51.0953-95.0984Q39.3365-90.0372 30.3898-81.0386Q21.4432-72.04 16.351-60.2912Q11.2588-48.5423 11.2588-35.1707Q11.2588-21.7991 16.351-10.0502Q21.4432 1.6986 30.4108 10.6972Q39.3785 19.6958 51.1372 24.757Q62.896 29.8183 76.2478 29.8183ZM57.2425-3.32218Q51.9545-3.32218 49.1878-6.03696Q46.4211-8.75174 46.4211-13.9558L46.4211-48.3393Q46.4211-53.5434 49.1878-56.2186Q51.9545-58.8938 57.2425-58.8938L62.0199-58.8938Q62.1423-64.4666 66.2188-68.4409Q70.2952-72.4152 76.2898-72.4152Q82.2622-72.4152 86.3497-68.4409Q90.4372-64.4666 90.5176-58.8938L95.295-58.8938Q100.583-58.8938 103.35-56.2087Q106.116-53.5235 106.116-48.3393L106.116-13.9558Q106.116-8.77162 103.465-6.0469Q100.813-3.32218 95.9666-3.32218ZM68.9019-58.8938L83.6555-58.8938Q83.5937-62.1758 81.6249-64.1378Q79.6561-66.0999 76.2898-66.0999Q72.9199-66.0999 70.9628-64.1378Q69.0057-62.1758 68.9019-58.8938Z"/>
  </g>
  <g id="Medium-L" transform="matrix(1 0 0 1 1670.89 1556)">
   <path d="M75.6279 29.1904Q88.9106 29.1904 100.546 24.1785Q112.182 19.1666 121.078 10.2482Q129.973 1.32986 135.02-10.306Q140.067-21.9419 140.067-35.1788Q140.067-48.4156 135.02-60.0515Q129.973-71.6874 121.055-80.6058Q112.137-89.5241 100.501-94.536Q88.8648-99.5479 75.5822-99.5479Q62.3695-99.5479 50.7215-94.536Q39.0736-89.5241 30.213-80.6058Q21.3525-71.6874 16.3056-60.0515Q11.2588-48.4156 11.2588-35.1788Q11.2588-21.9419 16.3056-10.306Q21.3525 1.32986 30.2359 10.2482Q39.1193 19.1666 50.7673 24.1785Q62.4152 29.1904 75.6279 29.1904ZM56.4519-3.51661Q51.2442-3.51661 48.5516-6.15143Q45.8589-8.78624 45.8589-13.9024L45.8589-48.7342Q45.8589-53.8504 48.5516-56.4518Q51.2442-59.0533 56.4519-59.0533L61.6721-59.0533Q61.7983-64.457 65.783-68.3696Q69.7678-72.2822 75.6737-72.2822Q81.558-72.2822 85.5535-68.3696Q89.5491-64.457 89.6295-59.0533L94.8497-59.0533Q100.057-59.0533 102.75-56.4398Q105.443-53.8263 105.443-48.7342L105.443-13.9024Q105.443-8.81039 102.877-6.1635Q100.31-3.51661 95.5818-3.51661ZM67.9934-59.0533L83.3323-59.0533Q83.2624-62.4269 81.2156-64.4286Q79.1687-66.4303 75.6737-66.4303Q72.1676-66.4303 70.1383-64.4286Q68.1091-62.4269 67.9934-59.0533Z"/>
  </g>
  <g id="Regular-L" transform="matrix(1 0 0 1 1374.98 1556)">
   <path d="M74.8194 28.3714Q87.9312 28.3714 99.4198 23.4239Q110.908 18.4764 119.697 9.66263Q128.485 0.848896 133.473-10.6396Q138.46-22.1282 138.46-35.1893Q138.46-48.2504 133.473-59.7389Q128.485-71.2275 119.671-80.0412Q110.858-88.8549 99.3691-93.8024Q87.8805-98.7499 74.7687-98.7499Q61.7374-98.7499 50.234-93.8024Q38.7306-88.8549 29.9824-80.0412Q21.2342-71.2275 16.2465-59.7389Q11.2588-48.2504 11.2588-35.1893Q11.2588-22.1282 16.2465-10.6396Q21.2342 0.848896 30.0077 9.66263Q38.7813 18.4764 50.2847 23.4239Q61.7881 28.3714 74.8194 28.3714ZM55.4206-3.77022Q50.3177-3.77022 47.7217-6.30073Q45.1256-8.83123 45.1256-13.8328L45.1256-49.2494Q45.1256-54.2509 47.7217-56.7561Q50.3177-59.2612 55.4206-59.2612L61.2184-59.2612Q61.3495-64.4445 65.2147-68.2766Q69.0799-72.1087 74.8701-72.1087Q80.6394-72.1087 84.5151-68.2766Q88.3907-64.4445 88.4711-59.2612L94.2689-59.2612Q99.3718-59.2612 101.968-56.7412Q104.564-54.2212 104.564-49.2494L104.564-13.8328Q104.564-8.86097 102.109-6.3156Q99.6549-3.77022 95.0798-3.77022ZM66.8084-59.2612L82.9108-59.2612Q82.8304-62.7545 80.6817-64.8079Q78.533-66.8613 74.8701-66.8613Q71.1863-66.8613 69.0629-64.8079Q66.9395-62.7545 66.8084-59.2612Z"/>
  </g>
  <g id="Light-L" transform="matrix(1 0 0 1 1079.2 1556)">
   <path d="M73.8959 27.4479Q86.8436 27.4479 98.1577 22.5825Q109.472 17.717 118.137 9.03671Q126.802 0.356369 131.708-10.9577Q136.614-22.2718 136.614-35.1893Q136.614-48.1067 131.708-59.4208Q126.802-70.7349 118.122-79.4153Q109.442-88.0956 98.1275-92.961Q86.8134-97.8264 73.8658-97.8264Q60.9986-97.8264 49.6594-92.961Q38.3201-88.0956 29.6951-79.4153Q21.07-70.7349 16.1644-59.4208Q11.2588-48.1067 11.2588-35.1893Q11.2588-22.2718 16.1644-10.9577Q21.07 0.356369 29.7102 9.03671Q38.3503 17.717 49.6895 22.5825Q61.0287 27.4479 73.8959 27.4479ZM54.374-4.50901Q49.579-4.50901 47.106-6.92665Q44.6331-9.34428 44.6331-14.079L44.6331-49.9061Q44.6331-54.6408 47.106-57.0434Q49.579-59.4459 54.374-59.4459L60.7874-59.4459Q60.898-64.3214 64.5169-68.0509Q68.1359-71.7804 73.9261-71.7804Q79.7364-71.7804 83.3453-68.0509Q86.9542-64.3214 87.0346-59.4459L93.448-59.4459Q98.2431-59.4459 100.716-57.0182Q103.189-54.5906 103.189-49.9061L103.189-14.079Q103.189-9.39454 100.817-6.95178Q98.4441-4.50901 93.9306-4.50901ZM65.3514-59.4459L82.5209-59.4459Q82.4405-63.1854 80.1687-65.3517Q77.8968-67.518 73.9261-67.518Q69.9755-67.518 67.7187-65.3517Q65.462-63.1854 65.3514-59.4459Z"/>
  </g>
  <g id="Thin-L" transform="matrix(1 0 0 1 783.707 1556)">
   <path d="M72.6746 26.2265Q85.405 26.2265 96.4884 21.4696Q107.572 16.7128 116.074 8.20888Q124.577-0.295038 129.374-11.3784Q134.171-22.4618 134.171-35.1893Q134.171-47.9168 129.374-59.0001Q124.577-70.0835 116.073-78.5874Q107.569-87.0914 96.4854-91.8482Q85.402-96.605 72.6715-96.605Q60.0215-96.605 48.8994-91.8482Q37.7773-87.0914 29.3151-78.5874Q20.8529-70.0835 16.0558-59.0001Q11.2588-47.9168 11.2588-35.1893Q11.2588-22.4618 16.0558-11.3784Q20.8529-0.295038 29.3166 8.20888Q37.7803 16.7128 48.9024 21.4696Q60.0245 26.2265 72.6746 26.2265ZM52.9898-5.48612Q48.6018-5.48612 46.2918-7.75448Q43.9817-10.0228 43.9817-14.4047L43.9817-50.7746Q43.9817-55.1565 46.2918-57.4234Q48.6018-59.6902 52.9898-59.6902L60.2175-59.6902Q60.3009-64.1586 63.5941-67.7523Q66.8873-71.3461 72.6776-71.3461Q78.5422-71.3461 81.7982-67.7523Q85.0542-64.1586 85.1347-59.6902L92.3623-59.6902Q96.7503-59.6902 99.0604-57.3847Q101.37-55.0791 101.37-50.7746L101.37-14.4047Q101.37-10.1002 99.1066-7.79318Q96.8428-5.48612 92.4106-5.48612ZM63.4243-59.6902L82.0052-59.6902Q81.9248-63.7554 79.4901-66.071Q77.0554-68.3866 72.6776-68.3866Q68.3741-68.3866 65.9409-66.071Q63.5077-63.7554 63.4243-59.6902Z"/>
  </g>
  <g id="Ultralight-L" transform="matrix(1 0 0 1 487.622 1556)">
   <path d="M72.049 25.6009Q84.6682 25.6009 95.6335 20.8997Q106.599 16.1984 115.018 7.78487Q123.437-0.628686 128.178-11.5939Q132.92-22.5591 132.92-35.1893Q132.92-47.8194 128.178-58.7847Q123.437-69.7499 115.023-78.1634Q106.61-86.577 95.6443-91.2782Q84.6791-95.9795 72.0598-95.9795Q59.521-95.9795 48.5101-91.2782Q37.4993-86.577 29.1205-78.1634Q20.7417-69.7499 16.0002-58.7847Q11.2588-47.8194 11.2588-35.1893Q11.2588-22.5591 16.0002-11.5939Q20.7417-0.628686 29.115 7.78487Q37.4884 16.1984 48.4992 20.8997Q59.5101 25.6009 72.049 25.6009ZM52.2808-5.9866Q48.1014-5.9866 45.8747-8.17849Q43.648-10.3704 43.648-14.5716L43.648-51.2195Q43.648-55.4206 45.8747-57.618Q48.1014-59.8153 52.2808-59.8153L59.9255-59.8153Q59.9951-64.0751 63.1215-67.5994Q66.2478-71.1237 72.0381-71.1237Q77.9305-71.1237 81.0058-67.5994Q84.0811-64.0751 84.1615-59.8153L91.8063-59.8153Q95.9857-59.8153 98.2123-57.5723Q100.439-55.3293 100.439-51.2195L100.439-14.5716Q100.439-10.4617 98.2308-8.22414Q96.0226-5.9866 91.6321-5.9866ZM62.4373-59.8153L81.7411-59.8153Q81.6607-64.0474 79.1426-66.4394Q76.6244-68.8314 72.0381-68.8314Q67.5539-68.8314 65.0303-66.4394Q62.5068-64.0474 62.4373-59.8153Z"/>
  </g>
  <g id="Black-M" transform="matrix(1 0 0 1 2871.36 1126)">
   <path d="M62.0423 18.1784Q73.0725 18.1784 82.714 14.0236Q92.3555 9.86885 99.704 2.51762Q107.052-4.83361 111.21-14.4751Q115.367-24.1166 115.367-35.1412Q115.367-46.1659 111.21-55.8074Q107.052-65.4489 99.7012-72.8001Q92.35-80.1513 82.7085-84.3061Q73.067-88.4609 62.0368-88.4609Q51.0119-88.4609 41.3705-84.3061Q31.7292-80.1513 24.3833-72.8001Q17.0375-65.4489 12.8801-55.8074Q8.72266-46.1659 8.72266-35.1412Q8.72266-24.1166 12.8801-14.4751Q17.0375-4.83361 24.3861 2.51762Q31.7347 9.86885 41.376 14.0236Q51.0174 18.1784 62.0423 18.1784ZM48.1811-9.73081Q43.7633-9.73081 41.2694-12.2194Q38.7755-14.7079 38.7755-19.1147L38.7755-43.5172Q38.7755-47.9239 41.2694-50.3526Q43.7633-52.7813 48.1811-52.7813L49.7458-52.7813Q49.8136-57.8895 53.3737-61.2606Q56.9339-64.6317 62.0479-64.6317Q67.156-64.6317 70.7191-61.2606Q74.2821-57.8895 74.3444-52.7813L75.9091-52.7813Q80.3269-52.7813 82.8208-50.3528Q85.3147-47.9242 85.3147-43.5172L85.3147-19.1147Q85.3147-14.7076 82.8344-12.2192Q80.3542-9.73081 75.9973-9.73081ZM57.699-52.7813L66.3909-52.7813Q66.3857-54.9221 65.2322-56.2704Q64.0787-57.6187 62.0479-57.6187Q60.0683-57.6187 58.889-56.2704Q57.7097-54.9221 57.699-52.7813Z"/>
  </g>
  <g id="Heavy-M" transform="matrix(1 0 0 1 2575.48 1126)">
   <path d="M61.2045 17.3271Q72.0509 17.3271 81.541 13.2372Q91.0312 9.14728 98.2688 1.90151Q105.506-5.34426 109.606-14.8344Q113.705-24.3245 113.705-35.1547Q113.705-45.985 109.606-55.4751Q105.506-64.9652 98.2607-72.2109Q91.0149-79.4567 81.5248-83.5466Q72.0347-87.6365 61.1882-87.6365Q50.3604-87.6365 40.8691-83.5466Q31.3778-79.4567 24.1495-72.2109Q16.9211-64.9652 12.8219-55.4751Q8.72266-45.985 8.72266-35.1547Q8.72266-24.3245 12.8219-14.8344Q16.9211-5.34426 24.1576 1.90151Q31.394 9.14728 40.8853 13.2372Q50.3767 17.3271 61.2045 17.3271ZM47.0842-9.89716Q42.7346-9.89716 40.338-12.2763Q37.9414-14.6554 37.9414-18.9725L37.9414-44.0364Q37.9414-48.3535 40.338-50.6808Q42.7346-53.0082 47.0842-53.0082L49.2569-53.0082Q49.3354-57.8999 52.7952-61.1899Q56.2549-64.4799 61.2207-64.4799Q66.1727-64.4799 69.6393-61.1899Q73.106-57.8999 73.1683-53.0082L75.341-53.0082Q79.6906-53.0082 82.0872-50.6796Q84.4837-48.351 84.4837-44.0364L84.4837-18.9725Q84.4837-14.6578 82.129-12.2775Q79.7742-9.89716 75.6008-9.89716ZM56.4931-53.0082L65.9345-53.0082Q65.9158-55.2493 64.6582-56.6397Q63.4006-58.0301 61.2207-58.0301Q59.0706-58.0301 57.7994-56.6397Q56.5281-55.2493 56.4931-53.0082Z"/>
  </g>
  <g id="Bold-M" transform="matrix(1 0 0 1 2279.69 1126)">
   <path d="M60.2672 16.3747Q70.9082 16.3747 80.2289 12.3574Q89.5497 8.34011 96.6634 1.21231Q103.777-5.9155 107.811-15.2363Q111.845-24.557 111.845-35.1698Q111.845-45.7825 107.811-55.1033Q103.777-64.4241 96.6493-71.5519Q89.5215-78.6797 80.2007-82.697Q70.8799-86.7143 60.2389-86.7143Q49.6317-86.7143 40.3082-82.697Q30.9846-78.6797 23.8878-71.5519Q16.791-64.4241 12.7568-55.1033Q8.72266-45.7825 8.72266-35.1698Q8.72266-24.557 12.7568-15.2363Q16.791-5.9155 23.902 1.21231Q31.0129 8.34011 40.3364 12.3574Q49.6599 16.3747 60.2672 16.3747ZM45.8571-10.0832Q41.5838-10.0832 39.2961-12.3399Q37.0084-14.5966 37.0084-18.8134L37.0084-44.6171Q37.0084-48.834 39.2961-51.048Q41.5838-53.262 45.8571-53.262L48.7099-53.262Q48.8005-57.9116 52.1479-61.1109Q55.4954-64.3101 60.2954-64.3101Q65.0727-64.3101 68.4315-61.1109Q71.7904-57.9116 71.8527-53.262L74.7055-53.262Q78.9788-53.262 81.2665-51.0452Q83.5542-48.8284 83.5542-44.6171L83.5542-18.8134Q83.5542-14.6021 81.3398-12.3427Q79.1255-10.0832 75.1573-10.0832ZM55.1443-53.262L65.4238-53.262Q65.3901-55.6154 64.016-57.0528Q62.642-58.4902 60.2954-58.4902Q57.9546-58.4902 56.5805-57.0528Q55.2063-55.6154 55.1443-53.262Z"/>
  </g>
  <g id="Semibold-M" transform="matrix(1 0 0 1 1983.62 1126)">
   <path d="M59.621 15.7182Q70.1203 15.7182 79.3244 11.7509Q88.5284 7.78365 95.5566 0.737173Q102.585-6.30931 106.574-15.5133Q110.564-24.7174 110.564-35.1802Q110.564-45.643 106.574-54.847Q102.585-64.0511 95.5384-71.0975Q88.4919-78.144 79.2879-82.1113Q70.0838-86.0785 59.5845-86.0785Q49.1293-86.0785 39.9215-82.1113Q30.7136-78.144 23.7075-71.0975Q16.7013-64.0511 12.712-54.847Q8.72266-45.643 8.72266-35.1802Q8.72266-24.7174 12.712-15.5133Q16.7013-6.30931 23.7257 0.737173Q30.7501 7.78365 39.958 11.7509Q49.1658 15.7182 59.621 15.7182ZM45.0112-10.2115Q40.7904-10.2115 38.5778-12.3838Q36.3652-14.5561 36.3652-18.7038L36.3652-45.0175Q36.3652-49.1652 38.5778-51.3011Q40.7904-53.4369 45.0112-53.4369L48.3329-53.4369Q48.4317-57.9197 51.7018-61.0564Q54.9719-64.193 59.6575-64.193Q64.3143-64.193 67.5988-61.0564Q70.8834-57.9197 70.9457-53.4369L74.2674-53.4369Q78.4881-53.4369 80.7007-51.2973Q82.9133-49.1576 82.9133-45.0175L82.9133-18.7038Q82.9133-14.5637 80.7958-12.3876Q78.6783-10.2115 74.8515-10.2115ZM54.2144-53.4369L65.0718-53.4369Q65.0276-55.8677 63.5734-57.3376Q62.1191-58.8075 59.6575-58.8075Q57.1853-58.8075 55.7401-57.3376Q54.295-55.8677 54.2144-53.4369Z"/>
  </g>
  <g id="Medium-M" transform="matrix(1 0 0 1 1687.4 1126)">
   <path d="M59.1311 15.2203Q69.523 15.2203 78.6385 11.291Q87.754 7.36172 94.7174 0.376908Q101.681-6.60791 105.636-15.7234Q109.591-24.8389 109.591-35.1881Q109.591-45.5372 105.636-54.6527Q101.681-63.7682 94.696-70.753Q87.7112-77.7378 78.5957-81.6672Q69.4802-85.5965 59.0883-85.5965Q48.7484-85.5965 39.6283-81.6672Q30.5081-77.7378 23.5707-70.753Q16.6333-63.7682 12.678-54.6527Q8.72266-45.5372 8.72266-35.1881Q8.72266-24.8389 12.678-15.7234Q16.6333-6.60791 23.5921 0.376908Q30.5509 7.36172 39.671 11.291Q48.7912 15.2203 59.1311 15.2203ZM44.3697-10.3088Q40.1889-10.3088 38.0332-12.4171Q35.8775-14.5254 35.8775-18.6207L35.8775-45.3211Q35.8775-49.4164 38.0332-51.493Q40.1889-53.5696 44.3697-53.5696L48.047-53.5696Q48.152-57.9258 51.3635-61.015Q54.5749-64.1043 59.1738-64.1043Q63.7393-64.1043 66.9675-61.015Q70.1956-57.9258 70.2579-53.5696L73.9352-53.5696Q78.116-53.5696 80.2717-51.4884Q82.4274-49.4071 82.4274-45.3211L82.4274-18.6207Q82.4274-14.5346 80.3833-12.4217Q78.3392-10.3088 74.6196-10.3088ZM53.5093-53.5696L64.8049-53.5696Q64.7528-56.0591 63.2377-57.5536Q61.7225-59.048 59.1738-59.048Q56.6019-59.048 55.103-57.5536Q53.6041-56.0591 53.5093-53.5696Z"/>
  </g>
  <g id="Regular-M" transform="matrix(1 0 0 1 1391.32 1126)">
   <path d="M58.492 14.571Q68.7438 14.571 77.7439 10.6912Q86.7439 6.81138 93.6228-0.093004Q100.502-6.99738 104.413-15.9974Q108.324-24.9975 108.324-35.1983Q108.324-45.3992 104.413-54.3992Q100.502-63.3993 93.5973-70.3037Q86.693-77.2081 77.6929-81.0879Q68.6929-84.9677 58.441-84.9677Q48.2515-84.9677 39.2458-81.0879Q30.2401-77.2081 23.3923-70.3037Q16.5446-63.3993 12.6336-54.3992Q8.72266-45.3992 8.72266-35.1983Q8.72266-24.9975 12.6336-15.9974Q16.5446-6.99738 23.4178-0.093004Q30.291 6.81138 39.2968 10.6912Q48.3025 14.571 58.492 14.571ZM43.5331-10.4357Q39.4043-10.4357 37.3228-12.4605Q35.2414-14.4853 35.2414-18.5122L35.2414-45.7171Q35.2414-49.744 37.3228-51.7433Q39.4043-53.7426 43.5331-53.7426L47.6741-53.7426Q47.7873-57.9338 50.9222-60.9611Q54.057-63.9885 58.543-63.9885Q62.9893-63.9885 66.1439-60.9611Q69.2986-57.9338 69.3609-53.7426L73.5019-53.7426Q77.6307-53.7426 79.7121-51.7376Q81.7936-49.7326 81.7936-45.7171L81.7936-18.5122Q81.7936-14.4966 79.8452-12.4662Q77.8968-10.4357 74.3172-10.4357ZM52.5896-53.7426L64.4567-53.7426Q64.3944-56.3087 62.7999-57.8352Q61.2053-59.3618 58.543-59.3618Q55.841-59.3618 54.2719-57.8352Q52.7029-56.3087 52.5896-53.7426Z"/>
  </g>
  <g id="Light-M" transform="matrix(1 0 0 1 1095.44 1126)">
   <path d="M57.664 13.743Q67.7687 13.743 76.6123 9.93683Q85.456 6.13061 92.2245-0.654174Q98.993-7.43896 102.83-16.2826Q106.668-25.1263 106.668-35.1983Q106.668-45.2704 102.83-54.1141Q98.993-62.9577 92.2082-69.7425Q85.4234-76.5273 76.5798-80.3335Q67.7361-84.1397 57.6315-84.1397Q47.5892-84.1397 38.7306-80.3335Q29.8721-76.5273 23.1348-69.7425Q16.3974-62.9577 12.56-54.1141Q8.72266-45.2704 8.72266-35.1983Q8.72266-25.1263 12.56-16.2826Q16.3974-7.43896 23.151-0.654174Q29.9047 6.13061 38.7632 9.93683Q47.6217 13.743 57.664 13.743ZM42.5948-11.098Q38.7419-11.098 36.7709-13.0217Q34.7998-14.9453 34.7998-18.733L34.7998-46.3058Q34.7998-50.0936 36.7709-52.0009Q38.7419-53.9082 42.5948-53.9082L47.2877-53.9082Q47.3825-57.8234 50.2966-60.7588Q53.2107-63.6941 57.6966-63.6941Q62.1797-63.6941 65.0952-60.7588Q68.0107-57.8234 68.073-53.9082L72.7659-53.9082Q76.6188-53.9082 78.5898-51.986Q80.5608-50.0638 80.5608-46.3058L80.5608-18.733Q80.5608-14.975 78.6861-13.0365Q76.8113-11.098 73.2869-11.098ZM51.2833-53.9082L64.1071-53.9082Q64.0448-56.695 62.3399-58.3228Q60.635-59.9505 57.6966-59.9505Q54.7554-59.9505 53.0668-58.3228Q51.3781-56.695 51.2833-53.9082Z"/>
  </g>
  <g id="Thin-M" transform="matrix(1 0 0 1 799.822 1126)">
   <path d="M56.569 12.648Q66.479 12.648 75.1158 8.93913Q83.7526 5.23025 90.3751-1.39637Q96.9976-8.02298 100.738-16.6598Q104.478-25.2966 104.478-35.1983Q104.478-45.1001 100.738-53.7369Q96.9976-62.3737 90.371-69.0003Q83.7444-75.6269 75.1076-79.3358Q66.4707-83.0447 56.5608-83.0447Q46.7131-83.0447 38.0493-79.3358Q29.3854-75.6269 22.7941-69.0003Q16.2027-62.3737 12.4627-53.7369Q8.72266-45.1001 8.72266-35.1983Q8.72266-25.2966 12.4627-16.6598Q16.2027-8.02298 22.7982-1.39637Q29.3936 5.23025 38.0575 8.93913Q46.7214 12.648 56.569 12.648ZM41.3537-11.9741Q37.8659-11.9741 36.0408-13.7638Q34.2158-15.5536 34.2158-19.025L34.2158-47.0845Q34.2158-50.5559 36.0408-52.3416Q37.8659-54.1272 41.3537-54.1272L46.7767-54.1272Q46.8472-57.6774 49.4692-60.4911Q52.0913-63.3048 56.5772-63.3048Q61.109-63.3048 63.7082-60.4911Q66.3073-57.6774 66.3696-54.1272L71.7925-54.1272Q75.2804-54.1272 77.1054-52.3145Q78.9305-50.5018 78.9305-47.0845L78.9305-19.025Q78.9305-15.6077 77.153-13.7909Q75.3756-11.9741 71.9241-11.9741ZM49.5555-54.1272L63.6448-54.1272Q63.5825-57.2061 61.7315-58.9676Q59.8806-60.7292 56.5772-60.7292Q53.3197-60.7292 51.4729-58.9676Q49.6261-57.2061 49.5555-54.1272Z"/>
  </g>
  <g id="Ultralight-M" transform="matrix(1 0 0 1 503.672 1126)">
   <path d="M56.0081 12.0871Q65.8184 12.0871 74.3492 8.42811Q82.8801 4.76909 89.4278-1.77651Q95.9756-8.32211 99.6657-16.853Q103.356-25.3839 103.356-35.1983Q103.356-45.0128 99.6657-53.5437Q95.9756-62.0746 89.43-68.6202Q82.8844-75.1658 74.3535-78.8248Q65.8226-82.4838 56.0124-82.4838Q46.2644-82.4838 37.7003-78.8248Q29.1361-75.1658 22.6196-68.6202Q16.103-62.0746 12.4128-53.5437Q8.72266-45.0128 8.72266-35.1983Q8.72266-25.3839 12.4128-16.853Q16.103-8.32211 22.6175-1.77651Q29.1319 4.76909 37.6961 8.42811Q46.2602 12.0871 56.0081 12.0871ZM40.7181-12.4228Q37.4172-12.4228 35.6669-14.144Q33.9167-15.8652 33.9167-19.1746L33.9167-47.4834Q33.9167-50.7927 35.6669-52.5161Q37.4172-54.2394 40.7181-54.2394L46.5149-54.2394Q46.573-57.6026 49.0455-60.354Q51.518-63.1053 56.0039-63.1053Q60.5606-63.1053 62.9977-60.354Q65.4348-57.6026 65.4971-54.2394L71.294-54.2394Q74.5949-54.2394 76.3451-52.4828Q78.0954-50.7262 78.0954-47.4834L78.0954-19.1746Q78.0954-15.9318 76.3678-14.1773Q74.6402-12.4228 71.2262-12.4228ZM48.6706-54.2394L63.408-54.2394Q63.3457-57.4678 61.4199-59.2979Q59.4942-61.1281 56.0039-61.1281Q52.5844-61.1281 50.6565-59.2979Q48.7287-57.4678 48.6706-54.2394Z"/>
  </g>
  <g id="Black-S" transform="matrix(1 0 0 1 2884.57 696)">
   <path d="M48.8281 6.83594Q57.5195 6.83594 65.1123 3.56445Q72.7051 0.292969 78.4912-5.49316Q84.2773-11.2793 87.5488-18.8721Q90.8203-26.4648 90.8203-35.1562Q90.8203-43.8477 87.5488-51.4404Q84.2773-59.0332 78.4912-64.8193Q72.7051-70.6055 65.1123-73.877Q57.5195-77.1484 48.8281-77.1484Q40.1367-77.1484 32.5439-73.877Q24.9512-70.6055 19.165-64.8193Q13.3789-59.0332 10.1074-51.4404Q6.83594-43.8477 6.83594-35.1562Q6.83594-26.4648 10.1074-18.8721Q13.3789-11.2793 19.165-5.49316Q24.9512 0.292969 32.5439 3.56445Q40.1367 6.83594 48.8281 6.83594ZM38.0371-15.2344Q34.5703-15.2344 32.5928-17.2119Q30.6152-19.1895 30.6152-22.6562L30.6152-41.6016Q30.6152-45.0684 32.5928-46.9971Q34.5703-48.9258 38.0371-48.9258L39.1113-48.9258Q39.1602-52.9785 41.9678-55.6396Q44.7754-58.3008 48.8281-58.3008Q52.8809-58.3008 55.6885-55.6396Q58.4961-52.9785 58.5449-48.9258L59.6191-48.9258Q63.0859-48.9258 65.0635-46.9971Q67.041-45.0684 67.041-41.6016L67.041-22.6562Q67.041-19.1895 65.0635-17.2119Q63.0859-15.2344 59.6191-15.2344ZM45.5078-48.9258L52.1484-48.9258Q52.1484-50.5859 51.2695-51.6357Q50.3906-52.6855 48.8281-52.6855Q47.3145-52.6855 46.4111-51.6357Q45.5078-50.5859 45.5078-48.9258Z"/>
  </g>
  <g id="Heavy-S" transform="matrix(1 0 0 1 2588.47 696)">
   <path d="M48.2173 6.21362Q56.7704 6.21362 64.2537 2.98823Q71.737-0.237157 77.4425-5.94838Q83.1479-11.6596 86.3791-19.1429Q89.6102-26.6262 89.6102-35.1678Q89.6102-43.7094 86.3791-51.1927Q83.1479-58.6759 77.4367-64.3872Q71.7255-70.0984 64.2422-73.3238Q56.7589-76.5492 48.2058-76.5492Q39.6642-76.5492 32.1809-73.3238Q24.6976-70.0984 18.9979-64.3872Q13.2982-58.6759 10.0671-51.1927Q6.83594-43.7094 6.83594-35.1678Q6.83594-26.6262 10.0671-19.1429Q13.2982-11.6596 19.0037-5.94838Q24.7092-0.237157 32.1924 2.98823Q39.6757 6.21362 48.2173 6.21362ZM37.2189-15.292Q33.7751-15.292 31.8667-17.1889Q29.9583-19.0857 29.9583-22.5064L29.9583-41.9703Q29.9583-45.391 31.8667-47.2448Q33.7751-49.0986 37.2189-49.0986L38.7425-49.0986Q38.8029-53.0016 41.5529-55.6051Q44.3029-58.2086 48.2289-58.2086Q52.1433-58.2086 54.8991-55.6051Q57.6548-53.0016 57.7036-49.0986L59.2273-49.0986Q62.6711-49.0986 64.5794-47.2448Q66.4878-45.391 66.4878-41.9703L66.4878-22.5064Q66.4878-19.0857 64.6083-17.1889Q62.7287-15.292 59.4117-15.292ZM44.6435-49.0986L51.8027-49.0986Q51.7912-50.8164 50.8374-51.8893Q49.8835-52.9621 48.2289-52.9621Q46.5999-52.9621 45.6332-51.8893Q44.6665-50.8164 44.6435-49.0986Z"/>
  </g>
  <g id="Bold-S" transform="matrix(1 0 0 1 2292.43 696)">
   <path d="M47.5342 5.51758Q55.9326 5.51758 63.2935 2.34375Q70.6543-0.830078 76.2695-6.45752Q81.8848-12.085 85.0708-19.4458Q88.2568-26.8066 88.2568-35.1807Q88.2568-43.5547 85.0708-50.9155Q81.8848-58.2764 76.2573-63.9038Q70.6299-69.5312 63.269-72.7051Q55.9082-75.8789 47.5098-75.8789Q39.1357-75.8789 31.7749-72.7051Q24.4141-69.5312 18.811-63.9038Q13.208-58.2764 10.022-50.9155Q6.83594-43.5547 6.83594-35.1807Q6.83594-26.8066 10.022-19.4458Q13.208-12.085 18.8232-6.45752Q24.4385-0.830078 31.7993 2.34375Q39.1602 5.51758 47.5342 5.51758ZM36.3037-15.3564Q32.8857-15.3564 31.0547-17.1631Q29.2236-18.9697 29.2236-22.3389L29.2236-42.3828Q29.2236-45.752 31.0547-47.522Q32.8857-49.292 36.3037-49.292L38.3301-49.292Q38.4033-53.0273 41.0889-55.5664Q43.7744-58.1055 47.5586-58.1055Q51.3184-58.1055 54.0161-55.5664Q56.7139-53.0273 56.7627-49.292L58.7891-49.292Q62.207-49.292 64.0381-47.522Q65.8691-45.752 65.8691-42.3828L65.8691-22.3389Q65.8691-18.9697 64.0991-17.1631Q62.3291-15.3564 59.1797-15.3564ZM43.6768-49.292L51.416-49.292Q51.3916-51.0742 50.354-52.1729Q49.3164-53.2715 47.5586-53.2715Q45.8008-53.2715 44.7632-52.1729Q43.7256-51.0742 43.6768-49.292Z"/>
  </g>
  <g id="Semibold-S" transform="matrix(1 0 0 1 1996.19 696)">
   <path d="M47.0632 5.0377Q55.355 5.0377 62.6314 1.89941Q69.9078-1.23887 75.4608-6.80854Q81.0139-12.3782 84.1688-19.6546Q87.3237-26.9311 87.3237-35.1896Q87.3237-43.448 84.1688-50.7245Q81.0139-58.0009 75.4442-63.5706Q69.8745-69.1402 62.5981-72.2785Q55.3217-75.4168 47.0299-75.4168Q38.7714-75.4168 31.495-72.2785Q24.2186-69.1402 18.6822-63.5706Q13.1458-58.0009 9.99087-50.7245Q6.83594-43.448 6.83594-35.1896Q6.83594-26.9311 9.99087-19.6546Q13.1458-12.3782 18.6988-6.80854Q24.2519-1.23887 31.5283 1.89941Q38.8047 5.0377 47.0632 5.0377ZM35.6728-15.4009Q32.2726-15.4009 30.4948-17.1453Q28.7171-18.8897 28.7171-22.2233L28.7171-42.6672Q28.7171-46.0008 30.4948-47.713Q32.2726-49.4253 35.6728-49.4253L38.0457-49.4253Q38.1278-53.0451 40.7689-55.5397Q43.4101-58.0344 47.0965-58.0344Q50.7496-58.0344 53.4074-55.5397Q56.0651-53.0451 56.114-49.4253L58.4869-49.4253Q61.8871-49.4253 63.6648-47.713Q65.4426-46.0008 65.4426-42.6672L65.4426-22.2233Q65.4426-18.8897 63.7481-17.1453Q62.0536-15.4009 59.0197-15.4009ZM43.0103-49.4253L51.1494-49.4253Q51.1161-51.252 50.0208-52.3684Q48.9254-53.4848 47.0965-53.4848Q45.2498-53.4848 44.1633-52.3684Q43.0769-51.252 43.0103-49.4253Z"/>
  </g>
  <g id="Medium-S" transform="matrix(1 0 0 1 1699.83 696)">
   <path d="M46.7061 4.67383Q54.917 4.67383 62.1294 1.5625Q69.3418-1.54883 74.8477-7.07471Q80.3535-12.6006 83.4849-19.813Q86.6162-27.0254 86.6162-35.1963Q86.6162-43.3672 83.4849-50.5796Q80.3535-57.792 74.8276-63.3179Q69.3018-68.8438 62.0894-71.9551Q54.877-75.0664 46.666-75.0664Q38.4951-75.0664 31.2827-71.9551Q24.0703-68.8438 18.5845-63.3179Q13.0986-57.792 9.96729-50.5796Q6.83594-43.3672 6.83594-35.1963Q6.83594-27.0254 9.96729-19.813Q13.0986-12.6006 18.6045-7.07471Q24.1104-1.54883 31.3228 1.5625Q38.5352 4.67383 46.7061 4.67383ZM35.1943-15.4346Q31.8076-15.4346 30.0703-17.1318Q28.333-18.8291 28.333-22.1357L28.333-42.8828Q28.333-46.1895 30.0703-47.8579Q31.8076-49.5264 35.1943-49.5264L37.8301-49.5264Q37.9189-53.0586 40.5264-55.5195Q43.1338-57.9805 46.7461-57.9805Q50.3184-57.9805 52.9458-55.5195Q55.5732-53.0586 55.6221-49.5264L58.2578-49.5264Q61.6445-49.5264 63.3818-47.8579Q65.1191-46.1895 65.1191-42.8828L65.1191-22.1357Q65.1191-18.8291 63.4819-17.1318Q61.8447-15.4346 58.8984-15.4346ZM42.5049-49.5264L50.9473-49.5264Q50.9072-51.3867 49.7681-52.5166Q48.6289-53.6465 46.7461-53.6465Q44.832-53.6465 43.7085-52.5166Q42.585-51.3867 42.5049-49.5264Z"/>
  </g>
  <g id="Regular-S" transform="matrix(1 0 0 1 1403.58 696)">
   <path d="M46.2402 4.19922Q54.3457 4.19922 61.4746 1.12305Q68.6035-1.95312 74.0479-7.42188Q79.4922-12.8906 82.5928-20.0195Q85.6934-27.1484 85.6934-35.2051Q85.6934-43.2617 82.5928-50.3906Q79.4922-57.5195 74.0234-62.9883Q68.5547-68.457 61.4258-71.5332Q54.2969-74.6094 46.1914-74.6094Q38.1348-74.6094 31.0059-71.5332Q23.877-68.457 18.457-62.9883Q13.0371-57.5195 9.93652-50.3906Q6.83594-43.2617 6.83594-35.2051Q6.83594-27.1484 9.93652-20.0195Q13.0371-12.8906 18.4814-7.42188Q23.9258-1.95312 31.0547 1.12305Q38.1836 4.19922 46.2402 4.19922ZM34.5703-15.4785Q31.2012-15.4785 29.5166-17.1143Q27.832-18.75 27.832-22.0215L27.832-43.1641Q27.832-46.4355 29.5166-48.0469Q31.2012-49.6582 34.5703-49.6582L37.5488-49.6582Q37.6465-53.0762 40.21-55.4932Q42.7734-57.9102 46.2891-57.9102Q49.7559-57.9102 52.3438-55.4932Q54.9316-53.0762 54.9805-49.6582L57.959-49.6582Q61.3281-49.6582 63.0127-48.0469Q64.6973-46.4355 64.6973-43.1641L64.6973-22.0215Q64.6973-18.75 63.1348-17.1143Q61.5723-15.4785 58.7402-15.4785ZM41.8457-49.6582L50.6836-49.6582Q50.6348-51.5625 49.4385-52.71Q48.2422-53.8574 46.2891-53.8574Q44.2871-53.8574 43.1152-52.71Q41.9434-51.5625 41.8457-49.6582Z"/>
  </g>
  <g id="Light-S" transform="matrix(1 0 0 1 1107.6 696)">
   <path d="M45.5078 3.4668Q53.4831 3.4668 60.4736 0.455729Q67.4642-2.55534 72.8109-7.91829Q78.1576-13.2812 81.193-20.2718Q84.2285-27.2624 84.2285-35.2051Q84.2285-43.1478 81.193-50.1383Q78.1576-57.1289 72.7946-62.4919Q67.4316-67.8548 60.4411-70.8659Q53.4505-73.877 45.4753-73.877Q37.5488-73.877 30.5501-70.8659Q23.5514-67.8548 18.2292-62.4919Q12.9069-57.1289 9.87142-50.1383Q6.83594-43.1478 6.83594-35.2051Q6.83594-27.2624 9.87142-20.2718Q12.9069-13.2812 18.2454-7.91829Q23.584-2.55534 30.5827 0.455729Q37.5814 3.4668 45.5078 3.4668ZM33.7402-16.0645Q30.6152-16.0645 29.0283-17.6107Q27.4414-19.1569 27.4414-22.2168L27.4414-43.6849Q27.4414-46.7448 29.0283-48.2747Q30.6152-49.8047 33.7402-49.8047L37.207-49.8047Q37.2884-52.9785 39.6566-55.3141Q42.0247-57.6497 45.5404-57.6497Q49.0397-57.6497 51.416-55.3141Q53.7923-52.9785 53.8411-49.8047L57.3079-49.8047Q60.4329-49.8047 62.0199-48.2666Q63.6068-46.7285 63.6068-43.6849L63.6068-22.2168Q63.6068-19.1732 62.1094-17.6188Q60.612-16.0645 57.8288-16.0645ZM40.6901-49.8047L50.3743-49.8047Q50.3255-51.9043 49.0316-53.1413Q47.7376-54.3783 45.5404-54.3783Q43.3268-54.3783 42.0492-53.1413Q40.7715-51.9043 40.6901-49.8047Z"/>
  </g>
  <g id="Thin-S" transform="matrix(1 0 0 1 811.859 696)">
   <path d="M44.5391 2.49811Q52.3422 2.49811 59.1498-0.426852Q65.9573-3.35181 71.1749-8.57485Q76.3924-13.7979 79.3418-20.6055Q82.2911-27.4131 82.2911-35.2051Q82.2911-42.9971 79.3418-49.8047Q76.3924-56.6123 71.1694-61.8353Q65.9463-67.0583 59.1387-69.9833Q52.3311-72.9083 44.5281-72.9083Q36.7739-72.9083 29.9474-69.9833Q23.1209-67.0583 17.9278-61.8353Q12.7347-56.6123 9.78531-49.8047Q6.83594-42.9971 6.83594-35.2051Q6.83594-27.4131 9.78531-20.6055Q12.7347-13.7979 17.9333-8.57485Q23.1319-3.35181 29.9584-0.426852Q36.7849 2.49811 44.5391 2.49811ZM32.6424-16.8394Q29.8403-16.8394 28.3825-18.2672Q26.9248-19.6951 26.9248-22.4751L26.9248-44.3737Q26.9248-47.1538 28.3825-48.5761Q29.8403-49.9984 32.6424-49.9984L36.755-49.9984Q36.8148-52.8494 38.9247-55.0773Q41.0345-57.3053 44.5502-57.3053Q48.0926-57.3053 50.189-55.0773Q52.2855-52.8494 52.3343-49.9984L56.4469-49.9984Q59.249-49.9984 60.7067-48.5572Q62.1645-47.116 62.1645-44.3737L62.1645-22.4751Q62.1645-19.7329 60.7532-18.2861Q59.3419-16.8394 56.6233-16.8394ZM39.1617-49.9984L49.9653-49.9984Q49.9165-52.3564 48.4934-53.7117Q47.0703-55.0671 44.5502-55.0671Q42.0568-55.0671 40.6392-53.7117Q39.2216-52.3564 39.1617-49.9984Z"/>
  </g>
  <g id="Ultralight-S" transform="matrix(1 0 0 1 515.644 696)">
   <path d="M44.043 2.00195Q51.7578 2.00195 58.4717-0.878906Q65.1855-3.75977 70.3369-8.91113Q75.4883-14.0625 78.3936-20.7764Q81.2988-27.4902 81.2988-35.2051Q81.2988-42.9199 78.3936-49.6338Q75.4883-56.3477 70.3369-61.499Q65.1855-66.6504 58.4717-69.5312Q51.7578-72.4121 44.043-72.4121Q36.377-72.4121 29.6387-69.5312Q22.9004-66.6504 17.7734-61.499Q12.6465-56.3477 9.74121-49.6338Q6.83594-42.9199 6.83594-35.2051Q6.83594-27.4902 9.74121-20.7764Q12.6465-14.0625 17.7734-8.91113Q22.9004-3.75977 29.6387-0.878906Q36.377 2.00195 44.043 2.00195ZM32.0801-17.2363Q29.4434-17.2363 28.0518-18.6035Q26.6602-19.9707 26.6602-22.6074L26.6602-44.7266Q26.6602-47.3633 28.0518-48.7305Q29.4434-50.0977 32.0801-50.0977L36.5234-50.0977Q36.5723-52.7832 38.5498-54.9561Q40.5273-57.1289 44.043-57.1289Q47.6074-57.1289 49.5605-54.9561Q51.5137-52.7832 51.5625-50.0977L56.0059-50.0977Q58.6426-50.0977 60.0342-48.7061Q61.4258-47.3145 61.4258-44.7266L61.4258-22.6074Q61.4258-20.0195 60.0586-18.6279Q58.6914-17.2363 56.0059-17.2363ZM38.3789-50.0977L49.7559-50.0977Q49.707-52.5879 48.2178-54.0039Q46.7285-55.4199 44.043-55.4199Q41.4062-55.4199 39.917-54.0039Q38.4277-52.5879 38.3789-50.0977Z"/>
  </g>
 </g>
</svg>
