<?xml version="1.0" encoding="UTF-8"?>
<!--Generator: Apple Native CoreSVG 175-->
<!DOCTYPE svg
PUBLIC "-//W3C//DTD SVG 1.1//EN"
       "http://www.w3.org/Graphics/SVG/1.1/DTD/svg11.dtd">
<svg version="1.1" xmlns="http://www.w3.org/2000/svg" xmlns:xlink="http://www.w3.org/1999/xlink" width="3300" height="2200">
 <!--glyph: "uni100B70.medium", point size: 100.0, font version: "17.1d1e1", template writer version: "65.1"-->
 <g id="Notes">
  <rect height="2200" id="artboard" style="fill:white;opacity:1" width="3300" x="0" y="0"/>
  <line style="fill:none;stroke:black;opacity:1;stroke-width:0.5;" x1="263" x2="3036" y1="292" y2="292"/>
  <text style="stroke:none;fill:black;font-family:sans-serif;font-size:13;font-weight:bold;" transform="matrix(1 0 0 1 263 322)">Weight/Scale Variations</text>
  <text style="stroke:none;fill:black;font-family:sans-serif;font-size:13;text-anchor:middle;" transform="matrix(1 0 0 1 559.711 322)">Ultralight</text>
  <text style="stroke:none;fill:black;font-family:sans-serif;font-size:13;text-anchor:middle;" transform="matrix(1 0 0 1 856.422 322)">Thin</text>
  <text style="stroke:none;fill:black;font-family:sans-serif;font-size:13;text-anchor:middle;" transform="matrix(1 0 0 1 1153.13 322)">Light</text>
  <text style="stroke:none;fill:black;font-family:sans-serif;font-size:13;text-anchor:middle;" transform="matrix(1 0 0 1 1449.84 322)">Regular</text>
  <text style="stroke:none;fill:black;font-family:sans-serif;font-size:13;text-anchor:middle;" transform="matrix(1 0 0 1 1746.56 322)">Medium</text>
  <text style="stroke:none;fill:black;font-family:sans-serif;font-size:13;text-anchor:middle;" transform="matrix(1 0 0 1 2043.27 322)">Semibold</text>
  <text style="stroke:none;fill:black;font-family:sans-serif;font-size:13;text-anchor:middle;" transform="matrix(1 0 0 1 2339.98 322)">Bold</text>
  <text style="stroke:none;fill:black;font-family:sans-serif;font-size:13;text-anchor:middle;" transform="matrix(1 0 0 1 2636.69 322)">Heavy</text>
  <text style="stroke:none;fill:black;font-family:sans-serif;font-size:13;text-anchor:middle;" transform="matrix(1 0 0 1 2933.4 322)">Black</text>
  <line style="fill:none;stroke:black;opacity:1;stroke-width:0.5;" x1="263" x2="3036" y1="1903" y2="1903"/>
  <g transform="matrix(1 0 0 1 263 1933)">
   <path d="M9.24805 0.830078Q10.8691 0.830078 12.2949 0.214844Q13.7207-0.400391 14.8096-1.49414Q15.8984-2.58789 16.5186-4.01367Q17.1387-5.43945 17.1387-7.05078Q17.1387-8.66211 16.5186-10.0879Q15.8984-11.5137 14.8047-12.6074Q13.7109-13.7012 12.2852-14.3164Q10.8594-14.9316 9.23828-14.9316Q7.62695-14.9316 6.20117-14.3164Q4.77539-13.7012 3.69141-12.6074Q2.60742-11.5137 1.9873-10.0879Q1.36719-8.66211 1.36719-7.05078Q1.36719-5.43945 1.9873-4.01367Q2.60742-2.58789 3.69629-1.49414Q4.78516-0.400391 6.21094 0.214844Q7.63672 0.830078 9.24805 0.830078ZM9.24805-0.654297Q7.91992-0.654297 6.7627-1.14746Q5.60547-1.64062 4.73145-2.51953Q3.85742-3.39844 3.36426-4.56055Q2.87109-5.72266 2.87109-7.05078Q2.87109-8.37891 3.35938-9.54102Q3.84766-10.7031 4.72168-11.582Q5.5957-12.4609 6.75293-12.9541Q7.91016-13.4473 9.23828-13.4473Q10.5762-13.4473 11.7334-12.9541Q12.8906-12.4609 13.7695-11.582Q14.6484-10.7031 15.1465-9.54102Q15.6445-8.37891 15.6445-7.05078Q15.6445-5.72266 15.1514-4.56055Q14.6582-3.39844 13.7842-2.51953Q12.9102-1.64062 11.748-1.14746Q10.5859-0.654297 9.24805-0.654297ZM5.6543-7.05078Q5.6543-6.72852 5.85938-6.52832Q6.06445-6.32812 6.40625-6.32812L8.51562-6.32812L8.51562-4.20898Q8.51562-3.88672 8.71094-3.67676Q8.90625-3.4668 9.23828-3.4668Q9.56055-3.4668 9.77051-3.67676Q9.98047-3.88672 9.98047-4.20898L9.98047-6.32812L12.0898-6.32812Q12.4219-6.32812 12.627-6.52832Q12.832-6.72852 12.832-7.05078Q12.832-7.38281 12.627-7.58789Q12.4219-7.79297 12.0898-7.79297L9.98047-7.79297L9.98047-9.90234Q9.98047-10.2344 9.77051-10.4443Q9.56055-10.6543 9.23828-10.6543Q8.90625-10.6543 8.71094-10.4443Q8.51562-10.2344 8.51562-9.90234L8.51562-7.79297L6.40625-7.79297Q6.06445-7.79297 5.85938-7.58789Q5.6543-7.38281 5.6543-7.05078Z"/>
  </g>
  <g transform="matrix(1 0 0 1 281.867 1933)">
   <path d="M11.709 2.91016Q13.75 2.91016 15.5518 2.12891Q17.3535 1.34766 18.7305-0.0292969Q20.1074-1.40625 20.8887-3.20801Q21.6699-5.00977 21.6699-7.05078Q21.6699-9.0918 20.8887-10.8936Q20.1074-12.6953 18.7305-14.0723Q17.3535-15.4492 15.5469-16.2305Q13.7402-17.0117 11.6992-17.0117Q9.6582-17.0117 7.85645-16.2305Q6.05469-15.4492 4.68262-14.0723Q3.31055-12.6953 2.5293-10.8936Q1.74805-9.0918 1.74805-7.05078Q1.74805-5.00977 2.5293-3.20801Q3.31055-1.40625 4.6875-0.0292969Q6.06445 1.34766 7.86621 2.12891Q9.66797 2.91016 11.709 2.91016ZM11.709 1.25Q9.98047 1.25 8.47656 0.605469Q6.97266-0.0390625 5.83496-1.17676Q4.69727-2.31445 4.05762-3.81836Q3.41797-5.32227 3.41797-7.05078Q3.41797-8.7793 4.05762-10.2832Q4.69727-11.7871 5.83008-12.9297Q6.96289-14.0723 8.4668-14.7119Q9.9707-15.3516 11.6992-15.3516Q13.4277-15.3516 14.9316-14.7119Q16.4355-14.0723 17.5781-12.9297Q18.7207-11.7871 19.3652-10.2832Q20.0098-8.7793 20.0098-7.05078Q20.0098-5.32227 19.3701-3.81836Q18.7305-2.31445 17.5928-1.17676Q16.4551-0.0390625 14.9463 0.605469Q13.4375 1.25 11.709 1.25ZM7.17773-7.05078Q7.17773-6.69922 7.41211-6.47461Q7.64648-6.25 8.01758-6.25L10.8887-6.25L10.8887-3.36914Q10.8887-2.99805 11.1133-2.76855Q11.3379-2.53906 11.6895-2.53906Q12.0605-2.53906 12.29-2.76855Q12.5195-2.99805 12.5195-3.36914L12.5195-6.25L15.4004-6.25Q15.7715-6.25 16.001-6.47461Q16.2305-6.69922 16.2305-7.05078Q16.2305-7.42188 16.001-7.65137Q15.7715-7.88086 15.4004-7.88086L12.5195-7.88086L12.5195-10.752Q12.5195-11.1328 12.29-11.3623Q12.0605-11.5918 11.6895-11.5918Q11.3379-11.5918 11.1133-11.3574Q10.8887-11.123 10.8887-10.752L10.8887-7.88086L8.01758-7.88086Q7.63672-7.88086 7.40723-7.65137Q7.17773-7.42188 7.17773-7.05078Z"/>
  </g>
  <g transform="matrix(1 0 0 1 305.646 1933)">
   <path d="M14.9707 5.66406Q17.0605 5.66406 18.96 5.01465Q20.8594 4.36523 22.4512 3.19336Q24.043 2.02148 25.2197 0.429688Q26.3965-1.16211 27.0459-3.06641Q27.6953-4.9707 27.6953-7.05078Q27.6953-9.14062 27.0459-11.04Q26.3965-12.9395 25.2197-14.5312Q24.043-16.123 22.4512-17.2998Q20.8594-18.4766 18.9551-19.126Q17.0508-19.7754 14.9609-19.7754Q12.8711-19.7754 10.9717-19.126Q9.07227-18.4766 7.48535-17.2998Q5.89844-16.123 4.72168-14.5312Q3.54492-12.9395 2.90039-11.04Q2.25586-9.14062 2.25586-7.05078Q2.25586-4.9707 2.90527-3.06641Q3.55469-1.16211 4.72656 0.429688Q5.89844 2.02148 7.49023 3.19336Q9.08203 4.36523 10.9814 5.01465Q12.8809 5.66406 14.9707 5.66406ZM14.9707 3.84766Q13.1641 3.84766 11.5283 3.2959Q9.89258 2.74414 8.53516 1.74805Q7.17773 0.751953 6.17676-0.610352Q5.17578-1.97266 4.62891-3.6084Q4.08203-5.24414 4.08203-7.05078Q4.08203-8.86719 4.62891-10.5029Q5.17578-12.1387 6.17188-13.501Q7.16797-14.8633 8.52539-15.8594Q9.88281-16.8555 11.5186-17.4023Q13.1543-17.9492 14.9609-17.9492Q16.7773-17.9492 18.4131-17.4023Q20.0488-16.8555 21.4111-15.8594Q22.7734-14.8633 23.7695-13.501Q24.7656-12.1387 25.3174-10.5029Q25.8691-8.86719 25.8691-7.05078Q25.8789-5.24414 25.332-3.6084Q24.7852-1.97266 23.7842-0.610352Q22.7832 0.751953 21.4209 1.74805Q20.0586 2.74414 18.4229 3.2959Q16.7871 3.84766 14.9707 3.84766ZM9.19922-7.05078Q9.19922-6.66992 9.45801-6.4209Q9.7168-6.17188 10.1172-6.17188L14.0625-6.17188L14.0625-2.2168Q14.0625-1.81641 14.3115-1.55762Q14.5605-1.29883 14.9512-1.29883Q15.3516-1.29883 15.6104-1.55273Q15.8691-1.80664 15.8691-2.2168L15.8691-6.17188L19.8242-6.17188Q20.2246-6.17188 20.4785-6.4209Q20.7324-6.66992 20.7324-7.05078Q20.7324-7.46094 20.4785-7.71484Q20.2246-7.96875 19.8242-7.96875L15.8691-7.96875L15.8691-11.9141Q15.8691-12.3242 15.6104-12.583Q15.3516-12.8418 14.9512-12.8418Q14.5605-12.8418 14.3115-12.583Q14.0625-12.3242 14.0625-11.9141L14.0625-7.96875L10.1172-7.96875Q9.70703-7.96875 9.45312-7.71484Q9.19922-7.46094 9.19922-7.05078Z"/>
  </g>
  <text style="stroke:none;fill:black;font-family:sans-serif;font-size:13;font-weight:bold;" transform="matrix(1 0 0 1 263 1953)">Design Variations</text>
  <text style="stroke:none;fill:black;font-family:sans-serif;font-size:13;" transform="matrix(1 0 0 1 263 1971)">Symbols are supported in up to nine weights and three scales.</text>
  <text style="stroke:none;fill:black;font-family:sans-serif;font-size:13;" transform="matrix(1 0 0 1 263 1989)">For optimal layout with text and other symbols, vertically align</text>
  <text style="stroke:none;fill:black;font-family:sans-serif;font-size:13;" transform="matrix(1 0 0 1 263 2007)">symbols with the adjacent text.</text>
  <line style="fill:none;stroke:#00AEEF;stroke-width:0.5;opacity:1.0;" x1="776" x2="776" y1="1919" y2="1933"/>
  <g transform="matrix(1 0 0 1 776 1933)">
   <path d="M3.31055 0.15625Q3.70117 0.15625 3.91602-0.00976562Q4.13086-0.175781 4.26758-0.585938L5.52734-4.0332L11.2891-4.0332L12.5488-0.585938Q12.6855-0.175781 12.9004-0.00976562Q13.1152 0.15625 13.4961 0.15625Q13.8867 0.15625 14.1162-0.0585938Q14.3457-0.273438 14.3457-0.644531Q14.3457-0.869141 14.2383-1.17188L9.6582-13.3691Q9.48242-13.8184 9.17969-14.043Q8.87695-14.2676 8.4082-14.2676Q7.5-14.2676 7.17773-13.3789L2.59766-1.16211Q2.49023-0.859375 2.49023-0.634766Q2.49023-0.263672 2.70996-0.0537109Q2.92969 0.15625 3.31055 0.15625ZM6.00586-5.51758L8.37891-12.0898L8.42773-12.0898L10.8008-5.51758Z"/>
  </g>
  <line style="fill:none;stroke:#00AEEF;stroke-width:0.5;opacity:1.0;" x1="793.197" x2="793.197" y1="1919" y2="1933"/>
  <text style="stroke:none;fill:black;font-family:sans-serif;font-size:13;font-weight:bold;" transform="matrix(1 0 0 1 776 1953)">Margins</text>
  <text style="stroke:none;fill:black;font-family:sans-serif;font-size:13;" transform="matrix(1 0 0 1 776 1971)">Leading and trailing margins on the left and right side of each symbol</text>
  <text style="stroke:none;fill:black;font-family:sans-serif;font-size:13;" transform="matrix(1 0 0 1 776 1989)">can be adjusted by modifying the x-location of the margin guidelines.</text>
  <text style="stroke:none;fill:black;font-family:sans-serif;font-size:13;" transform="matrix(1 0 0 1 776 2007)">Modifications are automatically applied proportionally to all</text>
  <text style="stroke:none;fill:black;font-family:sans-serif;font-size:13;" transform="matrix(1 0 0 1 776 2025)">scales and weights.</text>
  <g transform="matrix(1 0 0 1 1289 1933)">
   <path d="M2.8418 1.86523L4.54102 3.57422Q5.18555 4.22852 5.90332 4.17969Q6.62109 4.13086 7.31445 3.35938L18.0078-8.42773L17.041-9.4043L6.42578 2.27539Q6.16211 2.57812 5.89355 2.61719Q5.625 2.65625 5.27344 2.30469L4.10156 1.14258Q3.75 0.791016 3.79395 0.522461Q3.83789 0.253906 4.14062-0.0195312L15.6152-10.8203L14.6387-11.7871L3.04688-0.898438Q2.30469-0.214844 2.25098 0.498047Q2.19727 1.21094 2.8418 1.86523ZM9.25781-16.3281Q8.94531-16.0254 8.90625-15.6348Q8.86719-15.2441 9.04297-14.9512Q9.21875-14.6777 9.55566-14.541Q9.89258-14.4043 10.3809-14.5215Q11.4746-14.7754 12.5977-14.7314Q13.7207-14.6875 14.7949-13.9844L14.209-12.5293Q13.9551-11.9043 14.0674-11.4404Q14.1797-10.9766 14.5801-10.5664L16.875-8.25195Q17.2363-7.88086 17.5781-7.82227Q17.9199-7.76367 18.3398-7.8418L19.4043-8.03711L20.0684-7.36328L20.0293-6.80664Q20-6.43555 20.1221-6.12305Q20.2441-5.81055 20.6055-5.44922L21.3672-4.70703Q21.7285-4.3457 22.1533-4.33105Q22.5781-4.31641 22.9297-4.66797L25.8398-7.58789Q26.1914-7.93945 26.1816-8.35449Q26.1719-8.76953 25.8105-9.13086L25.0391-9.89258Q24.6875-10.2539 24.3799-10.3857Q24.0723-10.5176 23.7109-10.4883L23.1348-10.4395L22.4902-11.0742L22.7344-12.1973Q22.832-12.6172 22.6953-12.9834Q22.5586-13.3496 22.1191-13.7891L19.9219-15.9766Q18.6719-17.2168 17.2607-17.8369Q15.8496-18.457 14.4189-18.4814Q12.9883-18.5059 11.665-17.959Q10.3418-17.4121 9.25781-16.3281ZM10.752-15.957Q11.6602-16.6211 12.7002-16.9043Q13.7402-17.1875 14.8047-17.085Q15.8691-16.9824 16.8701-16.5137Q17.8711-16.0449 18.7012-15.2051L21.1328-12.793Q21.3086-12.6172 21.3525-12.4512Q21.3965-12.2852 21.3379-12.0312L21.0156-10.5469L22.5195-9.0625L23.5059-9.12109Q23.6914-9.13086 23.7891-9.09668Q23.8867-9.0625 24.0332-8.91602L24.6094-8.33984L22.168-5.89844L21.5918-6.47461Q21.4453-6.62109 21.4062-6.71875Q21.3672-6.81641 21.377-7.01172L21.4453-7.98828L19.9512-9.47266L18.4277-9.21875Q18.1836-9.16992 18.042-9.2041Q17.9004-9.23828 17.7148-9.41406L15.7129-11.416Q15.5176-11.5918 15.4932-11.7529Q15.4688-11.9141 15.5859-12.1875L16.4648-14.2773Q15.293-15.3711 13.8281-15.791Q12.3633-16.2109 10.8398-15.7617Q10.7227-15.7324 10.6885-15.8057Q10.6543-15.8789 10.752-15.957Z"/>
  </g>
  <text style="stroke:none;fill:black;font-family:sans-serif;font-size:13;font-weight:bold;" transform="matrix(1 0 0 1 1289 1953)">Exporting</text>
  <text style="stroke:none;fill:black;font-family:sans-serif;font-size:13;" transform="matrix(1 0 0 1 1289 1971)">Symbols should be outlined when exporting to ensure the</text>
  <text style="stroke:none;fill:black;font-family:sans-serif;font-size:13;" transform="matrix(1 0 0 1 1289 1989)">design is preserved when submitting to Xcode.</text>
  <text id="template-version" style="stroke:none;fill:black;font-family:sans-serif;font-size:13;text-anchor:end;" transform="matrix(1 0 0 1 3036 1933)">Template v.3.0</text>
  <text style="stroke:none;fill:black;font-family:sans-serif;font-size:13;text-anchor:end;" transform="matrix(1 0 0 1 3036 1951)">Requires Xcode 13 or greater</text>
  <text id="descriptive-name" style="stroke:none;fill:black;font-family:sans-serif;font-size:13;text-anchor:end;" transform="matrix(1 0 0 1 3036 1969)">Generated from car.circle.fill</text>
  <text style="stroke:none;fill:black;font-family:sans-serif;font-size:13;text-anchor:end;" transform="matrix(1 0 0 1 3036 1987)">Typeset at 100 points</text>
  <text style="stroke:none;fill:black;font-family:sans-serif;font-size:13;" transform="matrix(1 0 0 1 263 726)">Small</text>
  <text style="stroke:none;fill:black;font-family:sans-serif;font-size:13;" transform="matrix(1 0 0 1 263 1156)">Medium</text>
  <text style="stroke:none;fill:black;font-family:sans-serif;font-size:13;" transform="matrix(1 0 0 1 263 1586)">Large</text>
 </g>
 <g id="Guides">
  <g id="H-reference" style="fill:#27AAE1;stroke:none;" transform="matrix(1 0 0 1 339 696)">
   <path d="M0.976562 0L3.66211 0L29.3457-67.1387L30.0293-67.1387L30.0293-70.459L28.125-70.459ZM11.6699-24.4629L46.9727-24.4629L46.2402-26.709L12.4512-26.709ZM55.127 0L57.7637 0L30.6152-70.459L29.4434-70.459L29.4434-67.1387Z"/>
  </g>
  <line id="Baseline-S" style="fill:none;stroke:#27AAE1;opacity:1;stroke-width:0.5;" x1="263" x2="3036" y1="696" y2="696"/>
  <line id="Capline-S" style="fill:none;stroke:#27AAE1;opacity:1;stroke-width:0.5;" x1="263" x2="3036" y1="625.541" y2="625.541"/>
  <g id="H-reference" style="fill:#27AAE1;stroke:none;" transform="matrix(1 0 0 1 339 1126)">
   <path d="M0.976562 0L3.66211 0L29.3457-67.1387L30.0293-67.1387L30.0293-70.459L28.125-70.459ZM11.6699-24.4629L46.9727-24.4629L46.2402-26.709L12.4512-26.709ZM55.127 0L57.7637 0L30.6152-70.459L29.4434-70.459L29.4434-67.1387Z"/>
  </g>
  <line id="Baseline-M" style="fill:none;stroke:#27AAE1;opacity:1;stroke-width:0.5;" x1="263" x2="3036" y1="1126" y2="1126"/>
  <line id="Capline-M" style="fill:none;stroke:#27AAE1;opacity:1;stroke-width:0.5;" x1="263" x2="3036" y1="1055.54" y2="1055.54"/>
  <g id="H-reference" style="fill:#27AAE1;stroke:none;" transform="matrix(1 0 0 1 339 1556)">
   <path d="M0.976562 0L3.66211 0L29.3457-67.1387L30.0293-67.1387L30.0293-70.459L28.125-70.459ZM11.6699-24.4629L46.9727-24.4629L46.2402-26.709L12.4512-26.709ZM55.127 0L57.7637 0L30.6152-70.459L29.4434-70.459L29.4434-67.1387Z"/>
  </g>
  <line id="Baseline-L" style="fill:none;stroke:#27AAE1;opacity:1;stroke-width:0.5;" x1="263" x2="3036" y1="1556" y2="1556"/>
  <line id="Capline-L" style="fill:none;stroke:#27AAE1;opacity:1;stroke-width:0.5;" x1="263" x2="3036" y1="1485.54" y2="1485.54"/>
  <line id="left-margin-Regular-M" style="fill:none;stroke:#00AEEF;stroke-width:0.5;opacity:1.0;" x1="1391.32" x2="1391.32" y1="1030.79" y2="1150.12"/>
  <line id="right-margin-Regular-M" style="fill:none;stroke:#00AEEF;stroke-width:0.5;opacity:1.0;" x1="1508.37" x2="1508.37" y1="1030.79" y2="1150.12"/>
 </g>
 <g id="Symbols">
  <g id="Black-L" transform="matrix(1 0 0 1 2854.19 1556)">
   <path d="M79.1953 32.8057Q93.2356 32.8057 105.521 27.5107Q117.806 22.2158 127.174 12.8375Q136.542 3.45916 141.848-8.82607Q147.154-21.1113 147.154-35.1309Q147.154-49.1504 141.848-61.4357Q136.542-73.7209 127.164-83.0992Q117.785-92.4775 105.5-97.7725Q93.2149-103.067 79.1746-103.067Q65.1563-103.067 52.8704-97.7725Q40.5846-92.4775 31.2276-83.0992Q21.8707-73.7209 16.5647-61.4357Q11.2588-49.1504 11.2588-35.1309Q11.2588-21.1113 16.5647-8.82607Q21.8707 3.45916 31.238 12.8375Q40.6053 22.2158 52.8912 27.5107Q65.177 32.8057 79.1953 32.8057ZM45.8095-14.8036L45.8095-31.5813Q45.8095-35.4077 46.5396-37.8806Q47.2698-40.3535 49.1427-42.8451L51.7577-45.8944Q52.5255-49.474 53.6169-52.7508Q54.7083-56.0276 55.375-57.4633Q56.5813-60.0381 58.8622-61.6206Q61.1432-63.2031 64.1537-63.6052Q65.9166-63.8245 69.7433-63.9451Q73.5699-64.0657 79.2173-64.0657Q84.9245-64.0657 88.77-63.9451Q92.6154-63.8245 94.3199-63.6052Q97.3292-63.2031 99.5809-61.6206Q101.833-60.0381 103.099-57.4633Q103.786-56.0276 104.877-52.7508Q105.969-49.474 106.737-45.8944L109.331-42.8451Q111.283-40.3535 111.944-37.8806Q112.606-35.4077 112.606-31.5813L112.606-14.8036Q112.606-13.2329 111.528-12.1551Q110.45-11.0773 108.82-11.0773L105.495-11.0773Q103.923-11.0773 102.845-12.1551Q101.766-13.2329 101.766-14.8036L101.766-19.7897Q97.3255-19.4693 91.1178-19.278Q84.9102-19.0866 79.2173-19.0866Q73.5258-19.0866 67.337-19.278Q61.1482-19.4693 56.7046-19.7897L56.7046-14.8036Q56.7046-13.2329 55.656-12.1551Q54.6074-11.0773 52.9783-11.0773L49.5943-11.0773Q48.0236-11.0773 46.9165-12.1551Q45.8095-13.2329 45.8095-14.8036ZM61.7001-49.2685Q61.1448-47.1201 63.5112-47.1628Q65.5973-47.2301 69.1358-47.3618Q72.6742-47.4934 79.2173-47.4934Q85.7994-47.4934 89.3671-47.3618Q92.9347-47.2301 94.9832-47.1628Q97.3119-47.1201 96.7358-49.2685Q96.4818-50.5039 95.9866-52.039Q95.4913-53.574 95.1374-54.2145Q94.4915-55.4183 93.6859-55.9449Q92.8803-56.4716 91.4106-56.613Q90.4031-56.8166 87.3891-56.8678Q84.3751-56.919 79.2173-56.919Q74.0985-56.919 71.0845-56.8574Q68.0705-56.7958 67.0618-56.613Q65.6517-56.4716 64.8157-55.9449Q63.9796-55.4183 63.335-54.2145Q62.9823-53.5533 62.4871-52.0286Q61.9918-50.5039 61.7001-49.2685ZM54.309-31.8941Q54.309-29.8096 55.7521-28.3964Q57.1951-26.9832 59.3003-26.9832Q61.3277-26.9832 62.7403-28.3964Q64.1528-29.8096 64.1528-31.8941Q64.1528-33.9993 62.7403-35.4132Q61.3277-36.827 59.3003-36.827Q57.1951-36.827 55.7521-35.4132Q54.309-33.9993 54.309-31.8941ZM68.1585-31.8813Q68.1585-28.3336 71.7062-28.3336L86.7078-28.3336Q90.3151-28.3336 90.3151-31.8813Q90.3151-33.4845 89.3131-34.4859Q88.3111-35.4873 86.7078-35.4873L71.7062-35.4873Q68.1585-35.4873 68.1585-31.8813ZM94.3208-31.8941Q94.3208-29.8096 95.734-28.3964Q97.1472-26.9832 99.1733-26.9832Q101.279-26.9832 102.692-28.3964Q104.106-29.8096 104.106-31.8941Q104.106-33.9993 102.692-35.4132Q101.279-36.827 99.1733-36.827Q97.1472-36.827 95.734-35.4132Q94.3208-33.9993 94.3208-31.8941Z"/>
  </g>
  <g id="Heavy-L" transform="matrix(1 0 0 1 2558.42 1556)">
   <path d="M78.2511 31.8476Q92.088 31.8476 104.202 26.6268Q116.316 21.406 125.559 12.1482Q134.802 2.89032 140.04-9.2236Q145.279-21.3375 145.279-35.1447Q145.279-48.9518 140.04-61.0657Q134.802-73.1796 125.544-82.4375Q116.286-91.6953 104.172-96.9161Q92.0582-102.137 78.2213-102.137Q64.4202-102.137 52.3033-96.9161Q40.1863-91.6953 30.9613-82.4375Q21.7362-73.1796 16.4975-61.0657Q11.2588-48.9518 11.2588-35.1447Q11.2588-21.3375 16.4975-9.2236Q21.7362 2.89032 30.9761 12.1482Q40.2161 21.406 52.333 26.6268Q64.45 31.8476 78.2511 31.8476ZM44.3505-14.4829L44.3505-31.3651Q44.3505-35.202 45.1177-37.6815Q45.8849-40.1611 47.803-42.6746L50.4094-45.7938Q51.2048-49.5117 52.3309-52.9154Q53.457-56.319 54.1422-57.8056Q55.3485-60.3851 57.6225-61.9396Q59.8966-63.4941 62.9015-63.8962Q64.614-64.1017 68.6136-64.2223Q72.6132-64.3429 78.2869-64.3429Q84.0112-64.3429 88.0182-64.2223Q92.0253-64.1017 93.6931-63.8962Q96.692-63.4941 98.9437-61.9396Q101.196-60.3851 102.452-57.8056Q103.167-56.319 104.294-52.9154Q105.42-49.5117 106.215-45.7938L108.792-42.6746Q110.784-40.1611 111.492-37.6815Q112.2-35.202 112.2-31.3651L112.2-14.4829Q112.2-12.8894 111.103-11.7932Q110.007-10.6971 108.363-10.6971L104.979-10.6971Q103.38-10.6971 102.281-11.7932Q101.181-12.8894 101.181-14.4829L101.181-19.4689Q96.6208-19.1533 90.3162-18.9641Q84.0116-18.7749 78.2869-18.7749Q72.5682-18.7749 66.271-18.9641Q59.9739-19.1533 55.4011-19.4689L55.4011-14.4829Q55.4011-12.8894 54.3273-11.7932Q53.2534-10.6971 51.6153-10.6971L48.1809-10.6971Q46.5874-10.6971 45.4689-11.7932Q44.3505-12.8894 44.3505-14.4829ZM59.7569-49.0334Q59.2568-47.0504 61.4392-47.1159Q63.8718-47.2293 67.6664-47.3679Q71.461-47.5064 78.2869-47.5064Q85.1336-47.5064 88.9505-47.3679Q92.7675-47.2293 95.1852-47.1159Q97.3528-47.0504 96.8228-49.0334Q96.4947-50.5515 95.912-52.3487Q95.3292-54.1459 94.8969-54.8971Q94.2415-56.0648 93.4578-56.5923Q92.6741-57.1199 91.2439-57.257Q90.0934-57.4834 86.9038-57.5415Q83.7142-57.5996 78.2869-57.5996Q72.8804-57.5996 69.6908-57.5266Q66.5012-57.4536 65.3447-57.257Q63.9651-57.1199 63.1531-56.5923Q62.3411-56.0648 61.6917-54.8971Q61.2654-54.1161 60.6827-52.3338Q60.1-50.5515 59.7569-49.0334ZM52.9736-31.5915Q52.9736-29.5307 54.4-28.1296Q55.8265-26.7285 57.917-26.7285Q59.9391-26.7285 61.3372-28.1296Q62.7353-29.5307 62.7353-31.5915Q62.7353-33.682 61.3372-35.0861Q59.9391-36.4902 57.917-36.4902Q55.8265-36.4902 54.4-35.0861Q52.9736-33.682 52.9736-31.5915ZM67.1567-31.5311Q67.1567-28.0172 70.6706-28.0172L85.8734-28.0172Q89.4379-28.0172 89.4379-31.5311Q89.4379-33.1154 88.4478-34.1025Q87.4576-35.0896 85.8734-35.0896L70.6706-35.0896Q67.1567-35.0896 67.1567-31.5311ZM93.8593-31.5915Q93.8593-29.5307 95.2605-28.1296Q96.6616-26.7285 98.6777-26.7285Q100.768-26.7285 102.172-28.1296Q103.576-29.5307 103.576-31.5915Q103.576-33.682 102.172-35.0861Q100.768-36.4902 98.6777-36.4902Q96.6616-36.4902 95.2605-35.0861Q93.8593-33.682 93.8593-31.5915Z"/>
  </g>
  <g id="Bold-L" transform="matrix(1 0 0 1 2262.89 1556)">
   <path d="M77.0653 30.6464Q90.6516 30.6464 102.549 25.52Q114.447 20.3937 123.533 11.2893Q132.619 2.1849 137.771-9.71291Q142.923-21.6107 142.923-35.1601Q142.923-48.7094 137.771-60.6072Q132.619-72.5051 123.515-81.6094Q114.41-90.7138 102.512-95.8402Q90.6146-100.967 77.0283-100.967Q63.4932-100.967 51.5882-95.8402Q39.6833-90.7138 30.623-81.6094Q21.5627-72.5051 16.4108-60.6072Q11.2588-48.7094 11.2588-35.1601Q11.2588-21.6107 16.4108-9.71291Q21.5627 2.1849 30.6415 11.2893Q39.7203 20.3937 51.6252 25.52Q63.5301 30.6464 77.0653 30.6464ZM42.586-14.055L42.586-31.0341Q42.586-34.9057 43.4004-37.3884Q44.2149-39.871 46.1691-42.3889L48.7774-45.6035Q49.6036-49.4847 50.7728-53.0404Q51.9421-56.5961 52.6509-58.1453Q53.8572-60.733 56.1235-62.2475Q58.3899-63.762 61.3683-64.1641Q63.0273-64.3542 67.2334-64.4748Q71.4395-64.5954 77.1165-64.5954Q82.8369-64.5954 87.0391-64.4748Q91.2413-64.3542 92.8711-64.1641Q95.8353-63.762 98.0871-62.2475Q100.339-60.733 101.589-58.1453Q102.334-56.5961 103.504-53.0404Q104.673-49.4847 105.499-45.6035L108.07-42.3889Q110.091-39.871 110.857-37.3884Q111.624-34.9057 111.624-31.0341L111.624-14.055Q111.624-12.4389 110.509-11.3237Q109.394-10.2085 107.734-10.2085L104.29-10.2085Q102.659-10.2085 101.537-11.3237Q100.415-12.4389 100.415-14.055L100.415-19.0411Q95.7144-18.7336 89.2928-18.544Q82.8711-18.3543 77.1165-18.3543Q71.3761-18.3543 64.9505-18.544Q58.525-18.7336 53.7961-19.0411L53.7961-14.055Q53.7961-12.4389 52.6955-11.3237Q51.5949-10.2085 49.9495-10.2085L46.4617-10.2085Q44.8455-10.2085 43.7157-11.3237Q42.586-12.4389 42.586-14.055ZM57.3328-48.6696Q56.8943-46.8716 58.8681-46.9598Q61.7228-47.1277 65.8255-47.2739Q69.9283-47.4202 77.1165-47.4202Q84.3111-47.4202 88.4285-47.2739Q92.5458-47.1277 95.4083-46.9598Q97.3899-46.8716 96.9144-48.6696Q96.4918-50.5501 95.8084-52.6448Q95.1249-54.7395 94.5992-55.6233Q93.9273-56.762 93.148-57.3079Q92.3687-57.8537 90.9481-57.9918Q89.626-58.2409 86.2213-58.3067Q82.8166-58.3725 77.1165-58.3725Q71.4228-58.3725 68.0181-58.2882Q64.6134-58.2039 63.2771-57.9918Q61.8999-57.8537 61.0918-57.3079Q60.2836-56.762 59.626-55.6233Q59.1145-54.7026 58.431-52.6263Q57.7476-50.5501 57.3328-48.6696ZM51.3387-31.1781Q51.3387-29.1583 52.7365-27.7822Q54.1342-26.4062 56.191-26.4062Q58.1958-26.4062 59.5648-27.7822Q60.9337-29.1583 60.9337-31.1781Q60.9337-33.2348 59.5648-34.618Q58.1958-36.0012 56.191-36.0012Q54.1342-36.0012 52.7365-34.618Q51.3387-33.2348 51.3387-31.1781ZM65.9468-31.0358Q65.9468-27.5884 69.3942-27.5884L84.8018-27.5884Q88.2926-27.5884 88.2926-31.0358Q88.2926-32.5873 87.3229-33.5499Q86.3532-34.5124 84.8018-34.5124L69.3942-34.5124Q65.9468-34.5124 65.9468-31.0358ZM93.3057-31.1781Q93.3057-29.1583 94.6818-27.7822Q96.0578-26.4062 98.0484-26.4062Q100.105-26.4062 101.488-27.7822Q102.872-29.1583 102.872-31.1781Q102.872-33.2348 101.488-34.618Q100.105-36.0012 98.0484-36.0012Q96.0578-36.0012 94.6818-34.618Q93.3057-33.2348 93.3057-31.1781Z"/>
  </g>
  <g id="Semibold-L" transform="matrix(1 0 0 1 1966.99 1556)">
   <path d="M76.2478 29.8183Q89.6614 29.8183 101.41 24.757Q113.159 19.6958 122.137 10.6972Q131.114 1.6986 136.206-10.0502Q141.299-21.7991 141.299-35.1707Q141.299-48.5423 136.206-60.2912Q131.114-72.04 122.116-81.0386Q113.117-90.0372 101.368-95.0984Q89.6194-100.16 76.2058-100.16Q62.854-100.16 51.0953-95.0984Q39.3365-90.0372 30.3898-81.0386Q21.4432-72.04 16.351-60.2912Q11.2588-48.5423 11.2588-35.1707Q11.2588-21.7991 16.351-10.0502Q21.4432 1.6986 30.4108 10.6972Q39.3785 19.6958 51.1372 24.757Q62.896 29.8183 76.2478 29.8183ZM41.3695-13.7601L41.3695-30.8059Q41.3695-34.7014 42.2165-37.1862Q43.0635-39.6711 45.0426-42.192L47.6523-45.4723Q48.4998-49.4661 49.6987-53.1266Q50.8977-56.7871 51.6228-58.3796Q52.8291-60.9729 55.0901-62.4598Q57.3512-63.9467 60.3113-64.3488Q61.9334-64.5282 66.2818-64.6489Q70.6303-64.7695 76.3096-64.7695Q82.0274-64.7695 86.3642-64.6489Q90.7009-64.5282 92.3045-64.3488Q95.2447-63.9467 97.4965-62.4598Q99.7482-60.9729 100.993-58.3796Q101.76-56.7871 102.959-53.1266Q104.158-49.4661 105.005-45.4723L107.573-42.192Q109.613-39.6711 110.42-37.1862Q111.228-34.7014 111.228-30.8059L111.228-13.7601Q111.228-12.1283 110.099-11Q108.971-9.87169 107.301-9.87169L103.815-9.87169Q102.163-9.87169 101.025-11Q99.8864-12.1283 99.8864-13.7601L99.8864-18.7461Q95.0896-18.4443 88.5872-18.2543Q82.0848-18.0643 76.3096-18.0643Q70.5543-18.0643 64.0402-18.2543Q57.5261-18.4443 52.6896-18.7461L52.6896-13.7601Q52.6896-12.1283 51.5706-11Q50.4516-9.87169 48.8012-9.87169L45.2765-9.87169Q43.6447-9.87169 42.5071-11Q41.3695-12.1283 41.3695-13.7601ZM55.6616-48.4188Q55.2656-46.7484 57.0956-46.8522Q60.2413-47.0576 64.5565-47.2092Q68.8716-47.3607 76.3096-47.3607Q83.7441-47.3607 88.0686-47.2092Q92.393-47.0576 95.5621-46.8522Q97.4155-46.7484 96.9775-48.4188Q96.4898-50.5491 95.7369-52.849Q94.9841-55.1488 94.3939-56.1239Q93.7108-57.2427 92.9344-57.8012Q92.1581-58.3597 90.7441-58.4984Q89.3038-58.7631 85.7508-58.8342Q82.1977-58.9053 76.3096-58.9053Q70.418-58.9053 66.8649-58.8132Q63.3119-58.7211 61.8517-58.4984Q60.4762-58.3597 59.6707-57.8012Q58.8652-57.2427 58.202-56.1239Q57.6316-55.1068 56.8788-52.828Q56.1259-50.5491 55.6616-48.4188ZM50.2116-30.8931Q50.2116-28.9015 51.5896-27.5427Q52.9676-26.1839 55.0012-26.1839Q56.994-26.1839 58.3429-27.5427Q59.6917-28.9015 59.6917-30.8931Q59.6917-32.9266 58.3429-34.2953Q56.994-35.664 55.0012-35.664Q52.9676-35.664 51.5896-34.2953Q50.2116-32.9266 50.2116-30.8931ZM65.1127-30.6943Q65.1127-27.2927 68.5143-27.2927L84.063-27.2927Q87.503-27.2927 87.503-30.6943Q87.503-32.2232 86.5475-33.1689Q85.5919-34.1145 84.063-34.1145L68.5143-34.1145Q65.1127-34.1145 65.1127-30.6943ZM92.924-30.8931Q92.924-28.9015 94.2828-27.5427Q95.6416-26.1839 97.6146-26.1839Q99.6481-26.1839 101.017-27.5427Q102.386-28.9015 102.386-30.8931Q102.386-32.9266 101.017-34.2953Q99.6481-35.664 97.6146-35.664Q95.6416-35.664 94.2828-34.2953Q92.924-32.9266 92.924-30.8931Z"/>
  </g>
  <g id="Medium-L" transform="matrix(1 0 0 1 1670.89 1556)">
   <path d="M75.6279 29.1904Q88.9106 29.1904 100.546 24.1785Q112.182 19.1666 121.078 10.2482Q129.973 1.32986 135.02-10.306Q140.067-21.9419 140.067-35.1788Q140.067-48.4156 135.02-60.0515Q129.973-71.6874 121.055-80.6058Q112.137-89.5241 100.501-94.536Q88.8648-99.5479 75.5822-99.5479Q62.3695-99.5479 50.7215-94.536Q39.0736-89.5241 30.213-80.6058Q21.3525-71.6874 16.3056-60.0515Q11.2588-48.4156 11.2588-35.1788Q11.2588-21.9419 16.3056-10.306Q21.3525 1.32986 30.2359 10.2482Q39.1193 19.1666 50.7673 24.1785Q62.4152 29.1904 75.6279 29.1904ZM40.4472-13.5364L40.4472-30.6329Q40.4472-34.5465 41.3189-37.033Q42.1905-39.5195 44.1885-42.0426L46.7992-45.3728Q47.6628-49.452 48.8843-53.192Q50.1058-56.932 50.8432-58.5571Q52.0495-61.1547 54.3065-62.6208Q56.5636-64.0868 59.5098-64.4889Q61.104-64.6602 65.5604-64.7809Q70.0167-64.9015 75.6978-64.9015Q81.4136-64.9015 85.8524-64.7809Q90.2911-64.6602 91.8748-64.4889Q94.7969-64.0868 97.0486-62.6208Q99.3004-61.1547 100.541-58.5571Q101.325-56.932 102.546-53.192Q103.768-49.452 104.631-45.3728L107.196-42.0426Q109.25-39.5195 110.089-37.033Q110.927-34.5465 110.927-30.6329L110.927-13.5364Q110.927-11.8928 109.789-10.7545Q108.65-9.6163 106.972-9.6163L103.454-9.6163Q101.786-9.6163 100.636-10.7545Q99.4857-11.8928 99.4857-13.5364L99.4857-18.5225Q94.6159-18.2249 88.0523-18.0347Q81.4886-17.8444 75.6978-17.8444Q69.9312-17.8444 63.35-18.0347Q56.7687-18.2249 51.8506-18.5225L51.8506-13.5364Q51.8506-11.8928 50.7176-10.7545Q49.5846-9.6163 47.9305-9.6163L44.3778-9.6163Q42.7342-9.6163 41.5907-10.7545Q40.4472-11.8928 40.4472-13.5364ZM54.3945-48.2287Q54.0307-46.655 55.7516-46.7706Q59.1179-47.0045 63.5942-47.1601Q68.0704-47.3157 75.6978-47.3157Q83.3142-47.3157 87.7957-47.1601Q92.2772-47.0045 95.6787-46.7706Q97.4349-46.655 97.0254-48.2287Q96.4883-50.5484 95.6828-53.0038Q94.8773-55.4591 94.2382-56.5035Q93.5465-57.6072 92.7725-58.1752Q91.9984-58.7433 90.5895-58.8825Q89.0595-59.159 85.394-59.2342Q81.7285-59.3093 75.6978-59.3093Q69.6561-59.3093 65.9906-59.2113Q62.3251-59.1133 60.7709-58.8825Q59.3967-58.7433 58.5932-58.1752Q57.7897-57.6072 57.1222-56.5035Q56.5073-55.4134 55.7018-52.9809Q54.8963-50.5484 54.3945-48.2287ZM49.357-30.677Q49.357-28.7068 50.72-27.3611Q52.0831-26.0154 54.099-26.0154Q56.0827-26.0154 57.4164-27.3611Q58.75-28.7068 58.75-30.677Q58.75-32.6929 57.4164-34.0506Q56.0827-35.4084 54.099-35.4084Q52.0831-35.4084 50.72-34.0506Q49.357-32.6929 49.357-30.677ZM64.4802-30.4354Q64.4802-27.0686 67.8471-27.0686L83.5028-27.0686Q86.9044-27.0686 86.9044-30.4354Q86.9044-31.9472 85.9595-32.88Q85.0146-33.8128 83.5028-33.8128L67.8471-33.8128Q64.4802-33.8128 64.4802-30.4354ZM92.6346-30.677Q92.6346-28.7068 93.9803-27.3611Q95.326-26.0154 97.2856-26.0154Q99.3015-26.0154 100.659-27.3611Q102.017-28.7068 102.017-30.677Q102.017-32.6929 100.659-34.0506Q99.3015-35.4084 97.2856-35.4084Q95.326-35.4084 93.9803-34.0506Q92.6346-32.6929 92.6346-30.677Z"/>
  </g>
  <g id="Regular-L" transform="matrix(1 0 0 1 1374.98 1556)">
   <path d="M74.8194 28.3714Q87.9312 28.3714 99.4198 23.4239Q110.908 18.4764 119.697 9.66263Q128.485 0.848896 133.473-10.6396Q138.46-22.1282 138.46-35.1893Q138.46-48.2504 133.473-59.7389Q128.485-71.2275 119.671-80.0412Q110.858-88.8549 99.3691-93.8024Q87.8805-98.7499 74.7687-98.7499Q61.7374-98.7499 50.234-93.8024Q38.7306-88.8549 29.9824-80.0412Q21.2342-71.2275 16.2465-59.7389Q11.2588-48.2504 11.2588-35.1893Q11.2588-22.1282 16.2465-10.6396Q21.2342 0.848896 30.0077 9.66263Q38.7813 18.4764 50.2847 23.4239Q61.7881 28.3714 74.8194 28.3714ZM39.2441-13.2447L39.2441-30.4072Q39.2441-34.3445 40.148-36.8331Q41.0519-39.3217 43.0745-41.8478L45.6865-45.243Q46.5711-49.4337 47.822-53.2773Q49.0729-57.1209 49.8264-58.7888Q51.0327-61.3919 53.2845-62.8307Q55.5362-64.2695 58.4644-64.6716Q60.0222-64.8324 64.6193-64.953Q69.2164-65.0737 74.8998-65.0737Q80.613-65.0737 85.1848-64.953Q89.7566-64.8324 91.3143-64.6716Q94.2128-64.2695 96.4645-62.8307Q98.7163-61.3919 99.9523-58.7888Q100.757-57.1209 102.007-53.2773Q103.258-49.4337 104.143-45.243L106.704-41.8478Q108.778-39.3217 109.656-36.8331Q110.535-34.3445 110.535-30.4072L110.535-13.2447Q110.535-11.5856 109.383-10.4344Q108.232-9.28318 106.543-9.28318L102.984-9.28318Q101.295-9.28318 100.129-10.4344Q98.963-11.5856 98.963-13.2447L98.963-18.2307Q93.9979-17.9388 87.3545-17.7482Q80.711-17.5576 74.8998-17.5576Q69.1184-17.5576 62.4496-17.7482Q55.7809-17.9388 50.7563-18.2307L50.7563-13.2447Q50.7563-11.5856 49.6051-10.4344Q48.4538-9.28318 46.7948-9.28318L43.2056-9.28318Q41.5465-9.28318 40.3953-10.4344Q39.2441-11.5856 39.2441-13.2447ZM52.7416-47.9807Q52.42-46.5331 53.9986-46.6642Q57.6527-46.9352 62.3391-47.096Q67.0254-47.2569 74.8998-47.2569Q82.7534-47.2569 87.4397-47.096Q92.126-46.9352 95.8308-46.6642Q97.4601-46.5331 97.0878-47.9807Q96.4863-50.5474 95.6122-53.2056Q94.738-55.8639 94.0352-56.9986Q93.3323-58.0826 92.5612-58.6631Q91.7901-59.2436 90.3878-59.3835Q88.7409-59.6755 84.9287-59.7559Q81.1165-59.8363 74.8998-59.8363Q68.6623-59.8363 64.8501-59.7306Q61.0379-59.6248 59.3612-59.3835Q57.9886-59.2436 57.1878-58.6631Q56.3869-58.0826 55.7138-56.9986Q55.0407-55.8132 54.1666-53.1803Q53.2924-50.5474 52.7416-47.9807ZM48.2423-30.3951Q48.2423-28.4529 49.5858-27.1243Q50.9293-25.7956 52.9222-25.7956Q54.8941-25.7956 56.2079-27.1243Q57.5216-28.4529 57.5216-30.3951Q57.5216-32.388 56.2079-33.7315Q54.8941-35.0749 52.9222-35.0749Q50.9293-35.0749 49.5858-33.7315Q48.2423-32.388 48.2423-30.3951ZM63.6553-30.0977Q63.6553-26.7762 66.9768-26.7762L82.7722-26.7762Q86.1235-26.7762 86.1235-30.0977Q86.1235-31.5871 85.1926-32.5032Q84.2617-33.4192 82.7722-33.4192L66.9768-33.4192Q63.6553-33.4192 63.6553-30.0977ZM92.2571-30.3951Q92.2571-28.4529 93.5858-27.1243Q94.9144-25.7956 96.8566-25.7956Q98.8495-25.7956 100.193-27.1243Q101.536-28.4529 101.536-30.3951Q101.536-32.388 100.193-33.7315Q98.8495-35.0749 96.8566-35.0749Q94.9144-35.0749 93.5858-33.7315Q92.2571-32.388 92.2571-30.3951Z"/>
  </g>
  <g id="Light-L" transform="matrix(1 0 0 1 1079.2 1556)">
   <path d="M73.8959 27.4479Q86.8436 27.4479 98.1577 22.5825Q109.472 17.717 118.137 9.03671Q126.802 0.356369 131.708-10.9577Q136.614-22.2718 136.614-35.1893Q136.614-48.1067 131.708-59.4208Q126.802-70.7349 118.122-79.4153Q109.442-88.0956 98.1275-92.961Q86.8134-97.8264 73.8658-97.8264Q60.9986-97.8264 49.6594-92.961Q38.3201-88.0956 29.6951-79.4153Q21.07-70.7349 16.1644-59.4208Q11.2588-48.1067 11.2588-35.1893Q11.2588-22.2718 16.1644-10.9577Q21.07 0.356369 29.7102 9.03671Q38.3503 17.717 49.6895 22.5825Q61.0287 27.4479 73.8959 27.4479ZM38.3001-12.7522L38.3001-29.771Q38.3001-33.8724 39.245-36.3303Q40.1899-38.7881 42.11-41.1706L44.804-44.6889Q45.6886-48.9411 46.9703-52.8566Q48.252-56.772 49.0261-58.4809Q50.2324-61.1046 52.4841-62.4818Q54.7359-63.859 57.5204-64.2611Q59.0987-64.422 63.7882-64.5426Q68.4776-64.6632 73.9764-64.6632Q79.5254-64.6632 84.1997-64.5426Q88.8741-64.422 90.4524-64.2611Q93.1867-63.859 95.4384-62.4818Q97.6902-61.1046 98.9468-58.4809Q99.751-56.772 101.033-52.8566Q102.314-48.9411 103.199-44.6889L105.863-41.1706Q107.813-38.7881 108.743-36.3303Q109.673-33.8724 109.673-29.771L109.673-12.7522Q109.673-11.1136 108.532-9.97265Q107.391-8.83169 105.702-8.83169L102.184-8.83169Q100.495-8.83169 99.3287-9.97265Q98.1626-11.1136 98.1626-12.7522L98.1626-17.7382Q93.1565-17.4668 86.4515-17.2557Q79.7465-17.0446 73.9764-17.0446Q68.2565-17.0446 61.5364-17.2557Q54.8163-17.4668 49.7097-17.7382L49.7097-12.7522Q49.7097-11.1136 48.5687-9.97265Q47.4277-8.83169 45.7892-8.83169L42.2206-8.83169Q40.582-8.83169 39.441-9.97265Q38.3001-11.1136 38.3001-12.7522ZM50.9562-47.2624Q50.6346-45.8148 52.1927-45.9254Q56.093-46.2169 60.9333-46.3778Q65.7736-46.5386 73.9764-46.5386Q82.1993-46.5386 87.0395-46.3778Q91.8798-46.2169 95.8103-45.9254Q97.3986-45.8148 97.0467-47.2624Q96.3632-50.1575 95.4685-52.8465Q94.5738-55.5356 93.83-56.7318Q93.0861-57.8979 92.1713-58.6015Q91.2566-59.3052 89.608-59.4861Q87.8789-59.7576 83.9334-59.838Q79.9878-59.9184 73.9764-59.9184Q67.9851-59.9184 64.0395-59.8229Q60.0939-59.7274 58.3146-59.4861Q56.7163-59.3052 55.7512-58.6015Q54.7862-57.8979 54.0926-56.7318Q53.399-55.5054 52.5043-52.8314Q51.6096-50.1575 50.9562-47.2624ZM47.2367-29.8615Q47.2367-28.0219 48.5084-26.7754Q49.78-25.5289 51.6498-25.5289Q53.5397-25.5289 54.7611-26.7754Q55.9825-28.0219 55.9825-29.8615Q55.9825-31.7313 54.7611-33.0029Q53.5397-34.2746 51.6498-34.2746Q49.78-34.2746 48.5084-33.0029Q47.2367-31.7313 47.2367-29.8615ZM63.0191-29.3589Q63.0191-26.2426 66.1354-26.2426L81.7872-26.2426Q84.9537-26.2426 84.9537-29.3589Q84.9537-30.7663 84.0741-31.6207Q83.1945-32.4752 81.7872-32.4752L66.1354-32.4752Q63.0191-32.4752 63.0191-29.3589ZM91.9904-29.8615Q91.9904-28.0219 93.2369-26.7754Q94.4834-25.5289 96.323-25.5289Q98.1928-25.5289 99.4644-26.7754Q100.736-28.0219 100.736-29.8615Q100.736-31.7313 99.4644-33.0029Q98.1928-34.2746 96.323-34.2746Q94.4834-34.2746 93.2369-33.0029Q91.9904-31.7313 91.9904-29.8615Z"/>
  </g>
  <g id="Thin-L" transform="matrix(1 0 0 1 783.707 1556)">
   <path d="M72.6746 26.2265Q85.405 26.2265 96.4884 21.4696Q107.572 16.7128 116.074 8.20888Q124.577-0.295038 129.374-11.3784Q134.171-22.4618 134.171-35.1893Q134.171-47.9168 129.374-59.0001Q124.577-70.0835 116.073-78.5874Q107.569-87.0914 96.4854-91.8482Q85.402-96.605 72.6715-96.605Q60.0215-96.605 48.8994-91.8482Q37.7773-87.0914 29.3151-78.5874Q20.8529-70.0835 16.0558-59.0001Q11.2588-47.9168 11.2588-35.1893Q11.2588-22.4618 16.0558-11.3784Q20.8529-0.295038 29.3166 8.20888Q37.7803 16.7128 48.9024 21.4696Q60.0245 26.2265 72.6746 26.2265ZM37.0515-12.1008L37.0515-28.9296Q37.0515-33.2482 38.0508-35.6653Q39.05-38.0824 40.8343-40.2749L43.6369-43.9561Q44.5215-48.2897 45.8439-52.3002Q47.1664-56.3106 47.9675-58.0738Q49.1738-60.7246 51.4256-62.0204Q53.6773-63.3162 56.2719-63.7183Q57.8773-63.8791 62.6889-63.9998Q67.5005-64.1204 72.755-64.1204Q78.0868-64.1204 82.8969-63.9998Q87.707-63.8791 89.3124-63.7183Q91.8296-63.3162 94.0813-62.0204Q96.3331-60.7246 97.6168-58.0738Q98.421-56.3106 99.7434-52.3002Q101.066-48.2897 101.95-43.9561L104.75-40.2749Q106.537-38.0824 107.535-35.6653Q108.533-33.2482 108.533-28.9296L108.533-12.1008Q108.533-10.4893 107.405-9.36196Q106.278-8.23457 104.589-8.23457L101.125-8.23457Q99.4363-8.23457 98.2702-9.36196Q97.1041-10.4893 97.1041-12.1008L97.1041-17.0868Q92.0437-16.8425 85.2573-16.6043Q78.4708-16.366 72.755-16.366Q67.1165-16.366 60.3286-16.6043Q53.5406-16.8425 48.3254-17.0868L48.3254-12.1008Q48.3254-10.4893 47.198-9.36196Q46.0706-8.23457 44.4592-8.23457L40.9177-8.23457Q39.3063-8.23457 38.1789-9.36196Q37.0515-10.4893 37.0515-12.1008ZM48.5949-46.3124Q48.2732-44.8649 49.8042-44.9483Q54.0303-45.267 59.0741-45.4278Q64.1179-45.5886 72.755-45.5886Q81.4664-45.5886 86.5103-45.4278Q91.5541-45.267 95.7831-44.9483Q97.3172-44.8649 96.9925-46.3124Q96.2003-49.6418 95.2785-52.3715Q94.3567-55.1013 93.5585-56.3789Q92.7604-57.6536 91.6556-58.5201Q90.5509-59.3866 88.5766-59.6219Q86.739-59.8661 82.617-59.9465Q78.495-60.027 72.755-60.027Q67.0894-60.027 62.9674-59.945Q58.8453-59.8631 56.9304-59.6219Q55.0335-59.3866 53.8513-58.5201Q52.6691-57.6536 51.9484-56.3789Q51.2276-55.0983 50.3058-52.37Q49.384-49.6418 48.5949-46.3124ZM45.9068-29.1558Q45.9068-27.4519 47.0834-26.314Q48.2601-25.176 49.967-25.176Q51.7483-25.176 52.8476-26.314Q53.9468-27.4519 53.9468-29.1558Q53.9468-30.8627 52.8476-32.0394Q51.7483-33.216 49.967-33.216Q48.2601-33.216 47.0834-32.0394Q45.9068-30.8627 45.9068-29.1558ZM62.1777-28.3818Q62.1777-25.5369 65.0226-25.5369L80.4843-25.5369Q83.4066-25.5369 83.4066-28.3818Q83.4066-29.6806 82.5949-30.4536Q81.7831-31.2267 80.4843-31.2267L65.0226-31.2267Q62.1777-31.2267 62.1777-28.3818ZM91.6375-29.1558Q91.6375-27.4519 92.7755-26.314Q93.9134-25.176 95.6173-25.176Q97.3242-25.176 98.5009-26.314Q99.6775-27.4519 99.6775-29.1558Q99.6775-30.8627 98.5009-32.0394Q97.3242-33.216 95.6173-33.216Q93.9134-33.216 92.7755-32.0394Q91.6375-30.8627 91.6375-29.1558Z"/>
  </g>
  <g id="Ultralight-L" transform="matrix(1 0 0 1 487.622 1556)">
   <path d="M72.049 25.6009Q84.6682 25.6009 95.6335 20.8997Q106.599 16.1984 115.018 7.78487Q123.437-0.628686 128.178-11.5939Q132.92-22.5591 132.92-35.1893Q132.92-47.8194 128.178-58.7847Q123.437-69.7499 115.023-78.1634Q106.61-86.577 95.6443-91.2782Q84.6791-95.9795 72.0598-95.9795Q59.521-95.9795 48.5101-91.2782Q37.4993-86.577 29.1205-78.1634Q20.7417-69.7499 16.0002-58.7847Q11.2588-47.8194 11.2588-35.1893Q11.2588-22.5591 16.0002-11.5939Q20.7417-0.628686 29.115 7.78487Q37.4884 16.1984 48.4992 20.8997Q59.5101 25.6009 72.049 25.6009ZM36.4121-11.7671L36.4121-28.4987Q36.4121-32.9284 37.4391-35.3247Q38.4661-37.721 40.1809-39.8161L43.0391-43.5808Q43.9238-47.9561 45.267-52.0152Q46.6103-56.0743 47.4254-57.8653Q48.6317-60.53 50.8834-61.7841Q53.1352-63.0381 55.6324-63.4402Q57.2517-63.6011 62.1259-63.7217Q67.0001-63.8423 72.1294-63.8423Q77.35-63.8423 82.2296-63.7217Q87.1093-63.6011 88.7285-63.4402Q91.1345-63.0381 93.3862-61.7841Q95.638-60.53 96.9356-57.8653Q97.7398-56.0743 99.0831-52.0152Q100.426-47.9561 101.311-43.5808L104.18-39.8161Q105.884-37.721 106.916-35.3247Q107.949-32.9284 107.949-28.4987L107.949-11.7671Q107.949-10.1696 106.828-9.04916Q105.708-7.92873 104.019-7.92873L100.583-7.92873Q98.8941-7.92873 97.728-9.04916Q96.5619-10.1696 96.5619-11.7671L96.5619-16.7532Q91.4737-16.5228 84.6456-16.2706Q77.8174-16.0185 72.1294-16.0185Q66.5326-16.0185 59.7099-16.2706Q52.8873-16.5228 47.6164-16.7532L47.6164-11.7671Q47.6164-10.1696 46.496-9.04916Q45.3755-7.92873 43.778-7.92873L40.2504-7.92873Q38.6529-7.92873 37.5325-9.04916Q36.4121-10.1696 36.4121-11.7671ZM47.3854-45.8259Q47.0637-44.3783 48.5808-44.4478Q52.9737-44.7804 58.1218-44.9412Q63.2699-45.1021 72.1294-45.1021Q81.0911-45.1021 86.2392-44.9412Q91.3873-44.7804 95.7692-44.4478Q97.2755-44.3783 96.9647-45.8259Q96.1169-49.3776 95.1812-52.1282Q94.2455-54.8788 93.4195-56.1982Q92.5936-57.5285 91.3915-58.4784Q90.1894-59.4283 88.0483-59.6914Q86.1551-59.9217 81.9427-60.0022Q77.7304-60.0826 72.1294-60.0826Q66.6306-60.0826 62.4182-60.0076Q58.2059-59.9326 56.2214-59.6914Q54.1715-59.4283 52.8782-58.4784Q51.5848-57.5285 50.8501-56.1982Q50.1155-54.8897 49.1798-52.1337Q48.244-49.3776 47.3854-45.8259ZM45.2256-28.7944Q45.2256-27.16 46.3536-26.0776Q47.4816-24.9953 49.1051-24.9953Q50.8308-24.9953 51.8675-26.0776Q52.9042-27.16 52.9042-28.7944Q52.9042-30.4179 51.8675-31.5459Q50.8308-32.6739 49.1051-32.6739Q47.4816-32.6739 46.3536-31.5459Q45.2256-30.4179 45.2256-28.7944ZM61.7468-27.8813Q61.7468-25.1755 64.4526-25.1755L79.817-25.1755Q82.6142-25.1755 82.6142-27.8813Q82.6142-29.1245 81.8372-29.8558Q81.0602-30.5872 79.817-30.5872L64.4526-30.5872Q61.7468-30.5872 61.7468-27.8813ZM91.4568-28.7944Q91.4568-27.16 92.5391-26.0776Q93.6215-24.9953 95.2559-24.9953Q96.8794-24.9953 98.0074-26.0776Q99.1354-27.16 99.1354-28.7944Q99.1354-30.4179 98.0074-31.5459Q96.8794-32.6739 95.2559-32.6739Q93.6215-32.6739 92.5391-31.5459Q91.4568-30.4179 91.4568-28.7944Z"/>
  </g>
  <g id="Black-M" transform="matrix(1 0 0 1 2871.36 1126)">
   <path d="M62.0423 18.1784Q73.0725 18.1784 82.714 14.0236Q92.3555 9.86885 99.704 2.51762Q107.052-4.83361 111.21-14.4751Q115.367-24.1166 115.367-35.1412Q115.367-46.1659 111.21-55.8074Q107.052-65.4489 99.7012-72.8001Q92.35-80.1513 82.7085-84.3061Q73.067-88.4609 62.0368-88.4609Q51.0119-88.4609 41.3705-84.3061Q31.7292-80.1513 24.3833-72.8001Q17.0375-65.4489 12.8801-55.8074Q8.72266-46.1659 8.72266-35.1412Q8.72266-24.1166 12.8801-14.4751Q17.0375-4.83361 24.3861 2.51762Q31.7347 9.86885 41.376 14.0236Q51.0174 18.1784 62.0423 18.1784ZM36.6165-19.6137L36.6165-32.5026Q36.6165-35.4804 37.1559-37.3864Q37.6953-39.2923 39.0936-41.1844L41.138-43.5035Q41.7092-46.1663 42.5291-48.6056Q43.349-51.0449 43.8524-52.1191Q44.7869-54.1126 46.56-55.3544Q48.3331-56.5962 50.6509-56.9077Q52.0628-57.0894 54.8913-57.1828Q57.7197-57.2763 62.0476-57.2763Q66.4321-57.2763 69.2864-57.1828Q72.1407-57.0894 73.4955-56.9077Q75.8136-56.5962 77.5581-55.3544Q79.3027-54.1126 80.294-52.1191Q80.8029-51.0449 81.6228-48.6056Q82.4427-46.1663 83.0139-43.5035L85.0528-41.1844Q86.5137-39.2923 86.9932-37.3864Q87.4727-35.4804 87.4727-32.5026L87.4727-19.6137Q87.4727-18.4191 86.6548-17.6012Q85.8369-16.7833 84.5856-16.7833L82.0668-16.7833Q80.8725-16.7833 80.0548-17.6012Q79.237-18.4191 79.237-19.6137L79.237-23.4765Q75.8938-23.227 71.1595-23.0742Q66.4251-22.9213 62.0476-22.9213Q57.6697-22.9213 52.9611-23.0742Q48.2526-23.227 44.91-23.4765L44.91-19.6137Q44.91-18.4191 44.1206-17.6012Q43.3312-16.7833 42.0796-16.7833L39.504-16.7833Q38.3095-16.7833 37.463-17.6012Q36.6165-18.4191 36.6165-19.6137ZM49.2298-46.2109Q48.7522-44.4042 50.7408-44.415Q52.0927-44.4303 54.6347-44.5263Q57.1768-44.6224 62.0476-44.6224Q66.9695-44.6224 69.5402-44.5263Q72.1108-44.4303 73.411-44.415Q75.3481-44.4042 74.865-46.2109Q74.7208-46.9695 74.4095-47.9377Q74.0981-48.9058 73.8858-49.3152Q73.388-50.29 72.7256-50.7139Q72.0632-51.1378 70.8572-51.2566Q70.1885-51.3919 67.9863-51.4257Q65.7841-51.4594 62.0476-51.4594Q58.3623-51.4594 56.1601-51.4229Q53.9579-51.3864 53.2895-51.2566Q52.1403-51.1378 51.4497-50.7139Q50.759-50.29 50.2609-49.3152Q50.0482-48.9003 49.7369-47.9349Q49.4256-46.9695 49.2298-46.2109ZM43.0869-32.8333Q43.0869-31.2118 44.2095-30.1177Q45.332-29.0235 46.959-29.0235Q48.523-29.0235 49.6173-30.1177Q50.7116-31.2118 50.7116-32.8333Q50.7116-34.4602 49.6173-35.5542Q48.523-36.6482 46.959-36.6482Q45.332-36.6482 44.2095-35.5542Q43.0869-34.4602 43.0869-32.8333ZM53.5801-32.8363Q53.5801-30.0867 56.3297-30.0867L67.7599-30.0867Q70.5663-30.0867 70.5663-32.8363Q70.5663-34.0836 69.7867-34.8633Q69.0072-35.6431 67.7599-35.6431L56.3297-35.6431Q53.5801-35.6431 53.5801-32.8363ZM73.4348-32.8333Q73.4348-31.2118 74.5289-30.1177Q75.6231-29.0235 77.1874-29.0235Q78.8144-29.0235 79.9084-30.1177Q81.0024-31.2118 81.0024-32.8333Q81.0024-34.4602 79.9084-35.5542Q78.8144-36.6482 77.1874-36.6482Q75.6231-36.6482 74.5289-35.5542Q73.4348-34.4602 73.4348-32.8333Z"/>
  </g>
  <g id="Heavy-M" transform="matrix(1 0 0 1 2575.48 1126)">
   <path d="M61.2045 17.3271Q72.0509 17.3271 81.541 13.2372Q91.0312 9.14728 98.2688 1.90151Q105.506-5.34426 109.606-14.8344Q113.705-24.3245 113.705-35.1547Q113.705-45.985 109.606-55.4751Q105.506-64.9652 98.2607-72.2109Q91.0149-79.4567 81.5248-83.5466Q72.0347-87.6365 61.1882-87.6365Q50.3604-87.6365 40.8691-83.5466Q31.3778-79.4567 24.1495-72.2109Q16.9211-64.9652 12.8219-55.4751Q8.72266-45.985 8.72266-35.1547Q8.72266-24.3245 12.8219-14.8344Q16.9211-5.34426 24.1576 1.90151Q31.394 9.14728 40.8853 13.2372Q50.3767 17.3271 61.2045 17.3271ZM35.2773-19.3455L35.2773-32.35Q35.2773-35.3228 35.8492-37.2382Q36.421-39.1535 37.8729-41.0802L39.9014-43.4562Q40.4995-46.2485 41.3505-48.8052Q42.2015-51.362 42.7211-52.4821Q43.6556-54.4783 45.422-55.6984Q47.1883-56.9185 49.5138-57.23Q50.8746-57.3982 53.8636-57.4917Q56.8527-57.5851 61.2231-57.5851Q65.6396-57.5851 68.6424-57.4917Q71.6452-57.3982 72.9623-57.23Q75.2854-56.9185 77.0299-55.6984Q78.7744-54.4783 79.7551-52.4821Q80.2909-51.362 81.1419-48.8052Q81.9928-46.2485 82.591-43.4562L84.6032-41.0802Q86.1149-39.1535 86.635-37.2382Q87.1552-35.3228 87.1552-32.35L87.1552-19.3455Q87.1552-18.1268 86.3184-17.2901Q85.4816-16.4533 84.2168-16.4533L81.6361-16.4533Q80.415-16.4533 79.577-17.2901Q78.739-18.1268 78.739-19.3455L78.739-23.2084Q75.2825-22.9617 70.4591-22.8128Q65.6356-22.6639 61.2231-22.6639Q56.8131-22.6639 52.0034-22.8128Q47.1936-22.9617 43.7322-23.2084L43.7322-19.3455Q43.7322-18.1268 42.9173-17.2901Q42.1023-16.4533 40.84-16.4533L38.2132-16.4533Q36.9945-16.4533 36.1359-17.2901Q35.2773-18.1268 35.2773-19.3455ZM47.4949-46.0473Q47.0712-44.4023 48.8819-44.4373Q50.5497-44.4958 53.328-44.5986Q56.1063-44.7013 61.2231-44.7013Q66.3698-44.7013 69.1699-44.5986Q71.97-44.4958 73.6104-44.4373Q75.3938-44.4023 74.9538-46.0473Q74.7447-47.052 74.3498-48.2736Q73.9549-49.4951 73.6697-50.0071Q73.1663-50.939 72.5386-51.3524Q71.9109-51.7659 70.7662-51.8767Q69.9652-52.0362 67.6037-52.0767Q65.2421-52.1172 61.2231-52.1172Q57.234-52.1172 54.8725-52.0686Q52.5109-52.02 51.7075-51.8767Q50.6089-51.7659 49.9569-51.3524Q49.3049-50.939 48.804-50.0071Q48.5212-49.4789 48.1263-48.2654Q47.7314-47.052 47.4949-46.0473ZM41.8742-32.5866Q41.8742-30.9789 42.9872-29.889Q44.1001-28.7991 45.724-28.7991Q47.2905-28.7991 48.3792-29.889Q49.4679-30.9789 49.4679-32.5866Q49.4679-34.2106 48.3792-35.3017Q47.2905-36.3928 45.724-36.3928Q44.1001-36.3928 42.9872-35.3017Q41.8742-34.2106 41.8742-32.5866ZM52.6594-32.5622Q52.6594-29.8265 55.3951-29.8265L67.035-29.8265Q69.8167-29.8265 69.8167-32.5622Q69.8167-33.7985 69.044-34.57Q68.2713-35.3414 67.035-35.3414L55.3951-35.3414Q52.6594-35.3414 52.6594-32.5622ZM73.0082-32.5866Q73.0082-30.9789 74.0981-29.889Q75.188-28.7991 76.7521-28.7991Q78.376-28.7991 79.4672-29.889Q80.5583-30.9789 80.5583-32.5866Q80.5583-34.2106 79.4672-35.3017Q78.376-36.3928 76.7521-36.3928Q75.188-36.3928 74.0981-35.3017Q73.0082-34.2106 73.0082-32.5866Z"/>
  </g>
  <g id="Bold-M" transform="matrix(1 0 0 1 2279.69 1126)">
   <path d="M60.2672 16.3747Q70.9082 16.3747 80.2289 12.3574Q89.5497 8.34011 96.6634 1.21231Q103.777-5.9155 107.811-15.2363Q111.845-24.557 111.845-35.1698Q111.845-45.7825 107.811-55.1033Q103.777-64.4241 96.6493-71.5519Q89.5215-78.6797 80.2007-82.697Q70.8799-86.7143 60.2389-86.7143Q49.6317-86.7143 40.3082-82.697Q30.9846-78.6797 23.8878-71.5519Q16.791-64.4241 12.7568-55.1033Q8.72266-45.7825 8.72266-35.1698Q8.72266-24.557 12.7568-15.2363Q16.791-5.9155 23.902 1.21231Q31.0129 8.34011 40.3364 12.3574Q49.6599 16.3747 60.2672 16.3747ZM33.7793-19.0456L33.7793-32.1793Q33.7793-35.1466 34.3874-37.0724Q34.9955-38.9981 36.5074-40.9637L38.5181-43.4033Q39.1463-46.3405 40.0321-49.0286Q40.9178-51.7167 41.4555-52.8882Q42.3901-54.8875 44.1489-56.0832Q45.9077-57.279 48.2419-57.5905Q49.5454-57.7437 52.7141-57.8371Q55.8828-57.9306 60.3009-57.9306Q64.7531-57.9306 67.922-57.8371Q71.0909-57.7437 72.3658-57.5905Q74.6945-57.279 76.439-56.0832Q78.1835-54.8875 79.1522-52.8882Q79.7181-51.7167 80.6039-49.0286Q81.4896-46.3405 82.1179-43.4033L84.1003-40.9637Q85.6689-38.9981 86.2344-37.0724Q86.7999-35.1466 86.7999-32.1793L86.7999-19.0456Q86.7999-17.7999 85.942-16.942Q85.0842-16.0842 83.8044-16.0842L81.1544-16.0842Q79.9031-16.0842 79.0425-16.942Q78.1819-17.7999 78.1819-19.0456L78.1819-22.9085Q74.5987-22.6648 69.6756-22.5204Q64.7525-22.376 60.3009-22.376Q55.8549-22.376 50.9319-22.5204Q46.009-22.6648 42.4147-22.9085L42.4147-19.0456Q42.4147-17.7999 41.5712-16.942Q40.7276-16.0842 39.4533-16.0842L36.7693-16.0842Q35.5235-16.0842 34.6514-16.942Q33.7793-17.7999 33.7793-19.0456ZM45.5542-45.8643Q45.1908-44.4002 46.8025-44.4622Q48.8237-44.569 51.8662-44.6793Q54.9088-44.7897 60.3009-44.7897Q65.6989-44.7897 68.7557-44.6793Q71.8125-44.569 73.8334-44.4622Q75.4448-44.4002 75.0532-45.8643Q74.7715-47.1443 74.283-48.6493Q73.7946-50.1544 73.4279-50.7811Q72.9184-51.665 72.3294-52.0667Q71.7405-52.4685 70.6644-52.5704Q69.7155-52.757 67.1756-52.805Q64.6358-52.853 60.3009-52.853Q55.9719-52.853 53.4321-52.7909Q50.8922-52.7287 49.9378-52.5704Q48.8958-52.4685 48.287-52.0667Q47.6783-51.665 47.1743-50.7811Q46.8131-50.1261 46.3247-48.6352Q45.8362-47.1443 45.5542-45.8643ZM40.5176-32.3107Q40.5176-30.7184 41.6198-29.6333Q42.722-28.5481 44.3425-28.5481Q45.9118-28.5481 46.9942-29.6333Q48.0766-30.7184 48.0766-32.3107Q48.0766-33.9313 46.9942-35.0191Q45.9118-36.107 44.3425-36.107Q42.722-36.107 41.6198-35.0191Q40.5176-33.9313 40.5176-32.3107ZM51.6295-32.2555Q51.6295-29.5355 54.3495-29.5355L66.2241-29.5355Q68.9782-29.5355 68.9782-32.2555Q68.9782-33.4795 68.2132-34.2418Q67.4482-35.004 66.2241-35.004L54.3495-35.004Q51.6295-35.004 51.6295-32.2555ZM72.5311-32.3107Q72.5311-30.7184 73.6163-29.6333Q74.7014-28.5481 76.2652-28.5481Q77.8857-28.5481 78.9736-29.6333Q80.0615-30.7184 80.0615-32.3107Q80.0615-33.9313 78.9736-35.0191Q77.8857-36.107 76.2652-36.107Q74.7014-36.107 73.6163-35.0191Q72.5311-33.9313 72.5311-32.3107Z"/>
  </g>
  <g id="Semibold-M" transform="matrix(1 0 0 1 1983.62 1126)">
   <path d="M59.621 15.7182Q70.1203 15.7182 79.3244 11.7509Q88.5284 7.78365 95.5566 0.737173Q102.585-6.30931 106.574-15.5133Q110.564-24.7174 110.564-35.1802Q110.564-45.643 106.574-54.847Q102.585-64.0511 95.5384-71.0975Q88.4919-78.144 79.2879-82.1113Q70.0838-86.0785 59.5845-86.0785Q49.1293-86.0785 39.9215-82.1113Q30.7136-78.144 23.7075-71.0975Q16.7013-64.0511 12.712-54.847Q8.72266-45.643 8.72266-35.1802Q8.72266-24.7174 12.712-15.5133Q16.7013-6.30931 23.7257 0.737173Q30.7501 7.78365 39.958 11.7509Q49.1658 15.7182 59.621 15.7182ZM32.7465-18.8389L32.7465-32.0616Q32.7465-35.0251 33.3797-36.9581Q34.0128-38.8911 35.5661-40.8833L37.5644-43.3669Q38.2134-46.4039 39.1231-49.1826Q40.0329-51.9612 40.5831-53.1681Q41.5177-55.1695 43.2713-56.3485Q45.0249-57.5276 47.365-57.8391Q48.629-57.9819 51.9216-58.0753Q55.2142-58.1688 59.6652-58.1688Q64.142-58.1688 67.4253-58.0753Q70.7087-57.9819 71.9546-57.8391Q74.2871-57.5276 76.0316-56.3485Q77.7761-55.1695 78.7365-53.1681Q79.3232-51.9612 80.233-49.1826Q81.1427-46.4039 81.7917-43.3669L83.7535-40.8833Q85.3614-38.8911 85.9582-36.9581Q86.555-35.0251 86.555-32.0616L86.555-18.8389Q86.555-17.5744 85.6826-16.7021Q84.8102-15.8297 83.52-15.8297L80.8223-15.8297Q79.5503-15.8297 78.6741-16.7021Q77.7979-17.5744 77.7979-18.8389L77.7979-22.7018Q74.1273-22.4602 69.1355-22.3189Q64.1436-22.1775 59.6652-22.1775Q55.1943-22.1775 50.1933-22.3189Q45.1923-22.4602 41.5064-22.7018L41.5064-18.8389Q41.5064-17.5744 40.6431-16.7021Q39.7799-15.8297 38.4973-15.8297L35.7738-15.8297Q34.5094-15.8297 33.6279-16.7021Q32.7465-17.5744 32.7465-18.8389ZM44.2163-45.7381Q43.8944-44.3987 45.3689-44.4794Q47.6338-44.6195 50.8585-44.735Q54.0832-44.8505 59.6652-44.8505Q65.2364-44.8505 68.4702-44.735Q71.704-44.6195 73.9872-44.4794Q75.48-44.3987 75.1217-45.7381Q74.7899-47.2079 74.237-48.9084Q73.6841-50.6089 73.2612-51.3146Q72.7475-52.1655 72.1852-52.5592Q71.623-52.9529 70.5942-53.0486Q69.5433-53.2539 66.8806-53.3071Q64.2178-53.3603 59.6652-53.3603Q55.1018-53.3603 52.439-53.2888Q49.7763-53.2174 48.7177-53.0486Q47.7148-52.9529 47.1358-52.5592Q46.5569-52.1655 46.0508-51.3146Q45.6355-50.5724 45.0826-48.8901Q44.5297-47.2079 44.2163-45.7381ZM39.5824-32.1205Q39.5824-30.5388 40.6772-29.4569Q41.7719-28.3751 43.3901-28.3751Q44.9613-28.3751 46.0394-29.4569Q47.1174-30.5388 47.1174-32.1205Q47.1174-33.7387 46.0394-34.8244Q44.9613-35.91 43.3901-35.91Q41.7719-35.91 40.6772-34.8244Q39.5824-33.7387 39.5824-32.1205ZM50.9195-32.0441Q50.9195-29.3349 53.6287-29.3349L65.6651-29.3349Q68.4001-29.3349 68.4001-32.0441Q68.4001-33.2596 67.6404-34.0155Q66.8807-34.7714 65.6651-34.7714L53.6287-34.7714Q50.9195-34.7714 50.9195-32.0441ZM72.2022-32.1205Q72.2022-30.5388 73.2841-29.4569Q74.3659-28.3751 75.9295-28.3751Q77.5477-28.3751 78.6334-29.4569Q79.719-30.5388 79.719-32.1205Q79.719-33.7387 78.6334-34.8244Q77.5477-35.91 75.9295-35.91Q74.3659-35.91 73.2841-34.8244Q72.2022-33.7387 72.2022-32.1205Z"/>
  </g>
  <g id="Medium-M" transform="matrix(1 0 0 1 1687.4 1126)">
   <path d="M59.1311 15.2203Q69.523 15.2203 78.6385 11.291Q87.754 7.36172 94.7174 0.376908Q101.681-6.60791 105.636-15.7234Q109.591-24.8389 109.591-35.1881Q109.591-45.5372 105.636-54.6527Q101.681-63.7682 94.696-70.753Q87.7112-77.7378 78.5957-81.6672Q69.4802-85.5965 59.0883-85.5965Q48.7484-85.5965 39.6283-81.6672Q30.5081-77.7378 23.5707-70.753Q16.6333-63.7682 12.678-54.6527Q8.72266-45.5372 8.72266-35.1881Q8.72266-24.8389 12.678-15.7234Q16.6333-6.60791 23.5921 0.376908Q30.5509 7.36172 39.671 11.291Q48.7912 15.2203 59.1311 15.2203ZM31.9634-18.6821L31.9634-31.9724Q31.9634-34.933 32.6155-36.8714Q33.2677-38.8099 34.8523-40.8224L36.8413-43.3392Q37.5061-46.452 38.434-49.2993Q39.3619-52.1466 39.9216-53.3804Q40.8561-55.3834 42.6058-56.5497Q44.3555-57.716 46.7001-58.0276Q47.9342-58.1624 51.3207-58.2559Q54.7072-58.3494 59.1831-58.3494Q63.6785-58.3494 67.0488-58.2559Q70.419-58.1624 71.6429-58.0276Q73.9782-57.716 75.7227-56.5497Q77.4673-55.3834 78.4214-53.3804Q79.0239-52.1466 79.9517-49.2993Q80.8796-46.452 81.5444-43.3392L83.4906-40.8224Q85.1283-38.8099 85.7488-36.8714Q86.3692-34.933 86.3692-31.9724L86.3692-18.6821Q86.3692-17.4035 85.4859-16.5201Q84.6025-15.6368 83.3044-15.6368L80.5705-15.6368Q79.2827-15.6368 78.3947-16.5201Q77.5067-17.4035 77.5067-18.6821L77.5067-22.545Q73.7698-22.305 68.7259-22.166Q63.682-22.027 59.1831-22.027Q54.6934-22.027 49.6333-22.166Q44.5731-22.305 40.8177-22.545L40.8177-18.6821Q40.8177-17.4035 39.9395-16.5201Q39.0613-15.6368 37.7724-15.6368L35.019-15.6368Q33.7404-15.6368 32.8519-16.5201Q31.9634-17.4035 31.9634-18.6821ZM43.2018-45.6424Q42.9115-44.3976 44.2819-44.4924Q46.7316-44.6578 50.0944-44.7772Q53.4572-44.8967 59.1831-44.8967Q64.8857-44.8967 68.2537-44.7772Q71.6216-44.6578 74.1038-44.4924Q75.5067-44.3976 75.1736-45.6424Q74.8039-47.2562 74.2021-49.1048Q73.6003-50.9535 73.1348-51.7192Q72.6179-52.545 72.0759-52.9326Q71.5339-53.3201 70.541-53.4112Q69.4127-53.6306 66.6568-53.6878Q63.9009-53.745 59.1831-53.745Q54.442-53.745 51.6861-53.6664Q48.9302-53.5878 47.7927-53.4112Q46.8193-53.3201 46.2629-52.9326Q45.7066-52.545 45.1989-51.7192Q44.7426-50.9107 44.1408-49.0834Q43.539-47.2562 43.2018-45.6424ZM38.8733-31.9763Q38.8733-30.4026 39.9624-29.3232Q41.0515-28.2439 42.668-28.2439Q44.2407-28.2439 45.3154-29.3232Q46.3901-30.4026 46.3901-31.9763Q46.3901-33.5927 45.3154-34.6767Q44.2407-35.7607 42.668-35.7607Q41.0515-35.7607 39.9624-34.6767Q38.8733-33.5927 38.8733-31.9763ZM50.3812-31.8838Q50.3812-29.1828 53.0821-29.1828L65.2413-29.1828Q67.9618-29.1828 67.9618-31.8838Q67.9618-33.0929 67.2061-33.8439Q66.4504-34.595 65.2413-34.595L53.0821-34.595Q50.3812-34.595 50.3812-31.8838ZM71.9528-31.9763Q71.9528-30.4026 73.0322-29.3232Q74.1115-28.2439 75.6749-28.2439Q77.2914-28.2439 78.3754-29.3232Q79.4593-30.4026 79.4593-31.9763Q79.4593-33.5927 78.3754-34.6767Q77.2914-35.7607 75.6749-35.7607Q74.1115-35.7607 73.0322-34.6767Q71.9528-33.5927 71.9528-31.9763Z"/>
  </g>
  <g id="Regular-M" transform="matrix(1 0 0 1 1391.32 1126)">
   <path d="M58.492 14.571Q68.7438 14.571 77.7439 10.6912Q86.7439 6.81138 93.6228-0.093004Q100.502-6.99738 104.413-15.9974Q108.324-24.9975 108.324-35.1983Q108.324-45.3992 104.413-54.3992Q100.502-63.3993 93.5973-70.3037Q86.693-77.2081 77.6929-81.0879Q68.6929-84.9677 58.441-84.9677Q48.2515-84.9677 39.2458-81.0879Q30.2401-77.2081 23.3923-70.3037Q16.5446-63.3993 12.6336-54.3992Q8.72266-45.3992 8.72266-35.1983Q8.72266-24.9975 12.6336-15.9974Q16.5446-6.99738 23.4178-0.093004Q30.291 6.81138 39.2968 10.6912Q48.3025 14.571 58.492 14.571ZM30.942-18.4776L30.942-31.856Q30.942-34.8128 31.6189-36.7584Q32.2958-38.7039 33.9213-40.7429L35.8981-43.3031Q36.5834-46.5147 37.535-49.4516Q38.4866-52.3885 39.0587-53.6573Q39.9933-55.6624 41.7378-56.8121Q43.4823-57.9619 45.8328-58.2734Q47.0279-58.398 50.5369-58.4915Q54.0459-58.5849 58.5543-58.5849Q63.0741-58.5849 66.5576-58.4915Q70.0411-58.398 71.2362-58.2734Q73.5753-57.9619 75.3198-56.8121Q77.0644-55.6624 78.0103-53.6573Q78.6333-52.3885 79.5849-49.4516Q80.5365-46.5147 81.2219-43.3031L83.1477-40.7429Q84.8242-38.7039 85.4756-36.7584Q86.127-34.8128 86.127-31.856L86.127-18.4776Q86.127-17.1806 85.2293-16.2828Q84.3315-15.3851 83.0231-15.3851L80.2421-15.3851Q78.9337-15.3851 78.0303-16.2828Q77.1269-17.1806 77.1269-18.4776L77.1269-22.3405Q73.3036-22.1026 68.1917-21.9667Q63.0799-21.8307 58.5543-21.8307Q54.0401-21.8307 48.9028-21.9667Q43.7654-22.1026 39.9194-22.3405L39.9194-18.4776Q39.9194-17.1806 39.0217-16.2828Q38.1239-15.3851 36.8269-15.3851L34.0345-15.3851Q32.7375-15.3851 31.8397-16.2828Q30.942-17.1806 30.942-18.4776ZM41.8786-45.5177Q41.6294-44.3962 42.8641-44.5094Q45.5548-44.7077 49.0977-44.8323Q52.6407-44.9569 58.5543-44.9569Q64.4282-44.9569 67.9712-44.8323Q71.5142-44.7077 74.2558-44.5094Q75.5416-44.3962 75.2414-45.5177Q74.8222-47.3191 74.1566-49.361Q73.4911-51.4029 72.9699-52.2469Q72.4488-53.04 71.9333-53.4196Q71.4177-53.7992 70.4716-53.8842Q69.2424-54.122 66.365-54.1843Q63.4875-54.2467 58.5543-54.2467Q53.5815-54.2467 50.704-54.1589Q47.8266-54.0711 46.586-53.8842Q45.6513-53.7992 45.1244-53.4196Q44.5975-53.04 44.0877-52.2469Q43.5779-51.352 42.9124-49.3355Q42.2468-47.3191 41.8786-45.5177ZM37.9484-31.7881Q37.9484-30.2249 39.0302-29.1488Q40.1119-28.0727 41.7261-28.0727Q43.3006-28.0727 44.3711-29.1488Q45.4415-30.2249 45.4415-31.7881Q45.4415-33.4023 44.3711-34.4841Q43.3006-35.5658 41.7261-35.5658Q40.1119-35.5658 39.0302-34.4841Q37.9484-33.4023 37.9484-31.7881ZM49.679-31.6747Q49.679-28.9844 52.3692-28.9844L64.6884-28.9844Q67.39-28.9844 67.39-31.6747Q67.39-32.8754 66.6396-33.6202Q65.8891-34.3649 64.6884-34.3649L52.3692-34.3649Q49.679-34.3649 49.679-31.6747ZM71.6275-31.7881Q71.6275-30.2249 72.7036-29.1488Q73.7797-28.0727 75.3429-28.0727Q76.9571-28.0727 78.0388-29.1488Q79.1206-30.2249 79.1206-31.7881Q79.1206-33.4023 78.0388-34.4841Q76.9571-35.5658 75.3429-35.5658Q73.7797-35.5658 72.7036-34.4841Q71.6275-33.4023 71.6275-31.7881Z"/>
  </g>
  <g id="Light-M" transform="matrix(1 0 0 1 1095.44 1126)">
   <path d="M57.664 13.743Q67.7687 13.743 76.6123 9.93683Q85.456 6.13061 92.2245-0.654174Q98.993-7.43896 102.83-16.2826Q106.668-25.1263 106.668-35.1983Q106.668-45.2704 102.83-54.1141Q98.993-62.9577 92.2082-69.7425Q85.4234-76.5273 76.5798-80.3335Q67.7361-84.1397 57.6315-84.1397Q47.5892-84.1397 38.7306-80.3335Q29.8721-76.5273 23.1348-69.7425Q16.3974-62.9577 12.56-54.1141Q8.72266-45.2704 8.72266-35.1983Q8.72266-25.1263 12.56-16.2826Q16.3974-7.43896 23.151-0.654174Q29.9047 6.13061 38.7632 9.93683Q47.6217 13.743 57.664 13.743ZM30.0956-18.036L30.0956-31.2856Q30.0956-34.3896 30.8093-36.3076Q31.523-38.2256 33.0565-40.1357L35.1069-42.8064Q35.7923-46.0731 36.7715-49.0744Q37.7507-52.0757 38.3411-53.3813Q39.2757-55.4048 41.0202-56.4993Q42.7648-57.5939 44.9864-57.9054Q46.2-58.03 49.7917-58.1235Q53.3835-58.2169 57.7264-58.2169Q62.0989-58.2169 65.6744-58.1235Q69.2499-58.03 70.4634-57.9054Q72.6554-57.5939 74.3999-56.4993Q76.1444-55.4048 77.1087-53.3813Q77.7318-52.0757 78.711-49.0744Q79.6902-46.0731 80.3755-42.8064L82.3934-40.1357Q83.9594-38.2256 84.6568-36.3076Q85.3543-34.3896 85.3543-31.2856L85.3543-18.036Q85.3543-16.7574 84.4657-15.8688Q83.5772-14.9803 82.2688-14.9803L79.5245-14.9803Q78.2161-14.9803 77.3127-15.8688Q76.4093-16.7574 76.4093-18.036L76.4093-21.8989Q72.5492-21.6795 67.3822-21.5251Q62.2151-21.3707 57.7264-21.3707Q53.2673-21.3707 48.084-21.5251Q42.9007-21.6795 38.9811-21.8989L38.9811-18.036Q38.9811-16.7574 38.0925-15.8688Q37.204-14.9803 35.9253-14.9803L33.1514-14.9803Q31.8727-14.9803 30.9842-15.8688Q30.0956-16.7574 30.0956-18.036ZM40.2779-44.8737Q40.0287-43.7522 41.245-43.8471Q44.1564-44.0637 47.8374-44.1883Q51.5184-44.313 57.7264-44.313Q63.9315-44.313 67.6125-44.1883Q71.2935-44.0637 74.2374-43.8471Q75.4864-43.7522 75.2046-44.8737Q74.7118-46.9695 74.0278-49.039Q73.3439-51.1086 72.786-52.0078Q72.228-52.8744 71.5837-53.3644Q70.9393-53.8544 69.7725-53.9762Q68.4697-54.1956 65.4726-54.2579Q62.4756-54.3202 57.7264-54.3202Q52.9743-54.3202 49.9772-54.2417Q46.9802-54.1631 45.6477-53.9762Q44.5105-53.8544 43.8365-53.3644Q43.1624-52.8744 42.6342-52.0078Q42.106-51.076 41.4221-49.0228Q40.7381-46.9695 40.2779-44.8737ZM37.0468-31.3098Q37.0468-29.8386 38.0642-28.836Q39.0816-27.8335 40.5853-27.8335Q42.0863-27.8335 43.0739-28.836Q44.0616-29.8386 44.0616-31.3098Q44.0616-32.8135 43.0739-33.8309Q42.0863-34.8483 40.5853-34.8483Q39.0816-34.8483 38.0642-33.8309Q37.0468-32.8135 37.0468-31.3098ZM49.1086-31.0123Q49.1086-28.506 51.6149-28.506L63.8053-28.506Q66.3413-28.506 66.3413-31.0123Q66.3413-32.1394 65.6368-32.829Q64.9324-33.5186 63.8053-33.5186L51.6149-33.5186Q49.1086-33.5186 49.1086-31.0123ZM71.3883-31.3098Q71.3883-29.8386 72.3908-28.836Q73.3933-27.8335 74.8645-27.8335Q76.3683-27.8335 77.3857-28.836Q78.4031-29.8386 78.4031-31.3098Q78.4031-32.8135 77.3857-33.8309Q76.3683-34.8483 74.8645-34.8483Q73.3933-34.8483 72.3908-33.8309Q71.3883-32.8135 71.3883-31.3098Z"/>
  </g>
  <g id="Thin-M" transform="matrix(1 0 0 1 799.822 1126)">
   <path d="M56.569 12.648Q66.479 12.648 75.1158 8.93913Q83.7526 5.23025 90.3751-1.39637Q96.9976-8.02298 100.738-16.6598Q104.478-25.2966 104.478-35.1983Q104.478-45.1001 100.738-53.7369Q96.9976-62.3737 90.371-69.0003Q83.7444-75.6269 75.1076-79.3358Q66.4707-83.0447 56.5608-83.0447Q46.7131-83.0447 38.0493-79.3358Q29.3854-75.6269 22.7941-69.0003Q16.2027-62.3737 12.4627-53.7369Q8.72266-45.1001 8.72266-35.1983Q8.72266-25.2966 12.4627-16.6598Q16.2027-8.02298 22.7982-1.39637Q29.3936 5.23025 38.0575 8.93913Q46.7214 12.648 56.569 12.648ZM28.9763-17.452L28.9763-30.5313Q28.9763-33.8299 29.7386-35.7114Q30.501-37.5929 31.9128-39.3327L34.0606-42.1494Q34.7459-45.4891 35.7616-48.5756Q36.7773-51.662 37.3921-53.0163Q38.3267-55.0641 40.0712-56.0856Q41.8157-57.1072 43.8671-57.4187Q45.1049-57.5433 48.8062-57.6368Q52.5075-57.7302 56.6313-57.7302Q60.8092-57.7302 64.5064-57.6368Q68.2035-57.5433 69.4414-57.4187Q71.4387-57.1072 73.1832-56.0856Q74.9277-55.0641 75.9164-53.0163Q76.5394-51.662 77.5551-48.5756Q78.5708-45.4891 79.2561-42.1494L81.3957-39.3327Q82.8157-37.5929 83.574-35.7114Q84.3322-33.8299 84.3322-30.5313L84.3322-17.452Q84.3322-16.1977 83.4558-15.3213Q82.5795-14.4449 81.2711-14.4449L78.5755-14.4449Q77.2671-14.4449 76.3637-15.3213Q75.4603-16.1977 75.4603-17.452L75.4603-21.3149Q71.5515-21.1198 66.3115-20.9411Q61.0714-20.7624 56.6313-20.7624Q52.2453-20.7624 47.0011-20.9411Q41.7569-21.1198 37.74-21.3149L37.74-17.452Q37.74-16.1977 36.8637-15.3213Q35.9873-14.4449 34.733-14.4449L31.9833-14.4449Q30.729-14.4449 29.8526-15.3213Q28.9763-16.1977 28.9763-17.452ZM38.1608-44.022Q37.9116-42.9005 39.1036-42.971Q42.307-43.212 46.1705-43.3366Q50.034-43.4613 56.6313-43.4613Q63.2745-43.4613 67.138-43.3366Q71.0014-43.212 74.2131-42.971Q75.4134-42.9005 75.1559-44.022Q74.5658-46.5072 73.8575-48.6132Q73.1492-50.7192 72.5426-51.6914Q71.936-52.6554 71.1213-53.2914Q70.3067-53.9274 68.8478-54.0978Q67.4476-54.293 64.2924-54.3553Q61.1372-54.4176 56.6313-54.4176Q52.1713-54.4176 49.016-54.3512Q45.8608-54.2847 44.4066-54.0978Q43.0018-53.9274 42.1331-53.2914Q41.2643-52.6554 40.7118-51.6914Q40.1593-50.711 39.451-48.6091Q38.7427-46.5072 38.1608-44.022ZM35.8545-30.6771Q35.8545-29.3275 36.7867-28.4224Q37.7189-27.5172 39.0766-27.5172Q40.4802-27.5172 41.3584-28.4224Q42.2365-29.3275 42.2365-30.6771Q42.2365-32.0348 41.3584-32.967Q40.4802-33.8992 39.0766-33.8992Q37.7189-33.8992 36.7867-32.967Q35.8545-32.0348 35.8545-30.6771ZM48.3542-30.1363Q48.3542-27.8734 50.6172-27.8734L62.6372-27.8734Q64.9542-27.8734 64.9542-30.1363Q64.9542-31.1661 64.3106-31.7826Q63.667-32.3992 62.6372-32.3992L50.6172-32.3992Q48.3542-32.3992 48.3542-30.1363ZM71.072-30.6771Q71.072-29.3275 71.9772-28.4224Q72.8823-27.5172 74.2319-27.5172Q75.5896-27.5172 76.5218-28.4224Q77.454-29.3275 77.454-30.6771Q77.454-32.0348 76.5218-32.967Q75.5896-33.8992 74.2319-33.8992Q72.8823-33.8992 71.9772-32.967Q71.072-32.0348 71.072-30.6771Z"/>
  </g>
  <g id="Ultralight-M" transform="matrix(1 0 0 1 503.672 1126)">
   <path d="M56.0081 12.0871Q65.8184 12.0871 74.3492 8.42811Q82.8801 4.76909 89.4278-1.77651Q95.9756-8.32211 99.6657-16.853Q103.356-25.3839 103.356-35.1983Q103.356-45.0128 99.6657-53.5437Q95.9756-62.0746 89.43-68.6202Q82.8844-75.1658 74.3535-78.8248Q65.8226-82.4838 56.0124-82.4838Q46.2644-82.4838 37.7003-78.8248Q29.1361-75.1658 22.6196-68.6202Q16.103-62.0746 12.4128-53.5437Q8.72266-45.0128 8.72266-35.1983Q8.72266-25.3839 12.4128-16.853Q16.103-8.32211 22.6175-1.77651Q29.1319 4.76909 37.6961 8.42811Q46.2602 12.0871 56.0081 12.0871ZM28.4029-17.1529L28.4029-30.1449Q28.4029-33.5433 29.1902-35.406Q29.9775-37.2688 31.327-38.9214L33.5246-41.8128Q34.21-45.19 35.2444-48.3201Q36.2787-51.4501 36.906-52.8293Q37.8406-54.8896 39.5851-55.8738Q41.3297-56.8579 43.2937-57.1694Q44.5441-57.2941 48.3014-57.3875Q52.0588-57.481 56.0704-57.481Q60.1486-57.481 63.9081-57.3875Q67.6676-57.2941 68.9179-57.1694Q70.8155-56.8579 72.56-55.8738Q74.3045-54.8896 75.3056-52.8293Q75.9287-51.4501 76.9631-48.3201Q77.9975-45.19 78.6828-41.8128L80.8847-38.9214Q82.2299-37.2688 83.0193-35.406Q83.8087-33.5433 83.8087-30.1449L83.8087-17.1529Q83.8087-15.911 82.9386-15.0409Q82.0684-14.1707 80.76-14.1707L78.0894-14.1707Q76.781-14.1707 75.8776-15.0409Q74.9742-15.911 74.9742-17.1529L74.9742-21.0158Q71.0405-20.8331 65.7631-20.6419Q60.4856-20.4508 56.0704-20.4508Q51.7218-20.4508 46.4465-20.6419Q41.1711-20.8331 37.1044-21.0158L37.1044-17.1529Q37.1044-15.911 36.2342-15.0409Q35.3641-14.1707 34.1222-14.1707L31.3851-14.1707Q30.1432-14.1707 29.2731-15.0409Q28.4029-15.911 28.4029-17.1529ZM37.0764-43.5858Q36.8272-42.4643 38.0068-42.5223Q41.3598-42.7758 45.3168-42.9004Q49.2737-43.025 56.0704-43.025Q62.9379-43.025 66.8949-42.9004Q70.8519-42.7758 74.2006-42.5223Q75.376-42.4643 75.131-43.5858Q74.491-46.2704 73.7702-48.3951Q73.0495-50.5198 72.418-51.5294Q71.7865-52.5432 70.8845-53.254Q69.9826-53.9648 68.3741-54.1602Q66.9242-54.3428 63.6879-54.4051Q60.4517-54.4674 56.0704-54.4674Q51.76-54.4674 48.5237-54.4073Q45.2875-54.3471 43.771-54.1602Q42.2291-53.9648 41.2606-53.254Q40.2921-52.5432 39.7271-51.5294Q39.1622-50.524 38.4414-48.3972Q37.7207-46.2704 37.0764-43.5858ZM35.2437-30.353Q35.2437-29.0658 36.1323-28.2105Q37.0209-27.3552 38.3039-27.3552Q39.6576-27.3552 40.4797-28.2105Q41.3017-29.0658 41.3017-30.353Q41.3017-31.636 40.4797-32.5246Q39.6576-33.4132 38.3039-33.4132Q37.0209-33.4132 36.1323-32.5246Q35.2437-31.636 35.2437-30.353ZM47.9679-29.6876Q47.9679-27.5493 50.1061-27.5493L62.039-27.5493Q64.2438-27.5493 64.2438-29.6876Q64.2438-30.6675 63.6314-31.2467Q63.0189-31.8259 62.039-31.8259L50.1061-31.8259Q47.9679-31.8259 47.9679-29.6876ZM70.91-30.353Q70.91-29.0658 71.7653-28.2105Q72.6206-27.3552 73.9078-27.3552Q75.1908-27.3552 76.0793-28.2105Q76.9679-29.0658 76.9679-30.353Q76.9679-31.636 76.0793-32.5246Q75.1908-33.4132 73.9078-33.4132Q72.6206-33.4132 71.7653-32.5246Q70.91-31.636 70.91-30.353Z"/>
  </g>
  <g id="Black-S" transform="matrix(1 0 0 1 2884.57 696)">
   <path d="M48.8281 6.83594Q57.5195 6.83594 65.1123 3.56445Q72.7051 0.292969 78.4912-5.49316Q84.2773-11.2793 87.5488-18.8721Q90.8203-26.4648 90.8203-35.1562Q90.8203-43.8477 87.5488-51.4404Q84.2773-59.0332 78.4912-64.8193Q72.7051-70.6055 65.1123-73.877Q57.5195-77.1484 48.8281-77.1484Q40.1367-77.1484 32.5439-73.877Q24.9512-70.6055 19.165-64.8193Q13.3789-59.0332 10.1074-51.4404Q6.83594-43.8477 6.83594-35.1562Q6.83594-26.4648 10.1074-18.8721Q13.3789-11.2793 19.165-5.49316Q24.9512 0.292969 32.5439 3.56445Q40.1367 6.83594 48.8281 6.83594ZM29.0527-23.0469L29.0527-33.1055Q29.0527-35.4492 29.4678-36.9385Q29.8828-38.4277 30.957-39.8926L32.5684-41.6992Q33.0078-43.75 33.6426-45.6299Q34.2773-47.5098 34.668-48.3398Q35.4004-49.9023 36.792-50.8789Q38.1836-51.8555 39.9902-52.0996Q41.1133-52.2461 43.2861-52.3193Q45.459-52.3926 48.8281-52.3926Q52.2461-52.3926 54.4434-52.3193Q56.6406-52.2461 57.7148-52.0996Q59.5215-51.8555 60.8887-50.8789Q62.2559-49.9023 63.0371-48.3398Q63.4277-47.5098 64.0625-45.6299Q64.6973-43.75 65.1367-41.6992L66.748-39.8926Q67.8711-38.4277 68.2373-36.9385Q68.6035-35.4492 68.6035-33.1055L68.6035-23.0469Q68.6035-22.1191 67.9688-21.4844Q67.334-20.8496 66.3574-20.8496L64.4043-20.8496Q63.4766-20.8496 62.8418-21.4844Q62.207-22.1191 62.207-23.0469L62.207-26.0742Q59.6191-25.8789 55.9326-25.7568Q52.2461-25.6348 48.8281-25.6348Q45.4102-25.6348 41.748-25.7568Q38.0859-25.8789 35.498-26.0742L35.498-23.0469Q35.498-22.1191 34.8877-21.4844Q34.2773-20.8496 33.3008-20.8496L31.2988-20.8496Q30.3711-20.8496 29.7119-21.4844Q29.0527-22.1191 29.0527-23.0469ZM39.0137-43.8477Q38.623-42.3828 40.2344-42.3828Q41.2109-42.3828 43.1396-42.4561Q45.0684-42.5293 48.8281-42.5293Q52.6367-42.5293 54.5898-42.4561Q56.543-42.3828 57.4707-42.3828Q59.0332-42.3828 58.6426-43.8477Q58.5449-44.3848 58.3252-45.0684Q58.1055-45.752 57.959-46.0449Q57.5684-46.8262 57.0312-47.168Q56.4941-47.5098 55.5176-47.6074Q55.0293-47.7051 53.3447-47.7295Q51.6602-47.7539 48.8281-47.7539Q46.0449-47.7539 44.3604-47.7295Q42.6758-47.7051 42.1875-47.6074Q41.2598-47.5098 40.6982-47.168Q40.1367-46.8262 39.7461-46.0449Q39.5996-45.752 39.3799-45.0684Q39.1602-44.3848 39.0137-43.8477ZM34.082-33.3984Q34.082-32.1289 34.9609-31.2744Q35.8398-30.4199 37.1094-30.4199Q38.3301-30.4199 39.1846-31.2744Q40.0391-32.1289 40.0391-33.3984Q40.0391-34.668 39.1846-35.5225Q38.3301-36.377 37.1094-36.377Q35.8398-36.377 34.9609-35.5225Q34.082-34.668 34.082-33.3984ZM42.2363-33.3984Q42.2363-31.25 44.3848-31.25L53.2715-31.25Q55.4688-31.25 55.4688-33.3984Q55.4688-34.375 54.8584-34.9854Q54.248-35.5957 53.2715-35.5957L44.3848-35.5957Q42.2363-35.5957 42.2363-33.3984ZM57.666-33.3984Q57.666-32.1289 58.5205-31.2744Q59.375-30.4199 60.5957-30.4199Q61.8652-30.4199 62.7197-31.2744Q63.5742-32.1289 63.5742-33.3984Q63.5742-34.668 62.7197-35.5225Q61.8652-36.377 60.5957-36.377Q59.375-36.377 58.5205-35.5225Q57.666-34.668 57.666-33.3984Z"/>
  </g>
  <g id="Heavy-S" transform="matrix(1 0 0 1 2588.47 696)">
   <path d="M48.2173 6.21362Q56.7704 6.21362 64.2537 2.98823Q71.737-0.237157 77.4425-5.94838Q83.1479-11.6596 86.3791-19.1429Q89.6102-26.6262 89.6102-35.1678Q89.6102-43.7094 86.3791-51.1927Q83.1479-58.6759 77.4367-64.3872Q71.7255-70.0984 64.2422-73.3238Q56.7589-76.5492 48.2058-76.5492Q39.6642-76.5492 32.1809-73.3238Q24.6976-70.0984 18.9979-64.3872Q13.2982-58.6759 10.0671-51.1927Q6.83594-43.7094 6.83594-35.1678Q6.83594-26.6262 10.0671-19.1429Q13.2982-11.6596 19.0037-5.94838Q24.7092-0.237157 32.1924 2.98823Q39.6757 6.21362 48.2173 6.21362ZM28.0155-22.874L28.0155-33.0478Q28.0155-35.3685 28.4536-36.8693Q28.8917-38.3701 30.0235-39.8811L31.6118-41.7223Q32.0743-43.8768 32.7321-45.8488Q33.39-47.8209 33.7921-48.6856Q34.5245-50.2481 35.9104-51.2131Q37.2962-52.1782 39.1259-52.4223Q40.2028-52.5573 42.5025-52.6305Q44.8021-52.7037 48.2289-52.7037Q51.6929-52.7037 54.0054-52.6305Q56.3179-52.5573 57.3576-52.4223Q59.1873-52.1782 60.5545-51.2131Q61.9216-50.2481 62.6914-48.6856Q63.105-47.8209 63.7629-45.8488Q64.4207-43.8768 64.8832-41.7223L66.4599-39.8811Q67.6406-38.3701 68.0356-36.8693Q68.4306-35.3685 68.4306-33.0478L68.4306-22.874Q68.4306-21.9232 67.7786-21.2712Q67.1265-20.6191 66.1385-20.6191L64.1277-20.6191Q63.1769-20.6191 62.5249-21.2712Q61.8728-21.9232 61.8728-22.874L61.8728-25.9014Q59.1927-25.706 55.4371-25.5897Q51.6814-25.4734 48.2289-25.4734Q44.7763-25.4734 41.0335-25.5897Q37.2907-25.706 34.6107-25.9014L34.6107-22.874Q34.6107-21.9232 33.9773-21.2712Q33.3439-20.6191 32.3558-20.6191L30.3077-20.6191Q29.3569-20.6191 28.6862-21.2712Q28.0155-21.9232 28.0155-22.874ZM37.7345-43.79Q37.3899-42.4635 38.8514-42.4865Q40.07-42.5211 42.1831-42.6001Q44.2962-42.6791 48.2289-42.6791Q52.1873-42.6791 54.319-42.6001Q56.4508-42.5211 57.6436-42.4865Q59.0793-42.4635 58.7232-43.79Q58.5795-44.5 58.2906-45.3968Q58.0017-46.2936 57.7976-46.6672Q57.407-47.4024 56.916-47.7211Q56.425-48.0399 55.5291-48.126Q54.9371-48.2467 53.1315-48.2769Q51.3259-48.3071 48.2289-48.3071Q45.1575-48.3071 43.352-48.2711Q41.5464-48.2352 40.9544-48.126Q40.0958-48.0399 39.5861-47.7211Q39.0765-47.4024 38.6858-46.6672Q38.4817-46.2821 38.1929-45.391Q37.904-44.5 37.7345-43.79ZM33.1601-33.2486Q33.1601-31.9791 34.039-31.1188Q34.9179-30.2586 36.1989-30.2586Q37.4312-30.2586 38.2914-31.1188Q39.1517-31.9791 39.1517-33.2486Q39.1517-34.5297 38.2914-35.3899Q37.4312-36.2502 36.1989-36.2502Q34.9179-36.2502 34.039-35.3899Q33.1601-34.5297 33.1601-33.2486ZM41.5218-33.2486Q41.5218-31.0887 43.6818-31.0887L52.7644-31.0887Q54.9617-31.0887 54.9617-33.2486Q54.9617-34.2252 54.3513-34.8355Q53.741-35.4459 52.7644-35.4459L43.6818-35.4459Q41.5218-35.4459 41.5218-33.2486ZM57.3318-33.2486Q57.3318-31.9791 58.1921-31.1188Q59.0523-30.2586 60.2845-30.2586Q61.5656-30.2586 62.4259-31.1188Q63.2861-31.9791 63.2861-33.2486Q63.2861-34.5297 62.4259-35.3899Q61.5656-36.2502 60.2845-36.2502Q59.0523-36.2502 58.1921-35.3899Q57.3318-34.5297 57.3318-33.2486Z"/>
  </g>
  <g id="Bold-S" transform="matrix(1 0 0 1 2292.43 696)">
   <path d="M47.5342 5.51758Q55.9326 5.51758 63.2935 2.34375Q70.6543-0.830078 76.2695-6.45752Q81.8848-12.085 85.0708-19.4458Q88.2568-26.8066 88.2568-35.1807Q88.2568-43.5547 85.0708-50.9155Q81.8848-58.2764 76.2573-63.9038Q70.6299-69.5312 63.269-72.7051Q55.9082-75.8789 47.5098-75.8789Q39.1357-75.8789 31.7749-72.7051Q24.4141-69.5312 18.811-63.9038Q13.208-58.2764 10.022-50.9155Q6.83594-43.5547 6.83594-35.1807Q6.83594-26.8066 10.022-19.4458Q13.208-12.085 18.8232-6.45752Q24.4385-0.830078 31.7993 2.34375Q39.1602 5.51758 47.5342 5.51758ZM26.8555-22.6807L26.8555-32.9834Q26.8555-35.2783 27.3193-36.792Q27.7832-38.3057 28.9795-39.8682L30.542-41.748Q31.0303-44.0186 31.7139-46.0938Q32.3975-48.1689 32.8125-49.0723Q33.5449-50.6348 34.9243-51.5869Q36.3037-52.5391 38.1592-52.7832Q39.1846-52.9053 41.626-52.9785Q44.0674-53.0518 47.5586-53.0518Q51.0742-53.0518 53.5156-52.9785Q55.957-52.9053 56.958-52.7832Q58.8135-52.5391 60.1807-51.5869Q61.5479-50.6348 62.3047-49.0723Q62.7441-48.1689 63.4277-46.0938Q64.1113-44.0186 64.5996-41.748L66.1377-39.8682Q67.3828-38.3057 67.8101-36.792Q68.2373-35.2783 68.2373-32.9834L68.2373-22.6807Q68.2373-21.7041 67.5659-21.0327Q66.8945-20.3613 65.8936-20.3613L63.8184-20.3613Q62.8418-20.3613 62.1704-21.0327Q61.499-21.7041 61.499-22.6807L61.499-25.708Q58.7158-25.5127 54.8828-25.4028Q51.0498-25.293 47.5586-25.293Q44.0674-25.293 40.2344-25.4028Q36.4014-25.5127 33.6182-25.708L33.6182-22.6807Q33.6182-21.7041 32.959-21.0327Q32.2998-20.3613 31.2988-20.3613L29.1992-20.3613Q28.2227-20.3613 27.5391-21.0327Q26.8555-21.7041 26.8555-22.6807ZM36.3037-43.7256Q36.0107-42.5537 37.3047-42.6025Q38.7939-42.6758 41.1133-42.7612Q43.4326-42.8467 47.5586-42.8467Q51.6846-42.8467 54.0161-42.7612Q56.3477-42.6758 57.8369-42.6025Q59.1309-42.5537 58.8135-43.7256Q58.6182-44.6289 58.252-45.7642Q57.8857-46.8994 57.6172-47.3633Q57.2266-48.0469 56.7871-48.3398Q56.3477-48.6328 55.542-48.7061Q54.834-48.8525 52.8931-48.8892Q50.9521-48.9258 47.5586-48.9258Q44.165-48.9258 42.2241-48.877Q40.2832-48.8281 39.5752-48.7061Q38.7939-48.6328 38.3423-48.3398Q37.8906-48.0469 37.5-47.3633Q37.2314-46.875 36.8652-45.752Q36.499-44.6289 36.3037-43.7256ZM32.1289-33.0811Q32.1289-31.8115 33.0078-30.9448Q33.8867-30.0781 35.1807-30.0781Q36.4258-30.0781 37.2925-30.9448Q38.1592-31.8115 38.1592-33.0811Q38.1592-34.375 37.2925-35.2417Q36.4258-36.1084 35.1807-36.1084Q33.8867-36.1084 33.0078-35.2417Q32.1289-34.375 32.1289-33.0811ZM40.7227-33.0811Q40.7227-30.9082 42.8955-30.9082L52.1973-30.9082Q54.3945-30.9082 54.3945-33.0811Q54.3945-34.0576 53.7842-34.668Q53.1738-35.2783 52.1973-35.2783L42.8955-35.2783Q40.7227-35.2783 40.7227-33.0811ZM56.958-33.0811Q56.958-31.8115 57.8247-30.9448Q58.6914-30.0781 59.9365-30.0781Q61.2305-30.0781 62.0972-30.9448Q62.9639-31.8115 62.9639-33.0811Q62.9639-34.375 62.0972-35.2417Q61.2305-36.1084 59.9365-36.1084Q58.6914-36.1084 57.8247-35.2417Q56.958-34.375 56.958-33.0811Z"/>
  </g>
  <g id="Semibold-S" transform="matrix(1 0 0 1 1996.19 696)">
   <path d="M47.0632 5.0377Q55.355 5.0377 62.6314 1.89941Q69.9078-1.23887 75.4608-6.80854Q81.0139-12.3782 84.1688-19.6546Q87.3237-26.9311 87.3237-35.1896Q87.3237-43.448 84.1688-50.7245Q81.0139-58.0009 75.4442-63.5706Q69.8745-69.1402 62.5981-72.2785Q55.3217-75.4168 47.0299-75.4168Q38.7714-75.4168 31.495-72.2785Q24.2186-69.1402 18.6822-63.5706Q13.1458-58.0009 9.99087-50.7245Q6.83594-43.448 6.83594-35.1896Q6.83594-26.9311 9.99087-19.6546Q13.1458-12.3782 18.6988-6.80854Q24.2519-1.23887 31.5283 1.89941Q38.8047 5.0377 47.0632 5.0377ZM26.0557-22.5474L26.0557-32.939Q26.0557-35.2161 26.5373-36.7387Q27.0189-38.2612 28.2597-39.8593L29.8044-41.7658Q30.3104-44.1163 31.0118-46.2626Q31.7132-48.4089 32.1371-49.3389Q32.8695-50.9014 34.2445-51.8446Q35.6194-52.7879 37.4927-53.032Q38.4825-53.1452 41.0217-53.2185Q43.5608-53.2917 47.0965-53.2917Q50.6477-53.2917 53.1779-53.2185Q55.7082-53.1452 56.6825-53.032Q58.5558-52.7879 59.9229-51.8446Q61.2901-50.9014 62.0381-49.3389Q62.4953-48.4089 63.1967-46.2626Q63.898-44.1163 64.4041-41.7658L65.9155-39.8593Q67.2051-38.2612 67.6545-36.7387Q68.104-35.2161 68.104-32.939L68.104-22.5474Q68.104-21.553 67.4193-20.8683Q66.7346-20.1836 65.7247-20.1836L63.6051-20.1836Q62.6107-20.1836 61.926-20.8683Q61.2413-21.553 61.2413-22.5474L61.2413-25.5747Q58.387-25.3794 54.5007-25.274Q50.6144-25.1686 47.0965-25.1686Q43.5786-25.1686 39.6834-25.274Q35.7882-25.3794 32.9339-25.5747L32.9339-22.5474Q32.9339-21.553 32.2569-20.8683Q31.58-20.1836 30.5701-20.1836L28.435-20.1836Q27.4406-20.1836 26.7481-20.8683Q26.0557-21.553 26.0557-22.5474ZM35.3173-43.6812Q35.0599-42.6159 36.2383-42.6825Q37.9142-42.7824 40.3757-42.8723Q42.8372-42.9622 47.0965-42.9622Q51.338-42.9622 53.8073-42.8723Q56.2766-42.7824 57.9702-42.6825Q59.1664-42.6159 58.8757-43.6812Q58.6448-44.7178 58.2253-46.0174Q57.8058-47.3171 57.4928-47.8432Q57.1021-48.4912 56.6982-48.7664Q56.2943-49.0416 55.5509-49.106Q54.7629-49.2702 52.7287-49.3113Q50.6944-49.3523 47.0965-49.3523Q43.4808-49.3523 41.4465-49.2946Q39.4123-49.2369 38.6243-49.106Q37.8964-49.0416 37.4847-48.7664Q37.073-48.4912 36.6824-47.8432Q36.3694-47.2838 35.9499-46.0008Q35.5304-44.7178 35.3173-43.6812ZM31.418-32.9655Q31.418-31.696 32.2969-30.8249Q33.1758-29.9537 34.4786-29.9537Q35.7326-29.9537 36.6038-30.8249Q37.4749-31.696 37.4749-32.9655Q37.4749-34.2684 36.6038-35.1395Q35.7326-36.0106 34.4786-36.0106Q33.1758-36.0106 32.2969-35.1395Q31.418-34.2684 31.418-32.9655ZM40.1717-32.9655Q40.1717-30.7838 42.3534-30.7838L51.8062-30.7838Q54.0035-30.7838 54.0035-32.9655Q54.0035-33.9421 53.3932-34.5524Q52.7828-35.1628 51.8062-35.1628L42.3534-35.1628Q40.1717-35.1628 40.1717-32.9655ZM56.7003-32.9655Q56.7003-31.696 57.5714-30.8249Q58.4426-29.9537 59.6966-29.9537Q60.9994-29.9537 61.8706-30.8249Q62.7417-31.696 62.7417-32.9655Q62.7417-34.2684 61.8706-35.1395Q60.9994-36.0106 59.6966-36.0106Q58.4426-36.0106 57.5714-35.1395Q56.7003-34.2684 56.7003-32.9655Z"/>
  </g>
  <g id="Medium-S" transform="matrix(1 0 0 1 1699.83 696)">
   <path d="M46.7061 4.67383Q54.917 4.67383 62.1294 1.5625Q69.3418-1.54883 74.8477-7.07471Q80.3535-12.6006 83.4849-19.813Q86.6162-27.0254 86.6162-35.1963Q86.6162-43.3672 83.4849-50.5796Q80.3535-57.792 74.8276-63.3179Q69.3018-68.8438 62.0894-71.9551Q54.877-75.0664 46.666-75.0664Q38.4951-75.0664 31.2827-71.9551Q24.0703-68.8438 18.5845-63.3179Q13.0986-57.792 9.96729-50.5796Q6.83594-43.3672 6.83594-35.1963Q6.83594-27.0254 9.96729-19.813Q13.0986-12.6006 18.6045-7.07471Q24.1104-1.54883 31.3228 1.5625Q38.5352 4.67383 46.7061 4.67383ZM25.4492-22.4463L25.4492-32.9053Q25.4492-35.1689 25.9443-36.6982Q26.4395-38.2275 27.7139-39.8525L29.2451-41.7793Q29.7646-44.1904 30.4795-46.3906Q31.1943-48.5908 31.625-49.541Q32.3574-51.1035 33.729-52.04Q35.1006-52.9766 36.9873-53.2207Q37.9502-53.3271 40.5635-53.4004Q43.1768-53.4736 46.7461-53.4736Q50.3242-53.4736 52.9219-53.4004Q55.5195-53.3271 56.4736-53.2207Q58.3604-52.9766 59.7275-52.04Q61.0947-51.1035 61.8359-49.541Q62.3066-48.5908 63.0215-46.3906Q63.7363-44.1904 64.2559-41.7793L65.7471-39.8525Q67.0703-38.2275 67.5366-36.6982Q68.0029-35.1689 68.0029-32.9053L68.0029-22.4463Q68.0029-21.4385 67.3081-20.7437Q66.6133-20.0488 65.5967-20.0488L63.4434-20.0488Q62.4355-20.0488 61.7407-20.7437Q61.0459-21.4385 61.0459-22.4463L61.0459-25.4736Q58.1377-25.2783 54.2109-25.1763Q50.2842-25.0742 46.7461-25.0742Q43.208-25.0742 39.2656-25.1763Q35.3232-25.2783 32.415-25.4736L32.415-22.4463Q32.415-21.4385 31.7246-20.7437Q31.0342-20.0488 30.0176-20.0488L27.8555-20.0488Q26.8477-20.0488 26.1484-20.7437Q25.4492-21.4385 25.4492-22.4463ZM34.5693-43.6475Q34.3389-42.6631 35.4297-42.7432Q37.2471-42.8633 39.8164-42.9565Q42.3857-43.0498 46.7461-43.0498Q51.0752-43.0498 53.6489-42.9565Q56.2227-42.8633 58.0713-42.7432Q59.1934-42.6631 58.9229-43.6475Q58.665-44.7852 58.2051-46.2095Q57.7451-47.6338 57.3984-48.207Q57.0078-48.8281 56.6309-49.0898Q56.2539-49.3516 55.5576-49.4092Q54.709-49.5869 52.604-49.6313Q50.499-49.6758 46.7461-49.6758Q42.9619-49.6758 40.8569-49.6113Q38.752-49.5469 37.9033-49.4092Q37.2158-49.3516 36.8345-49.0898Q36.4531-48.8281 36.0625-48.207Q35.7158-47.5938 35.2559-46.1895Q34.7959-44.7852 34.5693-43.6475ZM30.8789-32.8779Q30.8789-31.6084 31.7578-30.7339Q32.6367-29.8594 33.9463-29.8594Q35.207-29.8594 36.0815-30.7339Q36.9561-31.6084 36.9561-32.8779Q36.9561-34.1875 36.0815-35.062Q35.207-35.9365 33.9463-35.9365Q32.6367-35.9365 31.7578-35.062Q30.8789-34.1875 30.8789-32.8779ZM39.7539-32.8779Q39.7539-30.6895 41.9424-30.6895L51.5098-30.6895Q53.707-30.6895 53.707-32.8779Q53.707-33.8545 53.0967-34.4648Q52.4863-35.0752 51.5098-35.0752L41.9424-35.0752Q39.7539-35.0752 39.7539-32.8779ZM56.5049-32.8779Q56.5049-31.6084 57.3794-30.7339Q58.2539-29.8594 59.5146-29.8594Q60.8242-29.8594 61.6987-30.7339Q62.5732-31.6084 62.5732-32.8779Q62.5732-34.1875 61.6987-35.062Q60.8242-35.9365 59.5146-35.9365Q58.2539-35.9365 57.3794-35.062Q56.5049-34.1875 56.5049-32.8779Z"/>
  </g>
  <g id="Regular-S" transform="matrix(1 0 0 1 1403.58 696)">
   <path d="M46.2402 4.19922Q54.3457 4.19922 61.4746 1.12305Q68.6035-1.95312 74.0479-7.42188Q79.4922-12.8906 82.5928-20.0195Q85.6934-27.1484 85.6934-35.2051Q85.6934-43.2617 82.5928-50.3906Q79.4922-57.5195 74.0234-62.9883Q68.5547-68.457 61.4258-71.5332Q54.2969-74.6094 46.1914-74.6094Q38.1348-74.6094 31.0059-71.5332Q23.877-68.457 18.457-62.9883Q13.0371-57.5195 9.93652-50.3906Q6.83594-43.2617 6.83594-35.2051Q6.83594-27.1484 9.93652-20.0195Q13.0371-12.8906 18.4814-7.42188Q23.9258-1.95312 31.0547 1.12305Q38.1836 4.19922 46.2402 4.19922ZM24.6582-22.3145L24.6582-32.8613Q24.6582-35.1074 25.1709-36.6455Q25.6836-38.1836 27.002-39.8438L28.5156-41.7969Q29.0527-44.2871 29.7852-46.5576Q30.5176-48.8281 30.957-49.8047Q31.6895-51.3672 33.0566-52.2949Q34.4238-53.2227 36.3281-53.4668Q37.2559-53.5645 39.9658-53.6377Q42.6758-53.7109 46.2891-53.7109Q49.9023-53.7109 52.5879-53.6377Q55.2734-53.5645 56.2012-53.4668Q58.1055-53.2227 59.4727-52.2949Q60.8398-51.3672 61.5723-49.8047Q62.0605-48.8281 62.793-46.5576Q63.5254-44.2871 64.0625-41.7969L65.5273-39.8438Q66.8945-38.1836 67.3828-36.6455Q67.8711-35.1074 67.8711-32.8613L67.8711-22.3145Q67.8711-21.2891 67.1631-20.5811Q66.4551-19.873 65.4297-19.873L63.2324-19.873Q62.207-19.873 61.499-20.5811Q60.791-21.2891 60.791-22.3145L60.791-25.3418Q57.8125-25.1465 53.833-25.0488Q49.8535-24.9512 46.2891-24.9512Q42.7246-24.9512 38.7207-25.0488Q34.7168-25.1465 31.7383-25.3418L31.7383-22.3145Q31.7383-21.2891 31.0303-20.5811Q30.3223-19.873 29.2969-19.873L27.0996-19.873Q26.0742-19.873 25.3662-20.5811Q24.6582-21.2891 24.6582-22.3145ZM33.5938-43.6035Q33.3984-42.7246 34.375-42.8223Q36.377-42.9688 39.0869-43.0664Q41.7969-43.1641 46.2891-43.1641Q50.7324-43.1641 53.4424-43.0664Q56.1523-42.9688 58.2031-42.8223Q59.2285-42.7246 58.9844-43.6035Q58.6914-44.873 58.1787-46.46Q57.666-48.0469 57.2754-48.6816Q56.8848-49.2676 56.543-49.5117Q56.2012-49.7559 55.5664-49.8047Q54.6387-50 52.4414-50.0488Q50.2441-50.0977 46.2891-50.0977Q42.2852-50.0977 40.0879-50.0244Q37.8906-49.9512 36.9629-49.8047Q36.3281-49.7559 35.9863-49.5117Q35.6445-49.2676 35.2539-48.6816Q34.8633-47.998 34.3506-46.4355Q33.8379-44.873 33.5938-43.6035ZM30.1758-32.7637Q30.1758-31.4941 31.0547-30.6152Q31.9336-29.7363 33.252-29.7363Q34.5215-29.7363 35.4004-30.6152Q36.2793-31.4941 36.2793-32.7637Q36.2793-34.082 35.4004-34.9609Q34.5215-35.8398 33.252-35.8398Q31.9336-35.8398 31.0547-34.9609Q30.1758-34.082 30.1758-32.7637ZM39.209-32.7637Q39.209-30.5664 41.4062-30.5664L51.123-30.5664Q53.3203-30.5664 53.3203-32.7637Q53.3203-33.7402 52.71-34.3506Q52.0996-34.9609 51.123-34.9609L41.4062-34.9609Q39.209-34.9609 39.209-32.7637ZM56.25-32.7637Q56.25-31.4941 57.1289-30.6152Q58.0078-29.7363 59.2773-29.7363Q60.5957-29.7363 61.4746-30.6152Q62.3535-31.4941 62.3535-32.7637Q62.3535-34.082 61.4746-34.9609Q60.5957-35.8398 59.2773-35.8398Q58.0078-35.8398 57.1289-34.9609Q56.25-34.082 56.25-32.7637Z"/>
  </g>
  <g id="Light-S" transform="matrix(1 0 0 1 1107.6 696)">
   <path d="M45.5078 3.4668Q53.4831 3.4668 60.4736 0.455729Q67.4642-2.55534 72.8109-7.91829Q78.1576-13.2812 81.193-20.2718Q84.2285-27.2624 84.2285-35.2051Q84.2285-43.1478 81.193-50.1383Q78.1576-57.1289 72.7946-62.4919Q67.4316-67.8548 60.4411-70.8659Q53.4505-73.877 45.4753-73.877Q37.5488-73.877 30.5501-70.8659Q23.5514-67.8548 18.2292-62.4919Q12.9069-57.1289 9.87142-50.1383Q6.83594-43.1478 6.83594-35.2051Q6.83594-27.2624 9.87142-20.2718Q12.9069-13.2812 18.2454-7.91829Q23.584-2.55534 30.5827 0.455729Q37.5814 3.4668 45.5078 3.4668ZM23.9095-21.9238L23.9095-32.3568Q23.9095-34.7331 24.4548-36.2467Q25-37.7604 26.237-39.3066L27.8158-41.3574Q28.3529-43.8965 29.1097-46.224Q29.8665-48.5514 30.3223-49.5605Q31.0547-51.1393 32.4219-52.0182Q33.7891-52.8971 35.5794-53.1413Q36.5234-53.2389 39.3066-53.3122Q42.0898-53.3854 45.5566-53.3854Q49.0397-53.3854 51.8066-53.3122Q54.5736-53.2389 55.5176-53.1413Q57.2917-52.8971 58.6589-52.0182Q60.026-51.1393 60.7747-49.5605Q61.263-48.5514 62.0199-46.224Q62.7767-43.8965 63.3138-41.3574L64.86-39.3066Q66.1296-37.7604 66.6585-36.2467Q67.1875-34.7331 67.1875-32.3568L67.1875-21.9238Q67.1875-20.9147 66.4876-20.2148Q65.7878-19.515 64.7624-19.515L62.5977-19.515Q61.5723-19.515 60.8643-20.2148Q60.1562-20.9147 60.1562-21.9238L60.1562-24.9512Q57.1452-24.7721 53.1169-24.6582Q49.0885-24.5443 45.5566-24.5443Q42.041-24.5443 37.9964-24.6582Q33.9518-24.7721 30.9082-24.9512L30.9082-21.9238Q30.9082-20.9147 30.2083-20.2148Q29.5085-19.515 28.4993-19.515L26.3184-19.515Q25.3092-19.515 24.6094-20.2148Q23.9095-20.9147 23.9095-21.9238ZM32.1777-43.0339Q31.9824-42.1549 32.9427-42.2363Q35.14-42.3991 37.972-42.4967Q40.804-42.5944 45.5566-42.5944Q50.293-42.5944 53.125-42.4967Q55.957-42.3991 58.1868-42.2363Q59.1797-42.1549 58.9518-43.0339Q58.5938-44.5638 58.0648-46.1751Q57.5358-47.7865 57.1126-48.4701Q56.6895-49.1211 56.2337-49.4629Q55.778-49.8047 54.9479-49.8861Q53.9551-50.0651 51.652-50.1139Q49.349-50.1628 45.5566-50.1628Q41.748-50.1628 39.445-50.0977Q37.1419-50.0326 36.1328-49.8861Q35.319-49.8047 34.847-49.4629Q34.375-49.1211 33.9681-48.4701Q33.5612-47.7539 33.0322-46.1589Q32.5033-44.5638 32.1777-43.0339ZM29.3783-32.3405Q29.3783-31.1523 30.2002-30.3385Q31.0221-29.5247 32.2428-29.5247Q33.4473-29.5247 34.2529-30.3385Q35.0586-31.1523 35.0586-32.3405Q35.0586-33.5612 34.2529-34.3831Q33.4473-35.2051 32.2428-35.2051Q31.0221-35.2051 30.2002-34.3831Q29.3783-33.5612 29.3783-32.3405ZM38.7044-32.1777Q38.7044-30.1432 40.7389-30.1432L50.3418-30.1432Q52.3926-30.1432 52.3926-32.1777Q52.3926-33.0892 51.8229-33.6507Q51.2533-34.2122 50.3418-34.2122L40.7389-34.2122Q38.7044-34.2122 38.7044-32.1777ZM56.0384-32.3405Q56.0384-31.1523 56.8522-30.3385Q57.666-29.5247 58.8542-29.5247Q60.0749-29.5247 60.8968-30.3385Q61.7188-31.1523 61.7188-32.3405Q61.7188-33.5612 60.8968-34.3831Q60.0749-35.2051 58.8542-35.2051Q57.666-35.2051 56.8522-34.3831Q56.0384-33.5612 56.0384-32.3405Z"/>
  </g>
  <g id="Thin-S" transform="matrix(1 0 0 1 811.859 696)">
   <path d="M44.5391 2.49811Q52.3422 2.49811 59.1498-0.426852Q65.9573-3.35181 71.1749-8.57485Q76.3924-13.7979 79.3418-20.6055Q82.2911-27.4131 82.2911-35.2051Q82.2911-42.9971 79.3418-49.8047Q76.3924-56.6123 71.1694-61.8353Q65.9463-67.0583 59.1387-69.9833Q52.3311-72.9083 44.5281-72.9083Q36.7739-72.9083 29.9474-69.9833Q23.1209-67.0583 17.9278-61.8353Q12.7347-56.6123 9.78531-49.8047Q6.83594-42.9971 6.83594-35.2051Q6.83594-27.4131 9.78531-20.6055Q12.7347-13.7979 17.9333-8.57485Q23.1319-3.35181 29.9584-0.426852Q36.7849 2.49811 44.5391 2.49811ZM22.9193-21.4072L22.9193-31.6895Q22.9193-34.238 23.5076-35.7193Q24.0959-37.2007 25.2252-38.5963L26.8901-40.7762Q27.4272-43.3799 28.2164-45.7827Q29.0055-48.1855 29.4827-49.2377Q30.2152-50.838 31.5823-51.6523Q32.9495-52.4666 34.5892-52.7107Q35.5548-52.8084 38.4348-52.8816Q41.3149-52.9549 44.588-52.9549Q47.8988-52.9549 50.7734-52.8816Q53.6479-52.8084 54.6135-52.7107Q56.2153-52.4666 57.5825-51.6523Q58.9497-50.838 59.7199-49.2377Q60.2082-48.1855 60.9974-45.7827Q61.7865-43.3799 62.3236-40.7762L63.9774-38.5963Q65.1178-37.2007 65.7006-35.7193Q66.2834-34.238 66.2834-31.6895L66.2834-21.4072Q66.2834-20.4196 65.5943-19.7305Q64.9052-19.0414 63.8798-19.0414L61.7581-19.0414Q60.7327-19.0414 60.0247-19.7305Q59.3167-20.4196 59.3167-21.4072L59.3167-24.4345Q56.2626-24.277 52.1697-24.1416Q48.0768-24.0061 44.588-24.0061Q41.1369-24.0061 37.0385-24.1416Q32.9401-24.277 29.8104-24.4345L29.8104-21.4072Q29.8104-20.4196 29.1213-19.7305Q28.4321-19.0414 27.4446-19.0414L25.2851-19.0414Q24.2975-19.0414 23.6084-19.7305Q22.9193-20.4196 22.9193-21.4072ZM30.3049-42.2804Q30.1096-41.4015 31.0484-41.4614Q33.504-41.6457 36.4974-41.7433Q39.4909-41.841 44.588-41.841Q49.7118-41.841 52.7052-41.7433Q55.6987-41.6457 58.1653-41.4614Q59.1151-41.4015 58.9088-42.2804Q58.4646-44.1548 57.9141-45.7984Q57.3636-47.442 56.8974-48.1902Q56.4311-48.9274 55.8247-49.3983Q55.2183-49.8693 54.1299-49.9937Q53.051-50.1512 50.608-50.2Q48.165-50.2489 44.588-50.2489Q41.0377-50.2489 38.5947-50.1945Q36.1517-50.1402 35.035-49.9937Q33.9844-49.8693 33.3402-49.3983Q32.6959-48.9274 32.2675-48.1902Q31.8391-47.431 31.2886-45.7929Q30.7381-44.1548 30.3049-42.2804ZM28.3235-31.7808Q28.3235-30.7003 29.0701-29.9726Q29.8167-29.2449 30.9082-29.2449Q32.0265-29.2449 32.7353-29.9726Q33.4441-30.7003 33.4441-31.7808Q33.4441-32.8724 32.7353-33.619Q32.0265-34.3655 30.9082-34.3655Q29.8167-34.3655 29.0701-33.619Q28.3235-32.8724 28.3235-31.7808ZM38.0371-31.4028Q38.0371-29.5835 39.8564-29.5835L49.3085-29.5835Q51.1656-29.5835 51.1656-31.4028Q51.1656-32.2281 50.6497-32.7251Q50.1339-33.222 49.3085-33.222L39.8564-33.222Q38.0371-33.222 38.0371-31.4028ZM55.7586-31.7808Q55.7586-30.7003 56.4863-29.9726Q57.214-29.2449 58.2945-29.2449Q59.386-29.2449 60.1326-29.9726Q60.8792-30.7003 60.8792-31.7808Q60.8792-32.8724 60.1326-33.619Q59.386-34.3655 58.2945-34.3655Q57.214-34.3655 56.4863-33.619Q55.7586-32.8724 55.7586-31.7808Z"/>
  </g>
  <g id="Ultralight-S" transform="matrix(1 0 0 1 515.644 696)">
   <path d="M44.043 2.00195Q51.7578 2.00195 58.4717-0.878906Q65.1855-3.75977 70.3369-8.91113Q75.4883-14.0625 78.3936-20.7764Q81.2988-27.4902 81.2988-35.2051Q81.2988-42.9199 78.3936-49.6338Q75.4883-56.3477 70.3369-61.499Q65.1855-66.6504 58.4717-69.5312Q51.7578-72.4121 44.043-72.4121Q36.377-72.4121 29.6387-69.5312Q22.9004-66.6504 17.7734-61.499Q12.6465-56.3477 9.74121-49.6338Q6.83594-42.9199 6.83594-35.2051Q6.83594-27.4902 9.74121-20.7764Q12.6465-14.0625 17.7734-8.91113Q22.9004-3.75977 29.6387-0.878906Q36.377 2.00195 44.043 2.00195ZM22.4121-21.1426L22.4121-31.3477Q22.4121-33.9844 23.0225-35.4492Q23.6328-36.9141 24.707-38.2324L26.416-40.4785Q26.9531-43.1152 27.7588-45.5566Q28.5645-47.998 29.0527-49.0723Q29.7852-50.6836 31.1523-51.4648Q32.5195-52.2461 34.082-52.4902Q35.0586-52.5879 37.9883-52.6611Q40.918-52.7344 44.0918-52.7344Q47.3145-52.7344 50.2441-52.6611Q53.1738-52.5879 54.1504-52.4902Q55.6641-52.2461 57.0312-51.4648Q58.3984-50.6836 59.1797-49.0723Q59.668-47.998 60.4736-45.5566Q61.2793-43.1152 61.8164-40.4785L63.5254-38.2324Q64.5996-36.9141 65.21-35.4492Q65.8203-33.9844 65.8203-31.3477L65.8203-21.1426Q65.8203-20.166 65.1367-19.4824Q64.4531-18.7988 63.4277-18.7988L61.3281-18.7988Q60.3027-18.7988 59.5947-19.4824Q58.8867-20.166 58.8867-21.1426L58.8867-24.1699Q55.8105-24.0234 51.6846-23.877Q47.5586-23.7305 44.0918-23.7305Q40.6738-23.7305 36.5479-23.877Q32.4219-24.0234 29.248-24.1699L29.248-21.1426Q29.248-20.166 28.5645-19.4824Q27.8809-18.7988 26.9043-18.7988L24.7559-18.7988Q23.7793-18.7988 23.0957-19.4824Q22.4121-20.166 22.4121-21.1426ZM29.3457-41.8945Q29.1504-41.0156 30.0781-41.0645Q32.666-41.2598 35.7422-41.3574Q38.8184-41.4551 44.0918-41.4551Q49.4141-41.4551 52.4902-41.3574Q55.5664-41.2598 58.1543-41.0645Q59.082-41.0156 58.8867-41.8945Q58.3984-43.9453 57.8369-45.6055Q57.2754-47.2656 56.7871-48.0469Q56.2988-48.8281 55.6152-49.3652Q54.9316-49.9023 53.7109-50.0488Q52.5879-50.1953 50.0732-50.2441Q47.5586-50.293 44.0918-50.293Q40.6738-50.293 38.1592-50.2441Q35.6445-50.1953 34.4727-50.0488Q33.3008-49.9023 32.5684-49.3652Q31.8359-48.8281 31.3965-48.0469Q30.957-47.2656 30.3955-45.6055Q29.834-43.9453 29.3457-41.8945ZM27.7832-31.4941Q27.7832-30.4688 28.4912-29.7852Q29.1992-29.1016 30.2246-29.1016Q31.2988-29.1016 31.958-29.7852Q32.6172-30.4688 32.6172-31.4941Q32.6172-32.5195 31.958-33.2275Q31.2988-33.9355 30.2246-33.9355Q29.1992-33.9355 28.4912-33.2275Q27.7832-32.5195 27.7832-31.4941ZM37.6953-31.0059Q37.6953-29.2969 39.4043-29.2969L48.7793-29.2969Q50.5371-29.2969 50.5371-31.0059Q50.5371-31.7871 50.0488-32.251Q49.5605-32.7148 48.7793-32.7148L39.4043-32.7148Q37.6953-32.7148 37.6953-31.0059ZM55.6152-31.4941Q55.6152-30.4688 56.2988-29.7852Q56.9824-29.1016 58.0078-29.1016Q59.0332-29.1016 59.7412-29.7852Q60.4492-30.4688 60.4492-31.4941Q60.4492-32.5195 59.7412-33.2275Q59.0332-33.9355 58.0078-33.9355Q56.9824-33.9355 56.2988-33.2275Q55.6152-32.5195 55.6152-31.4941Z"/>
  </g>
 </g>
</svg>
