<?xml version="1.0" encoding="UTF-8"?>
<!--Generator: Apple Native CoreSVG 175-->
<!DOCTYPE svg
PUBLIC "-//W3C//DTD SVG 1.1//EN"
       "http://www.w3.org/Graphics/SVG/1.1/DTD/svg11.dtd">
<svg version="1.1" xmlns="http://www.w3.org/2000/svg" xmlns:xlink="http://www.w3.org/1999/xlink" width="3300" height="2200">
 <!--glyph: "uni100E3A.medium", point size: 100.0, font version: "17.1d1e1", template writer version: "65.1"-->
 <g id="Notes">
  <rect height="2200" id="artboard" style="fill:white;opacity:1" width="3300" x="0" y="0"/>
  <line style="fill:none;stroke:black;opacity:1;stroke-width:0.5;" x1="263" x2="3036" y1="292" y2="292"/>
  <text style="stroke:none;fill:black;font-family:sans-serif;font-size:13;font-weight:bold;" transform="matrix(1 0 0 1 263 322)">Weight/Scale Variations</text>
  <text style="stroke:none;fill:black;font-family:sans-serif;font-size:13;text-anchor:middle;" transform="matrix(1 0 0 1 559.711 322)">Ultralight</text>
  <text style="stroke:none;fill:black;font-family:sans-serif;font-size:13;text-anchor:middle;" transform="matrix(1 0 0 1 856.422 322)">Thin</text>
  <text style="stroke:none;fill:black;font-family:sans-serif;font-size:13;text-anchor:middle;" transform="matrix(1 0 0 1 1153.13 322)">Light</text>
  <text style="stroke:none;fill:black;font-family:sans-serif;font-size:13;text-anchor:middle;" transform="matrix(1 0 0 1 1449.84 322)">Regular</text>
  <text style="stroke:none;fill:black;font-family:sans-serif;font-size:13;text-anchor:middle;" transform="matrix(1 0 0 1 1746.56 322)">Medium</text>
  <text style="stroke:none;fill:black;font-family:sans-serif;font-size:13;text-anchor:middle;" transform="matrix(1 0 0 1 2043.27 322)">Semibold</text>
  <text style="stroke:none;fill:black;font-family:sans-serif;font-size:13;text-anchor:middle;" transform="matrix(1 0 0 1 2339.98 322)">Bold</text>
  <text style="stroke:none;fill:black;font-family:sans-serif;font-size:13;text-anchor:middle;" transform="matrix(1 0 0 1 2636.69 322)">Heavy</text>
  <text style="stroke:none;fill:black;font-family:sans-serif;font-size:13;text-anchor:middle;" transform="matrix(1 0 0 1 2933.4 322)">Black</text>
  <line style="fill:none;stroke:black;opacity:1;stroke-width:0.5;" x1="263" x2="3036" y1="1903" y2="1903"/>
  <g transform="matrix(1 0 0 1 263 1933)">
   <path d="M9.24805 0.830078Q10.8691 0.830078 12.2949 0.214844Q13.7207-0.400391 14.8096-1.49414Q15.8984-2.58789 16.5186-4.01367Q17.1387-5.43945 17.1387-7.05078Q17.1387-8.66211 16.5186-10.0879Q15.8984-11.5137 14.8047-12.6074Q13.7109-13.7012 12.2852-14.3164Q10.8594-14.9316 9.23828-14.9316Q7.62695-14.9316 6.20117-14.3164Q4.77539-13.7012 3.69141-12.6074Q2.60742-11.5137 1.9873-10.0879Q1.36719-8.66211 1.36719-7.05078Q1.36719-5.43945 1.9873-4.01367Q2.60742-2.58789 3.69629-1.49414Q4.78516-0.400391 6.21094 0.214844Q7.63672 0.830078 9.24805 0.830078ZM9.24805-0.654297Q7.91992-0.654297 6.7627-1.14746Q5.60547-1.64062 4.73145-2.51953Q3.85742-3.39844 3.36426-4.56055Q2.87109-5.72266 2.87109-7.05078Q2.87109-8.37891 3.35938-9.54102Q3.84766-10.7031 4.72168-11.582Q5.5957-12.4609 6.75293-12.9541Q7.91016-13.4473 9.23828-13.4473Q10.5762-13.4473 11.7334-12.9541Q12.8906-12.4609 13.7695-11.582Q14.6484-10.7031 15.1465-9.54102Q15.6445-8.37891 15.6445-7.05078Q15.6445-5.72266 15.1514-4.56055Q14.6582-3.39844 13.7842-2.51953Q12.9102-1.64062 11.748-1.14746Q10.5859-0.654297 9.24805-0.654297ZM5.6543-7.05078Q5.6543-6.72852 5.85938-6.52832Q6.06445-6.32812 6.40625-6.32812L8.51562-6.32812L8.51562-4.20898Q8.51562-3.88672 8.71094-3.67676Q8.90625-3.4668 9.23828-3.4668Q9.56055-3.4668 9.77051-3.67676Q9.98047-3.88672 9.98047-4.20898L9.98047-6.32812L12.0898-6.32812Q12.4219-6.32812 12.627-6.52832Q12.832-6.72852 12.832-7.05078Q12.832-7.38281 12.627-7.58789Q12.4219-7.79297 12.0898-7.79297L9.98047-7.79297L9.98047-9.90234Q9.98047-10.2344 9.77051-10.4443Q9.56055-10.6543 9.23828-10.6543Q8.90625-10.6543 8.71094-10.4443Q8.51562-10.2344 8.51562-9.90234L8.51562-7.79297L6.40625-7.79297Q6.06445-7.79297 5.85938-7.58789Q5.6543-7.38281 5.6543-7.05078Z"/>
  </g>
  <g transform="matrix(1 0 0 1 281.867 1933)">
   <path d="M11.709 2.91016Q13.75 2.91016 15.5518 2.12891Q17.3535 1.34766 18.7305-0.0292969Q20.1074-1.40625 20.8887-3.20801Q21.6699-5.00977 21.6699-7.05078Q21.6699-9.0918 20.8887-10.8936Q20.1074-12.6953 18.7305-14.0723Q17.3535-15.4492 15.5469-16.2305Q13.7402-17.0117 11.6992-17.0117Q9.6582-17.0117 7.85645-16.2305Q6.05469-15.4492 4.68262-14.0723Q3.31055-12.6953 2.5293-10.8936Q1.74805-9.0918 1.74805-7.05078Q1.74805-5.00977 2.5293-3.20801Q3.31055-1.40625 4.6875-0.0292969Q6.06445 1.34766 7.86621 2.12891Q9.66797 2.91016 11.709 2.91016ZM11.709 1.25Q9.98047 1.25 8.47656 0.605469Q6.97266-0.0390625 5.83496-1.17676Q4.69727-2.31445 4.05762-3.81836Q3.41797-5.32227 3.41797-7.05078Q3.41797-8.7793 4.05762-10.2832Q4.69727-11.7871 5.83008-12.9297Q6.96289-14.0723 8.4668-14.7119Q9.9707-15.3516 11.6992-15.3516Q13.4277-15.3516 14.9316-14.7119Q16.4355-14.0723 17.5781-12.9297Q18.7207-11.7871 19.3652-10.2832Q20.0098-8.7793 20.0098-7.05078Q20.0098-5.32227 19.3701-3.81836Q18.7305-2.31445 17.5928-1.17676Q16.4551-0.0390625 14.9463 0.605469Q13.4375 1.25 11.709 1.25ZM7.17773-7.05078Q7.17773-6.69922 7.41211-6.47461Q7.64648-6.25 8.01758-6.25L10.8887-6.25L10.8887-3.36914Q10.8887-2.99805 11.1133-2.76855Q11.3379-2.53906 11.6895-2.53906Q12.0605-2.53906 12.29-2.76855Q12.5195-2.99805 12.5195-3.36914L12.5195-6.25L15.4004-6.25Q15.7715-6.25 16.001-6.47461Q16.2305-6.69922 16.2305-7.05078Q16.2305-7.42188 16.001-7.65137Q15.7715-7.88086 15.4004-7.88086L12.5195-7.88086L12.5195-10.752Q12.5195-11.1328 12.29-11.3623Q12.0605-11.5918 11.6895-11.5918Q11.3379-11.5918 11.1133-11.3574Q10.8887-11.123 10.8887-10.752L10.8887-7.88086L8.01758-7.88086Q7.63672-7.88086 7.40723-7.65137Q7.17773-7.42188 7.17773-7.05078Z"/>
  </g>
  <g transform="matrix(1 0 0 1 305.646 1933)">
   <path d="M14.9707 5.66406Q17.0605 5.66406 18.96 5.01465Q20.8594 4.36523 22.4512 3.19336Q24.043 2.02148 25.2197 0.429688Q26.3965-1.16211 27.0459-3.06641Q27.6953-4.9707 27.6953-7.05078Q27.6953-9.14062 27.0459-11.04Q26.3965-12.9395 25.2197-14.5312Q24.043-16.123 22.4512-17.2998Q20.8594-18.4766 18.9551-19.126Q17.0508-19.7754 14.9609-19.7754Q12.8711-19.7754 10.9717-19.126Q9.07227-18.4766 7.48535-17.2998Q5.89844-16.123 4.72168-14.5312Q3.54492-12.9395 2.90039-11.04Q2.25586-9.14062 2.25586-7.05078Q2.25586-4.9707 2.90527-3.06641Q3.55469-1.16211 4.72656 0.429688Q5.89844 2.02148 7.49023 3.19336Q9.08203 4.36523 10.9814 5.01465Q12.8809 5.66406 14.9707 5.66406ZM14.9707 3.84766Q13.1641 3.84766 11.5283 3.2959Q9.89258 2.74414 8.53516 1.74805Q7.17773 0.751953 6.17676-0.610352Q5.17578-1.97266 4.62891-3.6084Q4.08203-5.24414 4.08203-7.05078Q4.08203-8.86719 4.62891-10.5029Q5.17578-12.1387 6.17188-13.501Q7.16797-14.8633 8.52539-15.8594Q9.88281-16.8555 11.5186-17.4023Q13.1543-17.9492 14.9609-17.9492Q16.7773-17.9492 18.4131-17.4023Q20.0488-16.8555 21.4111-15.8594Q22.7734-14.8633 23.7695-13.501Q24.7656-12.1387 25.3174-10.5029Q25.8691-8.86719 25.8691-7.05078Q25.8789-5.24414 25.332-3.6084Q24.7852-1.97266 23.7842-0.610352Q22.7832 0.751953 21.4209 1.74805Q20.0586 2.74414 18.4229 3.2959Q16.7871 3.84766 14.9707 3.84766ZM9.19922-7.05078Q9.19922-6.66992 9.45801-6.4209Q9.7168-6.17188 10.1172-6.17188L14.0625-6.17188L14.0625-2.2168Q14.0625-1.81641 14.3115-1.55762Q14.5605-1.29883 14.9512-1.29883Q15.3516-1.29883 15.6104-1.55273Q15.8691-1.80664 15.8691-2.2168L15.8691-6.17188L19.8242-6.17188Q20.2246-6.17188 20.4785-6.4209Q20.7324-6.66992 20.7324-7.05078Q20.7324-7.46094 20.4785-7.71484Q20.2246-7.96875 19.8242-7.96875L15.8691-7.96875L15.8691-11.9141Q15.8691-12.3242 15.6104-12.583Q15.3516-12.8418 14.9512-12.8418Q14.5605-12.8418 14.3115-12.583Q14.0625-12.3242 14.0625-11.9141L14.0625-7.96875L10.1172-7.96875Q9.70703-7.96875 9.45312-7.71484Q9.19922-7.46094 9.19922-7.05078Z"/>
  </g>
  <text style="stroke:none;fill:black;font-family:sans-serif;font-size:13;font-weight:bold;" transform="matrix(1 0 0 1 263 1953)">Design Variations</text>
  <text style="stroke:none;fill:black;font-family:sans-serif;font-size:13;" transform="matrix(1 0 0 1 263 1971)">Symbols are supported in up to nine weights and three scales.</text>
  <text style="stroke:none;fill:black;font-family:sans-serif;font-size:13;" transform="matrix(1 0 0 1 263 1989)">For optimal layout with text and other symbols, vertically align</text>
  <text style="stroke:none;fill:black;font-family:sans-serif;font-size:13;" transform="matrix(1 0 0 1 263 2007)">symbols with the adjacent text.</text>
  <line style="fill:none;stroke:#00AEEF;stroke-width:0.5;opacity:1.0;" x1="776" x2="776" y1="1919" y2="1933"/>
  <g transform="matrix(1 0 0 1 776 1933)">
   <path d="M3.31055 0.15625Q3.70117 0.15625 3.91602-0.00976562Q4.13086-0.175781 4.26758-0.585938L5.52734-4.0332L11.2891-4.0332L12.5488-0.585938Q12.6855-0.175781 12.9004-0.00976562Q13.1152 0.15625 13.4961 0.15625Q13.8867 0.15625 14.1162-0.0585938Q14.3457-0.273438 14.3457-0.644531Q14.3457-0.869141 14.2383-1.17188L9.6582-13.3691Q9.48242-13.8184 9.17969-14.043Q8.87695-14.2676 8.4082-14.2676Q7.5-14.2676 7.17773-13.3789L2.59766-1.16211Q2.49023-0.859375 2.49023-0.634766Q2.49023-0.263672 2.70996-0.0537109Q2.92969 0.15625 3.31055 0.15625ZM6.00586-5.51758L8.37891-12.0898L8.42773-12.0898L10.8008-5.51758Z"/>
  </g>
  <line style="fill:none;stroke:#00AEEF;stroke-width:0.5;opacity:1.0;" x1="793.197" x2="793.197" y1="1919" y2="1933"/>
  <text style="stroke:none;fill:black;font-family:sans-serif;font-size:13;font-weight:bold;" transform="matrix(1 0 0 1 776 1953)">Margins</text>
  <text style="stroke:none;fill:black;font-family:sans-serif;font-size:13;" transform="matrix(1 0 0 1 776 1971)">Leading and trailing margins on the left and right side of each symbol</text>
  <text style="stroke:none;fill:black;font-family:sans-serif;font-size:13;" transform="matrix(1 0 0 1 776 1989)">can be adjusted by modifying the x-location of the margin guidelines.</text>
  <text style="stroke:none;fill:black;font-family:sans-serif;font-size:13;" transform="matrix(1 0 0 1 776 2007)">Modifications are automatically applied proportionally to all</text>
  <text style="stroke:none;fill:black;font-family:sans-serif;font-size:13;" transform="matrix(1 0 0 1 776 2025)">scales and weights.</text>
  <g transform="matrix(1 0 0 1 1289 1933)">
   <path d="M2.8418 1.86523L4.54102 3.57422Q5.18555 4.22852 5.90332 4.17969Q6.62109 4.13086 7.31445 3.35938L18.0078-8.42773L17.041-9.4043L6.42578 2.27539Q6.16211 2.57812 5.89355 2.61719Q5.625 2.65625 5.27344 2.30469L4.10156 1.14258Q3.75 0.791016 3.79395 0.522461Q3.83789 0.253906 4.14062-0.0195312L15.6152-10.8203L14.6387-11.7871L3.04688-0.898438Q2.30469-0.214844 2.25098 0.498047Q2.19727 1.21094 2.8418 1.86523ZM9.25781-16.3281Q8.94531-16.0254 8.90625-15.6348Q8.86719-15.2441 9.04297-14.9512Q9.21875-14.6777 9.55566-14.541Q9.89258-14.4043 10.3809-14.5215Q11.4746-14.7754 12.5977-14.7314Q13.7207-14.6875 14.7949-13.9844L14.209-12.5293Q13.9551-11.9043 14.0674-11.4404Q14.1797-10.9766 14.5801-10.5664L16.875-8.25195Q17.2363-7.88086 17.5781-7.82227Q17.9199-7.76367 18.3398-7.8418L19.4043-8.03711L20.0684-7.36328L20.0293-6.80664Q20-6.43555 20.1221-6.12305Q20.2441-5.81055 20.6055-5.44922L21.3672-4.70703Q21.7285-4.3457 22.1533-4.33105Q22.5781-4.31641 22.9297-4.66797L25.8398-7.58789Q26.1914-7.93945 26.1816-8.35449Q26.1719-8.76953 25.8105-9.13086L25.0391-9.89258Q24.6875-10.2539 24.3799-10.3857Q24.0723-10.5176 23.7109-10.4883L23.1348-10.4395L22.4902-11.0742L22.7344-12.1973Q22.832-12.6172 22.6953-12.9834Q22.5586-13.3496 22.1191-13.7891L19.9219-15.9766Q18.6719-17.2168 17.2607-17.8369Q15.8496-18.457 14.4189-18.4814Q12.9883-18.5059 11.665-17.959Q10.3418-17.4121 9.25781-16.3281ZM10.752-15.957Q11.6602-16.6211 12.7002-16.9043Q13.7402-17.1875 14.8047-17.085Q15.8691-16.9824 16.8701-16.5137Q17.8711-16.0449 18.7012-15.2051L21.1328-12.793Q21.3086-12.6172 21.3525-12.4512Q21.3965-12.2852 21.3379-12.0312L21.0156-10.5469L22.5195-9.0625L23.5059-9.12109Q23.6914-9.13086 23.7891-9.09668Q23.8867-9.0625 24.0332-8.91602L24.6094-8.33984L22.168-5.89844L21.5918-6.47461Q21.4453-6.62109 21.4062-6.71875Q21.3672-6.81641 21.377-7.01172L21.4453-7.98828L19.9512-9.47266L18.4277-9.21875Q18.1836-9.16992 18.042-9.2041Q17.9004-9.23828 17.7148-9.41406L15.7129-11.416Q15.5176-11.5918 15.4932-11.7529Q15.4688-11.9141 15.5859-12.1875L16.4648-14.2773Q15.293-15.3711 13.8281-15.791Q12.3633-16.2109 10.8398-15.7617Q10.7227-15.7324 10.6885-15.8057Q10.6543-15.8789 10.752-15.957Z"/>
  </g>
  <text style="stroke:none;fill:black;font-family:sans-serif;font-size:13;font-weight:bold;" transform="matrix(1 0 0 1 1289 1953)">Exporting</text>
  <text style="stroke:none;fill:black;font-family:sans-serif;font-size:13;" transform="matrix(1 0 0 1 1289 1971)">Symbols should be outlined when exporting to ensure the</text>
  <text style="stroke:none;fill:black;font-family:sans-serif;font-size:13;" transform="matrix(1 0 0 1 1289 1989)">design is preserved when submitting to Xcode.</text>
  <text id="template-version" style="stroke:none;fill:black;font-family:sans-serif;font-size:13;text-anchor:end;" transform="matrix(1 0 0 1 3036 1933)">Template v.3.0</text>
  <text style="stroke:none;fill:black;font-family:sans-serif;font-size:13;text-anchor:end;" transform="matrix(1 0 0 1 3036 1951)">Requires Xcode 13 or greater</text>
  <text id="descriptive-name" style="stroke:none;fill:black;font-family:sans-serif;font-size:13;text-anchor:end;" transform="matrix(1 0 0 1 3036 1969)">Generated from fork.knife.circle.fill</text>
  <text style="stroke:none;fill:black;font-family:sans-serif;font-size:13;text-anchor:end;" transform="matrix(1 0 0 1 3036 1987)">Typeset at 100 points</text>
  <text style="stroke:none;fill:black;font-family:sans-serif;font-size:13;" transform="matrix(1 0 0 1 263 726)">Small</text>
  <text style="stroke:none;fill:black;font-family:sans-serif;font-size:13;" transform="matrix(1 0 0 1 263 1156)">Medium</text>
  <text style="stroke:none;fill:black;font-family:sans-serif;font-size:13;" transform="matrix(1 0 0 1 263 1586)">Large</text>
 </g>
 <g id="Guides">
  <g id="H-reference" style="fill:#27AAE1;stroke:none;" transform="matrix(1 0 0 1 339 696)">
   <path d="M0.976562 0L3.66211 0L29.3457-67.1387L30.0293-67.1387L30.0293-70.459L28.125-70.459ZM11.6699-24.4629L46.9727-24.4629L46.2402-26.709L12.4512-26.709ZM55.127 0L57.7637 0L30.6152-70.459L29.4434-70.459L29.4434-67.1387Z"/>
  </g>
  <line id="Baseline-S" style="fill:none;stroke:#27AAE1;opacity:1;stroke-width:0.5;" x1="263" x2="3036" y1="696" y2="696"/>
  <line id="Capline-S" style="fill:none;stroke:#27AAE1;opacity:1;stroke-width:0.5;" x1="263" x2="3036" y1="625.541" y2="625.541"/>
  <g id="H-reference" style="fill:#27AAE1;stroke:none;" transform="matrix(1 0 0 1 339 1126)">
   <path d="M0.976562 0L3.66211 0L29.3457-67.1387L30.0293-67.1387L30.0293-70.459L28.125-70.459ZM11.6699-24.4629L46.9727-24.4629L46.2402-26.709L12.4512-26.709ZM55.127 0L57.7637 0L30.6152-70.459L29.4434-70.459L29.4434-67.1387Z"/>
  </g>
  <line id="Baseline-M" style="fill:none;stroke:#27AAE1;opacity:1;stroke-width:0.5;" x1="263" x2="3036" y1="1126" y2="1126"/>
  <line id="Capline-M" style="fill:none;stroke:#27AAE1;opacity:1;stroke-width:0.5;" x1="263" x2="3036" y1="1055.54" y2="1055.54"/>
  <g id="H-reference" style="fill:#27AAE1;stroke:none;" transform="matrix(1 0 0 1 339 1556)">
   <path d="M0.976562 0L3.66211 0L29.3457-67.1387L30.0293-67.1387L30.0293-70.459L28.125-70.459ZM11.6699-24.4629L46.9727-24.4629L46.2402-26.709L12.4512-26.709ZM55.127 0L57.7637 0L30.6152-70.459L29.4434-70.459L29.4434-67.1387Z"/>
  </g>
  <line id="Baseline-L" style="fill:none;stroke:#27AAE1;opacity:1;stroke-width:0.5;" x1="263" x2="3036" y1="1556" y2="1556"/>
  <line id="Capline-L" style="fill:none;stroke:#27AAE1;opacity:1;stroke-width:0.5;" x1="263" x2="3036" y1="1485.54" y2="1485.54"/>
  <line id="left-margin-Regular-M" style="fill:none;stroke:#00AEEF;stroke-width:0.5;opacity:1.0;" x1="1391.32" x2="1391.32" y1="1030.79" y2="1150.12"/>
  <line id="right-margin-Regular-M" style="fill:none;stroke:#00AEEF;stroke-width:0.5;opacity:1.0;" x1="1508.37" x2="1508.37" y1="1030.79" y2="1150.12"/>
 </g>
 <g id="Symbols">
  <g id="Black-L" transform="matrix(1 0 0 1 2854.19 1556)">
   <path d="M79.1953 32.7252Q93.2356 32.7252 105.521 27.4303Q117.806 22.1354 127.174 12.7571Q136.542 3.37874 141.848-8.90649Q147.154-21.1917 147.154-35.2113Q147.154-49.2309 141.848-61.5161Q136.542-73.8013 127.164-83.1796Q117.785-92.558 105.5-97.8529Q93.2149-103.148 79.1746-103.148Q65.1563-103.148 52.8704-97.8529Q40.5846-92.558 31.2276-83.1796Q21.8707-73.8013 16.5647-61.5161Q11.2588-49.2309 11.2588-35.2113Q11.2588-21.1917 16.5647-8.90649Q21.8707 3.37874 31.238 12.7571Q40.6053 22.1354 52.8912 27.4303Q65.177 32.7252 79.1953 32.7252ZM66.2574 3.63828Q64.0472 3.63828 62.6612 2.37422Q61.2753 1.11016 61.2765-1.10006L61.9419-37.7362Q61.9419-38.9375 61.6184-39.4549Q61.2948-39.9723 60.3932-40.4705Q56.9107-42.0789 55.2471-44.3683Q53.5836-46.6578 53.8235-51.714L54.7509-70.7Q54.9117-73.6381 57.4931-73.6381Q60.1355-73.6381 60.1355-70.639L59.8164-52.2549Q59.8164-50.2224 61.4946-50.2224Q63.37-50.2224 63.37-52.1745L63.6528-71.2616Q63.6528-74.0999 66.2574-74.0999Q69.0009-74.0999 69.0009-71.2616L69.2435-52.1745Q69.2435-50.2224 71.1397-50.2224Q72.8373-50.2224 72.8373-52.2549L72.5766-70.639Q72.5766-73.6381 75.1386-73.6381Q77.7212-73.6381 77.8017-70.7L78.8094-51.714Q79.1091-46.6578 77.4553-44.3683Q75.8014-42.0789 72.2241-40.4705Q70.7702-39.6883 70.7702-37.7362L71.3564-1.10006Q71.4368 1.05175 70.0405 2.34501Q68.6442 3.63828 66.2574 3.63828ZM90.8779-24.4017Q90.9973-27.0443 89.2424-28.1596L88.1742-28.8051Q86.4359-29.8882 85.7816-31.2164Q85.1272-32.5446 85.1272-34.4007L85.1272-36.6237Q85.1272-42.7985 86.3906-49.5606Q87.654-56.3226 89.7864-62.258Q91.9188-68.1934 94.5815-71.8495Q96.1678-74.0999 97.9163-74.0999Q99.0552-74.0999 99.7595-73.3709Q100.464-72.6418 100.464-71.4305L100.464-1.03917Q100.464 1.0932 99.1368 2.36574Q97.8099 3.63828 95.3817 3.63828Q93.1338 3.63828 91.7472 2.37229Q90.3606 1.1063 90.3619-1.11421Z"/>
  </g>
  <g id="Heavy-L" transform="matrix(1 0 0 1 2558.42 1556)">
   <path d="M78.2511 31.7672Q92.088 31.7672 104.202 26.5464Q116.316 21.3256 125.559 12.0677Q134.802 2.8099 140.04-9.30402Q145.279-21.4179 145.279-35.2251Q145.279-49.0322 140.04-61.1461Q134.802-73.2601 125.544-82.5179Q116.286-91.7758 104.172-96.9966Q92.0582-102.217 78.2213-102.217Q64.4202-102.217 52.3033-96.9966Q40.1863-91.7758 30.9613-82.5179Q21.7362-73.2601 16.4975-61.1461Q11.2588-49.0322 11.2588-35.2251Q11.2588-21.4179 16.4975-9.30402Q21.7362 2.8099 30.9761 12.0677Q40.2161 21.3256 52.333 26.5464Q64.45 31.7672 78.2511 31.7672ZM65.0793 4.47204Q62.8605 4.47204 61.486 3.22413Q60.1114 1.97623 60.1174-0.242563L60.7966-37.9487Q60.7966-39.1043 60.4526-39.6628Q60.1086-40.2213 59.2388-40.6829Q55.7064-42.2913 54.0551-44.5579Q52.4039-46.8246 52.6392-51.8162L53.5893-71.623Q53.7502-74.4638 56.2665-74.4638Q58.8394-74.4638 58.8394-71.5663L58.5298-52.3433Q58.5298-50.297 60.2903-50.297Q62.2204-50.297 62.2204-52.2629L62.5212-72.1799Q62.5212-74.9165 65.0793-74.9165Q67.7625-74.9165 67.7625-72.1799L68.0098-52.2629Q68.0098-50.297 69.9697-50.297Q71.7538-50.297 71.7538-52.3433L71.4888-71.5663Q71.4888-74.4638 73.9814-74.4638Q76.5037-74.4638 76.5842-71.623L77.6148-51.8162Q77.9006-46.8246 76.2613-44.5579Q74.6219-42.2913 71.036-40.6829Q69.5317-39.9145 69.5317-37.9487L70.1365-0.242563Q70.2169 1.93161 68.8275 3.20182Q67.438 4.47204 65.0793 4.47204ZM90.054-24.2653Q90.1553-26.7586 88.3591-27.9296L87.0722-28.7581Q85.4076-29.8184 84.7463-31.1646Q84.0851-32.5109 84.0851-34.3907L84.0851-36.6698Q84.0851-43.1169 85.3299-50.0052Q86.5748-56.8934 88.7253-62.8787Q90.8757-68.864 93.5984-72.6443Q95.1975-74.9165 96.9636-74.9165Q98.0564-74.9165 98.783-74.2153Q99.5097-73.5141 99.5097-72.2571L99.5097-0.159313Q99.5097 1.99113 98.1827 3.23158Q96.8558 4.47204 94.4376 4.47204Q92.2039 4.47204 90.8263 3.21508Q89.4488 1.95812 89.4548-0.308953Z"/>
  </g>
  <g id="Bold-L" transform="matrix(1 0 0 1 2262.89 1556)">
   <path d="M77.0653 30.566Q90.6516 30.566 102.549 25.4396Q114.447 20.3133 123.533 11.2089Q132.619 2.10448 137.771-9.79333Q142.923-21.6912 142.923-35.2405Q142.923-48.7898 137.771-60.6877Q132.619-72.5855 123.515-81.6899Q114.41-90.7942 102.512-95.9206Q90.6146-101.047 77.0283-101.047Q63.4932-101.047 51.5882-95.9206Q39.6833-90.7942 30.623-81.6899Q21.5627-72.5855 16.4108-60.6877Q11.2588-48.7898 11.2588-35.2405Q11.2588-21.6912 16.4108-9.79333Q21.5627 2.10448 30.6415 11.2089Q39.7203 20.3133 51.6252 25.4396Q63.5301 30.566 77.0653 30.566ZM63.6405 5.35866Q61.4237 5.35866 60.0604 4.13027Q58.6972 2.90188 58.7114 0.685017L59.406-38.2064Q59.406-39.3167 59.0434-39.917Q58.6809-40.5172 57.841-40.9407Q54.2642-42.5491 52.6426-44.7931Q51.021-47.0371 51.2481-51.9506L52.2209-72.647Q52.3817-75.3615 54.8108-75.3615Q57.2975-75.3615 57.2975-72.5893L57.0043-52.4623Q57.0043-50.4006 58.8481-50.4006Q60.8308-50.4006 60.8308-52.3819L61.146-73.1957Q61.146-75.807 63.6405-75.807Q66.2447-75.807 66.2447-73.1957L66.5002-52.3819Q66.5002-50.4006 68.5198-50.4006Q70.3864-50.4006 70.3864-52.4623L70.1224-72.5893Q70.1224-75.3615 72.5287-75.3615Q74.972-75.3615 75.0524-72.647L76.1056-51.9506Q76.3761-47.0371 74.7659-44.7931Q73.1557-42.5491 69.5717-40.9407Q68.0139-40.1877 68.0139-38.2064L68.6423 0.685017Q68.7227 2.87268 67.341 4.11567Q65.9592 5.35866 63.6405 5.35866ZM88.9337-24.0553Q89.0206-26.4247 87.1781-27.6665L85.6811-28.6853Q84.1018-29.723 83.4328-31.0837Q82.7639-32.4444 82.7639-34.3652L82.7639-36.7243Q82.7639-43.499 83.9851-50.5256Q85.2064-57.5521 87.3713-63.5818Q89.5362-69.6114 92.3287-73.5304Q93.925-75.807 95.6963-75.807Q96.7348-75.807 97.4749-75.1412Q98.215-74.4754 98.215-73.1731L98.215 0.781763Q98.215 2.94666 96.8881 4.15266Q95.5611 5.35866 93.1684 5.35866Q90.9594 5.35866 89.589 4.10893Q88.2186 2.85921 88.2329 0.52853Z"/>
  </g>
  <g id="Semibold-L" transform="matrix(1 0 0 1 1966.99 1556)">
   <path d="M76.2478 29.7379Q89.6614 29.7379 101.41 24.6766Q113.159 19.6153 122.137 10.6168Q131.114 1.61818 136.206-10.1307Q141.299-21.8795 141.299-35.2511Q141.299-48.6228 136.206-60.3716Q131.114-72.1204 122.116-81.119Q113.117-90.1176 101.368-95.1789Q89.6194-100.24 76.2058-100.24Q62.854-100.24 51.0953-95.1789Q39.3365-90.1176 30.3898-81.119Q21.4432-72.1204 16.351-60.3716Q11.2588-48.6228 11.2588-35.2511Q11.2588-21.8795 16.351-10.1307Q21.4432 1.61818 30.4108 10.6168Q39.3785 19.6153 51.1372 24.6766Q62.896 29.7379 76.2478 29.7379ZM62.6487 5.9699Q60.4331 5.9699 59.0777 4.75496Q57.7222 3.54003 57.7421 1.32448L58.4473-38.3842Q58.4473-39.4632 58.072-40.0922Q57.6966-40.7212 56.8774-41.1184Q53.27-42.7268 51.6688-44.9552Q50.0677-47.1835 50.2891-52.0433L51.2775-73.3529Q51.4383-75.9804 53.8073-75.9804Q56.2346-75.9804 56.2346-73.2945L55.9526-52.5444Q55.9526-50.472 57.8539-50.472Q59.8728-50.472 59.8728-52.464L60.198-73.8959Q60.198-76.4209 62.6487-76.4209Q65.1983-76.4209 65.1983-73.8959L65.4595-52.464Q65.4595-50.472 67.5203-50.472Q69.4437-50.472 69.4437-52.5444L69.1803-73.2945Q69.1803-75.9804 71.5272-75.9804Q73.916-75.9804 73.9964-73.3529L75.0653-52.0433Q75.3251-47.1835 73.735-44.9552Q72.1449-42.7268 68.5622-41.1184Q66.9676-40.3761 66.9676-38.3842L67.6122 1.32448Q67.6926 3.52145 66.3162 4.74567Q64.9398 5.9699 62.6487 5.9699ZM88.1614-23.9104Q88.2383-26.1945 86.364-27.4851L84.7222-28.6352Q83.2016-29.6572 82.5273-31.0279Q81.853-32.3985 81.853-34.3476L81.853-36.7618Q81.853-43.7624 83.058-50.8843Q84.263-58.0062 86.4379-64.0664Q88.6128-70.1266 91.4535-74.1413Q93.0477-76.4209 94.8227-76.4209Q95.8236-76.4209 96.573-75.7795Q97.3224-75.1381 97.3224-73.8046L97.3224 1.43053Q97.3224 3.6054 95.9955 4.78765Q94.6686 5.9699 92.2935 5.9699Q90.1014 5.9699 88.736 4.72515Q87.3706 3.48041 87.3905 1.10589Z"/>
  </g>
  <g id="Medium-L" transform="matrix(1 0 0 1 1670.89 1556)">
   <path d="M75.6279 29.11Q88.9106 29.11 100.546 24.0981Q112.182 19.0862 121.078 10.1678Q129.973 1.24944 135.02-10.3864Q140.067-22.0223 140.067-35.2592Q140.067-48.4961 135.02-60.1319Q129.973-71.7678 121.055-80.6862Q112.137-89.6045 100.501-94.6164Q88.8648-99.6283 75.5822-99.6283Q62.3695-99.6283 50.7215-94.6164Q39.0736-89.6045 30.213-80.6862Q21.3525-71.7678 16.3056-60.1319Q11.2588-48.4961 11.2588-35.2592Q11.2588-22.0223 16.3056-10.3864Q21.3525 1.24944 30.2359 10.1678Q39.1193 19.0862 50.7673 24.0981Q62.4152 29.11 75.6279 29.11ZM61.8966 6.43336Q59.682 6.43336 58.3325 5.22863Q56.983 4.02389 57.0071 1.80936L57.7204-38.5189Q57.7204-39.5743 57.3354-40.2251Q56.9503-40.8758 56.1467-41.2532Q52.5161-42.8616 50.9305-45.0781Q49.3448-47.2946 49.5619-52.1136L50.5622-73.8881Q50.723-76.4496 53.0464-76.4496Q55.4286-76.4496 55.4286-73.8293L55.1552-52.6066Q55.1552-50.5262 57.1001-50.5262Q59.1464-50.5262 59.1464-52.5262L59.4791-74.4269Q59.4791-76.8864 61.8966-76.8864Q64.4049-76.8864 64.4049-74.4269L64.6703-52.5262Q64.6703-50.5262 66.7624-50.5262Q68.7289-50.5262 68.7289-52.6066L68.466-73.8293Q68.466-76.4496 70.7678-76.4496Q73.1153-76.4496 73.1957-73.8881L74.2764-52.1136Q74.5282-47.2946 72.9533-45.0781Q71.3784-42.8616 67.7968-41.2532Q66.1742-40.5189 66.1742-38.5189L66.8312 1.80936Q66.9116 4.01338 65.5392 5.22337Q64.1668 6.43336 61.8966 6.43336ZM87.5759-23.8006Q87.6452-26.02 85.7467-27.3476L83.995-28.5971Q82.519-29.6073 81.8407-30.9856Q81.1624-32.3638 81.1624-34.3342L81.1624-36.7903Q81.1624-43.9622 82.3551-51.1564Q83.5477-58.3505 85.7302-64.4339Q87.9126-70.5173 90.7898-74.6045Q92.3826-76.8864 94.1603-76.8864Q95.1328-76.8864 95.8892-76.2635Q96.6457-75.6406 96.6457-74.2834L96.6457 1.92246Q96.6457 4.10488 95.3188 5.26912Q93.9918 6.43336 91.6301 6.43336Q89.4508 6.43336 88.0892 5.19239Q86.7276 3.95143 86.7518 1.54366Z"/>
  </g>
  <g id="Regular-L" transform="matrix(1 0 0 1 1374.98 1556)">
   <path d="M74.8194 28.2909Q87.9312 28.2909 99.4198 23.3434Q110.908 18.3959 119.697 9.58221Q128.485 0.768476 133.473-10.7201Q138.46-22.2086 138.46-35.2697Q138.46-48.3308 133.473-59.8193Q128.485-71.3079 119.671-80.1216Q110.858-88.9353 99.3691-93.8828Q87.8805-98.8303 74.7687-98.8303Q61.7374-98.8303 50.234-93.8828Q38.7306-88.9353 29.9824-80.1216Q21.2342-71.3079 16.2465-59.8193Q11.2588-48.3308 11.2588-35.2697Q11.2588-22.2086 16.2465-10.7201Q21.2342 0.768476 30.0077 9.58221Q38.7813 18.3959 50.2847 23.3434Q61.7881 28.2909 74.8194 28.2909ZM60.9156 7.03788Q58.7024 7.03788 57.3606 5.84645Q56.0188 4.65502 56.0485 2.4418L56.7723-38.6947Q56.7723-39.7192 56.3746-40.3984Q55.9769-41.0775 55.1936-41.4289Q51.5328-43.0373 49.9674-45.2384Q48.4019-47.4395 48.6134-52.2052L49.6291-74.5862Q49.79-77.0617 52.0539-77.0617Q54.3773-77.0617 54.3773-74.5268L54.1151-52.6877Q54.1151-50.5968 56.1168-50.5968Q58.1989-50.5968 58.1989-52.6073L58.5415-75.1194Q58.5415-77.4935 60.9156-77.4935Q63.3701-77.4935 63.3701-75.1194L63.6411-52.6073Q63.6411-50.5968 65.7739-50.5968Q67.7965-50.5968 67.7965-52.6877L67.5343-74.5268Q67.5343-77.0617 69.7773-77.0617Q72.0709-77.0617 72.1513-74.5862L73.2475-52.2052Q73.4887-47.4395 71.9337-45.2384Q70.3787-43.0373 66.7984-41.4289Q65.1393-40.7052 65.1393-38.6947L65.8124 2.4418Q65.8928 4.65502 64.5257 5.84645Q63.1585 7.03788 60.9156 7.03788ZM86.8121-23.6574Q86.8715-25.7923 84.9415-27.1682L83.0466-28.5475Q81.6287-29.5423 80.9452-30.9304Q80.2616-32.3185 80.2616-34.3168L80.2616-36.8274Q80.2616-44.2227 81.4382-51.5112Q82.6147-58.7996 84.807-64.9132Q86.9993-71.0268 89.9241-75.2087Q91.5149-77.4935 93.2963-77.4935Q94.2316-77.4935 94.9973-76.8948Q95.763-76.296 95.763-74.9079L95.763 2.5641Q95.763 4.75638 94.436 5.89713Q93.1091 7.03788 90.7648 7.03788Q88.6022 7.03788 87.2456 5.80184Q85.8889 4.5658 85.9186 2.11467Z"/>
  </g>
  <g id="Light-L" transform="matrix(1 0 0 1 1079.2 1556)">
   <path d="M73.8959 27.3674Q86.8436 27.3674 98.1577 22.502Q109.472 17.6366 118.137 8.95629Q126.802 0.275949 131.708-11.0381Q136.614-22.3522 136.614-35.2697Q136.614-48.1872 131.708-59.5013Q126.802-70.8154 118.122-79.4957Q109.442-88.176 98.1275-93.0414Q86.8134-97.9069 73.8658-97.9069Q60.9986-97.9069 49.6594-93.0414Q38.3201-88.176 29.6951-79.4957Q21.07-70.8154 16.1644-59.5013Q11.2588-48.1872 11.2588-35.2697Q11.2588-22.3522 16.1644-11.0381Q21.07 0.275949 29.7102 8.95629Q38.3503 17.6366 49.6895 22.502Q61.0287 27.3674 73.8959 27.3674ZM60.0537 6.70953Q57.9225 6.70953 56.5705 5.52836Q55.2184 4.34719 55.2687 2.21605L55.9924-38.8383Q55.9924-39.9039 55.6255-40.5523Q55.2586-41.2007 54.4343-41.5726Q50.8556-43.181 49.403-45.4026Q47.9504-47.6242 48.1414-52.3489L49.1366-74.5247Q49.2975-76.877 51.4588-76.877Q53.7206-76.877 53.7206-74.4242L53.4994-52.8314Q53.4994-50.7405 55.4395-50.7405Q57.4601-50.7405 57.4601-52.751L57.7617-75.0374Q57.7617-77.3293 60.0537-77.3293Q62.4261-77.3293 62.4261-75.0374L62.7176-52.751Q62.7176-50.7405 64.7683-50.7405Q66.6883-50.7405 66.6883-52.8314L66.4672-74.4242Q66.4672-76.877 68.6486-76.877Q70.8601-76.877 70.9405-74.5247L72.0162-52.3489Q72.2574-47.6242 70.7948-45.4026Q69.3321-43.181 65.8338-41.5726Q64.1953-40.8488 64.1953-38.8383L64.8889 2.21605Q64.9693 4.34719 63.6022 5.52836Q62.2351 6.70953 60.0537 6.70953ZM85.396-23.247Q85.4966-25.6897 83.5665-27.1272L81.9178-28.4039Q80.5205-29.4192 79.837-30.7662Q79.1534-32.1132 79.1534-34.2142L79.1534-36.8479Q79.1534-44.4074 80.3094-51.6754Q81.4655-58.9433 83.6167-64.9748Q85.768-71.0063 88.7133-75.1881Q90.181-77.3293 91.8598-77.3293Q92.7746-77.3293 93.4581-76.7614Q94.1417-76.1934 94.1417-74.8464L94.1417 2.25627Q94.1417 4.40751 92.8148 5.55852Q91.4879 6.70953 89.2461 6.70953Q87.1452 6.70953 85.768 5.45297Q84.3908 4.19641 84.4411 1.66319Z"/>
  </g>
  <g id="Thin-L" transform="matrix(1 0 0 1 783.707 1556)">
   <path d="M72.6746 26.1461Q85.405 26.1461 96.4884 21.3892Q107.572 16.6324 116.074 8.12846Q124.577-0.375458 129.374-11.4588Q134.171-22.5422 134.171-35.2697Q134.171-47.9972 129.374-59.0806Q124.577-70.1639 116.073-78.6679Q107.569-87.1718 96.4854-91.9286Q85.402-96.6855 72.6715-96.6855Q60.0215-96.6855 48.8994-91.9286Q37.7773-87.1718 29.3151-78.6679Q20.8529-70.1639 16.0558-59.0806Q11.2588-47.9972 11.2588-35.2697Q11.2588-22.5422 16.0558-11.4588Q20.8529-0.375458 29.3166 8.12846Q37.7803 16.6324 48.9024 21.3892Q60.0245 26.1461 72.6746 26.1461ZM58.9137 6.27526Q56.8911 6.27526 55.5255 5.10766Q54.1599 3.94006 54.2373 1.91749L54.961-39.0283Q54.961-40.1482 54.6348-40.7558Q54.3086-41.3635 53.4301-41.7626Q49.9599-43.371 48.6566-45.6197Q47.3533-47.8685 47.5172-52.5389L48.4852-74.4433Q48.6461-76.6327 50.6716-76.6327Q52.852-76.6327 52.852-74.2885L52.6852-53.0214Q52.6852-50.9305 54.5439-50.9305Q56.483-50.9305 56.483-52.941L56.7303-74.9288Q56.7303-77.1122 58.9137-77.1122Q61.1775-77.1122 61.1775-74.9288L61.4962-52.941Q61.4962-50.9305 63.4383-50.9305Q65.2227-50.9305 65.2227-53.0214L65.0558-74.2885Q65.0558-76.6327 67.1558-76.6327Q69.2587-76.6327 69.3392-74.4433L70.3876-52.5389Q70.6289-47.8685 69.2884-45.6197Q67.9479-43.371 64.5582-41.7626Q62.9468-41.0388 62.9468-39.0283L63.6675 1.91749Q63.7479 3.94006 62.3808 5.10766Q61.0137 6.27526 58.9137 6.27526ZM83.5232-22.7041Q83.678-25.554 81.748-27.0729L80.425-28.2139Q79.0549-29.2563 78.3713-30.5491Q77.6877-31.8418 77.6877-34.0785L77.6877-36.8751Q77.6877-44.6517 78.8166-51.8925Q79.9455-59.1333 82.0425-65.0562Q84.1394-70.9792 87.112-75.161Q88.4168-77.1122 89.9599-77.1122Q90.8475-77.1122 91.4225-76.5849Q91.9975-76.0577 91.9975-74.7649L91.9975 1.84914Q91.9975 3.9461 90.6706 5.11068Q89.3436 6.27526 87.2376 6.27526Q85.2181 6.27526 83.8138 4.99155Q82.4094 3.70785 82.4868 1.06607Z"/>
  </g>
  <g id="Ultralight-L" transform="matrix(1 0 0 1 487.622 1556)">
   <path d="M72.049 25.5205Q84.6682 25.5205 95.6335 20.8192Q106.599 16.118 115.018 7.70445Q123.437-0.709105 128.178-11.6743Q132.92-22.6395 132.92-35.2697Q132.92-47.8999 128.178-58.8651Q123.437-69.8303 115.023-78.2439Q106.61-86.6574 95.6443-91.3586Q84.6791-96.0599 72.0598-96.0599Q59.521-96.0599 48.5101-91.3586Q37.4993-86.6574 29.1205-78.2439Q20.7417-69.8303 16.0002-58.8651Q11.2588-47.8999 11.2588-35.2697Q11.2588-22.6395 16.0002-11.6743Q20.7417-0.709105 29.115 7.70445Q37.4884 16.118 48.4992 20.8192Q59.5101 25.5205 72.049 25.5205ZM58.3298 6.05282Q56.3629 6.05282 54.9903 4.89218Q53.6177 3.73153 53.709 1.76457L54.4328-39.1256Q54.4328-40.2733 54.1274-40.8601Q53.8221-41.4469 52.9157-41.8599Q49.5012-43.4683 48.2743-45.7309Q47.0475-47.9936 47.1974-52.6362L48.1516-74.4016Q48.3124-76.5076 50.2685-76.5076Q52.4072-76.5076 52.4072-74.2189L52.2681-53.1187Q52.2681-51.0278 54.0851-51.0278Q55.9825-51.0278 55.9825-53.0383L56.202-74.8732Q56.202-77.001 58.3298-77.001Q60.538-77.001 60.538-74.8732L60.8706-53.0383Q60.8706-51.0278 62.7571-51.0278Q64.472-51.0278 64.472-53.1187L64.3329-74.2189Q64.3329-76.5076 66.3911-76.5076Q68.4385-76.5076 68.5189-74.4016L69.5535-52.6362Q69.7948-47.9936 68.5168-45.7309Q67.2389-43.4683 63.9048-41.8599Q62.3073-41.1361 62.3073-39.1256L63.0419 1.76457Q63.1224 3.73153 61.7552 4.89218Q60.3881 6.05282 58.3298 6.05282ZM82.564-22.4261Q82.7466-25.4845 80.8165-27.0451L79.6604-28.1166Q78.3042-29.1729 77.6206-30.4379Q76.937-31.7028 76.937-34.009L76.937-36.889Q76.937-44.7768 78.052-52.0037Q79.167-59.2306 81.2362-65.0979Q83.3053-70.9653 86.2917-75.1471Q87.5132-77.001 88.9867-77.001Q89.8604-77.001 90.3798-76.4946Q90.8993-75.9882 90.8993-74.7232L90.8993 1.64061Q90.8993 3.70976 89.5723 4.88129Q88.2454 6.05282 86.2089 6.05282Q84.2311 6.05282 82.8128 4.75522Q81.3946 3.45762 81.4859 0.760222Z"/>
  </g>
  <g id="Black-M" transform="matrix(1 0 0 1 2871.36 1126)">
   <path d="M62.0423 18.1161Q73.0725 18.1161 82.714 13.9613Q92.3555 9.80654 99.704 2.45531Q107.052-4.89592 111.21-14.5374Q115.367-24.1789 115.367-35.2035Q115.367-46.2282 111.21-55.8697Q107.052-65.5112 99.7012-72.8624Q92.35-80.2136 82.7085-84.3684Q73.067-88.5232 62.0368-88.5232Q51.0119-88.5232 41.3705-84.3684Q31.7292-80.2136 24.3833-72.8624Q17.0375-65.5112 12.8801-55.8697Q8.72266-46.2282 8.72266-35.2035Q8.72266-24.1789 12.8801-14.5374Q17.0375-4.89592 24.3861 2.45531Q31.7347 9.80654 41.376 13.9613Q51.0174 18.1161 62.0423 18.1161ZM52.2281-5.87804Q50.5343-5.87804 49.4493-6.86986Q48.3643-7.86168 48.364-9.55554L48.8677-37.0084Q48.8677-37.9839 48.6387-38.3452Q48.4098-38.7066 47.6784-39.1268Q45.0343-40.3729 43.7502-42.169Q42.4661-43.9651 42.6533-47.9324L43.3494-61.9083Q43.474-64.2517 45.5159-64.2517Q47.6144-64.2517 47.6144-61.8518L47.3645-48.3633Q47.3645-46.8005 48.5857-46.8005Q49.9834-46.8005 49.9834-48.301L50.1813-62.3447Q50.1813-64.62 52.2281-64.62Q54.3944-64.62 54.3944-62.3447L54.581-48.301Q54.581-46.8005 55.9842-46.8005Q57.2112-46.8005 57.2112-48.3633L57.0184-61.8518Q57.0184-64.2517 59.0546-64.2517Q61.0962-64.2517 61.1585-61.9083L61.9169-47.9324Q62.1609-43.9651 60.8797-42.169Q59.5985-40.3729 56.8454-39.1268Q55.7651-38.509 55.7651-37.0084L56.2061-9.55554Q56.2684-7.91877 55.1807-6.89841Q54.093-5.87804 52.2281-5.87804ZM70.9231-26.9023Q71.0367-29.1197 69.7127-29.9443L69.1065-30.2732Q67.6992-31.1347 67.1981-32.1426Q66.6971-33.1505 66.6971-34.582L66.6971-36.2728Q66.6971-40.8449 67.6891-45.9725Q68.681-51.1001 70.312-55.6445Q71.9429-60.1888 73.9572-62.9148Q75.1585-64.62 76.484-64.62Q77.4033-64.62 77.9185-64.0354Q78.4338-63.4509 78.4338-62.5572L78.4338-9.5387Q78.4338-7.90775 77.4058-6.89289Q76.3778-5.87804 74.5019-5.87804Q72.7564-5.87804 71.6716-6.8694Q70.5868-7.86076 70.5865-9.55219Z"/>
  </g>
  <g id="Heavy-M" transform="matrix(1 0 0 1 2575.48 1126)">
   <path d="M61.2045 17.2648Q72.0509 17.2648 81.541 13.1749Q91.0312 9.08498 98.2688 1.83921Q105.506-5.40657 109.606-14.8967Q113.705-24.3868 113.705-35.217Q113.705-46.0473 109.606-55.5374Q105.506-65.0275 98.2607-72.2733Q91.0149-79.519 81.5248-83.6089Q72.0347-87.6988 61.1882-87.6988Q50.3604-87.6988 40.8691-83.6089Q31.3778-79.519 24.1495-72.2733Q16.9211-65.0275 12.8219-55.5374Q8.72266-46.0473 8.72266-35.217Q8.72266-24.3868 12.8219-14.8967Q16.9211-5.40657 24.1576 1.83921Q31.394 9.08498 40.8853 13.1749Q50.3767 17.2648 61.2045 17.2648ZM51.156-5.0327Q49.4462-5.0327 48.3733-6.00967Q47.3004-6.98664 47.3029-8.69645L47.82-37.2029Q47.82-38.1299 47.5682-38.5343Q47.3164-38.9387 46.62-39.3212Q43.9195-40.5673 42.637-42.3392Q41.3546-44.1111 41.539-48.019L42.2593-62.8163Q42.3839-65.0758 44.3717-65.0758Q46.408-65.0758 46.408-62.7678L46.1637-48.4365Q46.1637-46.8602 47.4709-46.8602Q48.9277-46.8602 48.9277-48.3742L49.1471-63.25Q49.1471-65.4334 51.156-65.4334Q53.2708-65.4334 53.2708-63.25L53.4602-48.3742Q53.4602-46.8602 54.9332-46.8602Q56.2542-46.8602 56.2542-48.4365L56.0535-62.7678Q56.0535-65.0758 58.0275-65.0758Q60.0177-65.0758 60.08-62.8163L60.8626-48.019Q61.0931-44.1111 59.8176-42.3392Q58.542-40.5673 55.773-39.3212Q54.6415-38.7169 54.6415-37.2029L55.0988-8.69645Q55.1611-7.03026 54.0801-6.03148Q52.9991-5.0327 51.156-5.0327ZM70.2484-26.8069Q70.3405-28.8499 68.976-29.7232L68.1333-30.2405Q66.7961-31.0778 66.2884-32.1072Q65.7806-33.1365 65.7806-34.5818L65.7806-36.316Q65.7806-41.1391 66.7563-46.392Q67.7321-51.6449 69.3845-56.2456Q71.0369-60.8463 73.1078-63.6936Q74.333-65.4334 75.6852-65.4334Q76.5613-65.4334 77.106-64.8732Q77.6507-64.313 77.6507-63.3709L77.6507-8.65018Q77.6507-6.99778 76.6226-6.01524Q75.5946-5.0327 73.719-5.0327Q71.9818-5.0327 70.9077-6.01333Q69.8336-6.99397 69.8361-8.72334Z"/>
  </g>
  <g id="Bold-M" transform="matrix(1 0 0 1 2279.69 1126)">
   <path d="M60.2672 16.3124Q70.9082 16.3124 80.2289 12.2951Q89.5497 8.27781 96.6634 1.15Q103.777-5.9778 107.811-15.2986Q111.845-24.6193 111.845-35.2321Q111.845-45.8449 107.811-55.1656Q103.777-64.4864 96.6493-71.6142Q89.5215-78.742 80.2007-82.7593Q70.8799-86.7766 60.2389-86.7766Q49.6317-86.7766 40.3082-82.7593Q30.9846-78.742 23.8878-71.6142Q16.791-64.4864 12.7568-55.1656Q8.72266-45.8449 8.72266-35.2321Q8.72266-24.6193 12.7568-15.2986Q16.791-5.9778 23.902 1.15Q31.0129 8.27781 40.3364 12.2951Q49.6599 16.3124 60.2672 16.3124ZM49.9566-4.08706Q48.2289-4.08706 47.1696-5.04742Q46.1103-6.00777 46.1158-7.73543L46.648-37.4203Q46.648-38.2932 46.3707-38.7458Q46.0934-39.1983 45.4359-39.5387Q42.6724-40.7848 41.3918-42.5296Q40.1112-44.2745 40.2926-48.1159L41.0399-63.8321Q41.1645-65.9978 43.0917-65.9978Q45.0585-65.9978 45.0585-63.7925L44.8203-48.5183Q44.8203-46.9269 46.2238-46.9269Q47.7467-46.9269 47.7467-48.456L47.9901-64.2627Q47.9901-66.3434 49.9566-66.3434Q52.0139-66.3434 52.0139-64.2627L52.2063-48.456Q52.2063-46.9269 53.7575-46.9269Q55.1837-46.9269 55.1837-48.5183L54.9741-63.7925Q54.9741-65.9978 56.8786-65.9978Q58.8113-65.9978 58.8736-63.8321L59.6832-48.1159Q59.8987-44.2745 58.6294-42.5296Q57.3601-40.7848 54.5733-39.5387Q53.3846-38.9494 53.3846-37.4203L53.86-7.73543Q53.9223-6.03632 52.8489-5.06169Q51.7754-4.08706 49.9566-4.08706ZM69.4935-26.7001Q69.5616-28.5481 68.152-29.4759L67.0446-30.2039Q65.7859-31.0141 65.2706-32.0675Q64.7553-33.1208 64.7553-34.5814L64.7553-36.3643Q64.7553-41.4683 65.7129-46.8613Q66.6705-52.2543 68.3469-56.9181Q70.0233-61.5818 72.1576-64.5648Q73.4095-66.3434 74.7916-66.3434Q75.6194-66.3434 76.197-65.8104Q76.7746-65.2774 76.7746-64.2812L76.7746-7.65624Q76.7746-5.97985 75.7466-5.03345Q74.7186-4.08706 72.8433-4.08706Q71.1153-4.08706 70.0532-5.0557Q68.9911-6.02434 68.9966-7.79616Z"/>
  </g>
  <g id="Semibold-M" transform="matrix(1 0 0 1 1983.62 1126)">
   <path d="M59.621 15.6559Q70.1203 15.6559 79.3244 11.6886Q88.5284 7.72135 95.5566 0.674869Q102.585-6.37161 106.574-15.5756Q110.564-24.7797 110.564-35.2425Q110.564-45.7053 106.574-54.9093Q102.585-64.1134 95.5384-71.1598Q88.4919-78.2063 79.2879-82.1736Q70.0838-86.1408 59.5845-86.1408Q49.1293-86.1408 39.9215-82.1736Q30.7136-78.2063 23.7075-71.1598Q16.7013-64.1134 12.712-54.9093Q8.72266-45.7053 8.72266-35.2425Q8.72266-24.7797 12.712-15.5756Q16.7013-6.37161 23.7257 0.674869Q30.7501 7.72135 39.958 11.6886Q49.1658 15.6559 59.621 15.6559ZM49.1297-3.43514Q47.3898-3.43514 46.3398-4.38405Q45.2898-5.33295 45.2974-7.07291L45.84-37.5703Q45.84-38.4058 45.5451-38.8916Q45.2502-39.3773 44.6197-39.6886Q41.8127-40.9347 40.5334-42.6609Q39.254-44.3871 39.4333-48.1827L40.1993-64.5324Q40.3239-66.6334 42.2093-66.6334Q44.1281-66.6334 44.1281-64.4989L43.8942-48.5747Q43.8942-46.9729 45.3641-46.9729Q46.9326-46.9729 46.9326-48.5124L47.1925-64.9609Q47.1925-66.9707 49.1297-66.9707Q51.1474-66.9707 51.1474-64.9609L51.3419-48.5124Q51.3419-46.9729 52.947-46.9729Q54.4457-46.9729 54.4457-48.5747L54.23-64.4989Q54.23-66.6334 56.0865-66.6334Q57.9796-66.6334 58.0419-64.5324L58.8702-48.1827Q59.0752-44.3871 57.8103-42.6609Q56.5454-40.9347 53.7462-39.6886Q52.5181-39.1097 52.5181-37.5703L53.006-7.07291Q53.0683-5.35111 52.0001-4.39313Q50.9318-3.43514 49.1297-3.43514ZM68.9731-26.6266Q69.0247-28.3401 67.5839-29.3054L66.2942-30.1786Q65.0895-30.9702 64.569-32.0401Q64.0485-33.11 64.0485-34.5812L64.0485-36.3976Q64.0485-41.6952 64.9936-47.1848Q65.9387-52.6744 67.6316-57.3816Q69.3245-62.0889 71.5025-65.1653Q72.7729-66.9707 74.1756-66.9707Q74.97-66.9707 75.5704-66.4565Q76.1707-65.9423 76.1707-64.9087L76.1707-6.97103Q76.1707-5.2781 75.1427-4.35662Q74.1146-3.43514 72.2395-3.43514Q70.5179-3.43514 69.4641-4.39551Q68.4103-5.35588 68.4179-7.15696Z"/>
  </g>
  <g id="Medium-M" transform="matrix(1 0 0 1 1687.4 1126)">
   <path d="M59.1311 15.158Q69.523 15.158 78.6385 11.2287Q87.754 7.29942 94.7174 0.314603Q101.681-6.67021 105.636-15.7857Q109.591-24.9012 109.591-35.2504Q109.591-45.5995 105.636-54.715Q101.681-63.8305 94.696-70.8153Q87.7112-77.8002 78.5957-81.7295Q69.4802-85.6588 59.0883-85.6588Q48.7484-85.6588 39.6283-81.7295Q30.5081-77.8002 23.5707-70.8153Q16.6333-63.8305 12.678-54.715Q8.72266-45.5995 8.72266-35.2504Q8.72266-24.9012 12.678-15.7857Q16.6333-6.67021 23.5921 0.314603Q30.5509 7.29942 39.671 11.2287Q48.7912 15.158 59.1311 15.158ZM48.5028-2.94083Q46.7535-2.94083 45.7106-3.88105Q44.6676-4.82128 44.6769-6.57056L45.2274-37.684Q45.2274-38.4912 44.9191-39.0021Q44.6109-39.513 44.0008-39.8023Q41.1608-41.0484 39.8824-42.7604Q38.604-44.4725 38.7817-48.2334L39.5619-65.0633Q39.6865-67.1153 41.5402-67.1153Q43.4227-67.1153 43.4227-65.0346L43.192-48.6175Q43.192-47.0078 44.7122-47.0078Q46.3153-47.0078 46.3153-48.5552L46.5878-65.4902Q46.5878-67.4463 48.5028-67.4463Q50.4904-67.4463 50.4904-65.4902L50.6865-48.5552Q50.6865-47.0078 52.3324-47.0078Q53.8862-47.0078 53.8862-48.6175L53.6657-65.0346Q53.6657-67.1153 55.4859-67.1153Q57.3489-67.1153 57.4112-65.0633L58.2537-48.2334Q58.4509-44.4725 57.1892-42.7604Q55.9276-41.0484 53.1191-39.8023Q51.8611-39.2313 51.8611-37.684L52.3585-6.57056Q52.4208-4.83155 51.3565-3.88619Q50.2922-2.94083 48.5028-2.94083ZM68.5785-26.5708Q68.6176-28.1823 67.1531-29.1761L65.7251-30.1595Q64.5615-30.937 64.037-32.0194Q63.5126-33.1018 63.5126-34.5811L63.5126-36.4228Q63.5126-41.8672 64.4482-47.4301Q65.3838-52.9929 67.0892-57.7332Q68.7947-62.4734 71.0058-65.6207Q72.2902-67.4463 73.7085-67.4463Q74.4777-67.4463 75.0952-66.9464Q75.7127-66.4464 75.7127-65.3845L75.7127-6.45148Q75.7127-4.746 74.6847-3.84341Q73.6567-2.94083 71.7818-2.94083Q70.065-2.94083 69.0174-3.89493Q67.9699-4.84902 67.9791-6.6723Z"/>
  </g>
  <g id="Regular-M" transform="matrix(1 0 0 1 1391.32 1126)">
   <path d="M58.492 14.5087Q68.7438 14.5087 77.7439 10.6289Q86.7439 6.74907 93.6228-0.155309Q100.502-7.05969 104.413-16.0597Q108.324-25.0598 108.324-35.2606Q108.324-45.4615 104.413-54.4616Q100.502-63.4616 93.5973-70.366Q86.693-77.2704 77.6929-81.1502Q68.6929-85.03 58.441-85.03Q48.2515-85.03 39.2458-81.1502Q30.2401-77.2704 23.3923-70.366Q16.5446-63.4616 12.6336-54.4616Q8.72266-45.4615 8.72266-35.2606Q8.72266-25.0598 12.6336-16.0597Q16.5446-7.05969 23.4178-0.155309Q30.291 6.74907 39.2968 10.6289Q48.3025 14.5087 58.492 14.5087ZM47.685-2.29608Q45.9236-2.29608 44.8899-3.22497Q43.8562-4.15387 43.8675-5.91533L44.4283-37.8322Q44.4283-38.6026 44.1026-39.1463Q43.7769-39.69 43.1935-39.9506Q40.3106-41.1967 39.0334-42.8903Q37.7563-44.5838 37.9318-48.2994L38.7304-65.7559Q38.8551-67.7439 40.6675-67.7439Q42.5026-67.7439 42.5026-65.7332L42.276-48.6733Q42.276-47.0533 43.8619-47.0533Q45.5101-47.0533 45.5101-48.611L45.799-66.1807Q45.799-68.0668 47.685-68.0668Q49.6334-68.0668 49.6334-66.1807L49.8316-48.611Q49.8316-47.0533 51.5308-47.0533Q53.1563-47.0533 53.1563-48.6733L52.9298-65.7332Q52.9298-67.7439 54.7026-67.7439Q56.5263-67.7439 56.5886-65.7559L57.4496-48.2994Q57.6365-44.5838 56.3791-42.8903Q55.1218-41.1967 52.3011-39.9506Q51.0041-39.3899 51.0041-37.8322L51.5139-5.91533Q51.5762-4.15387 50.517-3.22497Q49.4578-2.29608 47.685-2.29608ZM68.0639-26.498Q68.0865-27.9766 66.5912-29.0075L64.9828-30.1345Q63.8727-30.8935 63.3431-31.9923Q62.8135-33.0911 62.8135-34.5809L62.8135-36.4558Q62.8135-42.0917 63.7368-47.75Q64.66-53.4084 66.3818-58.1917Q68.1037-62.9749 70.358-66.2147Q71.6606-68.0668 73.0992-68.0668Q73.8355-68.0668 74.4755-67.5853Q75.1154-67.1039 75.1154-66.0051L75.1154-5.77379Q75.1154-4.05195 74.0874-3.17401Q73.0594-2.29608 71.1847-2.29608Q69.4742-2.29608 68.4348-3.24199Q67.3954-4.18791 67.4068-6.04012Z"/>
  </g>
  <g id="Light-M" transform="matrix(1 0 0 1 1095.44 1126)">
   <path d="M57.664 13.6807Q67.7687 13.6807 76.6123 9.87453Q85.456 6.06831 92.2245-0.716478Q98.993-7.50127 102.83-16.3449Q106.668-25.1886 106.668-35.2606Q106.668-45.3327 102.83-54.1764Q98.993-63.02 92.2082-69.8048Q85.4234-76.5896 76.5798-80.3958Q67.7361-84.202 57.6315-84.202Q47.5892-84.202 38.7306-80.3958Q29.8721-76.5896 23.1348-69.8048Q16.3974-63.02 12.56-54.1764Q8.72266-45.3327 8.72266-35.2606Q8.72266-25.1886 12.56-16.3449Q16.3974-7.50127 23.151-0.716478Q29.9047 6.06831 38.7632 9.87453Q47.6217 13.6807 57.664 13.6807ZM46.9123-2.59046Q45.2244-2.59046 44.1815-3.51016Q43.1386-4.42986 43.1683-6.11771L43.7291-37.961Q43.7291-38.7682 43.431-39.2843Q43.133-39.8004 42.5127-40.0794Q39.7034-41.3255 38.5274-43.0375Q37.3515-44.7494 37.5087-48.4282L38.2889-65.7007Q38.4135-67.5783 40.1339-67.5783Q41.9138-67.5783 41.9138-65.6412L41.7241-48.8021Q41.7241-47.1821 43.2548-47.1821Q44.8478-47.1821 44.8478-48.7398L45.0998-66.1071Q45.0998-67.9196 46.9123-67.9196Q48.787-67.9196 48.787-66.1071L49.0037-48.7398Q49.0037-47.1821 50.6292-47.1821Q52.1628-47.1821 52.1628-48.8021L51.973-65.6412Q51.973-67.5783 53.6906-67.5783Q55.4408-67.5783 55.5031-65.7007L56.3456-48.4282Q56.5325-44.7494 55.358-43.0375Q54.1834-41.3255 51.4364-40.0794Q50.1577-39.5187 50.1577-37.961L50.6859-6.11771Q50.7482-4.42986 49.689-3.51016Q48.6299-2.59046 46.9123-2.59046ZM66.7943-26.13Q66.8538-27.8846 65.3585-28.9707L63.9709-30.0058Q62.8792-30.7832 62.3496-31.8452Q61.82-32.9071 61.82-34.4889L61.82-36.4742Q61.82-42.2572 62.7248-47.8972Q63.6296-53.5372 65.3147-58.2469Q66.9997-62.9565 69.2724-66.1963Q70.4647-67.9196 71.8113-67.9196Q72.5292-67.9196 73.0955-67.4657Q73.6619-67.0119 73.6619-65.9499L73.6619-6.04978Q73.6619-4.36474 72.6339-3.4776Q71.6059-2.59046 69.8231-2.59046Q68.1678-2.59046 67.1101-3.55477Q66.0523-4.51909 66.082-6.4449Z"/>
  </g>
  <g id="Thin-M" transform="matrix(1 0 0 1 799.822 1126)">
   <path d="M56.569 12.5857Q66.479 12.5857 75.1158 8.87683Q83.7526 5.16794 90.3751-1.45867Q96.9976-8.08529 100.738-16.7221Q104.478-25.3589 104.478-35.2606Q104.478-45.1624 100.738-53.7992Q96.9976-62.436 90.371-69.0626Q83.7444-75.6892 75.1076-79.3981Q66.4707-83.107 56.5608-83.107Q46.7131-83.107 38.0493-79.3981Q29.3854-75.6892 22.7941-69.0626Q16.2027-62.436 12.4627-53.7992Q8.72266-45.1624 8.72266-35.2606Q8.72266-25.3589 12.4627-16.7221Q16.2027-8.08529 22.7982-1.45867Q29.3936 5.16794 38.0575 8.87683Q46.7214 12.5857 56.569 12.5857ZM45.8902-2.97981Q44.2997-2.97981 43.2446-3.88734Q42.1896-4.79487 42.2437-6.38539L42.8044-38.1314Q42.8044-38.9872 42.5428-39.4668Q42.2813-39.9464 41.6124-40.2497Q38.9004-41.4958 37.8583-43.2321Q36.8161-44.9684 36.949-48.5986L37.7049-65.6277Q37.8295-67.3593 39.4282-67.3593Q41.1351-67.3593 41.1351-65.5195L40.9941-48.9724Q40.9941-47.3525 42.4517-47.3525Q43.9717-47.3525 43.9717-48.9101L44.1751-66.0098Q44.1751-67.7249 45.8902-67.7249Q47.6677-67.7249 47.6677-66.0098L47.9087-48.9101Q47.9087-47.3525 49.4369-47.3525Q50.8487-47.3525 50.8487-48.9724L50.7076-65.5195Q50.7076-67.3593 52.3522-67.3593Q54.0051-67.3593 54.0674-65.6277L54.8856-48.5986Q55.0725-44.9684 54.0074-43.2321Q52.9424-41.4958 50.2927-40.2497Q49.0384-39.689 49.0384-38.1314L49.5909-6.38539Q49.6532-4.79487 48.594-3.88734Q47.5348-2.97981 45.8902-2.97981ZM65.1153-25.6433Q65.2234-27.7629 63.7281-28.922L62.6325-29.8354Q61.5651-30.6372 61.0355-31.6505Q60.5059-32.6638 60.5059-34.3672L60.5059-36.4985Q60.5059-42.4763 61.3864-48.0919Q62.2669-53.7076 63.9033-58.3199Q65.5397-62.9322 67.8367-66.172Q68.8829-67.7249 70.1079-67.7249Q70.8014-67.7249 71.2705-67.3076Q71.7395-66.8903 71.7395-65.8769L71.7395-6.41479Q71.7395-4.77842 70.7115-3.87911Q69.6835-2.97981 68.0224-2.97981Q66.4401-2.97981 65.358-3.96845Q64.2759-4.9571 64.33-6.98025Z"/>
  </g>
  <g id="Ultralight-M" transform="matrix(1 0 0 1 503.672 1126)">
   <path d="M56.0081 12.0248Q65.8184 12.0248 74.3492 8.36581Q82.8801 4.70678 89.4278-1.83882Q95.9756-8.38442 99.6657-16.9153Q103.356-25.4462 103.356-35.2606Q103.356-45.0751 99.6657-53.606Q95.9756-62.1369 89.43-68.6825Q82.8844-75.2281 74.3535-78.8871Q65.8226-82.5461 56.0124-82.5461Q46.2644-82.5461 37.7003-78.8871Q29.1361-75.2281 22.6196-68.6825Q16.103-62.1369 12.4128-53.606Q8.72266-45.0751 8.72266-35.2606Q8.72266-25.4462 12.4128-16.9153Q16.103-8.38442 22.6175-1.83882Q29.1319 4.70678 37.6961 8.36581Q46.2602 12.0248 56.0081 12.0248ZM45.3667-3.17923Q43.8261-3.17923 42.7648-4.08053Q41.7035-4.98183 41.77-6.52249L42.3308-38.2186Q42.3308-39.0994 42.0879-39.5603Q41.845-40.0212 41.1512-40.337Q38.4891-41.5831 37.5155-43.3319Q36.5419-45.0806 36.6623-48.6858L37.4057-65.5903Q37.5303-67.2471 39.0668-67.2471Q40.7363-67.2471 40.7363-65.4572L40.6201-49.0596Q40.6201-47.4397 42.0404-47.4397Q43.523-47.4397 43.523-48.9973L43.7015-65.9599Q43.7015-67.6252 45.3667-67.6252Q47.0943-67.6252 47.0943-65.9599L47.3478-48.9973Q47.3478-47.4397 48.8261-47.4397Q50.1757-47.4397 50.1757-49.0596L50.0595-65.4572Q50.0595-67.2471 51.6667-67.2471Q53.2697-67.2471 53.332-65.5903L54.1377-48.6858Q54.3246-45.0806 53.3157-43.3319Q52.3067-41.5831 49.7069-40.337Q48.465-39.7762 48.465-38.2186L49.03-6.52249Q49.0923-4.98183 48.0331-4.08053Q46.974-3.17923 45.3667-3.17923ZM64.2553-25.3941Q64.3883-27.7006 62.893-28.8971L61.947-29.7482Q60.8921-30.5624 60.3625-31.5508Q59.8329-32.5392 59.8329-34.3049L59.8329-36.511Q59.8329-42.5884 60.7009-48.1916Q61.5689-53.7948 63.1804-58.3572Q64.7918-62.9197 67.1013-66.1595Q68.0728-67.6252 69.2354-67.6252Q69.9165-67.6252 70.3357-67.2266Q70.7549-66.8279 70.7549-65.8395L70.7549-6.60175Q70.7549-4.9903 69.7268-4.08476Q68.6988-3.17923 67.1001-3.17923Q65.5552-3.17923 64.4606-4.18034Q63.366-5.18145 63.4326-7.25446Z"/>
  </g>
  <g id="Black-S" transform="matrix(1 0 0 1 2884.57 696)">
   <path d="M48.8281 6.78711Q57.5195 6.78711 65.1123 3.51562Q72.7051 0.244141 78.4912-5.54199Q84.2773-11.3281 87.5488-18.9209Q90.8203-26.5137 90.8203-35.2051Q90.8203-43.8965 87.5488-51.4893Q84.2773-59.082 78.4912-64.8682Q72.7051-70.6543 65.1123-73.9258Q57.5195-77.1973 48.8281-77.1973Q40.1367-77.1973 32.5439-73.9258Q24.9512-70.6543 19.165-64.8682Q13.3789-59.082 10.1074-51.4893Q6.83594-43.8965 6.83594-35.2051Q6.83594-26.5137 10.1074-18.9209Q13.3789-11.3281 19.165-5.54199Q24.9512 0.244141 32.5439 3.51562Q40.1367 6.78711 48.8281 6.78711ZM41.2109-12.5Q39.8926-12.5 39.0381-13.2812Q38.1836-14.0625 38.1836-15.3809L38.5742-36.5723Q38.5742-37.3535 38.4033-37.6221Q38.2324-37.8906 37.6465-38.2324Q35.5957-39.209 34.5947-40.625Q33.5938-42.041 33.7402-45.166L34.2773-55.8594Q34.375-57.7148 35.9863-57.7148Q37.6465-57.7148 37.6465-55.8105L37.4512-45.5078Q37.4512-44.2871 38.3789-44.2871Q39.4531-44.2871 39.4531-45.459L39.5996-56.2012Q39.5996-58.0078 41.2109-58.0078Q42.9199-58.0078 42.9199-56.2012L43.0664-45.459Q43.0664-44.2871 44.1406-44.2871Q45.0684-44.2871 45.0684-45.5078L44.9219-55.8105Q44.9219-57.7148 46.5332-57.7148Q48.1445-57.7148 48.1934-55.8594L48.7793-45.166Q48.9746-42.041 47.9736-40.625Q46.9727-39.209 44.8242-38.2324Q43.9941-37.7441 43.9941-36.5723L44.3359-15.3809Q44.3848-14.1113 43.5303-13.3057Q42.6758-12.5 41.2109-12.5ZM55.7129-28.7109Q55.8105-30.5176 54.7852-31.1523L54.3945-31.3477Q53.2715-32.0312 52.8809-32.8125Q52.4902-33.5938 52.4902-34.7168L52.4902-36.0352Q52.4902-39.5508 53.2715-43.5303Q54.0527-47.5098 55.3223-51.0498Q56.5918-54.5898 58.1543-56.6895Q59.082-58.0078 60.1074-58.0078Q60.8398-58.0078 61.2305-57.5439Q61.6211-57.0801 61.6211-56.3965L61.6211-15.3809Q61.6211-14.1113 60.8154-13.3057Q60.0098-12.5 58.5449-12.5Q57.1777-12.5 56.3232-13.2812Q55.4688-14.0625 55.4688-15.3809Z"/>
  </g>
  <g id="Heavy-S" transform="matrix(1 0 0 1 2588.47 696)">
   <path d="M48.2173 6.16479Q56.7704 6.16479 64.2537 2.9394Q71.737-0.285985 77.4425-5.99721Q83.1479-11.7084 86.3791-19.1917Q89.6102-26.675 89.6102-35.2166Q89.6102-43.7582 86.3791-51.2415Q83.1479-58.7248 77.4367-64.436Q71.7255-70.1472 64.2422-73.3726Q56.7589-76.598 48.2058-76.598Q39.6642-76.598 32.1809-73.3726Q24.6976-70.1472 18.9979-64.436Q13.2982-58.7248 10.0671-51.2415Q6.83594-43.7582 6.83594-35.2166Q6.83594-26.675 10.0671-19.1917Q13.2982-11.7084 19.0037-5.99721Q24.7092-0.285985 32.1924 2.9394Q39.6757 6.16479 48.2173 6.16479ZM40.3927-11.7394Q39.0513-11.7394 38.2083-12.5091Q37.3654-13.2788 37.3654-14.6202L37.7675-36.7221Q37.7675-37.4572 37.5736-37.7661Q37.3796-38.075 36.8282-38.3822Q34.7198-39.3588 33.7073-40.7518Q32.6948-42.1447 32.8413-45.2236L33.4015-56.643Q33.4991-58.4409 35.0759-58.4409Q36.69-58.4409 36.69-56.6057L36.4946-45.5539Q36.4946-44.3217 37.503-44.3217Q38.6349-44.3217 38.6349-45.5051L38.8044-56.9848Q38.8044-58.7223 40.3927-58.7223Q42.0671-58.7223 42.0671-56.9848L42.2136-45.5051Q42.2136-44.3217 43.357-44.3217Q44.3769-44.3217 44.3769-45.5539L44.2189-56.6057Q44.2189-58.4409 45.7841-58.4409Q47.3609-58.4409 47.4097-56.643L48.0187-45.2236Q48.2025-42.1447 47.1957-40.7518Q46.189-39.3588 44.0175-38.3822Q43.1413-37.9055 43.1413-36.7221L43.4947-14.6202Q43.5435-13.3161 42.6947-12.5278Q41.846-11.7394 40.3927-11.7394ZM55.298-28.6764Q55.3726-30.2986 54.3127-30.968L53.6915-31.3361Q52.6261-31.9967 52.2297-32.801Q51.8333-33.6053 51.8333-34.7283L51.8333-36.0697Q51.8333-39.7813 52.6031-43.8702Q53.3728-47.9592 54.6654-51.5569Q55.958-55.1545 57.5665-57.3579Q58.5289-58.7223 59.5888-58.7223Q60.2867-58.7223 60.7119-58.2757Q61.1371-57.8292 61.1371-57.0995L61.1371-14.5857Q61.1371-13.2931 60.3314-12.5162Q59.5257-11.7394 58.0494-11.7394Q56.6822-11.7394 55.8392-12.5091Q54.9962-13.2788 54.9962-14.6202Z"/>
  </g>
  <g id="Bold-S" transform="matrix(1 0 0 1 2292.43 696)">
   <path d="M47.5342 5.46875Q55.9326 5.46875 63.2935 2.29492Q70.6543-0.878906 76.2695-6.50635Q81.8848-12.1338 85.0708-19.4946Q88.2568-26.8555 88.2568-35.2295Q88.2568-43.6035 85.0708-50.9644Q81.8848-58.3252 76.2573-63.9526Q70.6299-69.5801 63.269-72.7539Q55.9082-75.9277 47.5098-75.9277Q39.1357-75.9277 31.7749-72.7539Q24.4141-69.5801 18.811-63.9526Q13.208-58.3252 10.022-50.9644Q6.83594-43.6035 6.83594-35.2295Q6.83594-26.8555 10.022-19.4946Q13.208-12.1338 18.8232-6.50635Q24.4385-0.878906 31.7993 2.29492Q39.1602 5.46875 47.5342 5.46875ZM39.4775-10.8887Q38.1104-10.8887 37.2803-11.6455Q36.4502-12.4023 36.4502-13.7695L36.8652-36.8896Q36.8652-37.5732 36.6455-37.9272Q36.4258-38.2812 35.9131-38.5498Q33.7402-39.5264 32.7148-40.8936Q31.6895-42.2607 31.8359-45.2881L32.4219-57.5195Q32.5195-59.2529 34.0576-59.2529Q35.6201-59.2529 35.6201-57.4951L35.4248-45.6055Q35.4248-44.3604 36.5234-44.3604Q37.7197-44.3604 37.7197-45.5566L37.915-57.8613Q37.915-59.5215 39.4775-59.5215Q41.1133-59.5215 41.1133-57.8613L41.2598-45.5566Q41.2598-44.3604 42.4805-44.3604Q43.6035-44.3604 43.6035-45.6055L43.4326-57.4951Q43.4326-59.2529 44.9463-59.2529Q46.4844-59.2529 46.5332-57.5195L47.168-45.2881Q47.3389-42.2607 46.3257-40.8936Q45.3125-39.5264 43.1152-38.5498Q42.1875-38.0859 42.1875-36.8896L42.5537-13.7695Q42.6025-12.4268 41.7603-11.6577Q40.918-10.8887 39.4775-10.8887ZM54.834-28.6377Q54.8828-30.0537 53.7842-30.7617L52.9053-31.3232Q51.9043-31.958 51.5015-32.7881Q51.0986-33.6182 51.0986-34.7412L51.0986-36.1084Q51.0986-40.0391 51.8555-44.2505Q52.6123-48.4619 53.9307-52.124Q55.249-55.7861 56.9092-58.1055Q57.9102-59.5215 59.0088-59.5215Q59.668-59.5215 60.1318-59.0942Q60.5957-58.667 60.5957-57.8857L60.5957-13.6963Q60.5957-12.3779 59.79-11.6333Q58.9844-10.8887 57.4951-10.8887Q56.1279-10.8887 55.2979-11.6455Q54.4678-12.4023 54.4678-13.7695Z"/>
  </g>
  <g id="Semibold-S" transform="matrix(1 0 0 1 1996.19 696)">
   <path d="M47.0632 4.98887Q55.355 4.98887 62.6314 1.85059Q69.9078-1.2877 75.4608-6.85737Q81.0139-12.4271 84.1688-19.7035Q87.3237-26.9799 87.3237-35.2384Q87.3237-43.4969 84.1688-50.7733Q81.0139-58.0497 75.4442-63.6194Q69.8745-69.1891 62.5981-72.3273Q55.3217-75.4656 47.0299-75.4656Q38.7714-75.4656 31.495-72.3273Q24.2186-69.1891 18.6822-63.6194Q13.1458-58.0497 9.99087-50.7733Q6.83594-43.4969 6.83594-35.2384Q6.83594-26.9799 9.99087-19.7035Q13.1458-12.4271 18.6988-6.85737Q24.2519-1.2877 31.5283 1.85059Q38.8047 4.98887 47.0632 4.98887ZM38.8466-10.3021Q37.4616-10.3021 36.6404-11.0501Q35.8192-11.798 35.8192-13.183L36.2432-37.0052Q36.2432-37.6532 36.0057-38.0383Q35.7682-38.4234 35.2821-38.6653Q33.0648-39.6419 32.0306-40.9913Q30.9963-42.3407 31.1428-45.3325L31.7465-58.1238Q31.8441-59.8128 33.3556-59.8128Q34.8825-59.8128 34.8825-58.1083L34.6872-45.641Q34.6872-44.387 35.848-44.387Q37.0888-44.387 37.0888-45.5922L37.3019-58.4656Q37.3019-60.0725 38.8466-60.0725Q40.4557-60.0725 40.4557-58.4656L40.6021-45.5922Q40.6021-44.387 41.8762-44.387Q43.0703-44.387 43.0703-45.641L42.8905-58.1083Q42.8905-59.8128 44.3687-59.8128Q45.8801-59.8128 45.9289-58.1238L46.5814-45.3325Q46.7435-42.3407 45.7258-40.9913Q44.7082-39.6419 42.4932-38.6653Q41.5299-38.2104 41.5299-37.0052L41.905-13.183Q41.9538-11.8136 41.116-11.0579Q40.2781-10.3021 38.8466-10.3021ZM54.5141-28.611Q54.5451-29.8849 53.4198-30.6195L52.3632-31.3144Q51.4066-31.9313 50.9994-32.7792Q50.5921-33.6271 50.5921-34.7501L50.5921-36.1351Q50.5921-40.2168 51.34-44.5126Q52.088-48.8085 53.4241-52.515Q54.7603-56.2216 56.456-58.6209Q57.4836-60.0725 58.6089-60.0725Q59.2414-60.0725 59.7319-59.6585Q60.2225-59.2446 60.2225-58.4278L60.2225-13.0831Q60.2225-11.747 59.4168-11.0246Q58.6111-10.3021 57.113-10.3021Q55.7458-10.3021 54.9246-11.0501Q54.1034-11.798 54.1034-13.183Z"/>
  </g>
  <g id="Medium-S" transform="matrix(1 0 0 1 1699.83 696)">
   <path d="M46.7061 4.625Q54.917 4.625 62.1294 1.51367Q69.3418-1.59766 74.8477-7.12354Q80.3535-12.6494 83.4849-19.8618Q86.6162-27.0742 86.6162-35.2451Q86.6162-43.416 83.4849-50.6284Q80.3535-57.8408 74.8276-63.3667Q69.3018-68.8926 62.0894-72.0039Q54.877-75.1152 46.666-75.1152Q38.4951-75.1152 31.2827-72.0039Q24.0703-68.8926 18.5845-63.3667Q13.0986-57.8408 9.96729-50.6284Q6.83594-43.416 6.83594-35.2451Q6.83594-27.0742 9.96729-19.8618Q13.0986-12.6494 18.6045-7.12354Q24.1104-1.59766 31.3228 1.51367Q38.5352 4.625 46.7061 4.625ZM38.3682-9.85742Q36.9697-9.85742 36.1553-10.5986Q35.3408-11.3398 35.3408-12.7383L35.7715-37.0928Q35.7715-37.7139 35.5205-38.1226Q35.2695-38.5312 34.8037-38.7529Q32.5527-39.7295 31.5117-41.0654Q30.4707-42.4014 30.6172-45.3662L31.2344-58.582Q31.332-60.2373 32.8232-60.2373Q34.3232-60.2373 34.3232-58.5732L34.1279-45.668Q34.1279-44.4072 35.3359-44.4072Q36.6104-44.4072 36.6104-45.6191L36.8369-58.9238Q36.8369-60.4902 38.3682-60.4902Q39.957-60.4902 39.957-58.9238L40.1035-45.6191Q40.1035-44.4072 41.418-44.4072Q42.666-44.4072 42.666-45.668L42.4795-58.5732Q42.4795-60.2373 43.9307-60.2373Q45.4219-60.2373 45.4707-58.582L46.1367-45.3662Q46.292-42.4014 45.271-41.0654Q44.25-39.7295 42.0215-38.7529Q41.0312-38.3047 41.0312-37.0928L41.4131-12.7383Q41.4619-11.3486 40.6274-10.603Q39.793-9.85742 38.3682-9.85742ZM54.2715-28.5908Q54.2891-29.7568 53.1436-30.5117L51.9521-31.3076Q51.0293-31.9111 50.6187-32.7725Q50.208-33.6338 50.208-34.7568L50.208-36.1553Q50.208-40.3516 50.9492-44.7114Q51.6904-49.0713 53.04-52.8115Q54.3896-56.5518 56.1123-59.0117Q57.1602-60.4902 58.3057-60.4902Q58.918-60.4902 59.4287-60.0864Q59.9395-59.6826 59.9395-58.8389L59.9395-12.6182Q59.9395-11.2686 59.1338-10.563Q58.3281-9.85742 56.8232-9.85742Q55.4561-9.85742 54.6416-10.5986Q53.8271-11.3398 53.8271-12.7383Z"/>
  </g>
  <g id="Regular-S" transform="matrix(1 0 0 1 1403.58 696)">
   <path d="M46.2402 4.15039Q54.3457 4.15039 61.4746 1.07422Q68.6035-2.00195 74.0479-7.4707Q79.4922-12.9395 82.5928-20.0684Q85.6934-27.1973 85.6934-35.2539Q85.6934-43.3105 82.5928-50.4395Q79.4922-57.5684 74.0234-63.0371Q68.5547-68.5059 61.4258-71.582Q54.2969-74.6582 46.1914-74.6582Q38.1348-74.6582 31.0059-71.582Q23.877-68.5059 18.457-63.0371Q13.0371-57.5684 9.93652-50.4395Q6.83594-43.3105 6.83594-35.2539Q6.83594-27.1973 9.93652-20.0684Q13.0371-12.9395 18.4814-7.4707Q23.9258-2.00195 31.0547 1.07422Q38.1836 4.15039 46.2402 4.15039ZM37.7441-9.27734Q36.3281-9.27734 35.5225-10.0098Q34.7168-10.7422 34.7168-12.1582L35.1562-37.207Q35.1562-37.793 34.8877-38.2324Q34.6191-38.6719 34.1797-38.8672Q31.8848-39.8438 30.835-41.1621Q29.7852-42.4805 29.9316-45.4102L30.5664-59.1797Q30.6641-60.791 32.1289-60.791Q33.5938-60.791 33.5938-59.1797L33.3984-45.7031Q33.3984-44.4336 34.668-44.4336Q35.9863-44.4336 35.9863-45.6543L36.2305-59.5215Q36.2305-61.0352 37.7441-61.0352Q39.3066-61.0352 39.3066-59.5215L39.4531-45.6543Q39.4531-44.4336 40.8203-44.4336Q42.1387-44.4336 42.1387-45.7031L41.9434-59.1797Q41.9434-60.791 43.3594-60.791Q44.8242-60.791 44.873-59.1797L45.5566-45.4102Q45.7031-42.4805 44.6777-41.1621Q43.6523-39.8438 41.4062-38.8672Q40.3809-38.4277 40.3809-37.207L40.7715-12.1582Q40.8203-10.7422 39.9902-10.0098Q39.1602-9.27734 37.7441-9.27734ZM53.9551-28.5645Q53.9551-29.5898 52.7832-30.3711L51.416-31.2988Q50.5371-31.8848 50.1221-32.7637Q49.707-33.6426 49.707-34.7656L49.707-36.1816Q49.707-40.5273 50.4395-44.9707Q51.1719-49.4141 52.5391-53.1982Q53.9062-56.9824 55.6641-59.5215Q56.7383-61.0352 57.9102-61.0352Q58.4961-61.0352 59.0332-60.6445Q59.5703-60.2539 59.5703-59.375L59.5703-12.0117Q59.5703-10.6445 58.7646-9.96094Q57.959-9.27734 56.4453-9.27734Q55.0781-9.27734 54.2725-10.0098Q53.4668-10.7422 53.4668-12.1582Z"/>
  </g>
  <g id="Light-S" transform="matrix(1 0 0 1 1107.6 696)">
   <path d="M45.5078 3.41797Q53.4831 3.41797 60.4736 0.406901Q67.4642-2.60417 72.8109-7.96712Q78.1576-13.3301 81.193-20.3206Q84.2285-27.3112 84.2285-35.2539Q84.2285-43.1966 81.193-50.1872Q78.1576-57.1777 72.7946-62.5407Q67.4316-67.9036 60.4411-70.9147Q53.4505-73.9258 45.4753-73.9258Q37.5488-73.9258 30.5501-70.9147Q23.5514-67.9036 18.2292-62.5407Q12.9069-57.1777 9.87142-50.1872Q6.83594-43.1966 6.83594-35.2539Q6.83594-27.3112 9.87142-20.3206Q12.9069-13.3301 18.2454-7.96712Q23.584-2.60417 30.5827 0.406901Q37.5814 3.41797 45.5078 3.41797ZM37.0605-9.53776Q35.7096-9.53776 34.8958-10.262Q34.082-10.9863 34.0983-12.3372L34.5378-37.321Q34.5378-37.9395 34.2936-38.3545Q34.0495-38.7695 33.5775-38.9811Q31.3477-39.9577 30.3874-41.2923Q29.4271-42.627 29.5573-45.5241L30.1758-59.1309Q30.2734-60.6445 31.6569-60.6445Q33.0729-60.6445 33.0729-59.0983L32.9102-45.8171Q32.9102-44.5475 34.1309-44.5475Q35.4004-44.5475 35.4004-45.7682L35.612-59.4564Q35.612-60.9049 37.0605-60.9049Q38.5579-60.9049 38.5579-59.4564L38.7207-45.7682Q38.7207-44.5475 40.0228-44.5475Q41.2598-44.5475 41.2598-45.8171L41.097-59.0983Q41.097-60.6445 42.4642-60.6445Q43.8639-60.6445 43.9128-59.1309L44.5801-45.5241Q44.7266-42.627 43.7744-41.2923Q42.8223-39.9577 40.6413-38.9811Q39.6322-38.5417 39.6322-37.321L40.0391-12.3372Q40.0879-10.9863 39.2578-10.262Q38.4277-9.53776 37.0605-9.53776ZM52.832-28.2389Q52.8646-29.5085 51.6927-30.3385L50.5208-31.1849Q49.6582-31.7871 49.2432-32.6335Q48.8281-33.4798 48.8281-34.6842L48.8281-36.1979Q48.8281-40.6738 49.5443-45.1009Q50.2604-49.528 51.5951-53.2471Q52.9297-56.9661 54.7038-59.5052Q55.6803-60.9049 56.7708-60.9049Q57.3405-60.9049 57.8125-60.5387Q58.2845-60.1725 58.2845-59.3262L58.2845-12.2559Q58.2845-10.9212 57.4788-10.2295Q56.6732-9.53776 55.2409-9.53776Q53.9225-9.53776 53.1006-10.2865Q52.2786-11.0352 52.2949-12.5163Z"/>
  </g>
  <g id="Thin-S" transform="matrix(1 0 0 1 811.859 696)">
   <path d="M44.5391 2.44928Q52.3422 2.44928 59.1498-0.47568Q65.9573-3.40064 71.1749-8.62368Q76.3924-13.8467 79.3418-20.6543Q82.2911-27.4619 82.2911-35.2539Q82.2911-43.0459 79.3418-49.8535Q76.3924-56.6611 71.1694-61.8841Q65.9463-67.1072 59.1387-70.0321Q52.3311-72.9571 44.5281-72.9571Q36.7739-72.9571 29.9474-70.0321Q23.1209-67.1072 17.9278-61.8841Q12.7347-56.6611 9.78531-49.8535Q6.83594-43.0459 6.83594-35.2539Q6.83594-27.4619 9.78531-20.6543Q12.7347-13.8467 17.9333-8.62368Q23.1319-3.40064 29.9584-0.47568Q36.7849 2.44928 44.5391 2.44928ZM36.1564-9.88218Q34.8916-9.88218 34.0671-10.5957Q33.2425-11.3092 33.2803-12.574L33.7198-37.4716Q33.7198-38.1332 33.5079-38.5159Q33.2961-38.8987 32.781-39.1318Q30.6373-40.1084 29.7954-41.4645Q28.9535-42.8207 29.0622-45.6748L29.6591-59.0663Q29.7568-60.4508 31.0326-60.4508Q32.3841-60.4508 32.3841-58.9907L32.2644-45.9677Q32.2644-44.6982 33.4205-44.6982Q34.6254-44.6982 34.6254-45.9189L34.794-59.3703Q34.794-60.7327 36.1564-60.7327Q37.5677-60.7327 37.5677-59.3703L37.752-45.9189Q37.752-44.6982 38.968-44.6982Q40.0973-44.6982 40.0973-45.9677L39.9776-58.9907Q39.9776-60.4508 41.2802-60.4508Q42.5939-60.4508 42.6427-59.0663L43.2885-45.6748Q43.435-42.8207 42.5797-41.4645Q41.7244-40.1084 39.6295-39.1318Q38.6419-38.6924 38.6419-37.4716L39.0704-12.574Q39.1192-11.3092 38.2891-10.5957Q37.459-9.88218 36.1564-9.88218ZM51.3467-27.8084Q51.4223-29.4008 50.2504-30.2955L49.3369-31.0342Q48.4958-31.658 48.0807-32.4613Q47.6657-33.2646 47.6657-34.5766L47.6657-36.2194Q47.6657-40.8676 48.3603-45.2731Q49.0549-49.6787 50.3465-53.3116Q51.6381-56.9446 53.4337-59.4837Q54.2811-60.7327 55.264-60.7327Q55.8121-60.7327 56.198-60.3988Q56.5839-60.0649 56.5839-59.2616L56.5839-12.5788Q56.5839-11.2872 55.7783-10.5847Q54.9726-9.88218 53.6479-9.88218Q52.3942-9.88218 51.5507-10.6524Q50.7072-11.4226 50.745-12.9899Z"/>
  </g>
  <g id="Ultralight-S" transform="matrix(1 0 0 1 515.644 696)">
   <path d="M44.043 1.95312Q51.7578 1.95312 58.4717-0.927734Q65.1855-3.80859 70.3369-8.95996Q75.4883-14.1113 78.3936-20.8252Q81.2988-27.5391 81.2988-35.2539Q81.2988-42.9688 78.3936-49.6826Q75.4883-56.3965 70.3369-61.5479Q65.1855-66.6992 58.4717-69.5801Q51.7578-72.4609 44.043-72.4609Q36.377-72.4609 29.6387-69.5801Q22.9004-66.6992 17.7734-61.5479Q12.6465-56.3965 9.74121-49.6826Q6.83594-42.9688 6.83594-35.2539Q6.83594-27.5391 9.74121-20.8252Q12.6465-14.1113 17.7734-8.95996Q22.9004-3.80859 29.6387-0.927734Q36.377 1.95312 44.043 1.95312ZM35.6934-10.0586Q34.4727-10.0586 33.6426-10.7666Q32.8125-11.4746 32.8613-12.6953L33.3008-37.5488Q33.3008-38.2324 33.1055-38.5986Q32.9102-38.9648 32.373-39.209Q30.2734-40.1855 29.4922-41.5527Q28.7109-42.9199 28.8086-45.752L29.3945-59.0332Q29.4922-60.3516 30.7129-60.3516Q32.0312-60.3516 32.0312-58.9355L31.9336-46.0449Q31.9336-44.7754 33.0566-44.7754Q34.2285-44.7754 34.2285-45.9961L34.375-59.3262Q34.375-60.6445 35.6934-60.6445Q37.0605-60.6445 37.0605-59.3262L37.2559-45.9961Q37.2559-44.7754 38.4277-44.7754Q39.502-44.7754 39.502-46.0449L39.4043-58.9355Q39.4043-60.3516 40.6738-60.3516Q41.9434-60.3516 41.9922-59.0332L42.627-45.752Q42.7734-42.9199 41.9678-41.5527Q41.1621-40.1855 39.1113-39.209Q38.1348-38.7695 38.1348-37.5488L38.5742-12.6953Q38.623-11.4746 37.793-10.7666Q36.9629-10.0586 35.6934-10.0586ZM50.5859-27.5879Q50.6836-29.3457 49.5117-30.2734L48.7305-30.957Q47.9004-31.5918 47.4854-32.373Q47.0703-33.1543 47.0703-34.5215L47.0703-36.2305Q47.0703-40.9668 47.7539-45.3613Q48.4375-49.7559 49.707-53.3447Q50.9766-56.9336 52.7832-59.4727Q53.5645-60.6445 54.4922-60.6445Q55.0293-60.6445 55.3711-60.3271Q55.7129-60.0098 55.7129-59.2285L55.7129-12.7441Q55.7129-11.4746 54.9072-10.7666Q54.1016-10.0586 52.832-10.0586Q51.6113-10.0586 50.7568-10.8398Q49.9023-11.6211 49.9512-13.2324Z"/>
  </g>
 </g>
</svg>
