<?xml version="1.0" encoding="UTF-8"?>
<!--Generator: Apple Native CoreSVG 175-->
<!DOCTYPE svg
PUBLIC "-//W3C//DTD SVG 1.1//EN"
       "http://www.w3.org/Graphics/SVG/1.1/DTD/svg11.dtd">
<svg version="1.1" xmlns="http://www.w3.org/2000/svg" xmlns:xlink="http://www.w3.org/1999/xlink" width="3300" height="2200">
 <!--glyph: "uni1002B9.medium", point size: 100.0, font version: "17.1d1e1", template writer version: "65.1"-->
 <g id="Notes">
  <rect height="2200" id="artboard" style="fill:white;opacity:1" width="3300" x="0" y="0"/>
  <line style="fill:none;stroke:black;opacity:1;stroke-width:0.5;" x1="263" x2="3036" y1="292" y2="292"/>
  <text style="stroke:none;fill:black;font-family:sans-serif;font-size:13;font-weight:bold;" transform="matrix(1 0 0 1 263 322)">Weight/Scale Variations</text>
  <text style="stroke:none;fill:black;font-family:sans-serif;font-size:13;text-anchor:middle;" transform="matrix(1 0 0 1 559.711 322)">Ultralight</text>
  <text style="stroke:none;fill:black;font-family:sans-serif;font-size:13;text-anchor:middle;" transform="matrix(1 0 0 1 856.422 322)">Thin</text>
  <text style="stroke:none;fill:black;font-family:sans-serif;font-size:13;text-anchor:middle;" transform="matrix(1 0 0 1 1153.13 322)">Light</text>
  <text style="stroke:none;fill:black;font-family:sans-serif;font-size:13;text-anchor:middle;" transform="matrix(1 0 0 1 1449.84 322)">Regular</text>
  <text style="stroke:none;fill:black;font-family:sans-serif;font-size:13;text-anchor:middle;" transform="matrix(1 0 0 1 1746.56 322)">Medium</text>
  <text style="stroke:none;fill:black;font-family:sans-serif;font-size:13;text-anchor:middle;" transform="matrix(1 0 0 1 2043.27 322)">Semibold</text>
  <text style="stroke:none;fill:black;font-family:sans-serif;font-size:13;text-anchor:middle;" transform="matrix(1 0 0 1 2339.98 322)">Bold</text>
  <text style="stroke:none;fill:black;font-family:sans-serif;font-size:13;text-anchor:middle;" transform="matrix(1 0 0 1 2636.69 322)">Heavy</text>
  <text style="stroke:none;fill:black;font-family:sans-serif;font-size:13;text-anchor:middle;" transform="matrix(1 0 0 1 2933.4 322)">Black</text>
  <line style="fill:none;stroke:black;opacity:1;stroke-width:0.5;" x1="263" x2="3036" y1="1903" y2="1903"/>
  <g transform="matrix(1 0 0 1 263 1933)">
   <path d="M9.24805 0.830078Q10.8691 0.830078 12.2949 0.214844Q13.7207-0.400391 14.8096-1.49414Q15.8984-2.58789 16.5186-4.01367Q17.1387-5.43945 17.1387-7.05078Q17.1387-8.66211 16.5186-10.0879Q15.8984-11.5137 14.8047-12.6074Q13.7109-13.7012 12.2852-14.3164Q10.8594-14.9316 9.23828-14.9316Q7.62695-14.9316 6.20117-14.3164Q4.77539-13.7012 3.69141-12.6074Q2.60742-11.5137 1.9873-10.0879Q1.36719-8.66211 1.36719-7.05078Q1.36719-5.43945 1.9873-4.01367Q2.60742-2.58789 3.69629-1.49414Q4.78516-0.400391 6.21094 0.214844Q7.63672 0.830078 9.24805 0.830078ZM9.24805-0.654297Q7.91992-0.654297 6.7627-1.14746Q5.60547-1.64062 4.73145-2.51953Q3.85742-3.39844 3.36426-4.56055Q2.87109-5.72266 2.87109-7.05078Q2.87109-8.37891 3.35938-9.54102Q3.84766-10.7031 4.72168-11.582Q5.5957-12.4609 6.75293-12.9541Q7.91016-13.4473 9.23828-13.4473Q10.5762-13.4473 11.7334-12.9541Q12.8906-12.4609 13.7695-11.582Q14.6484-10.7031 15.1465-9.54102Q15.6445-8.37891 15.6445-7.05078Q15.6445-5.72266 15.1514-4.56055Q14.6582-3.39844 13.7842-2.51953Q12.9102-1.64062 11.748-1.14746Q10.5859-0.654297 9.24805-0.654297ZM5.6543-7.05078Q5.6543-6.72852 5.85938-6.52832Q6.06445-6.32812 6.40625-6.32812L8.51562-6.32812L8.51562-4.20898Q8.51562-3.88672 8.71094-3.67676Q8.90625-3.4668 9.23828-3.4668Q9.56055-3.4668 9.77051-3.67676Q9.98047-3.88672 9.98047-4.20898L9.98047-6.32812L12.0898-6.32812Q12.4219-6.32812 12.627-6.52832Q12.832-6.72852 12.832-7.05078Q12.832-7.38281 12.627-7.58789Q12.4219-7.79297 12.0898-7.79297L9.98047-7.79297L9.98047-9.90234Q9.98047-10.2344 9.77051-10.4443Q9.56055-10.6543 9.23828-10.6543Q8.90625-10.6543 8.71094-10.4443Q8.51562-10.2344 8.51562-9.90234L8.51562-7.79297L6.40625-7.79297Q6.06445-7.79297 5.85938-7.58789Q5.6543-7.38281 5.6543-7.05078Z"/>
  </g>
  <g transform="matrix(1 0 0 1 281.867 1933)">
   <path d="M11.709 2.91016Q13.75 2.91016 15.5518 2.12891Q17.3535 1.34766 18.7305-0.0292969Q20.1074-1.40625 20.8887-3.20801Q21.6699-5.00977 21.6699-7.05078Q21.6699-9.0918 20.8887-10.8936Q20.1074-12.6953 18.7305-14.0723Q17.3535-15.4492 15.5469-16.2305Q13.7402-17.0117 11.6992-17.0117Q9.6582-17.0117 7.85645-16.2305Q6.05469-15.4492 4.68262-14.0723Q3.31055-12.6953 2.5293-10.8936Q1.74805-9.0918 1.74805-7.05078Q1.74805-5.00977 2.5293-3.20801Q3.31055-1.40625 4.6875-0.0292969Q6.06445 1.34766 7.86621 2.12891Q9.66797 2.91016 11.709 2.91016ZM11.709 1.25Q9.98047 1.25 8.47656 0.605469Q6.97266-0.0390625 5.83496-1.17676Q4.69727-2.31445 4.05762-3.81836Q3.41797-5.32227 3.41797-7.05078Q3.41797-8.7793 4.05762-10.2832Q4.69727-11.7871 5.83008-12.9297Q6.96289-14.0723 8.4668-14.7119Q9.9707-15.3516 11.6992-15.3516Q13.4277-15.3516 14.9316-14.7119Q16.4355-14.0723 17.5781-12.9297Q18.7207-11.7871 19.3652-10.2832Q20.0098-8.7793 20.0098-7.05078Q20.0098-5.32227 19.3701-3.81836Q18.7305-2.31445 17.5928-1.17676Q16.4551-0.0390625 14.9463 0.605469Q13.4375 1.25 11.709 1.25ZM7.17773-7.05078Q7.17773-6.69922 7.41211-6.47461Q7.64648-6.25 8.01758-6.25L10.8887-6.25L10.8887-3.36914Q10.8887-2.99805 11.1133-2.76855Q11.3379-2.53906 11.6895-2.53906Q12.0605-2.53906 12.29-2.76855Q12.5195-2.99805 12.5195-3.36914L12.5195-6.25L15.4004-6.25Q15.7715-6.25 16.001-6.47461Q16.2305-6.69922 16.2305-7.05078Q16.2305-7.42188 16.001-7.65137Q15.7715-7.88086 15.4004-7.88086L12.5195-7.88086L12.5195-10.752Q12.5195-11.1328 12.29-11.3623Q12.0605-11.5918 11.6895-11.5918Q11.3379-11.5918 11.1133-11.3574Q10.8887-11.123 10.8887-10.752L10.8887-7.88086L8.01758-7.88086Q7.63672-7.88086 7.40723-7.65137Q7.17773-7.42188 7.17773-7.05078Z"/>
  </g>
  <g transform="matrix(1 0 0 1 305.646 1933)">
   <path d="M14.9707 5.66406Q17.0605 5.66406 18.96 5.01465Q20.8594 4.36523 22.4512 3.19336Q24.043 2.02148 25.2197 0.429688Q26.3965-1.16211 27.0459-3.06641Q27.6953-4.9707 27.6953-7.05078Q27.6953-9.14062 27.0459-11.04Q26.3965-12.9395 25.2197-14.5312Q24.043-16.123 22.4512-17.2998Q20.8594-18.4766 18.9551-19.126Q17.0508-19.7754 14.9609-19.7754Q12.8711-19.7754 10.9717-19.126Q9.07227-18.4766 7.48535-17.2998Q5.89844-16.123 4.72168-14.5312Q3.54492-12.9395 2.90039-11.04Q2.25586-9.14062 2.25586-7.05078Q2.25586-4.9707 2.90527-3.06641Q3.55469-1.16211 4.72656 0.429688Q5.89844 2.02148 7.49023 3.19336Q9.08203 4.36523 10.9814 5.01465Q12.8809 5.66406 14.9707 5.66406ZM14.9707 3.84766Q13.1641 3.84766 11.5283 3.2959Q9.89258 2.74414 8.53516 1.74805Q7.17773 0.751953 6.17676-0.610352Q5.17578-1.97266 4.62891-3.6084Q4.08203-5.24414 4.08203-7.05078Q4.08203-8.86719 4.62891-10.5029Q5.17578-12.1387 6.17188-13.501Q7.16797-14.8633 8.52539-15.8594Q9.88281-16.8555 11.5186-17.4023Q13.1543-17.9492 14.9609-17.9492Q16.7773-17.9492 18.4131-17.4023Q20.0488-16.8555 21.4111-15.8594Q22.7734-14.8633 23.7695-13.501Q24.7656-12.1387 25.3174-10.5029Q25.8691-8.86719 25.8691-7.05078Q25.8789-5.24414 25.332-3.6084Q24.7852-1.97266 23.7842-0.610352Q22.7832 0.751953 21.4209 1.74805Q20.0586 2.74414 18.4229 3.2959Q16.7871 3.84766 14.9707 3.84766ZM9.19922-7.05078Q9.19922-6.66992 9.45801-6.4209Q9.7168-6.17188 10.1172-6.17188L14.0625-6.17188L14.0625-2.2168Q14.0625-1.81641 14.3115-1.55762Q14.5605-1.29883 14.9512-1.29883Q15.3516-1.29883 15.6104-1.55273Q15.8691-1.80664 15.8691-2.2168L15.8691-6.17188L19.8242-6.17188Q20.2246-6.17188 20.4785-6.4209Q20.7324-6.66992 20.7324-7.05078Q20.7324-7.46094 20.4785-7.71484Q20.2246-7.96875 19.8242-7.96875L15.8691-7.96875L15.8691-11.9141Q15.8691-12.3242 15.6104-12.583Q15.3516-12.8418 14.9512-12.8418Q14.5605-12.8418 14.3115-12.583Q14.0625-12.3242 14.0625-11.9141L14.0625-7.96875L10.1172-7.96875Q9.70703-7.96875 9.45312-7.71484Q9.19922-7.46094 9.19922-7.05078Z"/>
  </g>
  <text style="stroke:none;fill:black;font-family:sans-serif;font-size:13;font-weight:bold;" transform="matrix(1 0 0 1 263 1953)">Design Variations</text>
  <text style="stroke:none;fill:black;font-family:sans-serif;font-size:13;" transform="matrix(1 0 0 1 263 1971)">Symbols are supported in up to nine weights and three scales.</text>
  <text style="stroke:none;fill:black;font-family:sans-serif;font-size:13;" transform="matrix(1 0 0 1 263 1989)">For optimal layout with text and other symbols, vertically align</text>
  <text style="stroke:none;fill:black;font-family:sans-serif;font-size:13;" transform="matrix(1 0 0 1 263 2007)">symbols with the adjacent text.</text>
  <line style="fill:none;stroke:#00AEEF;stroke-width:0.5;opacity:1.0;" x1="776" x2="776" y1="1919" y2="1933"/>
  <g transform="matrix(1 0 0 1 776 1933)">
   <path d="M3.31055 0.15625Q3.70117 0.15625 3.91602-0.00976562Q4.13086-0.175781 4.26758-0.585938L5.52734-4.0332L11.2891-4.0332L12.5488-0.585938Q12.6855-0.175781 12.9004-0.00976562Q13.1152 0.15625 13.4961 0.15625Q13.8867 0.15625 14.1162-0.0585938Q14.3457-0.273438 14.3457-0.644531Q14.3457-0.869141 14.2383-1.17188L9.6582-13.3691Q9.48242-13.8184 9.17969-14.043Q8.87695-14.2676 8.4082-14.2676Q7.5-14.2676 7.17773-13.3789L2.59766-1.16211Q2.49023-0.859375 2.49023-0.634766Q2.49023-0.263672 2.70996-0.0537109Q2.92969 0.15625 3.31055 0.15625ZM6.00586-5.51758L8.37891-12.0898L8.42773-12.0898L10.8008-5.51758Z"/>
  </g>
  <line style="fill:none;stroke:#00AEEF;stroke-width:0.5;opacity:1.0;" x1="793.197" x2="793.197" y1="1919" y2="1933"/>
  <text style="stroke:none;fill:black;font-family:sans-serif;font-size:13;font-weight:bold;" transform="matrix(1 0 0 1 776 1953)">Margins</text>
  <text style="stroke:none;fill:black;font-family:sans-serif;font-size:13;" transform="matrix(1 0 0 1 776 1971)">Leading and trailing margins on the left and right side of each symbol</text>
  <text style="stroke:none;fill:black;font-family:sans-serif;font-size:13;" transform="matrix(1 0 0 1 776 1989)">can be adjusted by modifying the x-location of the margin guidelines.</text>
  <text style="stroke:none;fill:black;font-family:sans-serif;font-size:13;" transform="matrix(1 0 0 1 776 2007)">Modifications are automatically applied proportionally to all</text>
  <text style="stroke:none;fill:black;font-family:sans-serif;font-size:13;" transform="matrix(1 0 0 1 776 2025)">scales and weights.</text>
  <g transform="matrix(1 0 0 1 1289 1933)">
   <path d="M2.8418 1.86523L4.54102 3.57422Q5.18555 4.22852 5.90332 4.17969Q6.62109 4.13086 7.31445 3.35938L18.0078-8.42773L17.041-9.4043L6.42578 2.27539Q6.16211 2.57812 5.89355 2.61719Q5.625 2.65625 5.27344 2.30469L4.10156 1.14258Q3.75 0.791016 3.79395 0.522461Q3.83789 0.253906 4.14062-0.0195312L15.6152-10.8203L14.6387-11.7871L3.04688-0.898438Q2.30469-0.214844 2.25098 0.498047Q2.19727 1.21094 2.8418 1.86523ZM9.25781-16.3281Q8.94531-16.0254 8.90625-15.6348Q8.86719-15.2441 9.04297-14.9512Q9.21875-14.6777 9.55566-14.541Q9.89258-14.4043 10.3809-14.5215Q11.4746-14.7754 12.5977-14.7314Q13.7207-14.6875 14.7949-13.9844L14.209-12.5293Q13.9551-11.9043 14.0674-11.4404Q14.1797-10.9766 14.5801-10.5664L16.875-8.25195Q17.2363-7.88086 17.5781-7.82227Q17.9199-7.76367 18.3398-7.8418L19.4043-8.03711L20.0684-7.36328L20.0293-6.80664Q20-6.43555 20.1221-6.12305Q20.2441-5.81055 20.6055-5.44922L21.3672-4.70703Q21.7285-4.3457 22.1533-4.33105Q22.5781-4.31641 22.9297-4.66797L25.8398-7.58789Q26.1914-7.93945 26.1816-8.35449Q26.1719-8.76953 25.8105-9.13086L25.0391-9.89258Q24.6875-10.2539 24.3799-10.3857Q24.0723-10.5176 23.7109-10.4883L23.1348-10.4395L22.4902-11.0742L22.7344-12.1973Q22.832-12.6172 22.6953-12.9834Q22.5586-13.3496 22.1191-13.7891L19.9219-15.9766Q18.6719-17.2168 17.2607-17.8369Q15.8496-18.457 14.4189-18.4814Q12.9883-18.5059 11.665-17.959Q10.3418-17.4121 9.25781-16.3281ZM10.752-15.957Q11.6602-16.6211 12.7002-16.9043Q13.7402-17.1875 14.8047-17.085Q15.8691-16.9824 16.8701-16.5137Q17.8711-16.0449 18.7012-15.2051L21.1328-12.793Q21.3086-12.6172 21.3525-12.4512Q21.3965-12.2852 21.3379-12.0312L21.0156-10.5469L22.5195-9.0625L23.5059-9.12109Q23.6914-9.13086 23.7891-9.09668Q23.8867-9.0625 24.0332-8.91602L24.6094-8.33984L22.168-5.89844L21.5918-6.47461Q21.4453-6.62109 21.4062-6.71875Q21.3672-6.81641 21.377-7.01172L21.4453-7.98828L19.9512-9.47266L18.4277-9.21875Q18.1836-9.16992 18.042-9.2041Q17.9004-9.23828 17.7148-9.41406L15.7129-11.416Q15.5176-11.5918 15.4932-11.7529Q15.4688-11.9141 15.5859-12.1875L16.4648-14.2773Q15.293-15.3711 13.8281-15.791Q12.3633-16.2109 10.8398-15.7617Q10.7227-15.7324 10.6885-15.8057Q10.6543-15.8789 10.752-15.957Z"/>
  </g>
  <text style="stroke:none;fill:black;font-family:sans-serif;font-size:13;font-weight:bold;" transform="matrix(1 0 0 1 1289 1953)">Exporting</text>
  <text style="stroke:none;fill:black;font-family:sans-serif;font-size:13;" transform="matrix(1 0 0 1 1289 1971)">Symbols should be outlined when exporting to ensure the</text>
  <text style="stroke:none;fill:black;font-family:sans-serif;font-size:13;" transform="matrix(1 0 0 1 1289 1989)">design is preserved when submitting to Xcode.</text>
  <text id="template-version" style="stroke:none;fill:black;font-family:sans-serif;font-size:13;text-anchor:end;" transform="matrix(1 0 0 1 3036 1933)">Template v.3.0</text>
  <text style="stroke:none;fill:black;font-family:sans-serif;font-size:13;text-anchor:end;" transform="matrix(1 0 0 1 3036 1951)">Requires Xcode 13 or greater</text>
  <text id="descriptive-name" style="stroke:none;fill:black;font-family:sans-serif;font-size:13;text-anchor:end;" transform="matrix(1 0 0 1 3036 1969)">Generated from heart.circle.fill</text>
  <text style="stroke:none;fill:black;font-family:sans-serif;font-size:13;text-anchor:end;" transform="matrix(1 0 0 1 3036 1987)">Typeset at 100 points</text>
  <text style="stroke:none;fill:black;font-family:sans-serif;font-size:13;" transform="matrix(1 0 0 1 263 726)">Small</text>
  <text style="stroke:none;fill:black;font-family:sans-serif;font-size:13;" transform="matrix(1 0 0 1 263 1156)">Medium</text>
  <text style="stroke:none;fill:black;font-family:sans-serif;font-size:13;" transform="matrix(1 0 0 1 263 1586)">Large</text>
 </g>
 <g id="Guides">
  <g id="H-reference" style="fill:#27AAE1;stroke:none;" transform="matrix(1 0 0 1 339 696)">
   <path d="M0.976562 0L3.66211 0L29.3457-67.1387L30.0293-67.1387L30.0293-70.459L28.125-70.459ZM11.6699-24.4629L46.9727-24.4629L46.2402-26.709L12.4512-26.709ZM55.127 0L57.7637 0L30.6152-70.459L29.4434-70.459L29.4434-67.1387Z"/>
  </g>
  <line id="Baseline-S" style="fill:none;stroke:#27AAE1;opacity:1;stroke-width:0.5;" x1="263" x2="3036" y1="696" y2="696"/>
  <line id="Capline-S" style="fill:none;stroke:#27AAE1;opacity:1;stroke-width:0.5;" x1="263" x2="3036" y1="625.541" y2="625.541"/>
  <g id="H-reference" style="fill:#27AAE1;stroke:none;" transform="matrix(1 0 0 1 339 1126)">
   <path d="M0.976562 0L3.66211 0L29.3457-67.1387L30.0293-67.1387L30.0293-70.459L28.125-70.459ZM11.6699-24.4629L46.9727-24.4629L46.2402-26.709L12.4512-26.709ZM55.127 0L57.7637 0L30.6152-70.459L29.4434-70.459L29.4434-67.1387Z"/>
  </g>
  <line id="Baseline-M" style="fill:none;stroke:#27AAE1;opacity:1;stroke-width:0.5;" x1="263" x2="3036" y1="1126" y2="1126"/>
  <line id="Capline-M" style="fill:none;stroke:#27AAE1;opacity:1;stroke-width:0.5;" x1="263" x2="3036" y1="1055.54" y2="1055.54"/>
  <g id="H-reference" style="fill:#27AAE1;stroke:none;" transform="matrix(1 0 0 1 339 1556)">
   <path d="M0.976562 0L3.66211 0L29.3457-67.1387L30.0293-67.1387L30.0293-70.459L28.125-70.459ZM11.6699-24.4629L46.9727-24.4629L46.2402-26.709L12.4512-26.709ZM55.127 0L57.7637 0L30.6152-70.459L29.4434-70.459L29.4434-67.1387Z"/>
  </g>
  <line id="Baseline-L" style="fill:none;stroke:#27AAE1;opacity:1;stroke-width:0.5;" x1="263" x2="3036" y1="1556" y2="1556"/>
  <line id="Capline-L" style="fill:none;stroke:#27AAE1;opacity:1;stroke-width:0.5;" x1="263" x2="3036" y1="1485.54" y2="1485.54"/>
  <line id="left-margin-Regular-M" style="fill:none;stroke:#00AEEF;stroke-width:0.5;opacity:1.0;" x1="1391.32" x2="1391.32" y1="1030.79" y2="1150.12"/>
  <line id="right-margin-Regular-M" style="fill:none;stroke:#00AEEF;stroke-width:0.5;opacity:1.0;" x1="1508.37" x2="1508.37" y1="1030.79" y2="1150.12"/>
 </g>
 <g id="Symbols">
  <g id="Black-L" transform="matrix(1 0 0 1 2854.19 1556)">
   <path d="M79.1953 32.7252Q93.2356 32.7252 105.521 27.4303Q117.806 22.1354 127.174 12.7571Q136.542 3.37874 141.848-8.90649Q147.154-21.1917 147.154-35.2113Q147.154-49.2309 141.848-61.5161Q136.542-73.8013 127.164-83.1796Q117.785-92.558 105.5-97.8529Q93.2149-103.148 79.1746-103.148Q65.1563-103.148 52.8704-97.8529Q40.5846-92.558 31.2276-83.1796Q21.8707-73.8013 16.5647-61.5161Q11.2588-49.2309 11.2588-35.2113Q11.2588-21.1917 16.5647-8.90649Q21.8707 3.37874 31.238 12.7571Q40.6053 22.1354 52.8912 27.4303Q65.177 32.7252 79.1953 32.7252ZM64.1065-63.0023Q69.6427-63.0023 73.4483-60.2966Q77.2538-57.5908 79.2173-54.1295Q81.2367-57.5908 85.0137-60.2966Q88.7907-63.0023 94.3049-63.0023Q101.902-63.0023 107.237-57.563Q112.573-52.1238 112.573-43.1956Q112.573-37.0909 110.112-31.6784Q107.652-26.2659 103.874-21.7617Q100.096-17.2576 96.0037-13.7545Q91.9114-10.2513 88.4578-7.91851Q85.0042-5.58569 83.3142-4.63205Q82.3776-4.1885 81.2833-3.63135Q80.189-3.0742 79.2575-3.0742Q78.326-3.0742 77.1721-3.63199Q76.0182-4.18979 75.118-4.63205Q73.463-5.64023 70.0198-7.97177Q66.5766-10.3033 62.4544-13.7675Q58.3322-17.2317 54.545-21.7664Q50.7579-26.301 48.3086-31.6959Q45.8594-37.0909 45.8594-43.1956Q45.8594-52.1238 51.1846-57.563Q56.5098-63.0023 64.1065-63.0023Z"/>
  </g>
  <g id="Heavy-L" transform="matrix(1 0 0 1 2558.42 1556)">
   <path d="M78.2511 31.7672Q92.088 31.7672 104.202 26.5464Q116.316 21.3256 125.559 12.0677Q134.802 2.8099 140.04-9.30402Q145.279-21.4179 145.279-35.2251Q145.279-49.0322 140.04-61.1461Q134.802-73.2601 125.544-82.5179Q116.286-91.7758 104.172-96.9966Q92.0582-102.217 78.2213-102.217Q64.4202-102.217 52.3033-96.9966Q40.1863-91.7758 30.9613-82.5179Q21.7362-73.2601 16.4975-61.1461Q11.2588-49.0322 11.2588-35.2251Q11.2588-21.4179 16.4975-9.30402Q21.7362 2.8099 30.9761 12.0677Q40.2161 21.3256 52.333 26.5464Q64.45 31.7672 78.2511 31.7672ZM63.0577-63.2266Q68.5197-63.2266 72.3666-60.5117Q76.2136-57.7967 78.2869-54.1209Q80.3927-57.7967 84.2203-60.5117Q88.048-63.2266 93.4742-63.2266Q101.222-63.2266 106.559-57.7538Q111.896-52.281 111.896-43.4418Q111.896-37.5657 109.543-32.2791Q107.191-26.9926 103.52-22.4861Q99.8488-17.9796 95.7562-14.3574Q91.6636-10.7352 88.0039-8.16396Q84.3443-5.59275 82.1509-4.26313Q81.2518-3.8015 80.2203-3.26573Q79.1887-2.72995 78.3404-2.72995Q77.492-2.72995 76.3965-3.26874Q75.301-3.80754 74.4108-4.26313Q72.2202-5.61927 68.5754-8.18444Q64.9306-10.7496 60.8127-14.3376Q56.6948-17.9257 53.0151-22.4605Q49.3353-26.9954 47.0004-32.2805Q44.6655-37.5657 44.6655-43.4418Q44.6655-52.281 49.9879-57.7538Q55.3103-63.2266 63.0577-63.2266Z"/>
  </g>
  <g id="Bold-L" transform="matrix(1 0 0 1 2262.89 1556)">
   <path d="M77.0653 30.566Q90.6516 30.566 102.549 25.4396Q114.447 20.3133 123.533 11.2089Q132.619 2.10448 137.771-9.79333Q142.923-21.6912 142.923-35.2405Q142.923-48.7898 137.771-60.6877Q132.619-72.5855 123.515-81.6899Q114.41-90.7942 102.512-95.9206Q90.6146-101.047 77.0283-101.047Q63.4932-101.047 51.5882-95.9206Q39.6833-90.7942 30.623-81.6899Q21.5627-72.5855 16.4108-60.6877Q11.2588-48.7898 11.2588-35.2405Q11.2588-21.6912 16.4108-9.79333Q21.5627 2.10448 30.6415 11.2089Q39.7203 20.3133 51.6252 25.4396Q63.5301 30.566 77.0653 30.566ZM61.775-63.4632Q67.1426-63.4632 71.0358-60.7365Q74.929-58.0097 77.1165-54.1229Q79.3047-58.0097 83.1904-60.7365Q87.0761-63.4632 92.3925-63.4632Q100.291-63.4632 105.619-57.9702Q110.946-52.4772 110.946-43.766Q110.946-38.1256 108.704-32.9728Q106.461-27.82 102.896-23.3093Q99.3304-18.7987 95.2332-15.0505Q91.1361-11.3023 87.2588-8.4745Q83.3816-5.64671 80.6625-3.91087Q79.8198-3.43479 78.8714-2.93587Q77.9229-2.43695 77.1762-2.43695Q76.4295-2.43695 75.4181-2.94298Q74.4067-3.44902 73.542-3.91087Q70.7867-5.63323 66.9279-8.4468Q63.0692-11.2604 58.9503-14.9826Q54.8315-18.7048 51.2619-23.2443Q47.6922-27.7837 45.4751-32.9546Q43.258-38.1256 43.258-43.766Q43.258-52.4772 48.5672-57.9702Q53.8763-63.4632 61.775-63.4632Z"/>
  </g>
  <g id="Semibold-L" transform="matrix(1 0 0 1 1966.99 1556)">
   <path d="M76.2478 29.7379Q89.6614 29.7379 101.41 24.6766Q113.159 19.6153 122.137 10.6168Q131.114 1.61818 136.206-10.1307Q141.299-21.8795 141.299-35.2511Q141.299-48.6228 136.206-60.3716Q131.114-72.1204 122.116-81.119Q113.117-90.1176 101.368-95.1789Q89.6194-100.24 76.2058-100.24Q62.854-100.24 51.0953-95.1789Q39.3365-90.1176 30.3898-81.119Q21.4432-72.1204 16.351-60.3716Q11.2588-48.6228 11.2588-35.2511Q11.2588-21.8795 16.351-10.1307Q21.4432 1.61818 30.4108 10.6168Q39.3785 19.6153 51.1372 24.6766Q62.896 29.7379 76.2478 29.7379ZM60.8907-63.6264Q66.1933-63.6264 70.1183-60.8914Q74.0434-58.1565 76.3096-54.1242Q78.5547-58.1565 82.4804-60.8914Q86.4061-63.6264 91.6468-63.6264Q99.6498-63.6264 104.971-58.1194Q110.292-52.6124 110.292-43.9896Q110.292-38.5116 108.125-33.4509Q105.958-28.3903 102.466-23.8769Q98.973-19.3634 94.8727-15.5284Q90.7724-11.6933 86.7452-8.68859Q82.718-5.6839 79.6364-3.66803Q78.8326-3.18198 77.9414-2.70847Q77.0503-2.23496 76.3737-2.23496Q75.6971-2.23496 74.7437-2.71841Q73.7902-3.20186 72.9431-3.66803Q69.7984-5.64286 65.7922-8.62767Q61.786-11.6125 57.6664-15.4272Q53.5469-19.242 50.0532-23.7846Q46.5595-28.3272 44.4236-33.4194Q42.2877-38.5116 42.2877-43.9896Q42.2877-52.6124 47.5877-58.1194Q52.8878-63.6264 60.8907-63.6264Z"/>
  </g>
  <g id="Medium-L" transform="matrix(1 0 0 1 1670.89 1556)">
   <path d="M75.6279 29.11Q88.9106 29.11 100.546 24.0981Q112.182 19.0862 121.078 10.1678Q129.973 1.24944 135.02-10.3864Q140.067-22.0223 140.067-35.2592Q140.067-48.4961 135.02-60.1319Q129.973-71.7678 121.055-80.6862Q112.137-89.6045 100.501-94.6164Q88.8648-99.6283 75.5822-99.6283Q62.3695-99.6283 50.7215-94.6164Q39.0736-89.6045 30.213-80.6862Q21.3525-71.7678 16.3056-60.1319Q11.2588-48.4961 11.2588-35.2592Q11.2588-22.0223 16.3056-10.3864Q21.3525 1.24944 30.2359 10.1678Q39.1193 19.0862 50.7673 24.0981Q62.4152 29.11 75.6279 29.11ZM60.2203-63.75Q65.4734-63.75 69.4227-61.0089Q73.3719-58.2678 75.6978-54.1252Q77.986-58.2678 81.942-61.0089Q85.8981-63.75 91.0814-63.75Q99.1634-63.75 104.479-58.2324Q109.795-52.7149 109.795-44.1591Q109.795-38.8042 107.686-33.8135Q105.577-28.8228 102.139-24.3072Q98.702-19.7916 94.5993-15.8907Q90.4966-11.9897 86.3557-8.85092Q82.2147-5.7121 78.8584-3.4839Q78.084-2.99029 77.2363-2.53605Q76.3887-2.0818 75.7652-2.0818Q75.1417-2.0818 74.2322-2.54812Q73.3228-3.01445 72.489-3.4839Q69.0491-5.65015 64.931-8.76481Q60.813-11.8795 56.6929-15.7644Q52.5729-19.6493 49.1367-24.1943Q45.7006-28.7393 43.6263-33.7717Q41.552-38.8042 41.552-44.1591Q41.552-52.7149 46.8451-58.2324Q52.1382-63.75 60.2203-63.75Z"/>
  </g>
  <g id="Regular-L" transform="matrix(1 0 0 1 1374.98 1556)">
   <path d="M74.8194 28.2909Q87.9312 28.2909 99.4198 23.3434Q110.908 18.3959 119.697 9.58221Q128.485 0.768476 133.473-10.7201Q138.46-22.2086 138.46-35.2697Q138.46-48.3308 133.473-59.8193Q128.485-71.3079 119.671-80.1216Q110.858-88.9353 99.3691-93.8828Q87.8805-98.8303 74.7687-98.8303Q61.7374-98.8303 50.234-93.8828Q38.7306-88.9353 29.9824-80.1216Q21.2342-71.3079 16.2465-59.8193Q11.2588-48.3308 11.2588-35.2697Q11.2588-22.2086 16.2465-10.7201Q21.2342 0.768476 30.0077 9.58221Q38.7813 18.3959 50.2847 23.3434Q61.7881 28.2909 74.8194 28.2909ZM59.3457-63.9113Q64.5345-63.9113 68.5153-61.1622Q72.496-58.413 74.8998-54.1265Q77.2442-58.413 81.2398-61.1622Q85.2355-63.9113 90.3438-63.9113Q98.5291-63.9113 103.838-58.38Q109.148-52.8486 109.148-44.3802Q109.148-39.186 107.114-34.2864Q105.08-29.3869 101.714-24.8685Q98.3485-20.3501 94.2427-16.3633Q90.1369-12.3764 85.8476-9.06265Q81.5584-5.74889 77.8436-3.24372Q77.1076-2.74026 76.3166-2.31115Q75.5256-1.88203 74.9715-1.88203Q74.4173-1.88203 73.5652-2.32602Q72.713-2.77 71.8967-3.24372Q68.0717-5.65967 63.8078-8.9437Q59.5438-12.2277 55.4231-16.2041Q51.3025-20.1805 47.9414-24.7286Q44.5803-29.2767 42.5863-34.2314Q40.5924-39.186 40.5924-44.3802Q40.5924-52.8486 45.8764-58.38Q51.1605-63.9113 59.3457-63.9113Z"/>
  </g>
  <g id="Light-L" transform="matrix(1 0 0 1 1079.2 1556)">
   <path d="M73.8959 27.3674Q86.8436 27.3674 98.1577 22.502Q109.472 17.6366 118.137 8.95629Q126.802 0.275949 131.708-11.0381Q136.614-22.3522 136.614-35.2697Q136.614-48.1872 131.708-59.5013Q126.802-70.8154 118.122-79.4957Q109.442-88.176 98.1275-93.0414Q86.8134-97.9069 73.8658-97.9069Q60.9986-97.9069 49.6594-93.0414Q38.3201-88.176 29.6951-79.4957Q21.07-70.8154 16.1644-59.5013Q11.2588-48.1872 11.2588-35.2697Q11.2588-22.3522 16.1644-11.0381Q21.07 0.275949 29.7102 8.95629Q38.3503 17.6366 49.6895 22.502Q61.0287 27.3674 73.8959 27.3674ZM58.5659-63.8087Q63.6726-63.8087 67.6533-61.0493Q71.6341-58.2899 73.9764-54.2086Q76.2181-58.2899 80.224-61.0493Q84.2299-63.8087 89.2562-63.8087Q97.3183-63.8087 102.546-58.4005Q107.773-52.9922 107.773-44.7291Q107.773-39.3912 105.667-34.4404Q103.561-29.4895 100.093-24.9609Q96.6247-20.4322 92.4881-16.4967Q88.3515-12.5611 84.1546-9.31917Q79.9577-6.07724 76.5096-3.67469Q75.8763-3.21227 75.1777-2.8755Q74.479-2.53873 73.9864-2.53873Q73.4938-2.53873 72.7751-2.90063Q72.0563-3.26253 71.3426-3.67469Q67.7639-5.92646 63.582-9.11813Q59.4002-12.3098 55.2385-16.2554Q51.0767-20.201 47.6438-24.7799Q44.2109-29.3588 42.1451-34.375Q40.0793-39.3912 40.0793-44.7291Q40.0793-52.9922 45.2915-58.4005Q50.5038-63.8087 58.5659-63.8087Z"/>
  </g>
  <g id="Thin-L" transform="matrix(1 0 0 1 783.707 1556)">
   <path d="M72.6746 26.1461Q85.405 26.1461 96.4884 21.3892Q107.572 16.6324 116.074 8.12846Q124.577-0.375458 129.374-11.4588Q134.171-22.5422 134.171-35.2697Q134.171-47.9972 129.374-59.0806Q124.577-70.1639 116.073-78.6679Q107.569-87.1718 96.4854-91.9286Q85.402-96.6855 72.6715-96.6855Q60.0215-96.6855 48.8994-91.9286Q37.7773-87.1718 29.3151-78.6679Q20.8529-70.1639 16.0558-59.0806Q11.2588-47.9972 11.2588-35.2697Q11.2588-22.5422 16.0558-11.4588Q20.8529-0.375458 29.3166 8.12846Q37.7803 16.6324 48.9024 21.3892Q60.0245 26.1461 72.6746 26.1461ZM57.5345-63.673Q62.5326-63.673 66.5134-60.9Q70.4942-58.1271 72.755-54.3172Q74.861-58.1271 78.8805-60.9Q82.9-63.673 87.8176-63.673Q95.7169-63.673 100.836-58.4276Q105.954-53.1822 105.954-45.1905Q105.954-39.6626 103.753-34.6439Q101.552-29.6252 97.9486-25.083Q94.3448-20.5408 90.1675-16.6731Q85.9902-12.8054 81.9154-9.65845Q77.8406-6.51151 74.7454-4.24467Q74.2478-3.83653 73.6713-3.6219Q73.0948-3.40728 72.6836-3.40728Q72.2725-3.40728 71.7301-3.66061Q71.1878-3.91393 70.6097-4.24467Q67.3567-6.2793 63.2835-9.34884Q59.2102-12.4184 54.9942-16.3233Q50.7782-20.2282 47.2502-24.8478Q43.7223-29.4674 41.5616-34.565Q39.4008-39.6626 39.4008-45.1905Q39.4008-53.1822 44.518-58.4276Q49.6352-63.673 57.5345-63.673Z"/>
  </g>
  <g id="Ultralight-L" transform="matrix(1 0 0 1 487.622 1556)">
   <path d="M72.049 25.5205Q84.6682 25.5205 95.6335 20.8192Q106.599 16.118 115.018 7.70445Q123.437-0.709105 128.178-11.6743Q132.92-22.6395 132.92-35.2697Q132.92-47.8999 128.178-58.8651Q123.437-69.8303 115.023-78.2439Q106.61-86.6574 95.6443-91.3586Q84.6791-96.0599 72.0598-96.0599Q59.521-96.0599 48.5101-91.3586Q37.4993-86.6574 29.1205-78.2439Q20.7417-69.8303 16.0002-58.8651Q11.2588-47.8999 11.2588-35.2697Q11.2588-22.6395 16.0002-11.6743Q20.7417-0.709105 29.115 7.70445Q37.4884 16.118 48.4992 20.8192Q59.5101 25.5205 72.049 25.5205ZM57.0062-63.6035Q61.9487-63.6035 65.9295-60.8236Q69.9103-58.0437 72.1294-54.3728Q74.1659-58.0437 78.1923-60.8236Q82.2188-63.6035 87.0808-63.6035Q94.8967-63.6035 99.9598-58.4415Q105.023-53.2795 105.023-45.4268Q105.023-39.8016 102.773-34.7482Q100.524-29.6947 96.8503-25.1456Q93.177-20.5964 88.9788-16.7634Q84.7807-12.9305 80.7685-9.83222Q76.7562-6.73394 73.8418-4.53661Q73.4137-4.15628 72.8997-4.00421Q72.3858-3.85214 72.0163-3.85214Q71.6469-3.85214 71.1949-4.04986Q70.7429-4.24758 70.2344-4.53661Q67.1482-6.46003 63.1305-9.46701Q59.1129-12.474 54.8691-16.358Q50.6252-20.2421 47.0487-24.8825Q43.4721-29.523 41.2627-34.6623Q39.0532-39.8016 39.0532-45.4268Q39.0532-53.2795 44.1218-58.4415Q49.1904-63.6035 57.0062-63.6035Z"/>
  </g>
  <g id="Black-M" transform="matrix(1 0 0 1 2871.36 1126)">
   <path d="M62.0423 18.1161Q73.0725 18.1161 82.714 13.9613Q92.3555 9.80654 99.704 2.45531Q107.052-4.89592 111.21-14.5374Q115.367-24.1789 115.367-35.2035Q115.367-46.2282 111.21-55.8697Q107.052-65.5112 99.7012-72.8624Q92.35-80.2136 82.7085-84.3684Q73.067-88.5232 62.0368-88.5232Q51.0119-88.5232 41.3705-84.3684Q31.7292-80.2136 24.3833-72.8624Q17.0375-65.5112 12.8801-55.8697Q8.72266-46.2282 8.72266-35.2035Q8.72266-24.1789 12.8801-14.5374Q17.0375-4.89592 24.3861 2.45531Q31.7347 9.80654 41.376 13.9613Q51.0174 18.1161 62.0423 18.1161ZM50.4618-56.5395Q54.8035-56.5395 57.7163-54.4499Q60.6291-52.3602 62.0476-49.8906Q63.5237-52.3602 66.4078-54.4499Q69.2919-56.5395 73.6284-56.5395Q79.3677-56.5395 83.4888-52.371Q87.61-48.2025 87.61-41.2369Q87.61-36.2913 85.6019-31.9828Q83.5937-27.6744 80.5607-24.1854Q77.5276-20.6965 74.3531-18.0918Q71.1786-15.4871 68.6926-13.8943Q66.2066-12.3016 65.366-11.8998Q64.622-11.5773 63.7329-11.1398Q62.8437-10.7023 62.0589-10.7023Q61.274-10.7023 60.3479-11.1396Q59.4218-11.577 58.7297-11.8998Q57.9413-12.3596 55.4581-13.9527Q52.9748-15.5457 49.7719-18.119Q46.569-20.6922 43.5329-24.2094Q40.4968-27.7265 38.4912-32.0089Q36.4857-36.2913 36.4857-41.2369Q36.4857-48.2025 40.6041-52.371Q44.7225-56.5395 50.4618-56.5395Z"/>
  </g>
  <g id="Heavy-M" transform="matrix(1 0 0 1 2575.48 1126)">
   <path d="M61.2045 17.2648Q72.0509 17.2648 81.541 13.1749Q91.0312 9.08498 98.2688 1.83921Q105.506-5.40657 109.606-14.8967Q113.705-24.3868 113.705-35.217Q113.705-46.0473 109.606-55.5374Q105.506-65.0275 98.2607-72.2733Q91.0149-79.519 81.5248-83.6089Q72.0347-87.6988 61.1882-87.6988Q50.3604-87.6988 40.8691-83.6089Q31.3778-79.519 24.1495-72.2733Q16.9211-65.0275 12.8219-55.5374Q8.72266-46.0473 8.72266-35.217Q8.72266-24.3868 12.8219-14.8967Q16.9211-5.40657 24.1576 1.83921Q31.394 9.08498 40.8853 13.1749Q50.3767 17.2648 61.2045 17.2648ZM49.5084-56.7683Q53.7852-56.7683 56.7384-54.6705Q59.6916-52.5728 61.2231-49.8747Q62.7934-52.5728 65.726-54.6705Q68.6587-56.7683 72.9168-56.7683Q78.8147-56.7683 82.9451-52.5556Q87.0754-48.343 87.0754-41.4454Q87.0754-36.7365 85.179-32.5559Q83.2825-28.3753 80.3637-24.885Q77.4449-21.3947 74.273-18.6689Q71.1011-15.943 68.4051-14.1106Q65.7091-12.2782 64.3519-11.4994Q63.6351-11.1554 62.7988-10.7303Q61.9624-10.3052 61.2532-10.3052Q60.544-10.3052 59.6627-10.7315Q58.7813-11.1579 58.0895-11.4994Q56.7548-12.3145 54.0669-14.1445Q51.379-15.9744 48.1841-18.6716Q44.9892-21.3687 42.0647-24.8833Q39.1402-28.3978 37.2531-32.5672Q35.366-36.7365 35.366-41.4454Q35.366-48.343 39.4882-52.5556Q43.6104-56.7683 49.5084-56.7683Z"/>
  </g>
  <g id="Bold-M" transform="matrix(1 0 0 1 2279.69 1126)">
   <path d="M60.2672 16.3124Q70.9082 16.3124 80.2289 12.2951Q89.5497 8.27781 96.6634 1.15Q103.777-5.9778 107.811-15.2986Q111.845-24.6193 111.845-35.2321Q111.845-45.8449 107.811-55.1656Q103.777-64.4864 96.6493-71.6142Q89.5215-78.742 80.2007-82.7593Q70.8799-86.7766 60.2389-86.7766Q49.6317-86.7766 40.3082-82.7593Q30.9846-78.742 23.8878-71.6142Q16.791-64.4864 12.7568-55.1656Q8.72266-45.8449 8.72266-35.2321Q8.72266-24.6193 12.7568-15.2986Q16.791-5.9778 23.902 1.15Q31.0129 8.27781 40.3364 12.2951Q49.6599 16.3124 60.2672 16.3124ZM48.4419-57.0243Q52.6461-57.0243 55.6445-54.9174Q58.643-52.8106 60.3009-49.8568Q61.9764-52.8106 64.9633-54.9174Q67.9502-57.0243 72.1207-57.0243Q78.1961-57.0243 82.3368-52.7622Q86.4775-48.5002 86.4775-41.6785Q86.4775-37.2346 84.7059-33.197Q82.9343-29.1594 80.1433-25.6676Q77.3523-22.1758 74.1834-19.3144Q71.0144-16.453 68.0836-14.3526Q65.1527-12.2521 63.2174-11.0515Q62.5311-10.6835 61.7538-10.2722Q60.9765-9.86093 60.3519-9.86093Q59.7273-9.86093 58.8961-10.275Q58.0649-10.689 57.3734-11.0515Q55.4274-12.2641 52.5106-14.359Q49.5939-16.454 46.4079-19.2897Q43.2219-22.1255 40.4223-25.6371Q37.6227-29.1487 35.868-33.1916Q34.1134-37.2346 34.1134-41.6785Q34.1134-48.5002 38.2399-52.7622Q42.3664-57.0243 48.4419-57.0243Z"/>
  </g>
  <g id="Semibold-M" transform="matrix(1 0 0 1 1983.62 1126)">
   <path d="M59.621 15.6559Q70.1203 15.6559 79.3244 11.6886Q88.5284 7.72135 95.5566 0.674869Q102.585-6.37161 106.574-15.5756Q110.564-24.7797 110.564-35.2425Q110.564-45.7053 106.574-54.9093Q102.585-64.1134 95.5384-71.1598Q88.4919-78.2063 79.2879-82.1736Q70.0838-86.1408 59.5845-86.1408Q49.1293-86.1408 39.9215-82.1736Q30.7136-78.2063 23.7075-71.1598Q16.7013-64.1134 12.712-54.9093Q8.72266-45.7053 8.72266-35.2425Q8.72266-24.7797 12.712-15.5756Q16.7013-6.37161 23.7257 0.674869Q30.7501 7.72135 39.958 11.6886Q49.1658 15.6559 59.621 15.6559ZM47.7066-57.2007Q51.8608-57.2007 54.8904-55.0876Q57.92-52.9745 59.6652-49.8445Q61.4131-52.9745 64.4375-55.0876Q67.4619-57.2007 71.5719-57.2007Q77.7697-57.2007 81.9175-52.9046Q86.0652-48.6085 86.0652-41.8393Q86.0652-37.5779 84.3798-33.639Q82.6943-29.7 79.9914-26.2071Q77.2885-22.7142 74.1216-19.7594Q70.9547-16.8046 67.8619-14.5193Q64.7691-12.234 62.4353-10.7427Q61.77-10.3582 61.0334-9.95643Q60.2968-9.55468 59.7305-9.55468Q59.1642-9.55468 58.3676-9.96025Q57.571-10.3658 56.8797-10.7427Q54.5123-12.2293 51.4378-14.5069Q48.3632-16.7846 45.1834-19.7159Q42.0036-22.6472 39.2901-26.1568Q36.5766-29.6664 34.9132-33.6221Q33.2498-37.5779 33.2498-41.8393Q33.2498-48.6085 37.3793-52.9046Q41.5088-57.2007 47.7066-57.2007Z"/>
  </g>
  <g id="Medium-M" transform="matrix(1 0 0 1 1687.4 1126)">
   <path d="M59.1311 15.158Q69.523 15.158 78.6385 11.2287Q87.754 7.29942 94.7174 0.314603Q101.681-6.67021 105.636-15.7857Q109.591-24.9012 109.591-35.2504Q109.591-45.5995 105.636-54.715Q101.681-63.8305 94.696-70.8153Q87.7112-77.8002 78.5957-81.7295Q69.4802-85.6588 59.0883-85.6588Q48.7484-85.6588 39.6283-81.7295Q30.5081-77.8002 23.5707-70.8153Q16.6333-63.8305 12.678-54.715Q8.72266-45.5995 8.72266-35.2504Q8.72266-24.9012 12.678-15.7857Q16.6333-6.67021 23.5921 0.314603Q30.5509 7.29942 39.671 11.2287Q48.7912 15.158 59.1311 15.158ZM47.1492-57.3345Q51.2654-57.3345 54.3186-55.2166Q57.3719-53.0988 59.1831-49.8352Q60.9861-53.0988 64.0388-55.2166Q67.0915-57.3345 71.1557-57.3345Q77.4463-57.3345 81.5995-53.0126Q85.7526-48.6907 85.7526-41.9611Q85.7526-37.8382 84.1325-33.9741Q82.5123-30.1099 79.8762-26.6162Q77.2402-23.1225 74.0748-20.0969Q70.9094-17.0713 67.6938-14.6458Q64.4782-12.2204 61.8423-10.5086Q61.1929-10.1115 60.4872-9.71699Q59.7815-9.32247 59.2594-9.32247Q58.7373-9.32247 57.9669-9.72161Q57.1965-10.1208 56.5054-10.5086Q53.8184-12.2029 50.6243-14.6191Q47.4301-17.0353 44.2549-20.039Q41.0798-23.0427 38.4316-26.5508Q35.7834-30.0589 34.1892-33.9486Q32.595-37.8382 32.595-41.9611Q32.595-48.6907 36.7268-53.0126Q40.8586-57.3345 47.1492-57.3345Z"/>
  </g>
  <g id="Regular-M" transform="matrix(1 0 0 1 1391.32 1126)">
   <path d="M58.492 14.5087Q68.7438 14.5087 77.7439 10.6289Q86.7439 6.74907 93.6228-0.155309Q100.502-7.05969 104.413-16.0597Q108.324-25.0598 108.324-35.2606Q108.324-45.4615 104.413-54.4616Q100.502-63.4616 93.5973-70.366Q86.693-77.2704 77.6929-81.1502Q68.6929-85.03 58.441-85.03Q48.2515-85.03 39.2458-81.1502Q30.2401-77.2704 23.3923-70.366Q16.5446-63.4616 12.6336-54.4616Q8.72266-45.4615 8.72266-35.2606Q8.72266-25.0598 12.6336-16.0597Q16.5446-7.05969 23.4178-0.155309Q30.291 6.74907 39.2968 10.6289Q48.3025 14.5087 58.492 14.5087ZM46.422-57.509Q50.4887-57.509 53.5728-55.385Q56.6569-53.2609 58.5543-49.823Q60.429-53.2609 63.5188-55.385Q66.6085-57.509 70.613-57.509Q77.0246-57.509 81.1848-53.1534Q85.3449-48.7979 85.3449-42.1201Q85.3449-38.1778 83.8099-34.4112Q82.2749-30.6445 79.726-27.1498Q77.1771-23.655 74.0137-20.537Q70.8503-17.419 67.4746-14.8108Q64.0989-12.2025 61.0688-10.2032Q60.4402-9.78975 59.7747-9.40467Q59.1093-9.01959 58.6449-9.01959Q58.1805-9.01959 57.4443-9.41034Q56.708-9.8011 56.0171-10.2032Q52.9134-12.1685 49.5632-14.7654Q46.213-17.3623 43.0439-20.4605Q39.8748-23.5587 37.3118-27.0648Q34.7487-30.5709 33.2448-34.3743Q31.741-38.1778 31.741-42.1201Q31.741-48.7979 35.8757-53.1534Q40.0104-57.509 46.422-57.509Z"/>
  </g>
  <g id="Light-M" transform="matrix(1 0 0 1 1095.44 1126)">
   <path d="M57.664 13.6807Q67.7687 13.6807 76.6123 9.87453Q85.456 6.06831 92.2245-0.716478Q98.993-7.50127 102.83-16.3449Q106.668-25.1886 106.668-35.2606Q106.668-45.3327 102.83-54.1764Q98.993-63.02 92.2082-69.8048Q85.4234-76.5896 76.5798-80.3958Q67.7361-84.202 57.6315-84.202Q47.5892-84.202 38.7306-80.3958Q29.8721-76.5896 23.1348-69.8048Q16.3974-63.02 12.56-54.1764Q8.72266-45.3327 8.72266-35.2606Q8.72266-25.1886 12.56-16.3449Q16.3974-7.50127 23.151-0.716478Q29.9047 6.06831 38.7632 9.87453Q47.6217 13.6807 57.664 13.6807ZM45.7228-57.417Q49.716-57.417 52.8001-55.2838Q55.8841-53.1505 57.7264-49.8966Q59.5091-53.1505 62.608-55.2838Q65.707-57.417 69.6378-57.417Q75.939-57.417 80.0256-53.1718Q84.1122-48.9267 84.1122-42.4329Q84.1122-38.3618 82.5128-34.5492Q80.9134-30.7365 78.2725-27.2326Q75.6316-23.7286 72.4406-20.6566Q69.2496-17.5846 65.9566-15.0407Q62.6637-12.4969 59.8729-10.5896Q59.3362-10.2129 58.7536-9.91064Q58.1709-9.60836 57.7617-9.60836Q57.3525-9.60836 56.7359-9.92552Q56.1193-10.2427 55.5203-10.5896Q52.6374-12.4077 49.3608-14.9218Q46.0842-17.4359 42.8783-20.5065Q39.6724-23.5771 37.045-27.1108Q34.4175-30.6445 32.8493-34.5031Q31.281-38.3618 31.281-42.4329Q31.281-48.9267 35.3513-53.1718Q39.4216-57.417 45.7228-57.417Z"/>
  </g>
  <g id="Thin-M" transform="matrix(1 0 0 1 799.822 1126)">
   <path d="M56.569 12.5857Q66.479 12.5857 75.1158 8.87683Q83.7526 5.16794 90.3751-1.45867Q96.9976-8.08529 100.738-16.7221Q104.478-25.3589 104.478-35.2606Q104.478-45.1624 100.738-53.7992Q96.9976-62.436 90.371-69.0626Q83.7444-75.6892 75.1076-79.3981Q66.4707-83.107 56.5608-83.107Q46.7131-83.107 38.0493-79.3981Q29.3854-75.6892 22.7941-69.0626Q16.2027-62.436 12.4627-53.7992Q8.72266-45.1624 8.72266-35.2606Q8.72266-25.3589 12.4627-16.7221Q16.2027-8.08529 22.7982-1.45867Q29.3936 5.16794 38.0575 8.87683Q46.7214 12.5857 56.569 12.5857ZM44.7981-57.2953Q48.6939-57.2953 51.778-55.1499Q54.8621-53.0045 56.6313-49.994Q58.2924-53.0045 61.4035-55.1499Q64.5146-57.2953 68.3481-57.2953Q74.5033-57.2953 78.4926-53.1962Q82.4818-49.097 82.4818-42.8466Q82.4818-38.6051 80.7972-34.7317Q79.1126-30.8582 76.3501-27.3421Q73.5875-23.826 70.36-20.8148Q67.1325-17.8036 63.9491-15.3449Q60.7657-12.8863 58.2912-11.1006Q57.8762-10.7726 57.403-10.5798Q56.9299-10.3871 56.5937-10.3871Q56.2575-10.3871 55.799-10.6069Q55.3406-10.8267 54.8633-11.1006Q52.2724-12.724 49.0931-15.1286Q45.9138-17.5332 42.6593-20.5673Q39.4047-23.6014 36.6921-27.1716Q33.9795-30.7418 32.3261-34.6735Q30.6726-38.6051 30.6726-42.8466Q30.6726-49.097 34.6578-53.1962Q38.6429-57.2953 44.7981-57.2953Z"/>
  </g>
  <g id="Ultralight-M" transform="matrix(1 0 0 1 503.672 1126)">
   <path d="M56.0081 12.0248Q65.8184 12.0248 74.3492 8.36581Q82.8801 4.70678 89.4278-1.83882Q95.9756-8.38442 99.6657-16.9153Q103.356-25.4462 103.356-35.2606Q103.356-45.0751 99.6657-53.606Q95.9756-62.1369 89.43-68.6825Q82.8844-75.2281 74.3535-78.8871Q65.8226-82.5461 56.0124-82.5461Q46.2644-82.5461 37.7003-78.8871Q29.1361-75.2281 22.6196-68.6825Q16.103-62.1369 12.4128-53.606Q8.72266-45.0751 8.72266-35.2606Q8.72266-25.4462 12.4128-16.9153Q16.103-8.38442 22.6175-1.83882Q29.1319 4.70678 37.6961 8.36581Q46.2602 12.0248 56.0081 12.0248ZM44.3245-57.233Q48.1705-57.233 51.2545-55.0814Q54.3386-52.9298 56.0704-50.0438Q57.6692-52.9298 60.7865-55.0814Q63.9039-57.233 67.6875-57.233Q73.7679-57.233 77.7073-53.2086Q81.6467-49.1843 81.6467-43.0585Q81.6467-38.7298 79.9185-34.8251Q78.1903-30.9205 75.3654-27.3982Q72.5405-23.8758 69.2943-20.8958Q66.0481-17.9158 62.9208-15.5007Q59.7935-13.0857 57.481-11.3623Q57.1284-11.0593 56.7113-10.9226Q56.2942-10.7859 55.9954-10.7859Q55.6966-10.7859 55.3192-10.9559Q54.9417-11.1258 54.5268-11.3623Q52.0855-12.886 48.956-15.2346Q45.8266-17.5831 42.5471-20.5985Q39.2676-23.6139 36.5114-27.2028Q33.7552-30.7917 32.0581-34.7607Q30.3611-38.7298 30.3611-43.0585Q30.3611-49.1843 34.3026-53.2086Q38.2441-57.233 44.3245-57.233Z"/>
  </g>
  <g id="Black-S" transform="matrix(1 0 0 1 2884.57 696)">
   <path d="M48.8281 6.78711Q57.5195 6.78711 65.1123 3.51562Q72.7051 0.244141 78.4912-5.54199Q84.2773-11.3281 87.5488-18.9209Q90.8203-26.5137 90.8203-35.2051Q90.8203-43.8965 87.5488-51.4893Q84.2773-59.082 78.4912-64.8682Q72.7051-70.6543 65.1123-73.9258Q57.5195-77.1973 48.8281-77.1973Q40.1367-77.1973 32.5439-73.9258Q24.9512-70.6543 19.165-64.8682Q13.3789-59.082 10.1074-51.4893Q6.83594-43.8965 6.83594-35.2051Q6.83594-26.5137 10.1074-18.9209Q13.3789-11.3281 19.165-5.54199Q24.9512 0.244141 32.5439 3.51562Q40.1367 6.78711 48.8281 6.78711ZM39.7949-51.8555Q43.2129-51.8555 45.4834-50.2197Q47.7539-48.584 48.8281-46.7285Q49.9512-48.584 52.1973-50.2197Q54.4434-51.8555 57.8613-51.8555Q62.3047-51.8555 65.5273-48.6084Q68.75-45.3613 68.75-39.8926Q68.75-35.9375 67.1387-32.5195Q65.5273-29.1016 63.1104-26.3672Q60.6934-23.6328 58.2031-21.6309Q55.7129-19.6289 53.833-18.457Q51.9531-17.2852 51.4648-17.0898Q50.8789-16.8457 50.1709-16.5039Q49.4629-16.1621 48.8281-16.1621Q48.1934-16.1621 47.4609-16.5039Q46.7285-16.8457 46.1914-17.0898Q45.752-17.334 43.8721-18.5059Q41.9922-19.6777 39.4775-21.6553Q36.9629-23.6328 34.5459-26.3916Q32.1289-29.1504 30.5176-32.5439Q28.9062-35.9375 28.9062-39.8926Q28.9062-45.3613 32.1289-48.6084Q35.3516-51.8555 39.7949-51.8555Z"/>
  </g>
  <g id="Heavy-S" transform="matrix(1 0 0 1 2588.47 696)">
   <path d="M48.2173 6.16479Q56.7704 6.16479 64.2537 2.9394Q71.737-0.285985 77.4425-5.99721Q83.1479-11.7084 86.3791-19.1917Q89.6102-26.675 89.6102-35.2166Q89.6102-43.7582 86.3791-51.2415Q83.1479-58.7248 77.4367-64.436Q71.7255-70.1472 64.2422-73.3726Q56.7589-76.598 48.2058-76.598Q39.6642-76.598 32.1809-73.3726Q24.6976-70.1472 18.9979-64.436Q13.2982-58.7248 10.0671-51.2415Q6.83594-43.7582 6.83594-35.2166Q6.83594-26.675 10.0671-19.1917Q13.2982-11.7084 19.0037-5.99721Q24.7092-0.285985 32.1924 2.9394Q39.6757 6.16479 48.2173 6.16479ZM39.0689-52.0629Q42.4408-52.0629 44.7458-50.4214Q47.0509-48.7799 48.2289-46.7055Q49.4441-48.7799 51.7305-50.4214Q54.017-52.0629 57.3773-52.0629Q61.9705-52.0629 65.2104-48.764Q68.4504-45.465 68.4504-40.0309Q68.4504-36.2948 66.9428-32.992Q65.4351-29.6893 63.1276-26.9549Q60.8201-24.2206 58.3357-22.1091Q55.8512-19.9977 53.7811-18.6126Q51.7111-17.2275 50.7503-16.698Q50.1759-16.4308 49.5025-16.089Q48.829-15.7472 48.2519-15.7472Q47.6748-15.7472 46.9654-16.089Q46.256-16.4308 45.7074-16.698Q44.7724-17.2648 42.7081-18.6499Q40.6438-20.035 38.1407-22.122Q35.6376-24.209 33.3243-26.9621Q31.011-29.7151 29.5092-33.0049Q28.0073-36.2948 28.0073-40.0309Q28.0073-45.465 31.2415-48.764Q34.4757-52.0629 39.0689-52.0629Z"/>
  </g>
  <g id="Bold-S" transform="matrix(1 0 0 1 2292.43 696)">
   <path d="M47.5342 5.46875Q55.9326 5.46875 63.2935 2.29492Q70.6543-0.878906 76.2695-6.50635Q81.8848-12.1338 85.0708-19.4946Q88.2568-26.8555 88.2568-35.2295Q88.2568-43.6035 85.0708-50.9644Q81.8848-58.3252 76.2573-63.9526Q70.6299-69.5801 63.269-72.7539Q55.9082-75.9277 47.5098-75.9277Q39.1357-75.9277 31.7749-72.7539Q24.4141-69.5801 18.811-63.9526Q13.208-58.3252 10.022-50.9644Q6.83594-43.6035 6.83594-35.2295Q6.83594-26.8555 10.022-19.4946Q13.208-12.1338 18.8232-6.50635Q24.4385-0.878906 31.7993 2.29492Q39.1602 5.46875 47.5342 5.46875ZM38.2568-52.2949Q41.5771-52.2949 43.9209-50.647Q46.2646-48.999 47.5586-46.6797Q48.877-48.999 51.2085-50.647Q53.54-52.2949 56.8359-52.2949Q61.5967-52.2949 64.856-48.938Q68.1152-45.5811 68.1152-40.1855Q68.1152-36.6943 66.7236-33.5205Q65.332-30.3467 63.147-27.6123Q60.9619-24.8779 58.4839-22.644Q56.0059-20.4102 53.7231-18.7866Q51.4404-17.1631 49.9512-16.2598Q49.3896-15.9668 48.7549-15.625Q48.1201-15.2832 47.6074-15.2832Q47.0947-15.2832 46.4111-15.625Q45.7275-15.9668 45.166-16.2598Q43.6768-17.1875 41.4062-18.811Q39.1357-20.4346 36.6455-22.644Q34.1553-24.8535 31.958-27.6001Q29.7607-30.3467 28.3813-33.5205Q27.002-36.6943 27.002-40.1855Q27.002-45.5811 30.249-48.938Q33.4961-52.2949 38.2568-52.2949Z"/>
  </g>
  <g id="Semibold-S" transform="matrix(1 0 0 1 1996.19 696)">
   <path d="M47.0632 4.98887Q55.355 4.98887 62.6314 1.85059Q69.9078-1.2877 75.4608-6.85737Q81.0139-12.4271 84.1688-19.7035Q87.3237-26.9799 87.3237-35.2384Q87.3237-43.4969 84.1688-50.7733Q81.0139-58.0497 75.4442-63.6194Q69.8745-69.1891 62.5981-72.3273Q55.3217-75.4656 47.0299-75.4656Q38.7714-75.4656 31.495-72.3273Q24.2186-69.1891 18.6822-63.6194Q13.1458-58.0497 9.99087-50.7733Q6.83594-43.4969 6.83594-35.2384Q6.83594-26.9799 9.99087-19.7035Q13.1458-12.4271 18.6988-6.85737Q24.2519-1.2877 31.5283 1.85059Q38.8047 4.98887 47.0632 4.98887ZM37.697-52.4549Q40.9817-52.4549 43.3521-50.8025Q45.7226-49.1501 47.0965-46.6619Q48.4859-49.1501 50.8486-50.8025Q53.2112-52.4549 56.4627-52.4549Q61.339-52.4549 64.6116-49.058Q67.8842-45.661 67.8842-40.2922Q67.8842-36.9698 66.5726-33.8849Q65.2609-30.7999 63.1603-28.0655Q61.0597-25.3312 58.5861-23.0128Q56.1125-20.6945 53.6832-18.9066Q51.2538-17.1187 49.4002-15.9576Q48.8476-15.6469 48.2395-15.3051Q47.6313-14.9633 47.1631-14.9633Q46.6948-14.9633 46.029-15.3051Q45.3632-15.6469 44.7928-15.9576Q42.9214-17.1342 40.5087-18.9221Q38.096-20.7101 35.6146-23.004Q33.1333-25.2979 31.016-28.04Q28.8987-30.7821 27.6038-33.876Q26.3088-36.9698 26.3088-40.2922Q26.3088-45.661 29.5647-49.058Q32.8207-52.4549 37.697-52.4549Z"/>
  </g>
  <g id="Medium-S" transform="matrix(1 0 0 1 1699.83 696)">
   <path d="M46.7061 4.625Q54.917 4.625 62.1294 1.51367Q69.3418-1.59766 74.8477-7.12354Q80.3535-12.6494 83.4849-19.8618Q86.6162-27.0742 86.6162-35.2451Q86.6162-43.416 83.4849-50.6284Q80.3535-57.8408 74.8276-63.3667Q69.3018-68.8926 62.0894-72.0039Q54.877-75.1152 46.666-75.1152Q38.4951-75.1152 31.2827-72.0039Q24.0703-68.8926 18.5845-63.3667Q13.0986-57.8408 9.96729-50.6284Q6.83594-43.416 6.83594-35.2451Q6.83594-27.0742 9.96729-19.8618Q13.0986-12.6494 18.6045-7.12354Q24.1104-1.59766 31.3228 1.51367Q38.5352 4.625 46.7061 4.625ZM37.2725-52.5762Q40.5303-52.5762 42.9209-50.9204Q45.3115-49.2646 46.7461-46.6484Q48.1895-49.2646 50.5757-50.9204Q52.9619-52.5762 56.1797-52.5762Q61.1436-52.5762 64.4263-49.1489Q67.709-45.7217 67.709-40.373Q67.709-37.1787 66.458-34.1611Q65.207-31.1436 63.1704-28.4092Q61.1338-25.6748 58.6636-23.2925Q56.1934-20.9102 53.6528-18.9976Q51.1123-17.085 48.9824-15.7285Q48.4365-15.4043 47.8486-15.0625Q47.2607-14.7207 46.8262-14.7207Q46.3916-14.7207 45.7393-15.0625Q45.0869-15.4043 44.5098-15.7285Q42.3486-17.0938 39.8281-19.0063Q37.3076-20.9189 34.833-23.2769Q32.3584-25.6348 30.3018-28.3735Q28.2451-31.1123 27.0142-34.1455Q25.7832-37.1787 25.7832-40.373Q25.7832-45.7217 29.0459-49.1489Q32.3086-52.5762 37.2725-52.5762Z"/>
  </g>
  <g id="Regular-S" transform="matrix(1 0 0 1 1403.58 696)">
   <path d="M46.2402 4.15039Q54.3457 4.15039 61.4746 1.07422Q68.6035-2.00195 74.0479-7.4707Q79.4922-12.9395 82.5928-20.0684Q85.6934-27.1973 85.6934-35.2539Q85.6934-43.3105 82.5928-50.4395Q79.4922-57.5684 74.0234-63.0371Q68.5547-68.5059 61.4258-71.582Q54.2969-74.6582 46.1914-74.6582Q38.1348-74.6582 31.0059-71.582Q23.877-68.5059 18.457-63.0371Q13.0371-57.5684 9.93652-50.4395Q6.83594-43.3105 6.83594-35.2539Q6.83594-27.1973 9.93652-20.0684Q13.0371-12.9395 18.4814-7.4707Q23.9258-2.00195 31.0547 1.07422Q38.1836 4.15039 46.2402 4.15039ZM36.7188-52.7344Q39.9414-52.7344 42.3584-51.0742Q44.7754-49.4141 46.2891-46.6309Q47.8027-49.4141 50.2197-51.0742Q52.6367-52.7344 55.8105-52.7344Q60.8887-52.7344 64.1846-49.2676Q67.4805-45.8008 67.4805-40.4785Q67.4805-37.4512 66.3086-34.5215Q65.1367-31.5918 63.1836-28.8574Q61.2305-26.123 58.7646-23.6572Q56.2988-21.1914 53.6133-19.1162Q50.9277-17.041 48.4375-15.4297Q47.9004-15.0879 47.3389-14.7461Q46.7773-14.4043 46.3867-14.4043Q45.9961-14.4043 45.3613-14.7461Q44.7266-15.0879 44.1406-15.4297Q41.6016-17.041 38.9404-19.1162Q36.2793-21.1914 33.8135-23.6328Q31.3477-26.0742 29.3701-28.8086Q27.3926-31.543 26.2451-34.4971Q25.0977-37.4512 25.0977-40.4785Q25.0977-45.8008 28.3691-49.2676Q31.6406-52.7344 36.7188-52.7344Z"/>
  </g>
  <g id="Light-S" transform="matrix(1 0 0 1 1107.6 696)">
   <path d="M45.5078 3.41797Q53.4831 3.41797 60.4736 0.406901Q67.4642-2.60417 72.8109-7.96712Q78.1576-13.3301 81.193-20.3206Q84.2285-27.3112 84.2285-35.2539Q84.2285-43.1966 81.193-50.1872Q78.1576-57.1777 72.7946-62.5407Q67.4316-67.9036 60.4411-70.9147Q53.4505-73.9258 45.4753-73.9258Q37.5488-73.9258 30.5501-70.9147Q23.5514-67.9036 18.2292-62.5407Q12.9069-57.1777 9.87142-50.1872Q6.83594-43.1966 6.83594-35.2539Q6.83594-27.3112 9.87142-20.3206Q12.9069-13.3301 18.2454-7.96712Q23.584-2.60417 30.5827 0.406901Q37.5814 3.41797 45.5078 3.41797ZM36.1003-52.653Q39.2578-52.653 41.6748-50.9847Q44.0918-49.3164 45.5566-46.696Q46.9889-49.3164 49.4141-50.9847Q51.8392-52.653 54.9479-52.653Q59.9284-52.653 63.1592-49.2839Q66.39-45.9147 66.39-40.7552Q66.39-37.6139 65.1611-34.6436Q63.9323-31.6732 61.8978-28.9307Q59.8633-26.1882 57.373-23.763Q54.8828-21.3379 52.2705-19.3197Q49.6582-17.3014 47.3796-15.7715Q46.9238-15.4622 46.4355-15.1937Q45.9473-14.9251 45.6055-14.9251Q45.2637-14.9251 44.7347-15.2018Q44.2057-15.4785 43.7012-15.7715Q41.3574-17.2526 38.7614-19.2546Q36.1654-21.2565 33.667-23.6735Q31.1686-26.0905 29.1341-28.8493Q27.0996-31.6081 25.8952-34.611Q24.6908-37.6139 24.6908-40.7552Q24.6908-45.9147 27.9053-49.2839Q31.1198-52.653 36.1003-52.653Z"/>
  </g>
  <g id="Thin-S" transform="matrix(1 0 0 1 811.859 696)">
   <path d="M44.5391 2.44928Q52.3422 2.44928 59.1498-0.47568Q65.9573-3.40064 71.1749-8.62368Q76.3924-13.8467 79.3418-20.6543Q82.2911-27.4619 82.2911-35.2539Q82.2911-43.0459 79.3418-49.8535Q76.3924-56.6611 71.1694-61.8841Q65.9463-67.1072 59.1387-70.0321Q52.3311-72.9571 44.5281-72.9571Q36.7739-72.9571 29.9474-70.0321Q23.1209-67.1072 17.9278-61.8841Q12.7347-56.6611 9.78531-49.8535Q6.83594-43.0459 6.83594-35.2539Q6.83594-27.4619 9.78531-20.6543Q12.7347-13.8467 17.9333-8.62368Q23.1319-3.40064 29.9584-0.47568Q36.7849 2.44928 44.5391 2.44928ZM35.2823-52.5454Q38.3537-52.5454 40.7707-50.8663Q43.1877-49.1872 44.588-46.7821Q45.9126-49.1872 48.3485-50.8663Q50.7844-52.5454 53.807-52.5454Q58.6583-52.5454 61.803-49.3054Q64.9477-46.0654 64.9477-41.1212Q64.9477-37.8292 63.6435-34.805Q62.3393-31.7808 60.1972-29.0275Q58.0551-26.2743 55.5325-23.9029Q53.01-21.5316 50.4946-19.5887Q47.9791-17.6459 45.9803-16.2235Q45.6322-15.9573 45.2408-15.7857Q44.8494-15.614 44.5722-15.614Q44.295-15.614 43.9059-15.8046Q43.5169-15.9951 43.12-16.2235Q41.0345-17.5324 38.5246-19.4375Q36.0147-21.3426 33.4733-23.7273Q30.9318-26.112 28.822-28.9031Q26.7121-31.6942 25.4324-34.7617Q24.1526-37.8292 24.1526-41.1212Q24.1526-46.0654 27.2918-49.3054Q30.4309-52.5454 35.2823-52.5454Z"/>
  </g>
  <g id="Ultralight-S" transform="matrix(1 0 0 1 515.644 696)">
   <path d="M44.043 1.95312Q51.7578 1.95312 58.4717-0.927734Q65.1855-3.80859 70.3369-8.95996Q75.4883-14.1113 78.3936-20.8252Q81.2988-27.5391 81.2988-35.2539Q81.2988-42.9688 78.3936-49.6826Q75.4883-56.3965 70.3369-61.5479Q65.1855-66.6992 58.4717-69.5801Q51.7578-72.4609 44.043-72.4609Q36.377-72.4609 29.6387-69.5801Q22.9004-66.6992 17.7734-61.5479Q12.6465-56.3965 9.74121-49.6826Q6.83594-42.9688 6.83594-35.2539Q6.83594-27.5391 9.74121-20.8252Q12.6465-14.1113 17.7734-8.95996Q22.9004-3.80859 29.6387-0.927734Q36.377 1.95312 44.043 1.95312ZM34.8633-52.4902Q37.8906-52.4902 40.3076-50.8057Q42.7246-49.1211 44.0918-46.8262Q45.3613-49.1211 47.8027-50.8057Q50.2441-52.4902 53.2227-52.4902Q58.0078-52.4902 61.1084-49.3164Q64.209-46.1426 64.209-41.3086Q64.209-37.9395 62.8662-34.8877Q61.5234-31.8359 59.3262-29.0771Q57.1289-26.3184 54.5898-23.9746Q52.0508-21.6309 49.585-19.7266Q47.1191-17.8223 45.2637-16.4551Q44.9707-16.2109 44.6289-16.0889Q44.2871-15.9668 44.043-15.9668Q43.7988-15.9668 43.4814-16.1133Q43.1641-16.2598 42.8223-16.4551Q40.8691-17.6758 38.4033-19.5312Q35.9375-21.3867 33.374-23.7549Q30.8105-26.123 28.6621-28.9307Q26.5137-31.7383 25.1953-34.8389Q23.877-37.9395 23.877-41.3086Q23.877-46.1426 26.9775-49.3164Q30.0781-52.4902 34.8633-52.4902Z"/>
  </g>
 </g>
</svg>
