<?xml version="1.0" encoding="UTF-8"?>
<!--Generator: Apple Native CoreSVG 175-->
<!DOCTYPE svg
PUBLIC "-//W3C//DTD SVG 1.1//EN"
       "http://www.w3.org/Graphics/SVG/1.1/DTD/svg11.dtd">
<svg version="1.1" xmlns="http://www.w3.org/2000/svg" xmlns:xlink="http://www.w3.org/1999/xlink" width="3300" height="2200">
 <!--glyph: "uni100063.medium", point size: 100.0, font version: "17.1d1e1", template writer version: "65.1"-->
 <g id="Notes">
  <rect height="2200" id="artboard" style="fill:white;opacity:1" width="3300" x="0" y="0"/>
  <line style="fill:none;stroke:black;opacity:1;stroke-width:0.5;" x1="263" x2="3036" y1="292" y2="292"/>
  <text style="stroke:none;fill:black;font-family:sans-serif;font-size:13;font-weight:bold;" transform="matrix(1 0 0 1 263 322)">Weight/Scale Variations</text>
  <text style="stroke:none;fill:black;font-family:sans-serif;font-size:13;text-anchor:middle;" transform="matrix(1 0 0 1 559.711 322)">Ultralight</text>
  <text style="stroke:none;fill:black;font-family:sans-serif;font-size:13;text-anchor:middle;" transform="matrix(1 0 0 1 856.422 322)">Thin</text>
  <text style="stroke:none;fill:black;font-family:sans-serif;font-size:13;text-anchor:middle;" transform="matrix(1 0 0 1 1153.13 322)">Light</text>
  <text style="stroke:none;fill:black;font-family:sans-serif;font-size:13;text-anchor:middle;" transform="matrix(1 0 0 1 1449.84 322)">Regular</text>
  <text style="stroke:none;fill:black;font-family:sans-serif;font-size:13;text-anchor:middle;" transform="matrix(1 0 0 1 1746.56 322)">Medium</text>
  <text style="stroke:none;fill:black;font-family:sans-serif;font-size:13;text-anchor:middle;" transform="matrix(1 0 0 1 2043.27 322)">Semibold</text>
  <text style="stroke:none;fill:black;font-family:sans-serif;font-size:13;text-anchor:middle;" transform="matrix(1 0 0 1 2339.98 322)">Bold</text>
  <text style="stroke:none;fill:black;font-family:sans-serif;font-size:13;text-anchor:middle;" transform="matrix(1 0 0 1 2636.69 322)">Heavy</text>
  <text style="stroke:none;fill:black;font-family:sans-serif;font-size:13;text-anchor:middle;" transform="matrix(1 0 0 1 2933.4 322)">Black</text>
  <line style="fill:none;stroke:black;opacity:1;stroke-width:0.5;" x1="263" x2="3036" y1="1903" y2="1903"/>
  <g transform="matrix(1 0 0 1 263 1933)">
   <path d="M9.24805 0.830078Q10.8691 0.830078 12.2949 0.214844Q13.7207-0.400391 14.8096-1.49414Q15.8984-2.58789 16.5186-4.01367Q17.1387-5.43945 17.1387-7.05078Q17.1387-8.66211 16.5186-10.0879Q15.8984-11.5137 14.8047-12.6074Q13.7109-13.7012 12.2852-14.3164Q10.8594-14.9316 9.23828-14.9316Q7.62695-14.9316 6.20117-14.3164Q4.77539-13.7012 3.69141-12.6074Q2.60742-11.5137 1.9873-10.0879Q1.36719-8.66211 1.36719-7.05078Q1.36719-5.43945 1.9873-4.01367Q2.60742-2.58789 3.69629-1.49414Q4.78516-0.400391 6.21094 0.214844Q7.63672 0.830078 9.24805 0.830078ZM9.24805-0.654297Q7.91992-0.654297 6.7627-1.14746Q5.60547-1.64062 4.73145-2.51953Q3.85742-3.39844 3.36426-4.56055Q2.87109-5.72266 2.87109-7.05078Q2.87109-8.37891 3.35938-9.54102Q3.84766-10.7031 4.72168-11.582Q5.5957-12.4609 6.75293-12.9541Q7.91016-13.4473 9.23828-13.4473Q10.5762-13.4473 11.7334-12.9541Q12.8906-12.4609 13.7695-11.582Q14.6484-10.7031 15.1465-9.54102Q15.6445-8.37891 15.6445-7.05078Q15.6445-5.72266 15.1514-4.56055Q14.6582-3.39844 13.7842-2.51953Q12.9102-1.64062 11.748-1.14746Q10.5859-0.654297 9.24805-0.654297ZM5.6543-7.05078Q5.6543-6.72852 5.85938-6.52832Q6.06445-6.32812 6.40625-6.32812L8.51562-6.32812L8.51562-4.20898Q8.51562-3.88672 8.71094-3.67676Q8.90625-3.4668 9.23828-3.4668Q9.56055-3.4668 9.77051-3.67676Q9.98047-3.88672 9.98047-4.20898L9.98047-6.32812L12.0898-6.32812Q12.4219-6.32812 12.627-6.52832Q12.832-6.72852 12.832-7.05078Q12.832-7.38281 12.627-7.58789Q12.4219-7.79297 12.0898-7.79297L9.98047-7.79297L9.98047-9.90234Q9.98047-10.2344 9.77051-10.4443Q9.56055-10.6543 9.23828-10.6543Q8.90625-10.6543 8.71094-10.4443Q8.51562-10.2344 8.51562-9.90234L8.51562-7.79297L6.40625-7.79297Q6.06445-7.79297 5.85938-7.58789Q5.6543-7.38281 5.6543-7.05078Z"/>
  </g>
  <g transform="matrix(1 0 0 1 281.867 1933)">
   <path d="M11.709 2.91016Q13.75 2.91016 15.5518 2.12891Q17.3535 1.34766 18.7305-0.0292969Q20.1074-1.40625 20.8887-3.20801Q21.6699-5.00977 21.6699-7.05078Q21.6699-9.0918 20.8887-10.8936Q20.1074-12.6953 18.7305-14.0723Q17.3535-15.4492 15.5469-16.2305Q13.7402-17.0117 11.6992-17.0117Q9.6582-17.0117 7.85645-16.2305Q6.05469-15.4492 4.68262-14.0723Q3.31055-12.6953 2.5293-10.8936Q1.74805-9.0918 1.74805-7.05078Q1.74805-5.00977 2.5293-3.20801Q3.31055-1.40625 4.6875-0.0292969Q6.06445 1.34766 7.86621 2.12891Q9.66797 2.91016 11.709 2.91016ZM11.709 1.25Q9.98047 1.25 8.47656 0.605469Q6.97266-0.0390625 5.83496-1.17676Q4.69727-2.31445 4.05762-3.81836Q3.41797-5.32227 3.41797-7.05078Q3.41797-8.7793 4.05762-10.2832Q4.69727-11.7871 5.83008-12.9297Q6.96289-14.0723 8.4668-14.7119Q9.9707-15.3516 11.6992-15.3516Q13.4277-15.3516 14.9316-14.7119Q16.4355-14.0723 17.5781-12.9297Q18.7207-11.7871 19.3652-10.2832Q20.0098-8.7793 20.0098-7.05078Q20.0098-5.32227 19.3701-3.81836Q18.7305-2.31445 17.5928-1.17676Q16.4551-0.0390625 14.9463 0.605469Q13.4375 1.25 11.709 1.25ZM7.17773-7.05078Q7.17773-6.69922 7.41211-6.47461Q7.64648-6.25 8.01758-6.25L10.8887-6.25L10.8887-3.36914Q10.8887-2.99805 11.1133-2.76855Q11.3379-2.53906 11.6895-2.53906Q12.0605-2.53906 12.29-2.76855Q12.5195-2.99805 12.5195-3.36914L12.5195-6.25L15.4004-6.25Q15.7715-6.25 16.001-6.47461Q16.2305-6.69922 16.2305-7.05078Q16.2305-7.42188 16.001-7.65137Q15.7715-7.88086 15.4004-7.88086L12.5195-7.88086L12.5195-10.752Q12.5195-11.1328 12.29-11.3623Q12.0605-11.5918 11.6895-11.5918Q11.3379-11.5918 11.1133-11.3574Q10.8887-11.123 10.8887-10.752L10.8887-7.88086L8.01758-7.88086Q7.63672-7.88086 7.40723-7.65137Q7.17773-7.42188 7.17773-7.05078Z"/>
  </g>
  <g transform="matrix(1 0 0 1 305.646 1933)">
   <path d="M14.9707 5.66406Q17.0605 5.66406 18.96 5.01465Q20.8594 4.36523 22.4512 3.19336Q24.043 2.02148 25.2197 0.429688Q26.3965-1.16211 27.0459-3.06641Q27.6953-4.9707 27.6953-7.05078Q27.6953-9.14062 27.0459-11.04Q26.3965-12.9395 25.2197-14.5312Q24.043-16.123 22.4512-17.2998Q20.8594-18.4766 18.9551-19.126Q17.0508-19.7754 14.9609-19.7754Q12.8711-19.7754 10.9717-19.126Q9.07227-18.4766 7.48535-17.2998Q5.89844-16.123 4.72168-14.5312Q3.54492-12.9395 2.90039-11.04Q2.25586-9.14062 2.25586-7.05078Q2.25586-4.9707 2.90527-3.06641Q3.55469-1.16211 4.72656 0.429688Q5.89844 2.02148 7.49023 3.19336Q9.08203 4.36523 10.9814 5.01465Q12.8809 5.66406 14.9707 5.66406ZM14.9707 3.84766Q13.1641 3.84766 11.5283 3.2959Q9.89258 2.74414 8.53516 1.74805Q7.17773 0.751953 6.17676-0.610352Q5.17578-1.97266 4.62891-3.6084Q4.08203-5.24414 4.08203-7.05078Q4.08203-8.86719 4.62891-10.5029Q5.17578-12.1387 6.17188-13.501Q7.16797-14.8633 8.52539-15.8594Q9.88281-16.8555 11.5186-17.4023Q13.1543-17.9492 14.9609-17.9492Q16.7773-17.9492 18.4131-17.4023Q20.0488-16.8555 21.4111-15.8594Q22.7734-14.8633 23.7695-13.501Q24.7656-12.1387 25.3174-10.5029Q25.8691-8.86719 25.8691-7.05078Q25.8789-5.24414 25.332-3.6084Q24.7852-1.97266 23.7842-0.610352Q22.7832 0.751953 21.4209 1.74805Q20.0586 2.74414 18.4229 3.2959Q16.7871 3.84766 14.9707 3.84766ZM9.19922-7.05078Q9.19922-6.66992 9.45801-6.4209Q9.7168-6.17188 10.1172-6.17188L14.0625-6.17188L14.0625-2.2168Q14.0625-1.81641 14.3115-1.55762Q14.5605-1.29883 14.9512-1.29883Q15.3516-1.29883 15.6104-1.55273Q15.8691-1.80664 15.8691-2.2168L15.8691-6.17188L19.8242-6.17188Q20.2246-6.17188 20.4785-6.4209Q20.7324-6.66992 20.7324-7.05078Q20.7324-7.46094 20.4785-7.71484Q20.2246-7.96875 19.8242-7.96875L15.8691-7.96875L15.8691-11.9141Q15.8691-12.3242 15.6104-12.583Q15.3516-12.8418 14.9512-12.8418Q14.5605-12.8418 14.3115-12.583Q14.0625-12.3242 14.0625-11.9141L14.0625-7.96875L10.1172-7.96875Q9.70703-7.96875 9.45312-7.71484Q9.19922-7.46094 9.19922-7.05078Z"/>
  </g>
  <text style="stroke:none;fill:black;font-family:sans-serif;font-size:13;font-weight:bold;" transform="matrix(1 0 0 1 263 1953)">Design Variations</text>
  <text style="stroke:none;fill:black;font-family:sans-serif;font-size:13;" transform="matrix(1 0 0 1 263 1971)">Symbols are supported in up to nine weights and three scales.</text>
  <text style="stroke:none;fill:black;font-family:sans-serif;font-size:13;" transform="matrix(1 0 0 1 263 1989)">For optimal layout with text and other symbols, vertically align</text>
  <text style="stroke:none;fill:black;font-family:sans-serif;font-size:13;" transform="matrix(1 0 0 1 263 2007)">symbols with the adjacent text.</text>
  <line style="fill:none;stroke:#00AEEF;stroke-width:0.5;opacity:1.0;" x1="776" x2="776" y1="1919" y2="1933"/>
  <g transform="matrix(1 0 0 1 776 1933)">
   <path d="M3.31055 0.15625Q3.70117 0.15625 3.91602-0.00976562Q4.13086-0.175781 4.26758-0.585938L5.52734-4.0332L11.2891-4.0332L12.5488-0.585938Q12.6855-0.175781 12.9004-0.00976562Q13.1152 0.15625 13.4961 0.15625Q13.8867 0.15625 14.1162-0.0585938Q14.3457-0.273438 14.3457-0.644531Q14.3457-0.869141 14.2383-1.17188L9.6582-13.3691Q9.48242-13.8184 9.17969-14.043Q8.87695-14.2676 8.4082-14.2676Q7.5-14.2676 7.17773-13.3789L2.59766-1.16211Q2.49023-0.859375 2.49023-0.634766Q2.49023-0.263672 2.70996-0.0537109Q2.92969 0.15625 3.31055 0.15625ZM6.00586-5.51758L8.37891-12.0898L8.42773-12.0898L10.8008-5.51758Z"/>
  </g>
  <line style="fill:none;stroke:#00AEEF;stroke-width:0.5;opacity:1.0;" x1="793.197" x2="793.197" y1="1919" y2="1933"/>
  <text style="stroke:none;fill:black;font-family:sans-serif;font-size:13;font-weight:bold;" transform="matrix(1 0 0 1 776 1953)">Margins</text>
  <text style="stroke:none;fill:black;font-family:sans-serif;font-size:13;" transform="matrix(1 0 0 1 776 1971)">Leading and trailing margins on the left and right side of each symbol</text>
  <text style="stroke:none;fill:black;font-family:sans-serif;font-size:13;" transform="matrix(1 0 0 1 776 1989)">can be adjusted by modifying the x-location of the margin guidelines.</text>
  <text style="stroke:none;fill:black;font-family:sans-serif;font-size:13;" transform="matrix(1 0 0 1 776 2007)">Modifications are automatically applied proportionally to all</text>
  <text style="stroke:none;fill:black;font-family:sans-serif;font-size:13;" transform="matrix(1 0 0 1 776 2025)">scales and weights.</text>
  <g transform="matrix(1 0 0 1 1289 1933)">
   <path d="M2.8418 1.86523L4.54102 3.57422Q5.18555 4.22852 5.90332 4.17969Q6.62109 4.13086 7.31445 3.35938L18.0078-8.42773L17.041-9.4043L6.42578 2.27539Q6.16211 2.57812 5.89355 2.61719Q5.625 2.65625 5.27344 2.30469L4.10156 1.14258Q3.75 0.791016 3.79395 0.522461Q3.83789 0.253906 4.14062-0.0195312L15.6152-10.8203L14.6387-11.7871L3.04688-0.898438Q2.30469-0.214844 2.25098 0.498047Q2.19727 1.21094 2.8418 1.86523ZM9.25781-16.3281Q8.94531-16.0254 8.90625-15.6348Q8.86719-15.2441 9.04297-14.9512Q9.21875-14.6777 9.55566-14.541Q9.89258-14.4043 10.3809-14.5215Q11.4746-14.7754 12.5977-14.7314Q13.7207-14.6875 14.7949-13.9844L14.209-12.5293Q13.9551-11.9043 14.0674-11.4404Q14.1797-10.9766 14.5801-10.5664L16.875-8.25195Q17.2363-7.88086 17.5781-7.82227Q17.9199-7.76367 18.3398-7.8418L19.4043-8.03711L20.0684-7.36328L20.0293-6.80664Q20-6.43555 20.1221-6.12305Q20.2441-5.81055 20.6055-5.44922L21.3672-4.70703Q21.7285-4.3457 22.1533-4.33105Q22.5781-4.31641 22.9297-4.66797L25.8398-7.58789Q26.1914-7.93945 26.1816-8.35449Q26.1719-8.76953 25.8105-9.13086L25.0391-9.89258Q24.6875-10.2539 24.3799-10.3857Q24.0723-10.5176 23.7109-10.4883L23.1348-10.4395L22.4902-11.0742L22.7344-12.1973Q22.832-12.6172 22.6953-12.9834Q22.5586-13.3496 22.1191-13.7891L19.9219-15.9766Q18.6719-17.2168 17.2607-17.8369Q15.8496-18.457 14.4189-18.4814Q12.9883-18.5059 11.665-17.959Q10.3418-17.4121 9.25781-16.3281ZM10.752-15.957Q11.6602-16.6211 12.7002-16.9043Q13.7402-17.1875 14.8047-17.085Q15.8691-16.9824 16.8701-16.5137Q17.8711-16.0449 18.7012-15.2051L21.1328-12.793Q21.3086-12.6172 21.3525-12.4512Q21.3965-12.2852 21.3379-12.0312L21.0156-10.5469L22.5195-9.0625L23.5059-9.12109Q23.6914-9.13086 23.7891-9.09668Q23.8867-9.0625 24.0332-8.91602L24.6094-8.33984L22.168-5.89844L21.5918-6.47461Q21.4453-6.62109 21.4062-6.71875Q21.3672-6.81641 21.377-7.01172L21.4453-7.98828L19.9512-9.47266L18.4277-9.21875Q18.1836-9.16992 18.042-9.2041Q17.9004-9.23828 17.7148-9.41406L15.7129-11.416Q15.5176-11.5918 15.4932-11.7529Q15.4688-11.9141 15.5859-12.1875L16.4648-14.2773Q15.293-15.3711 13.8281-15.791Q12.3633-16.2109 10.8398-15.7617Q10.7227-15.7324 10.6885-15.8057Q10.6543-15.8789 10.752-15.957Z"/>
  </g>
  <text style="stroke:none;fill:black;font-family:sans-serif;font-size:13;font-weight:bold;" transform="matrix(1 0 0 1 1289 1953)">Exporting</text>
  <text style="stroke:none;fill:black;font-family:sans-serif;font-size:13;" transform="matrix(1 0 0 1 1289 1971)">Symbols should be outlined when exporting to ensure the</text>
  <text style="stroke:none;fill:black;font-family:sans-serif;font-size:13;" transform="matrix(1 0 0 1 1289 1989)">design is preserved when submitting to Xcode.</text>
  <text id="template-version" style="stroke:none;fill:black;font-family:sans-serif;font-size:13;text-anchor:end;" transform="matrix(1 0 0 1 3036 1933)">Template v.3.0</text>
  <text style="stroke:none;fill:black;font-family:sans-serif;font-size:13;text-anchor:end;" transform="matrix(1 0 0 1 3036 1951)">Requires Xcode 13 or greater</text>
  <text id="descriptive-name" style="stroke:none;fill:black;font-family:sans-serif;font-size:13;text-anchor:end;" transform="matrix(1 0 0 1 3036 1969)">Generated from checkmark.circle.fill</text>
  <text style="stroke:none;fill:black;font-family:sans-serif;font-size:13;text-anchor:end;" transform="matrix(1 0 0 1 3036 1987)">Typeset at 100 points</text>
  <text style="stroke:none;fill:black;font-family:sans-serif;font-size:13;" transform="matrix(1 0 0 1 263 726)">Small</text>
  <text style="stroke:none;fill:black;font-family:sans-serif;font-size:13;" transform="matrix(1 0 0 1 263 1156)">Medium</text>
  <text style="stroke:none;fill:black;font-family:sans-serif;font-size:13;" transform="matrix(1 0 0 1 263 1586)">Large</text>
 </g>
 <g id="Guides">
  <g id="H-reference" style="fill:#27AAE1;stroke:none;" transform="matrix(1 0 0 1 339 696)">
   <path d="M0.976562 0L3.66211 0L29.3457-67.1387L30.0293-67.1387L30.0293-70.459L28.125-70.459ZM11.6699-24.4629L46.9727-24.4629L46.2402-26.709L12.4512-26.709ZM55.127 0L57.7637 0L30.6152-70.459L29.4434-70.459L29.4434-67.1387Z"/>
  </g>
  <line id="Baseline-S" style="fill:none;stroke:#27AAE1;opacity:1;stroke-width:0.5;" x1="263" x2="3036" y1="696" y2="696"/>
  <line id="Capline-S" style="fill:none;stroke:#27AAE1;opacity:1;stroke-width:0.5;" x1="263" x2="3036" y1="625.541" y2="625.541"/>
  <g id="H-reference" style="fill:#27AAE1;stroke:none;" transform="matrix(1 0 0 1 339 1126)">
   <path d="M0.976562 0L3.66211 0L29.3457-67.1387L30.0293-67.1387L30.0293-70.459L28.125-70.459ZM11.6699-24.4629L46.9727-24.4629L46.2402-26.709L12.4512-26.709ZM55.127 0L57.7637 0L30.6152-70.459L29.4434-70.459L29.4434-67.1387Z"/>
  </g>
  <line id="Baseline-M" style="fill:none;stroke:#27AAE1;opacity:1;stroke-width:0.5;" x1="263" x2="3036" y1="1126" y2="1126"/>
  <line id="Capline-M" style="fill:none;stroke:#27AAE1;opacity:1;stroke-width:0.5;" x1="263" x2="3036" y1="1055.54" y2="1055.54"/>
  <g id="H-reference" style="fill:#27AAE1;stroke:none;" transform="matrix(1 0 0 1 339 1556)">
   <path d="M0.976562 0L3.66211 0L29.3457-67.1387L30.0293-67.1387L30.0293-70.459L28.125-70.459ZM11.6699-24.4629L46.9727-24.4629L46.2402-26.709L12.4512-26.709ZM55.127 0L57.7637 0L30.6152-70.459L29.4434-70.459L29.4434-67.1387Z"/>
  </g>
  <line id="Baseline-L" style="fill:none;stroke:#27AAE1;opacity:1;stroke-width:0.5;" x1="263" x2="3036" y1="1556" y2="1556"/>
  <line id="Capline-L" style="fill:none;stroke:#27AAE1;opacity:1;stroke-width:0.5;" x1="263" x2="3036" y1="1485.54" y2="1485.54"/>
  <line id="left-margin-Regular-M" style="fill:none;stroke:#00AEEF;stroke-width:0.5;opacity:1.0;" x1="1391.32" x2="1391.32" y1="1030.79" y2="1150.12"/>
  <line id="right-margin-Regular-M" style="fill:none;stroke:#00AEEF;stroke-width:0.5;opacity:1.0;" x1="1508.37" x2="1508.37" y1="1030.79" y2="1150.12"/>
 </g>
 <g id="Symbols">
  <g id="Black-L" transform="matrix(1 0 0 1 2854.19 1556)">
   <path d="M79.1953 32.7252Q93.2356 32.7252 105.521 27.4303Q117.806 22.1354 127.174 12.7571Q136.542 3.37874 141.848-8.90649Q147.154-21.1917 147.154-35.2113Q147.154-49.2309 141.848-61.5161Q136.542-73.8013 127.164-83.1796Q117.785-92.558 105.5-97.8529Q93.2149-103.148 79.1746-103.148Q65.1563-103.148 52.8704-97.8529Q40.5846-92.558 31.2276-83.1796Q21.8707-73.8013 16.5647-61.5161Q11.2588-49.2309 11.2588-35.2113Q11.2588-21.1917 16.5647-8.90649Q21.8707 3.37874 31.238 12.7571Q40.6053 22.1354 52.8912 27.4303Q65.177 32.7252 79.1953 32.7252ZM72.3-3.07749Q69.8856-3.07749 67.9272-4.17508Q65.9688-5.27267 64.3044-7.21727L50.2087-23.7948Q47.8358-26.5881 47.8358-29.6953Q47.8358-33.075 50.2847-35.4376Q52.7336-37.8002 56.0744-37.8002Q57.9958-37.8002 59.5306-37.0179Q61.0653-36.2356 62.3963-34.6621L72.2158-23.0227L95.2353-59.4289Q98.2194-64.0918 102.489-64.0918Q105.846-64.0918 108.387-61.8991Q110.928-59.7064 110.928-56.2865Q110.928-55.0372 110.478-53.6296Q110.027-52.2221 109.041-50.817L80.0739-7.39249Q77.1068-3.07749 72.3-3.07749Z"/>
  </g>
  <g id="Heavy-L" transform="matrix(1 0 0 1 2558.42 1556)">
   <path d="M78.2511 31.7672Q92.088 31.7672 104.202 26.5464Q116.316 21.3256 125.559 12.0677Q134.802 2.8099 140.04-9.30402Q145.279-21.4179 145.279-35.2251Q145.279-49.0322 140.04-61.1461Q134.802-73.2601 125.544-82.5179Q116.286-91.7758 104.172-96.9966Q92.0582-102.217 78.2213-102.217Q64.4202-102.217 52.3033-96.9966Q40.1863-91.7758 30.9613-82.5179Q21.7362-73.2601 16.4975-61.1461Q11.2588-49.0322 11.2588-35.2251Q11.2588-21.4179 16.4975-9.30402Q21.7362 2.8099 30.9761 12.0677Q40.2161 21.3256 52.333 26.5464Q64.45 31.7672 78.2511 31.7672ZM71.3382-3.41966Q69.1328-3.41966 67.3398-4.4196Q65.5467-5.41955 63.9992-7.25585L49.417-24.5757Q47.2712-27.1413 47.2712-29.9924Q47.2712-33.0428 49.463-35.1871Q51.6549-37.3313 54.6845-37.3313Q56.4524-37.3313 57.8705-36.6096Q59.2886-35.8878 60.5536-34.349L71.2131-21.4399L95.2888-59.6323Q97.9674-63.8314 101.833-63.8314Q104.842-63.8314 107.148-61.8702Q109.455-59.9089 109.455-56.805Q109.455-55.6265 108.996-54.3125Q108.538-52.9985 107.663-51.7098L78.4331-7.38971Q75.7396-3.41966 71.3382-3.41966Z"/>
  </g>
  <g id="Bold-L" transform="matrix(1 0 0 1 2262.89 1556)">
   <path d="M77.0653 30.566Q90.6516 30.566 102.549 25.4396Q114.447 20.3133 123.533 11.2089Q132.619 2.10448 137.771-9.79333Q142.923-21.6912 142.923-35.2405Q142.923-48.7898 137.771-60.6877Q132.619-72.5855 123.515-81.6899Q114.41-90.7942 102.512-95.9206Q90.6146-101.047 77.0283-101.047Q63.4932-101.047 51.5882-95.9206Q39.6833-90.7942 30.623-81.6899Q21.5627-72.5855 16.4108-60.6877Q11.2588-48.7898 11.2588-35.2405Q11.2588-21.6912 16.4108-9.79333Q21.5627 2.10448 30.6415 11.2089Q39.7203 20.3133 51.6252 25.4396Q63.5301 30.566 77.0653 30.566ZM70.1471-3.84271Q68.2188-3.84271 66.6524-4.71184Q65.0861-5.58097 63.7067-7.24719L48.4191-25.5297Q46.5648-27.7947 46.5648-30.2959Q46.5648-32.9205 48.4302-34.7758Q50.2956-36.6312 52.9137-36.6312Q54.4754-36.6312 55.7299-35.9931Q56.9845-35.355 58.1439-33.901L69.9849-19.3699L95.4897-59.8828Q97.7833-63.4826 101.12-63.4826Q103.679-63.4826 105.677-61.8119Q107.675-60.1412 107.675-57.4569Q107.675-56.3921 107.223-55.2145Q106.771-54.0368 106.038-52.9072L76.3299-7.3348Q73.9915-3.84271 70.1471-3.84271Z"/>
  </g>
  <g id="Semibold-L" transform="matrix(1 0 0 1 1966.99 1556)">
   <path d="M76.2478 29.7379Q89.6614 29.7379 101.41 24.6766Q113.159 19.6153 122.137 10.6168Q131.114 1.61818 136.206-10.1307Q141.299-21.8795 141.299-35.2511Q141.299-48.6228 136.206-60.3716Q131.114-72.1204 122.116-81.119Q113.117-90.1176 101.368-95.1789Q89.6194-100.24 76.2058-100.24Q62.854-100.24 51.0953-95.1789Q39.3365-90.1176 30.3898-81.119Q21.4432-72.1204 16.351-60.3716Q11.2588-48.6228 11.2588-35.2511Q11.2588-21.8795 16.351-10.1307Q21.4432 1.61818 30.4108 10.6168Q39.3785 19.6153 51.1372 24.6766Q62.896 29.7379 76.2478 29.7379ZM69.3259-4.13436Q67.5886-4.13436 66.1786-4.91331Q64.7685-5.69225 63.505-7.24122L47.7312-26.1874Q46.0779-28.2451 46.0779-30.5052Q46.0779-32.8361 47.7182-34.4924Q49.3586-36.1486 51.693-36.1486Q53.1125-36.1486 54.2543-35.5681Q55.396-34.9876 56.4827-33.592L69.1381-17.9429L95.6282-60.0556Q97.6564-63.2421 100.628-63.2421Q102.877-63.2421 104.662-61.7717Q106.448-60.3013 106.448-57.9063Q106.448-56.9199 106-55.8363Q105.553-54.7527 104.917-53.7326L74.8799-7.29694Q72.7864-4.13436 69.3259-4.13436Z"/>
  </g>
  <g id="Medium-L" transform="matrix(1 0 0 1 1670.89 1556)">
   <path d="M75.6279 29.11Q88.9106 29.11 100.546 24.0981Q112.182 19.0862 121.078 10.1678Q129.973 1.24944 135.02-10.3864Q140.067-22.0223 140.067-35.2592Q140.067-48.4961 135.02-60.1319Q129.973-71.7678 121.055-80.6862Q112.137-89.6045 100.501-94.6164Q88.8648-99.6283 75.5822-99.6283Q62.3695-99.6283 50.7215-94.6164Q39.0736-89.6045 30.213-80.6862Q21.3525-71.7678 16.3056-60.1319Q11.2588-48.4961 11.2588-35.2592Q11.2588-22.0223 16.3056-10.3864Q21.3525 1.24944 30.2359 10.1678Q39.1193 19.0862 50.7673 24.0981Q62.4152 29.11 75.6279 29.11ZM68.7033-4.35551Q67.1108-4.35551 65.8193-5.06607Q64.5277-5.77663 63.3521-7.2367L47.2096-26.6861Q45.7086-28.5866 45.7086-30.6639Q45.7086-32.7722 47.1783-34.2774Q48.648-35.7826 50.7674-35.7826Q52.0791-35.7826 53.1353-35.2458Q54.1916-34.709 55.2231-33.3578L68.4961-16.8609L95.7332-60.1865Q97.5601-63.0598 100.255-63.0598Q102.269-63.0598 103.893-61.7412Q105.517-60.4227 105.517-58.2471Q105.517-57.3201 105.073-56.3078Q104.629-55.2954 104.068-54.3585L73.7805-7.26824Q71.8726-4.35551 68.7033-4.35551Z"/>
  </g>
  <g id="Regular-L" transform="matrix(1 0 0 1 1374.98 1556)">
   <path d="M74.8194 28.2909Q87.9312 28.2909 99.4198 23.3434Q110.908 18.3959 119.697 9.58221Q128.485 0.768476 133.473-10.7201Q138.46-22.2086 138.46-35.2697Q138.46-48.3308 133.473-59.8193Q128.485-71.3079 119.671-80.1216Q110.858-88.9353 99.3691-93.8828Q87.8805-98.8303 74.7687-98.8303Q61.7374-98.8303 50.234-93.8828Q38.7306-88.9353 29.9824-80.1216Q21.2342-71.3079 16.2465-59.8193Q11.2588-48.3308 11.2588-35.2697Q11.2588-22.2086 16.2465-10.7201Q21.2342 0.768476 30.0077 9.58221Q38.7813 18.3959 50.2847 23.3434Q61.7881 28.2909 74.8194 28.2909ZM67.8912-4.64395Q66.4876-4.64395 65.3506-5.26532Q64.2136-5.88669 63.1527-7.23079L46.5292-27.3366Q45.227-29.0321 45.227-30.8709Q45.227-32.6887 46.4741-33.997Q47.7213-35.3053 49.56-35.3053Q50.7312-35.3053 51.6759-34.8255Q52.6206-34.3457 53.5802-33.0523L67.6587-15.4495L95.8702-60.3574Q97.4346-62.8219 99.768-62.8219Q101.476-62.8219 102.89-61.7015Q104.304-60.581 104.304-58.6916Q104.304-57.8421 103.864-56.9228Q103.425-56.0034 102.96-55.1749L72.3465-7.23079Q70.6807-4.64395 67.8912-4.64395Z"/>
  </g>
  <g id="Light-L" transform="matrix(1 0 0 1 1079.2 1556)">
   <path d="M73.8959 27.3674Q86.8436 27.3674 98.1577 22.502Q109.472 17.6366 118.137 8.95629Q126.802 0.275949 131.708-11.0381Q136.614-22.3522 136.614-35.2697Q136.614-48.1872 131.708-59.5013Q126.802-70.8154 118.122-79.4957Q109.442-88.176 98.1275-93.0414Q86.8134-97.9069 73.8658-97.9069Q60.9986-97.9069 49.6594-93.0414Q38.3201-88.176 29.6951-79.4957Q21.07-70.8154 16.1644-59.5013Q11.2588-48.1872 11.2588-35.2697Q11.2588-22.3522 16.1644-11.0381Q21.07 0.275949 29.7102 8.95629Q38.3503 17.6366 49.6895 22.502Q61.0287 27.3674 73.8959 27.3674ZM67.0703-4.93126Q65.9745-4.93126 65.1351-5.39872Q64.2957-5.86617 63.5015-6.8614L45.7289-27.9112Q44.6934-29.2784 44.6934-30.6657Q44.6934-32.0731 45.6635-33.0633Q46.6336-34.0535 48.0209-34.0535Q48.9457-34.0535 49.6545-33.6865Q50.3632-33.3196 51.097-32.3545L66.8994-13.3153L96.8758-60.5215Q98.1323-62.4115 99.9117-62.4115Q101.188-62.4115 102.274-61.5168Q103.36-60.6221 103.36-59.2046Q103.36-58.6015 103.033-57.9078Q102.706-57.2142 102.365-56.5909L70.438-6.8614Q69.1211-4.93126 67.0703-4.93126Z"/>
  </g>
  <g id="Thin-L" transform="matrix(1 0 0 1 783.707 1556)">
   <path d="M72.6746 26.1461Q85.405 26.1461 96.4884 21.3892Q107.572 16.6324 116.074 8.12846Q124.577-0.375458 129.374-11.4588Q134.171-22.5422 134.171-35.2697Q134.171-47.9972 129.374-59.0806Q124.577-70.1639 116.073-78.6679Q107.569-87.1718 96.4854-91.9286Q85.402-96.6855 72.6715-96.6855Q60.0215-96.6855 48.8994-91.9286Q37.7773-87.1718 29.3151-78.6679Q20.8529-70.1639 16.0558-59.0806Q11.2588-47.9972 11.2588-35.2697Q11.2588-22.5422 16.0558-11.4588Q20.8529-0.375458 29.3166 8.12846Q37.7803 16.6324 48.9024 21.3892Q60.0245 26.1461 72.6746 26.1461ZM65.9846-5.31125Q65.296-5.31125 64.8501-5.57514Q64.4043-5.83903 63.963-6.37284L44.6703-28.6712Q43.9877-29.6041 43.9877-30.3943Q43.9877-31.2588 44.5914-31.8283Q45.1951-32.3978 45.9852-32.3978Q46.5844-32.3978 46.981-32.1802Q47.3776-31.9625 47.8129-31.4317L65.8951-10.4925L98.2057-60.7387Q99.0552-61.8686 100.102-61.8686Q100.808-61.8686 101.46-61.2725Q102.111-60.6764 102.111-59.8832Q102.111-59.6057 101.934-59.2106Q101.756-58.8156 101.577-58.4637L67.9138-6.37284Q67.0583-5.31125 65.9846-5.31125Z"/>
  </g>
  <g id="Ultralight-L" transform="matrix(1 0 0 1 487.622 1556)">
   <path d="M72.049 25.5205Q84.6682 25.5205 95.6335 20.8192Q106.599 16.118 115.018 7.70445Q123.437-0.709105 128.178-11.6743Q132.92-22.6395 132.92-35.2697Q132.92-47.8999 128.178-58.8651Q123.437-69.8303 115.023-78.2439Q106.61-86.6574 95.6443-91.3586Q84.6791-96.0599 72.0598-96.0599Q59.521-96.0599 48.5101-91.3586Q37.4993-86.6574 29.1205-78.2439Q20.7417-69.8303 16.0002-58.8651Q11.2588-47.8999 11.2588-35.2697Q11.2588-22.6395 16.0002-11.6743Q20.7417-0.709105 29.115 7.70445Q37.4884 16.118 48.4992 20.8192Q59.5101 25.5205 72.049 25.5205ZM65.4285-5.50588Q64.9484-5.50588 64.7042-5.6655Q64.4599-5.82513 64.1993-6.12261L44.1281-29.0605Q43.6263-29.7709 43.6263-30.2552Q43.6263-30.8417 44.0423-31.1958Q44.4583-31.5498 44.9426-31.5498Q45.3749-31.5498 45.6116-31.4086Q45.8484-31.2674 46.1307-30.9591L65.3808-9.04669L98.8869-60.8499Q99.5278-61.5906 100.199-61.5906Q100.614-61.5906 101.043-61.1474Q101.472-60.7042 101.472-60.2307Q101.472-60.1201 101.371-59.8779Q101.27-59.6358 101.174-59.4229L66.6209-6.12261Q66.0017-5.50588 65.4285-5.50588Z"/>
  </g>
  <g id="Black-M" transform="matrix(1 0 0 1 2871.36 1126)">
   <path d="M62.0423 18.1161Q73.0725 18.1161 82.714 13.9613Q92.3555 9.80654 99.704 2.45531Q107.052-4.89592 111.21-14.5374Q115.367-24.1789 115.367-35.2035Q115.367-46.2282 111.21-55.8697Q107.052-65.5112 99.7012-72.8624Q92.35-80.2136 82.7085-84.3684Q73.067-88.5232 62.0368-88.5232Q51.0119-88.5232 41.3705-84.3684Q31.7292-80.2136 24.3833-72.8624Q17.0375-65.5112 12.8801-55.8697Q8.72266-46.2282 8.72266-35.2035Q8.72266-24.1789 12.8801-14.5374Q17.0375-4.89592 24.3861 2.45531Q31.7347 9.80654 41.376 13.9613Q51.0174 18.1161 62.0423 18.1161ZM56.7293-10.0648Q54.7208-10.0648 53.1017-10.9783Q51.4827-11.8917 50.1289-13.4441L39.4708-25.7774Q37.4733-28.0925 37.4733-30.6587Q37.4733-33.5046 39.554-35.4795Q41.6347-37.4545 44.4293-37.4545Q46.0164-37.4545 47.2737-36.8116Q48.531-36.1688 49.5883-34.9645L56.7076-26.8435L73.873-53.8252Q76.4059-57.7585 79.9859-57.7585Q82.8269-57.7585 84.9525-55.8914Q87.0781-54.0244 87.0781-51.1672Q87.0781-50.1718 86.7519-49.0315Q86.4257-47.8911 85.5829-46.7303L63.1883-13.6153Q60.7015-10.0648 56.7293-10.0648Z"/>
  </g>
  <g id="Heavy-M" transform="matrix(1 0 0 1 2575.48 1126)">
   <path d="M61.2045 17.2648Q72.0509 17.2648 81.541 13.1749Q91.0312 9.08498 98.2688 1.83921Q105.506-5.40657 109.606-14.8967Q113.705-24.3868 113.705-35.217Q113.705-46.0473 109.606-55.5374Q105.506-65.0275 98.2607-72.2733Q91.0149-79.519 81.5248-83.6089Q72.0347-87.6988 61.1882-87.6988Q50.3604-87.6988 40.8691-83.6089Q31.3778-79.519 24.1495-72.2733Q16.9211-65.0275 12.8219-55.5374Q8.72266-46.0473 8.72266-35.217Q8.72266-24.3868 12.8219-14.8967Q16.9211-5.40657 24.1576 1.83921Q31.394 9.08498 40.8853 13.1749Q50.3767 17.2648 61.2045 17.2648ZM55.8647-10.3728Q54.0322-10.3728 52.5473-11.205Q51.0625-12.0372 49.7983-13.5158L38.7707-26.4877Q36.9706-28.6106 36.9706-30.9681Q36.9706-33.5299 38.8255-35.3208Q40.6805-37.1116 43.2125-37.1116Q44.6723-37.1116 45.8373-36.5175Q47.0024-35.9235 48.016-34.7228L55.7973-25.4931L73.8326-54.0089Q76.0951-57.5418 79.3314-57.5418Q81.8721-57.5418 83.7988-55.8802Q85.7255-54.2185 85.7255-51.6267Q85.7255-50.6778 85.3807-49.6081Q85.0359-48.5384 84.2904-47.4725L61.7603-13.6467Q59.5089-10.3728 55.8647-10.3728Z"/>
  </g>
  <g id="Bold-M" transform="matrix(1 0 0 1 2279.69 1126)">
   <path d="M60.2672 16.3124Q70.9082 16.3124 80.2289 12.2951Q89.5497 8.27781 96.6634 1.15Q103.777-5.9778 107.811-15.2986Q111.845-24.6193 111.845-35.2321Q111.845-45.8449 107.811-55.1656Q103.777-64.4864 96.6493-71.6142Q89.5215-78.742 80.2007-82.7593Q70.8799-86.7766 60.2389-86.7766Q49.6317-86.7766 40.3082-82.7593Q30.9846-78.742 23.8878-71.6142Q16.791-64.4864 12.7568-55.1656Q8.72266-45.8449 8.72266-35.2321Q8.72266-24.6193 12.7568-15.2986Q16.791-5.9778 23.902 1.15Q31.0129 8.27781 40.3364 12.2951Q49.6599 16.3124 60.2672 16.3124ZM54.8976-10.7174Q53.2619-10.7174 51.9272-11.4586Q50.5925-12.1999 49.4285-13.5961L37.9875-27.2822Q36.4083-29.1902 36.4083-31.3142Q36.4083-33.5582 38.0107-35.1431Q39.6131-36.728 41.8513-36.728Q43.1687-36.728 44.2305-36.1886Q45.2924-35.6491 46.2571-34.4524L54.7791-23.9824L73.7873-54.2144Q75.7475-57.2995 78.5993-57.2995Q80.804-57.2995 82.5082-55.8676Q84.2123-54.4357 84.2123-52.1407Q84.2123-51.2438 83.8468-50.2532Q83.4812-49.2625 82.8446-48.3027L60.1629-13.6818Q58.1748-10.7174 54.8976-10.7174Z"/>
  </g>
  <g id="Semibold-M" transform="matrix(1 0 0 1 1983.62 1126)">
   <path d="M59.621 15.6559Q70.1203 15.6559 79.3244 11.6886Q88.5284 7.72135 95.5566 0.674869Q102.585-6.37161 106.574-15.5756Q110.564-24.7797 110.564-35.2425Q110.564-45.7053 106.574-54.9093Q102.585-64.1134 95.5384-71.1598Q88.4919-78.2063 79.2879-82.1736Q70.0838-86.1408 59.5845-86.1408Q49.1293-86.1408 39.9215-82.1736Q30.7136-78.2063 23.7075-71.1598Q16.7013-64.1134 12.712-54.9093Q8.72266-45.7053 8.72266-35.2425Q8.72266-24.7797 12.712-15.5756Q16.7013-6.37161 23.7257 0.674869Q30.7501 7.72135 39.958 11.6886Q49.1658 15.6559 59.621 15.6559ZM54.2309-10.9549Q52.7309-10.9549 51.4997-11.6335Q50.2684-12.3121 49.1736-13.6515L37.4476-27.83Q36.0206-29.5897 36.0206-31.5528Q36.0206-33.5778 37.4489-35.0207Q38.8772-36.4636 40.9129-36.4636Q42.1321-36.4636 43.1228-35.9618Q44.1135-35.46 45.0445-34.266L54.0772-22.941L73.7561-54.356Q75.5078-57.1324 78.0945-57.1324Q80.0677-57.1324 81.6184-55.8589Q83.1691-54.5854 83.1691-52.495Q83.1691-51.634 82.7893-50.6979Q82.4094-49.7617 81.8479-48.8751L59.0616-13.706Q57.2551-10.9549 54.2309-10.9549Z"/>
  </g>
  <g id="Medium-M" transform="matrix(1 0 0 1 1687.4 1126)">
   <path d="M59.1311 15.158Q69.523 15.158 78.6385 11.2287Q87.754 7.29942 94.7174 0.314603Q101.681-6.67021 105.636-15.7857Q109.591-24.9012 109.591-35.2504Q109.591-45.5995 105.636-54.715Q101.681-63.8305 94.696-70.8153Q87.7112-77.8002 78.5957-81.7295Q69.4802-85.6588 59.0883-85.6588Q48.7484-85.6588 39.6283-81.7295Q30.5081-77.8002 23.5707-70.8153Q16.6333-63.8305 12.678-54.715Q8.72266-45.5995 8.72266-35.2504Q8.72266-24.9012 12.678-15.7857Q16.6333-6.67021 23.5921 0.314603Q30.5509 7.29942 39.671 11.2287Q48.7912 15.158 59.1311 15.158ZM53.7253-11.135Q52.3283-11.135 51.1755-11.766Q50.0227-12.3971 48.9803-13.6935L37.0382-28.2454Q35.7267-29.8927 35.7267-31.7337Q35.7267-33.5926 37.023-34.9278Q38.3193-36.2631 40.2014-36.2631Q41.3461-36.2631 42.2829-35.7898Q43.2197-35.3166 44.1251-34.1247L53.545-22.1514L73.7325-54.4635Q75.3261-57.0056 77.7118-57.0056Q79.5094-57.0056 80.9438-55.8523Q82.3782-54.6989 82.3782-52.7637Q82.3782-51.9299 81.9874-51.035Q81.5967-50.1402 81.0921-49.3091L58.2266-13.7243Q56.5577-11.135 53.7253-11.135Z"/>
  </g>
  <g id="Regular-M" transform="matrix(1 0 0 1 1391.32 1126)">
   <path d="M58.492 14.5087Q68.7438 14.5087 77.7439 10.6289Q86.7439 6.74907 93.6228-0.155309Q100.502-7.05969 104.413-16.0597Q108.324-25.0598 108.324-35.2606Q108.324-45.4615 104.413-54.4616Q100.502-63.4616 93.5973-70.366Q86.693-77.2704 77.6929-81.1502Q68.6929-85.03 58.441-85.03Q48.2515-85.03 39.2458-81.1502Q30.2401-77.2704 23.3923-70.366Q16.5446-63.4616 12.6336-54.4616Q8.72266-45.4615 8.72266-35.2606Q8.72266-25.0598 12.6336-16.0597Q16.5446-7.05969 23.4178-0.155309Q30.291 6.74907 39.2968 10.6289Q48.3025 14.5087 58.492 14.5087ZM53.0659-11.3699Q51.8031-11.3699 50.7527-11.939Q49.7022-12.5081 48.7282-13.7482L36.5042-28.7871Q35.3433-30.2878 35.3433-31.9697Q35.3433-33.6119 36.4674-34.8067Q37.5915-36.0016 39.2733-36.0016Q40.321-36.0016 41.1874-35.5656Q42.0538-35.1295 42.9259-33.9403L52.8507-21.1214L73.7016-54.6036Q75.0891-56.8404 77.2126-56.8404Q78.7812-56.8404 80.0638-55.8437Q81.3465-54.847 81.3465-53.1142Q81.3465-52.3158 80.9416-51.4748Q80.5367-50.6339 80.1063-49.8751L57.1375-13.7482Q55.6481-11.3699 53.0659-11.3699Z"/>
  </g>
  <g id="Light-M" transform="matrix(1 0 0 1 1095.44 1126)">
   <path d="M57.664 13.6807Q67.7687 13.6807 76.6123 9.87453Q85.456 6.06831 92.2245-0.716478Q98.993-7.50127 102.83-16.3449Q106.668-25.1886 106.668-35.2606Q106.668-45.3327 102.83-54.1764Q98.993-63.02 92.2082-69.8048Q85.4234-76.5896 76.5798-80.3958Q67.7361-84.202 57.6315-84.202Q47.5892-84.202 38.7306-80.3958Q29.8721-76.5896 23.1348-69.8048Q16.3974-63.02 12.56-54.1764Q8.72266-45.3327 8.72266-35.2606Q8.72266-25.1886 12.56-16.3449Q16.3974-7.50127 23.151-0.716478Q29.9047 6.06831 38.7632 9.87453Q47.6217 13.6807 57.664 13.6807ZM52.33-11.6275Q51.3431-11.6275 50.5595-12.0586Q49.7758-12.4897 49.041-13.417L35.7867-29.3023Q34.8649-30.5086 34.8649-31.7857Q34.8649-33.0599 35.7406-33.9696Q36.6163-34.8793 37.8934-34.8793Q38.7203-34.8793 39.3751-34.5444Q40.0299-34.2096 40.6996-33.3148L52.17-19.2079L74.6032-54.7507Q75.7146-56.4724 77.3414-56.4724Q78.5236-56.4724 79.5119-55.6781Q80.5001-54.8838 80.5001-53.5742Q80.5001-52.9965 80.1964-52.358Q79.8927-51.7195 79.5728-51.1446L55.4264-13.417Q54.2498-11.6275 52.33-11.6275Z"/>
  </g>
  <g id="Thin-M" transform="matrix(1 0 0 1 799.822 1126)">
   <path d="M56.569 12.5857Q66.479 12.5857 75.1158 8.87683Q83.7526 5.16794 90.3751-1.45867Q96.9976-8.08529 100.738-16.7221Q104.478-25.3589 104.478-35.2606Q104.478-45.1624 100.738-53.7992Q96.9976-62.436 90.371-69.0626Q83.7444-75.6892 75.1076-79.3981Q66.4707-83.107 56.5608-83.107Q46.7131-83.107 38.0493-79.3981Q29.3854-75.6892 22.7941-69.0626Q16.2027-62.436 12.4627-53.7992Q8.72266-45.1624 8.72266-35.2606Q8.72266-25.3589 12.4627-16.7221Q16.2027-8.08529 22.7982-1.45867Q29.3936 5.16794 38.0575 8.87683Q46.7214 12.5857 56.569 12.5857ZM51.3566-11.9681Q50.7348-11.9681 50.304-12.2167Q49.8731-12.4654 49.4547-12.979L34.8376-29.9836Q34.2322-30.8006 34.2322-31.5423Q34.2322-32.3299 34.7794-32.8624Q35.3266-33.3949 36.0683-33.3949Q36.6032-33.3949 36.9782-33.1939Q37.3531-32.9929 37.7551-32.4874L51.2696-16.6771L75.7955-54.9454Q76.542-55.9857 77.5118-55.9857Q78.1829-55.9857 78.7818-55.4591Q79.3808-54.9325 79.3808-54.1825Q79.3808-53.8969 79.2109-53.526Q79.041-53.1552 78.8671-52.8237L53.1633-12.979Q52.4004-11.9681 51.3566-11.9681Z"/>
  </g>
  <g id="Ultralight-M" transform="matrix(1 0 0 1 503.672 1126)">
   <path d="M56.0081 12.0248Q65.8184 12.0248 74.3492 8.36581Q82.8801 4.70678 89.4278-1.83882Q95.9756-8.38442 99.6657-16.9153Q103.356-25.4462 103.356-35.2606Q103.356-45.0751 99.6657-53.606Q95.9756-62.1369 89.43-68.6825Q82.8844-75.2281 74.3535-78.8871Q65.8226-82.5461 56.0124-82.5461Q46.2644-82.5461 37.7003-78.8871Q29.1361-75.2281 22.6196-68.6825Q16.103-62.1369 12.4128-53.606Q8.72266-45.0751 8.72266-35.2606Q8.72266-25.4462 12.4128-16.9153Q16.103-8.38442 22.6175-1.83882Q29.1319 4.70678 37.6961 8.36581Q46.2602 12.0248 56.0081 12.0248ZM50.858-12.1426Q50.4232-12.1426 50.1731-12.2978Q49.923-12.4529 49.6666-12.7547L34.3515-30.3326Q33.9082-30.9502 33.9082-31.4177Q33.9082-31.956 34.2871-32.2953Q34.666-32.6346 35.1335-32.6346Q35.5188-32.6346 35.7505-32.5021Q35.9821-32.3697 36.247-32.0636L50.8084-15.3809L76.4063-55.0451Q76.9658-55.7364 77.599-55.7364Q78.0084-55.7364 78.4079-55.3469Q78.8074-54.9574 78.8074-54.4941Q78.8074-54.3581 78.7061-54.1243Q78.6048-53.8905 78.5056-53.6837L52.0041-12.7547Q51.4531-12.1426 50.858-12.1426Z"/>
  </g>
  <g id="Black-S" transform="matrix(1 0 0 1 2884.57 696)">
   <path d="M48.8281 6.78711Q57.5195 6.78711 65.1123 3.51562Q72.7051 0.244141 78.4912-5.54199Q84.2773-11.3281 87.5488-18.9209Q90.8203-26.5137 90.8203-35.2051Q90.8203-43.8965 87.5488-51.4893Q84.2773-59.082 78.4912-64.8682Q72.7051-70.6543 65.1123-73.9258Q57.5195-77.1973 48.8281-77.1973Q40.1367-77.1973 32.5439-73.9258Q24.9512-70.6543 19.165-64.8682Q13.3789-59.082 10.1074-51.4893Q6.83594-43.8965 6.83594-35.2051Q6.83594-26.5137 10.1074-18.9209Q13.3789-11.3281 19.165-5.54199Q24.9512 0.244141 32.5439 3.51562Q40.1367 6.78711 48.8281 6.78711ZM44.6777-15.4297Q43.0664-15.4297 41.7725-16.1621Q40.4785-16.8945 39.4043-18.1152L31.1035-27.6367Q29.4922-29.4922 29.4922-31.543Q29.4922-33.8379 31.1768-35.4248Q32.8613-37.0117 35.1074-37.0117Q36.377-37.0117 37.3779-36.499Q38.3789-35.9863 39.209-35.0586L44.6777-28.9551L57.959-49.7559Q60.0098-52.9297 62.8906-52.9297Q65.1855-52.9297 66.8945-51.416Q68.6035-49.9023 68.6035-47.6074Q68.6035-46.8262 68.3594-45.9229Q68.1152-45.0195 67.4316-44.0918L49.8535-18.2617Q47.8516-15.4297 44.6777-15.4297Z"/>
  </g>
  <g id="Heavy-S" transform="matrix(1 0 0 1 2588.47 696)">
   <path d="M48.2173 6.16479Q56.7704 6.16479 64.2537 2.9394Q71.737-0.285985 77.4425-5.99721Q83.1479-11.7084 86.3791-19.1917Q89.6102-26.675 89.6102-35.2166Q89.6102-43.7582 86.3791-51.2415Q83.1479-58.7248 77.4367-64.436Q71.7255-70.1472 64.2422-73.3726Q56.7589-76.598 48.2058-76.598Q39.6642-76.598 32.1809-73.3726Q24.6976-70.1472 18.9979-64.436Q13.2982-58.7248 10.0671-51.2415Q6.83594-43.7582 6.83594-35.2166Q6.83594-26.675 10.0671-19.1917Q13.2982-11.7084 19.0037-5.99721Q24.7092-0.285985 32.1924 2.9394Q39.6757 6.16479 48.2173 6.16479ZM44.0324-15.6602Q42.5363-15.6602 41.323-16.3407Q40.1097-17.0213 39.0816-18.219L30.5964-28.1784Q29.1234-29.9071 29.1234-31.8311Q29.1234-33.9301 30.6466-35.396Q32.1699-36.8619 34.2431-36.8619Q35.4319-36.8619 36.3811-36.378Q37.3302-35.8941 38.1487-34.9318L43.9863-28.0446L57.8092-49.8942Q59.664-52.7914 62.3144-52.7914Q64.4019-52.7914 65.9783-51.4275Q67.5548-50.0637 67.5548-47.9416Q67.5548-47.1719 67.2818-46.3032Q67.0089-45.4344 66.3944-44.5643L48.8509-18.3309Q47.0103-15.6602 44.0324-15.6602Z"/>
  </g>
  <g id="Bold-S" transform="matrix(1 0 0 1 2292.43 696)">
   <path d="M47.5342 5.46875Q55.9326 5.46875 63.2935 2.29492Q70.6543-0.878906 76.2695-6.50635Q81.8848-12.1338 85.0708-19.4946Q88.2568-26.8555 88.2568-35.2295Q88.2568-43.6035 85.0708-50.9644Q81.8848-58.3252 76.2573-63.9526Q70.6299-69.5801 63.269-72.7539Q55.9082-75.9277 47.5098-75.9277Q39.1357-75.9277 31.7749-72.7539Q24.4141-69.5801 18.811-63.9526Q13.208-58.3252 10.022-50.9644Q6.83594-43.6035 6.83594-35.2295Q6.83594-26.8555 10.022-19.4946Q13.208-12.1338 18.8232-6.50635Q24.4385-0.878906 31.7993 2.29492Q39.1602 5.46875 47.5342 5.46875ZM43.3105-15.918Q41.9434-15.918 40.8203-16.5405Q39.6973-17.1631 38.7207-18.335L30.0293-28.7842Q28.7109-30.3711 28.7109-32.1533Q28.7109-34.0332 30.0537-35.3638Q31.3965-36.6943 33.2764-36.6943Q34.375-36.6943 35.2661-36.2427Q36.1572-35.791 36.9629-34.79L43.2129-27.0264L57.6416-50.0488Q59.2773-52.6367 61.6699-52.6367Q63.5254-52.6367 64.9536-51.4404Q66.3818-50.2441 66.3818-48.3154Q66.3818-47.5586 66.0767-46.7285Q65.7715-45.8984 65.2344-45.0928L47.7295-18.4082Q46.0693-15.918 43.3105-15.918Z"/>
  </g>
  <g id="Semibold-S" transform="matrix(1 0 0 1 1996.19 696)">
   <path d="M47.0632 4.98887Q55.355 4.98887 62.6314 1.85059Q69.9078-1.2877 75.4608-6.85737Q81.0139-12.4271 84.1688-19.7035Q87.3237-26.9799 87.3237-35.2384Q87.3237-43.4969 84.1688-50.7733Q81.0139-58.0497 75.4442-63.6194Q69.8745-69.1891 62.5981-72.3273Q55.3217-75.4656 47.0299-75.4656Q38.7714-75.4656 31.495-72.3273Q24.2186-69.1891 18.6822-63.6194Q13.1458-58.0497 9.99087-50.7733Q6.83594-43.4969 6.83594-35.2384Q6.83594-26.9799 9.99087-19.7035Q13.1458-12.4271 18.6988-6.85737Q24.2519-1.2877 31.5283 1.85059Q38.8047 4.98887 47.0632 4.98887ZM42.8129-16.0957Q41.5346-16.0957 40.4737-16.6783Q39.4129-17.2608 38.4719-18.4149L29.6383-29.2019Q28.4266-30.691 28.4266-32.3755Q28.4266-34.1043 29.6449-35.3416Q30.8633-36.5788 32.6099-36.5788Q33.6463-36.5788 34.4974-36.1494Q35.3485-35.7199 36.1453-34.6923L42.6797-26.3243L57.5261-50.1555Q59.0107-52.5301 61.2256-52.5301Q62.9211-52.5301 64.2471-51.4493Q65.5731-50.3686 65.5731-48.5731Q65.5731-47.8252 65.2458-47.0218Q64.9184-46.2184 64.4346-45.4571L46.9563-18.4615Q45.4206-16.0957 42.8129-16.0957Z"/>
  </g>
  <g id="Medium-S" transform="matrix(1 0 0 1 1699.83 696)">
   <path d="M46.7061 4.625Q54.917 4.625 62.1294 1.51367Q69.3418-1.59766 74.8477-7.12354Q80.3535-12.6494 83.4849-19.8618Q86.6162-27.0742 86.6162-35.2451Q86.6162-43.416 83.4849-50.6284Q80.3535-57.8408 74.8276-63.3667Q69.3018-68.8926 62.0894-72.0039Q54.877-75.1152 46.666-75.1152Q38.4951-75.1152 31.2827-72.0039Q24.0703-68.8926 18.5845-63.3667Q13.0986-57.8408 9.96729-50.6284Q6.83594-43.416 6.83594-35.2451Q6.83594-27.0742 9.96729-19.8618Q13.0986-12.6494 18.6045-7.12354Q24.1104-1.59766 31.3228 1.51367Q38.5352 4.625 46.7061 4.625ZM42.4355-16.2305Q41.2246-16.2305 40.2109-16.7827Q39.1973-17.335 38.2832-18.4756L29.3418-29.5186Q28.2109-30.9336 28.2109-32.5439Q28.2109-34.1582 29.335-35.3247Q30.459-36.4912 32.1045-36.4912Q33.0938-36.4912 33.9146-36.0786Q34.7354-35.666 35.5254-34.6182L42.2754-25.792L57.4385-50.2363Q58.8086-52.4492 60.8887-52.4492Q62.4629-52.4492 63.7114-51.4561Q64.96-50.4629 64.96-48.7686Q64.96-48.0273 64.6157-47.2441Q64.2715-46.4609 63.8281-45.7334L46.3701-18.502Q44.9287-16.2305 42.4355-16.2305Z"/>
  </g>
  <g id="Regular-S" transform="matrix(1 0 0 1 1403.58 696)">
   <path d="M46.2402 4.15039Q54.3457 4.15039 61.4746 1.07422Q68.6035-2.00195 74.0479-7.4707Q79.4922-12.9395 82.5928-20.0684Q85.6934-27.1973 85.6934-35.2539Q85.6934-43.3105 82.5928-50.4395Q79.4922-57.5684 74.0234-63.0371Q68.5547-68.5059 61.4258-71.582Q54.2969-74.6582 46.1914-74.6582Q38.1348-74.6582 31.0059-71.582Q23.877-68.5059 18.457-63.0371Q13.0371-57.5684 9.93652-50.4395Q6.83594-43.3105 6.83594-35.2539Q6.83594-27.1973 9.93652-20.0684Q13.0371-12.9395 18.4814-7.4707Q23.9258-2.00195 31.0547 1.07422Q38.1836 4.15039 46.2402 4.15039ZM41.9434-16.4062Q40.8203-16.4062 39.8682-16.9189Q38.916-17.4316 38.0371-18.5547L28.9551-29.9316Q27.9297-31.25 27.9297-32.7637Q27.9297-34.2285 28.9307-35.3027Q29.9316-36.377 31.4453-36.377Q32.373-36.377 33.1543-35.9863Q33.9355-35.5957 34.7168-34.5215L41.748-25.0977L57.3242-50.3418Q58.5449-52.3438 60.4492-52.3438Q61.8652-52.3438 63.0127-51.4648Q64.1602-50.5859 64.1602-49.0234Q64.1602-48.291 63.7939-47.5342Q63.4277-46.7773 63.0371-46.0938L45.6055-18.5547Q44.2871-16.4062 41.9434-16.4062Z"/>
  </g>
  <g id="Light-S" transform="matrix(1 0 0 1 1107.6 696)">
   <path d="M45.5078 3.41797Q53.4831 3.41797 60.4736 0.406901Q67.4642-2.60417 72.8109-7.96712Q78.1576-13.3301 81.193-20.3206Q84.2285-27.3112 84.2285-35.2539Q84.2285-43.1966 81.193-50.1872Q78.1576-57.1777 72.7946-62.5407Q67.4316-67.9036 60.4411-70.9147Q53.4505-73.9258 45.4753-73.9258Q37.5488-73.9258 30.5501-70.9147Q23.5514-67.9036 18.2292-62.5407Q12.9069-57.1777 9.87142-50.1872Q6.83594-43.1966 6.83594-35.2539Q6.83594-27.3112 9.87142-20.3206Q12.9069-13.3301 18.2454-7.96712Q23.584-2.60417 30.5827 0.406901Q37.5814 3.41797 45.5078 3.41797ZM41.2923-16.6341Q40.4134-16.6341 39.6973-17.0247Q38.9811-17.4154 38.3138-18.2617L28.3203-30.3874Q27.5065-31.4453 27.5065-32.6009Q27.5065-33.7402 28.2878-34.5622Q29.069-35.3841 30.2246-35.3841Q30.957-35.3841 31.5511-35.083Q32.1452-34.7819 32.7474-33.9681L41.1458-23.4049L58.1217-50.472Q59.0983-52.0182 60.5632-52.0182Q61.6374-52.0182 62.5244-51.3184Q63.4115-50.6185 63.4115-49.4303Q63.4115-48.8932 63.1348-48.3154Q62.8581-47.7376 62.5651-47.2168L44.0918-18.2617Q43.0501-16.6341 41.2923-16.6341Z"/>
  </g>
  <g id="Thin-S" transform="matrix(1 0 0 1 811.859 696)">
   <path d="M44.5391 2.44928Q52.3422 2.44928 59.1498-0.47568Q65.9573-3.40064 71.1749-8.62368Q76.3924-13.8467 79.3418-20.6543Q82.2911-27.4619 82.2911-35.2539Q82.2911-43.0459 79.3418-49.8535Q76.3924-56.6611 71.1694-61.8841Q65.9463-67.1072 59.1387-70.0321Q52.3311-72.9571 44.5281-72.9571Q36.7739-72.9571 29.9474-70.0321Q23.1209-67.1072 17.9278-61.8841Q12.7347-56.6611 9.78531-49.8535Q6.83594-43.0459 6.83594-35.2539Q6.83594-27.4619 9.78531-20.6543Q12.7347-13.8467 17.9333-8.62368Q23.1319-3.40064 29.9584-0.47568Q36.7849 2.44928 44.5391 2.44928ZM40.4313-16.9355Q39.8753-16.9355 39.4712-17.1647Q39.0672-17.3938 38.6798-17.8742L27.4808-30.9901Q26.9468-31.7036 26.9468-32.3856Q26.9468-33.0944 27.4375-33.5827Q27.9281-34.071 28.6101-34.071Q29.0842-34.071 29.4308-33.8883Q29.7773-33.7056 30.1427-33.2362L40.3494-21.1662L59.1765-50.6442Q59.8302-51.5877 60.7138-51.5877Q61.336-51.5877 61.8786-51.1246Q62.4212-50.6615 62.4212-49.9685Q62.4212-49.6897 62.2629-49.3487Q62.1046-49.0077 61.9408-48.7021L42.0898-17.8742Q41.4141-16.9355 40.4313-16.9355Z"/>
  </g>
  <g id="Ultralight-S" transform="matrix(1 0 0 1 515.644 696)">
   <path d="M44.043 1.95312Q51.7578 1.95312 58.4717-0.927734Q65.1855-3.80859 70.3369-8.95996Q75.4883-14.1113 78.3936-20.8252Q81.2988-27.5391 81.2988-35.2539Q81.2988-42.9688 78.3936-49.6826Q75.4883-56.3965 70.3369-61.5479Q65.1855-66.6992 58.4717-69.5801Q51.7578-72.4609 44.043-72.4609Q36.377-72.4609 29.6387-69.5801Q22.9004-66.6992 17.7734-61.5479Q12.6465-56.3965 9.74121-49.6826Q6.83594-42.9688 6.83594-35.2539Q6.83594-27.5391 9.74121-20.8252Q12.6465-14.1113 17.7734-8.95996Q22.9004-3.80859 29.6387-0.927734Q36.377 1.95312 44.043 1.95312ZM39.9902-17.0898Q39.5996-17.0898 39.3555-17.2363Q39.1113-17.3828 38.8672-17.6758L27.0508-31.2988Q26.6602-31.8359 26.6602-32.2754Q26.6602-32.7637 27.002-33.0811Q27.3438-33.3984 27.7832-33.3984Q28.125-33.3984 28.3447-33.2764Q28.5645-33.1543 28.8086-32.8613L39.9414-20.0195L59.7168-50.7324Q60.2051-51.3672 60.791-51.3672Q61.1816-51.3672 61.5479-51.0254Q61.9141-50.6836 61.9141-50.2441Q61.9141-50.0977 61.8164-49.8779Q61.7188-49.6582 61.6211-49.4629L41.0645-17.6758Q40.5762-17.0898 39.9902-17.0898Z"/>
  </g>
 </g>
</svg>
