<?xml version="1.0" encoding="UTF-8"?>
<!--Generator: Apple Native CoreSVG 175-->
<!DOCTYPE svg
PUBLIC "-//W3C//DTD SVG 1.1//EN"
       "http://www.w3.org/Graphics/SVG/1.1/DTD/svg11.dtd">
<svg version="1.1" xmlns="http://www.w3.org/2000/svg" xmlns:xlink="http://www.w3.org/1999/xlink" width="3300" height="2200">
 <!--glyph: "uni10039F.medium", point size: 100.0, font version: "17.1d1e1", template writer version: "65.1"-->
 <g id="Notes">
  <rect height="2200" id="artboard" style="fill:white;opacity:1" width="3300" x="0" y="0"/>
  <line style="fill:none;stroke:black;opacity:1;stroke-width:0.5;" x1="263" x2="3036" y1="292" y2="292"/>
  <text style="stroke:none;fill:black;font-family:sans-serif;font-size:13;font-weight:bold;" transform="matrix(1 0 0 1 263 322)">Weight/Scale Variations</text>
  <text style="stroke:none;fill:black;font-family:sans-serif;font-size:13;text-anchor:middle;" transform="matrix(1 0 0 1 559.711 322)">Ultralight</text>
  <text style="stroke:none;fill:black;font-family:sans-serif;font-size:13;text-anchor:middle;" transform="matrix(1 0 0 1 856.422 322)">Thin</text>
  <text style="stroke:none;fill:black;font-family:sans-serif;font-size:13;text-anchor:middle;" transform="matrix(1 0 0 1 1153.13 322)">Light</text>
  <text style="stroke:none;fill:black;font-family:sans-serif;font-size:13;text-anchor:middle;" transform="matrix(1 0 0 1 1449.84 322)">Regular</text>
  <text style="stroke:none;fill:black;font-family:sans-serif;font-size:13;text-anchor:middle;" transform="matrix(1 0 0 1 1746.56 322)">Medium</text>
  <text style="stroke:none;fill:black;font-family:sans-serif;font-size:13;text-anchor:middle;" transform="matrix(1 0 0 1 2043.27 322)">Semibold</text>
  <text style="stroke:none;fill:black;font-family:sans-serif;font-size:13;text-anchor:middle;" transform="matrix(1 0 0 1 2339.98 322)">Bold</text>
  <text style="stroke:none;fill:black;font-family:sans-serif;font-size:13;text-anchor:middle;" transform="matrix(1 0 0 1 2636.69 322)">Heavy</text>
  <text style="stroke:none;fill:black;font-family:sans-serif;font-size:13;text-anchor:middle;" transform="matrix(1 0 0 1 2933.4 322)">Black</text>
  <line style="fill:none;stroke:black;opacity:1;stroke-width:0.5;" x1="263" x2="3036" y1="1903" y2="1903"/>
  <g transform="matrix(1 0 0 1 263 1933)">
   <path d="M9.24805 0.830078Q10.8691 0.830078 12.2949 0.214844Q13.7207-0.400391 14.8096-1.49414Q15.8984-2.58789 16.5186-4.01367Q17.1387-5.43945 17.1387-7.05078Q17.1387-8.66211 16.5186-10.0879Q15.8984-11.5137 14.8047-12.6074Q13.7109-13.7012 12.2852-14.3164Q10.8594-14.9316 9.23828-14.9316Q7.62695-14.9316 6.20117-14.3164Q4.77539-13.7012 3.69141-12.6074Q2.60742-11.5137 1.9873-10.0879Q1.36719-8.66211 1.36719-7.05078Q1.36719-5.43945 1.9873-4.01367Q2.60742-2.58789 3.69629-1.49414Q4.78516-0.400391 6.21094 0.214844Q7.63672 0.830078 9.24805 0.830078ZM9.24805-0.654297Q7.91992-0.654297 6.7627-1.14746Q5.60547-1.64062 4.73145-2.51953Q3.85742-3.39844 3.36426-4.56055Q2.87109-5.72266 2.87109-7.05078Q2.87109-8.37891 3.35938-9.54102Q3.84766-10.7031 4.72168-11.582Q5.5957-12.4609 6.75293-12.9541Q7.91016-13.4473 9.23828-13.4473Q10.5762-13.4473 11.7334-12.9541Q12.8906-12.4609 13.7695-11.582Q14.6484-10.7031 15.1465-9.54102Q15.6445-8.37891 15.6445-7.05078Q15.6445-5.72266 15.1514-4.56055Q14.6582-3.39844 13.7842-2.51953Q12.9102-1.64062 11.748-1.14746Q10.5859-0.654297 9.24805-0.654297ZM5.6543-7.05078Q5.6543-6.72852 5.85938-6.52832Q6.06445-6.32812 6.40625-6.32812L8.51562-6.32812L8.51562-4.20898Q8.51562-3.88672 8.71094-3.67676Q8.90625-3.4668 9.23828-3.4668Q9.56055-3.4668 9.77051-3.67676Q9.98047-3.88672 9.98047-4.20898L9.98047-6.32812L12.0898-6.32812Q12.4219-6.32812 12.627-6.52832Q12.832-6.72852 12.832-7.05078Q12.832-7.38281 12.627-7.58789Q12.4219-7.79297 12.0898-7.79297L9.98047-7.79297L9.98047-9.90234Q9.98047-10.2344 9.77051-10.4443Q9.56055-10.6543 9.23828-10.6543Q8.90625-10.6543 8.71094-10.4443Q8.51562-10.2344 8.51562-9.90234L8.51562-7.79297L6.40625-7.79297Q6.06445-7.79297 5.85938-7.58789Q5.6543-7.38281 5.6543-7.05078Z"/>
  </g>
  <g transform="matrix(1 0 0 1 281.867 1933)">
   <path d="M11.709 2.91016Q13.75 2.91016 15.5518 2.12891Q17.3535 1.34766 18.7305-0.0292969Q20.1074-1.40625 20.8887-3.20801Q21.6699-5.00977 21.6699-7.05078Q21.6699-9.0918 20.8887-10.8936Q20.1074-12.6953 18.7305-14.0723Q17.3535-15.4492 15.5469-16.2305Q13.7402-17.0117 11.6992-17.0117Q9.6582-17.0117 7.85645-16.2305Q6.05469-15.4492 4.68262-14.0723Q3.31055-12.6953 2.5293-10.8936Q1.74805-9.0918 1.74805-7.05078Q1.74805-5.00977 2.5293-3.20801Q3.31055-1.40625 4.6875-0.0292969Q6.06445 1.34766 7.86621 2.12891Q9.66797 2.91016 11.709 2.91016ZM11.709 1.25Q9.98047 1.25 8.47656 0.605469Q6.97266-0.0390625 5.83496-1.17676Q4.69727-2.31445 4.05762-3.81836Q3.41797-5.32227 3.41797-7.05078Q3.41797-8.7793 4.05762-10.2832Q4.69727-11.7871 5.83008-12.9297Q6.96289-14.0723 8.4668-14.7119Q9.9707-15.3516 11.6992-15.3516Q13.4277-15.3516 14.9316-14.7119Q16.4355-14.0723 17.5781-12.9297Q18.7207-11.7871 19.3652-10.2832Q20.0098-8.7793 20.0098-7.05078Q20.0098-5.32227 19.3701-3.81836Q18.7305-2.31445 17.5928-1.17676Q16.4551-0.0390625 14.9463 0.605469Q13.4375 1.25 11.709 1.25ZM7.17773-7.05078Q7.17773-6.69922 7.41211-6.47461Q7.64648-6.25 8.01758-6.25L10.8887-6.25L10.8887-3.36914Q10.8887-2.99805 11.1133-2.76855Q11.3379-2.53906 11.6895-2.53906Q12.0605-2.53906 12.29-2.76855Q12.5195-2.99805 12.5195-3.36914L12.5195-6.25L15.4004-6.25Q15.7715-6.25 16.001-6.47461Q16.2305-6.69922 16.2305-7.05078Q16.2305-7.42188 16.001-7.65137Q15.7715-7.88086 15.4004-7.88086L12.5195-7.88086L12.5195-10.752Q12.5195-11.1328 12.29-11.3623Q12.0605-11.5918 11.6895-11.5918Q11.3379-11.5918 11.1133-11.3574Q10.8887-11.123 10.8887-10.752L10.8887-7.88086L8.01758-7.88086Q7.63672-7.88086 7.40723-7.65137Q7.17773-7.42188 7.17773-7.05078Z"/>
  </g>
  <g transform="matrix(1 0 0 1 305.646 1933)">
   <path d="M14.9707 5.66406Q17.0605 5.66406 18.96 5.01465Q20.8594 4.36523 22.4512 3.19336Q24.043 2.02148 25.2197 0.429688Q26.3965-1.16211 27.0459-3.06641Q27.6953-4.9707 27.6953-7.05078Q27.6953-9.14062 27.0459-11.04Q26.3965-12.9395 25.2197-14.5312Q24.043-16.123 22.4512-17.2998Q20.8594-18.4766 18.9551-19.126Q17.0508-19.7754 14.9609-19.7754Q12.8711-19.7754 10.9717-19.126Q9.07227-18.4766 7.48535-17.2998Q5.89844-16.123 4.72168-14.5312Q3.54492-12.9395 2.90039-11.04Q2.25586-9.14062 2.25586-7.05078Q2.25586-4.9707 2.90527-3.06641Q3.55469-1.16211 4.72656 0.429688Q5.89844 2.02148 7.49023 3.19336Q9.08203 4.36523 10.9814 5.01465Q12.8809 5.66406 14.9707 5.66406ZM14.9707 3.84766Q13.1641 3.84766 11.5283 3.2959Q9.89258 2.74414 8.53516 1.74805Q7.17773 0.751953 6.17676-0.610352Q5.17578-1.97266 4.62891-3.6084Q4.08203-5.24414 4.08203-7.05078Q4.08203-8.86719 4.62891-10.5029Q5.17578-12.1387 6.17188-13.501Q7.16797-14.8633 8.52539-15.8594Q9.88281-16.8555 11.5186-17.4023Q13.1543-17.9492 14.9609-17.9492Q16.7773-17.9492 18.4131-17.4023Q20.0488-16.8555 21.4111-15.8594Q22.7734-14.8633 23.7695-13.501Q24.7656-12.1387 25.3174-10.5029Q25.8691-8.86719 25.8691-7.05078Q25.8789-5.24414 25.332-3.6084Q24.7852-1.97266 23.7842-0.610352Q22.7832 0.751953 21.4209 1.74805Q20.0586 2.74414 18.4229 3.2959Q16.7871 3.84766 14.9707 3.84766ZM9.19922-7.05078Q9.19922-6.66992 9.45801-6.4209Q9.7168-6.17188 10.1172-6.17188L14.0625-6.17188L14.0625-2.2168Q14.0625-1.81641 14.3115-1.55762Q14.5605-1.29883 14.9512-1.29883Q15.3516-1.29883 15.6104-1.55273Q15.8691-1.80664 15.8691-2.2168L15.8691-6.17188L19.8242-6.17188Q20.2246-6.17188 20.4785-6.4209Q20.7324-6.66992 20.7324-7.05078Q20.7324-7.46094 20.4785-7.71484Q20.2246-7.96875 19.8242-7.96875L15.8691-7.96875L15.8691-11.9141Q15.8691-12.3242 15.6104-12.583Q15.3516-12.8418 14.9512-12.8418Q14.5605-12.8418 14.3115-12.583Q14.0625-12.3242 14.0625-11.9141L14.0625-7.96875L10.1172-7.96875Q9.70703-7.96875 9.45312-7.71484Q9.19922-7.46094 9.19922-7.05078Z"/>
  </g>
  <text style="stroke:none;fill:black;font-family:sans-serif;font-size:13;font-weight:bold;" transform="matrix(1 0 0 1 263 1953)">Design Variations</text>
  <text style="stroke:none;fill:black;font-family:sans-serif;font-size:13;" transform="matrix(1 0 0 1 263 1971)">Symbols are supported in up to nine weights and three scales.</text>
  <text style="stroke:none;fill:black;font-family:sans-serif;font-size:13;" transform="matrix(1 0 0 1 263 1989)">For optimal layout with text and other symbols, vertically align</text>
  <text style="stroke:none;fill:black;font-family:sans-serif;font-size:13;" transform="matrix(1 0 0 1 263 2007)">symbols with the adjacent text.</text>
  <line style="fill:none;stroke:#00AEEF;stroke-width:0.5;opacity:1.0;" x1="776" x2="776" y1="1919" y2="1933"/>
  <g transform="matrix(1 0 0 1 776 1933)">
   <path d="M3.31055 0.15625Q3.70117 0.15625 3.91602-0.00976562Q4.13086-0.175781 4.26758-0.585938L5.52734-4.0332L11.2891-4.0332L12.5488-0.585938Q12.6855-0.175781 12.9004-0.00976562Q13.1152 0.15625 13.4961 0.15625Q13.8867 0.15625 14.1162-0.0585938Q14.3457-0.273438 14.3457-0.644531Q14.3457-0.869141 14.2383-1.17188L9.6582-13.3691Q9.48242-13.8184 9.17969-14.043Q8.87695-14.2676 8.4082-14.2676Q7.5-14.2676 7.17773-13.3789L2.59766-1.16211Q2.49023-0.859375 2.49023-0.634766Q2.49023-0.263672 2.70996-0.0537109Q2.92969 0.15625 3.31055 0.15625ZM6.00586-5.51758L8.37891-12.0898L8.42773-12.0898L10.8008-5.51758Z"/>
  </g>
  <line style="fill:none;stroke:#00AEEF;stroke-width:0.5;opacity:1.0;" x1="793.197" x2="793.197" y1="1919" y2="1933"/>
  <text style="stroke:none;fill:black;font-family:sans-serif;font-size:13;font-weight:bold;" transform="matrix(1 0 0 1 776 1953)">Margins</text>
  <text style="stroke:none;fill:black;font-family:sans-serif;font-size:13;" transform="matrix(1 0 0 1 776 1971)">Leading and trailing margins on the left and right side of each symbol</text>
  <text style="stroke:none;fill:black;font-family:sans-serif;font-size:13;" transform="matrix(1 0 0 1 776 1989)">can be adjusted by modifying the x-location of the margin guidelines.</text>
  <text style="stroke:none;fill:black;font-family:sans-serif;font-size:13;" transform="matrix(1 0 0 1 776 2007)">Modifications are automatically applied proportionally to all</text>
  <text style="stroke:none;fill:black;font-family:sans-serif;font-size:13;" transform="matrix(1 0 0 1 776 2025)">scales and weights.</text>
  <g transform="matrix(1 0 0 1 1289 1933)">
   <path d="M2.8418 1.86523L4.54102 3.57422Q5.18555 4.22852 5.90332 4.17969Q6.62109 4.13086 7.31445 3.35938L18.0078-8.42773L17.041-9.4043L6.42578 2.27539Q6.16211 2.57812 5.89355 2.61719Q5.625 2.65625 5.27344 2.30469L4.10156 1.14258Q3.75 0.791016 3.79395 0.522461Q3.83789 0.253906 4.14062-0.0195312L15.6152-10.8203L14.6387-11.7871L3.04688-0.898438Q2.30469-0.214844 2.25098 0.498047Q2.19727 1.21094 2.8418 1.86523ZM9.25781-16.3281Q8.94531-16.0254 8.90625-15.6348Q8.86719-15.2441 9.04297-14.9512Q9.21875-14.6777 9.55566-14.541Q9.89258-14.4043 10.3809-14.5215Q11.4746-14.7754 12.5977-14.7314Q13.7207-14.6875 14.7949-13.9844L14.209-12.5293Q13.9551-11.9043 14.0674-11.4404Q14.1797-10.9766 14.5801-10.5664L16.875-8.25195Q17.2363-7.88086 17.5781-7.82227Q17.9199-7.76367 18.3398-7.8418L19.4043-8.03711L20.0684-7.36328L20.0293-6.80664Q20-6.43555 20.1221-6.12305Q20.2441-5.81055 20.6055-5.44922L21.3672-4.70703Q21.7285-4.3457 22.1533-4.33105Q22.5781-4.31641 22.9297-4.66797L25.8398-7.58789Q26.1914-7.93945 26.1816-8.35449Q26.1719-8.76953 25.8105-9.13086L25.0391-9.89258Q24.6875-10.2539 24.3799-10.3857Q24.0723-10.5176 23.7109-10.4883L23.1348-10.4395L22.4902-11.0742L22.7344-12.1973Q22.832-12.6172 22.6953-12.9834Q22.5586-13.3496 22.1191-13.7891L19.9219-15.9766Q18.6719-17.2168 17.2607-17.8369Q15.8496-18.457 14.4189-18.4814Q12.9883-18.5059 11.665-17.959Q10.3418-17.4121 9.25781-16.3281ZM10.752-15.957Q11.6602-16.6211 12.7002-16.9043Q13.7402-17.1875 14.8047-17.085Q15.8691-16.9824 16.8701-16.5137Q17.8711-16.0449 18.7012-15.2051L21.1328-12.793Q21.3086-12.6172 21.3525-12.4512Q21.3965-12.2852 21.3379-12.0312L21.0156-10.5469L22.5195-9.0625L23.5059-9.12109Q23.6914-9.13086 23.7891-9.09668Q23.8867-9.0625 24.0332-8.91602L24.6094-8.33984L22.168-5.89844L21.5918-6.47461Q21.4453-6.62109 21.4062-6.71875Q21.3672-6.81641 21.377-7.01172L21.4453-7.98828L19.9512-9.47266L18.4277-9.21875Q18.1836-9.16992 18.042-9.2041Q17.9004-9.23828 17.7148-9.41406L15.7129-11.416Q15.5176-11.5918 15.4932-11.7529Q15.4688-11.9141 15.5859-12.1875L16.4648-14.2773Q15.293-15.3711 13.8281-15.791Q12.3633-16.2109 10.8398-15.7617Q10.7227-15.7324 10.6885-15.8057Q10.6543-15.8789 10.752-15.957Z"/>
  </g>
  <text style="stroke:none;fill:black;font-family:sans-serif;font-size:13;font-weight:bold;" transform="matrix(1 0 0 1 1289 1953)">Exporting</text>
  <text style="stroke:none;fill:black;font-family:sans-serif;font-size:13;" transform="matrix(1 0 0 1 1289 1971)">Symbols should be outlined when exporting to ensure the</text>
  <text style="stroke:none;fill:black;font-family:sans-serif;font-size:13;" transform="matrix(1 0 0 1 1289 1989)">design is preserved when submitting to Xcode.</text>
  <text id="template-version" style="stroke:none;fill:black;font-family:sans-serif;font-size:13;text-anchor:end;" transform="matrix(1 0 0 1 3036 1933)">Template v.3.0</text>
  <text style="stroke:none;fill:black;font-family:sans-serif;font-size:13;text-anchor:end;" transform="matrix(1 0 0 1 3036 1951)">Requires Xcode 13 or greater</text>
  <text id="descriptive-name" style="stroke:none;fill:black;font-family:sans-serif;font-size:13;text-anchor:end;" transform="matrix(1 0 0 1 3036 1969)">Generated from house.fill</text>
  <text style="stroke:none;fill:black;font-family:sans-serif;font-size:13;text-anchor:end;" transform="matrix(1 0 0 1 3036 1987)">Typeset at 100 points</text>
  <text style="stroke:none;fill:black;font-family:sans-serif;font-size:13;" transform="matrix(1 0 0 1 263 726)">Small</text>
  <text style="stroke:none;fill:black;font-family:sans-serif;font-size:13;" transform="matrix(1 0 0 1 263 1156)">Medium</text>
  <text style="stroke:none;fill:black;font-family:sans-serif;font-size:13;" transform="matrix(1 0 0 1 263 1586)">Large</text>
 </g>
 <g id="Guides">
  <g id="H-reference" style="fill:#27AAE1;stroke:none;" transform="matrix(1 0 0 1 339 696)">
   <path d="M0.976562 0L3.66211 0L29.3457-67.1387L30.0293-67.1387L30.0293-70.459L28.125-70.459ZM11.6699-24.4629L46.9727-24.4629L46.2402-26.709L12.4512-26.709ZM55.127 0L57.7637 0L30.6152-70.459L29.4434-70.459L29.4434-67.1387Z"/>
  </g>
  <line id="Baseline-S" style="fill:none;stroke:#27AAE1;opacity:1;stroke-width:0.5;" x1="263" x2="3036" y1="696" y2="696"/>
  <line id="Capline-S" style="fill:none;stroke:#27AAE1;opacity:1;stroke-width:0.5;" x1="263" x2="3036" y1="625.541" y2="625.541"/>
  <g id="H-reference" style="fill:#27AAE1;stroke:none;" transform="matrix(1 0 0 1 339 1126)">
   <path d="M0.976562 0L3.66211 0L29.3457-67.1387L30.0293-67.1387L30.0293-70.459L28.125-70.459ZM11.6699-24.4629L46.9727-24.4629L46.2402-26.709L12.4512-26.709ZM55.127 0L57.7637 0L30.6152-70.459L29.4434-70.459L29.4434-67.1387Z"/>
  </g>
  <line id="Baseline-M" style="fill:none;stroke:#27AAE1;opacity:1;stroke-width:0.5;" x1="263" x2="3036" y1="1126" y2="1126"/>
  <line id="Capline-M" style="fill:none;stroke:#27AAE1;opacity:1;stroke-width:0.5;" x1="263" x2="3036" y1="1055.54" y2="1055.54"/>
  <g id="H-reference" style="fill:#27AAE1;stroke:none;" transform="matrix(1 0 0 1 339 1556)">
   <path d="M0.976562 0L3.66211 0L29.3457-67.1387L30.0293-67.1387L30.0293-70.459L28.125-70.459ZM11.6699-24.4629L46.9727-24.4629L46.2402-26.709L12.4512-26.709ZM55.127 0L57.7637 0L30.6152-70.459L29.4434-70.459L29.4434-67.1387Z"/>
  </g>
  <line id="Baseline-L" style="fill:none;stroke:#27AAE1;opacity:1;stroke-width:0.5;" x1="263" x2="3036" y1="1556" y2="1556"/>
  <line id="Capline-L" style="fill:none;stroke:#27AAE1;opacity:1;stroke-width:0.5;" x1="263" x2="3036" y1="1485.54" y2="1485.54"/>
  <line id="left-margin-Regular-M" style="fill:none;stroke:#00AEEF;stroke-width:0.5;opacity:1.0;" x1="1379.13" x2="1379.13" y1="1030.79" y2="1150.12"/>
  <line id="right-margin-Regular-M" style="fill:none;stroke:#00AEEF;stroke-width:0.5;opacity:1.0;" x1="1520.56" x2="1520.56" y1="1030.79" y2="1150.12"/>
 </g>
 <g id="Symbols">
  <g id="Black-L" transform="matrix(1 0 0 1 2834.53 1556)">
   <path d="M116.302 9.17627L81.4152 9.17627L81.4152-27.3518Q81.4152-29.6724 82.8447-31.0629Q84.2742-32.4535 86.5948-32.4535L111.202-32.4535Q116.302-32.4535 116.302-27.3518ZM39.0007 14.3108Q39.0007 21.8177 43.8883 26.3633Q48.7758 30.9089 56.9096 30.9089L140.796 30.9089Q148.931 30.9089 153.818 26.3633Q158.705 21.8177 158.705 14.3108L158.705-27.0465L103.113-73.7168Q101.181-75.4044 98.9281-75.4038Q96.6749-75.4032 94.7071-73.7168L39.0007-27.0491ZM16.084-43.6704Q16.084-39.517 18.8237-36.8624Q21.5633-34.2078 26.0824-34.2078Q28.0609-34.2078 30.0513-35.0686Q32.0416-35.9294 33.7984-37.389L94.7333-88.4869Q98.8813-92.02 103.147-88.4869L163.962-37.389Q165.717-35.9294 167.718-35.0686Q169.719-34.2078 171.697-34.2078Q176.15-34.2078 178.902-36.7788Q181.654-39.3499 181.654-43.6082Q181.654-48.383 177.633-51.7345L112.043-106.842Q106.12-111.833 98.9404-111.833Q91.7609-111.833 85.8588-106.842L20.1258-51.6761Q16.084-48.2077 16.084-43.6704ZM134.921-81.5026L159.639-60.9L159.639-95.7709Q159.639-100.831 154.576-100.831L140.083-100.831Q137.773-100.831 136.347-99.4465Q134.921-98.0617 134.921-95.7709Z"/>
  </g>
  <g id="Heavy-L" transform="matrix(1 0 0 1 2539.78 1556)">
   <path d="M114.037 10.7925L79.7463 10.7925L79.7463-27.0002Q79.7463-29.2781 81.1428-30.6404Q82.5392-32.0027 84.8171-32.0027L109.041-32.0027Q114.037-32.0027 114.037-27.0002ZM38.1264 13.7503Q38.1264 20.9826 42.7248 25.3058Q47.3232 29.629 55.0673 29.629L138.755 29.629Q146.506 29.629 151.101 25.3058Q155.696 20.9826 155.696 13.7503L155.696-29.8983L101.062-75.7502Q99.1522-77.4065 96.9543-77.4035Q94.7565-77.4004 92.8381-75.7502L38.1264-29.9103ZM16.084-43.8881Q16.084-40.2845 18.4929-37.9171Q20.9018-35.5498 24.9253-35.5498Q26.7318-35.5498 28.4859-36.3429Q30.2401-37.136 31.8025-38.4246L93.2176-89.9479Q96.9306-93.1102 100.739-89.9479L162.047-38.4246Q163.603-37.136 165.372-36.3429Q167.141-35.5498 168.948-35.5498Q172.837-35.5498 175.283-37.7951Q177.729-40.0403 177.729-43.7988Q177.729-48.0365 174.221-50.9679L108.736-105.999Q103.39-110.497 96.9783-110.497Q90.5668-110.497 85.2503-105.999L19.6225-50.9233Q16.084-47.9026 16.084-43.8881ZM133.931-79.2725L156.41-60.5023L156.41-94.0167Q156.41-98.8928 151.522-98.8928L138.918-98.8928Q136.688-98.8928 135.31-97.5577Q133.931-96.2226 133.931-94.0167Z"/>
  </g>
  <g id="Bold-L" transform="matrix(1 0 0 1 2245.57 1556)">
   <path d="M111.167 12.8364L77.6031 12.8364L77.6031-26.4775Q77.6031-28.6816 78.9468-29.9993Q80.2905-31.3171 82.4947-31.3171L106.342-31.3171Q111.167-31.3171 111.167-26.4775ZM36.9527 13.2096Q36.9527 20.0685 41.1902 24.1084Q45.4276 28.1483 52.6668 28.1483L136.205 28.1483Q143.458 28.1483 147.689 24.1084Q151.919 20.0685 151.919 13.2096L151.919-33.4884L98.4767-78.33Q96.5715-79.9655 94.4399-79.9584Q92.3083-79.9513 90.4251-78.33L36.9527-33.5169ZM16.084-44.1632Q16.084-41.2323 18.0812-39.2309Q20.0784-37.2295 23.4725-37.2295Q25.0492-37.2295 26.5046-37.9267Q27.9601-38.6239 29.2791-39.701L91.1881-91.6657Q94.4434-94.4391 97.7713-91.6657L159.579-39.701Q160.884-38.6239 162.358-37.9267Q163.832-37.2295 165.409-37.2295Q168.61-37.2295 170.667-39.0758Q172.723-40.9221 172.723-44.0522Q172.723-47.6144 169.831-50.0384L104.637-104.846Q99.9759-108.76 94.4797-108.76Q88.9835-108.76 84.3594-104.846L19.0134-50.0092Q16.084-47.5268 16.084-44.1632ZM132.7-76.4037L152.386-59.9251L152.386-91.9019Q152.386-96.4769 147.783-96.4769L137.393-96.4769Q135.302-96.4769 134.001-95.2232Q132.7-93.9695 132.7-91.9019Z"/>
  </g>
  <g id="Semibold-L" transform="matrix(1 0 0 1 1950.59 1556)">
   <path d="M109.188 14.2455L76.1256 14.2455L76.1256-26.1171Q76.1256-28.2704 77.4329-29.5574Q78.7403-30.8444 80.8936-30.8444L104.481-30.8444Q109.188-30.8444 109.188-26.1171ZM36.1435 12.8368Q36.1435 19.4384 40.1322 23.2829Q44.1209 27.1275 51.0119 27.1275L134.447 27.1275Q141.358 27.1275 145.336 23.2829Q149.315 19.4384 149.315 12.8368L149.315-35.9635L96.6945-80.1085Q94.7923-81.7297 92.7064-81.7197Q90.6205-81.7098 88.7616-80.1085L36.1435-36.0032ZM16.084-44.3529Q16.084-41.8856 17.7973-40.1366Q19.5107-38.3875 22.471-38.3875Q23.8892-38.3875 25.1387-39.0186Q26.3882-39.6497 27.5395-40.5809L89.789-92.8499Q92.7287-95.3552 95.7254-92.8499L157.878-40.5809Q159.01-39.6497 160.28-39.0186Q161.551-38.3875 162.969-38.3875Q165.696-38.3875 167.484-39.9587Q169.272-41.53 169.272-44.227Q169.272-47.3234 166.804-49.3976L101.811-104.051Q97.6225-107.563 92.7572-107.563Q87.892-107.563 83.7452-104.051L18.5936-49.3791Q16.084-47.2677 16.084-44.3529ZM131.852-74.4259L149.612-59.5272L149.612-90.444Q149.612-94.8114 145.205-94.8114L136.341-94.8114Q134.347-94.8114 133.099-93.6138Q131.852-92.4162 131.852-90.444Z"/>
  </g>
  <g id="Medium-L" transform="matrix(1 0 0 1 1655.19 1556)">
   <path d="M107.688 15.3139L75.0053 15.3139L75.0053-25.8438Q75.0053-27.9586 76.2851-29.2223Q77.5648-30.486 79.6796-30.486L103.07-30.486Q107.688-30.486 107.688-25.8438ZM35.53 12.5542Q35.53 18.9605 39.33 22.657Q43.13 26.3535 49.7571 26.3535L133.114 26.3535Q139.765 26.3535 143.553 22.657Q147.341 18.9605 147.341 12.5542L147.341-37.8401L95.3433-81.457Q93.4433-83.0674 91.392-83.0553Q89.3408-83.0432 87.5002-81.457L35.53-37.8885ZM16.084-44.4967Q16.084-42.3811 17.5821-40.8233Q19.0802-39.2655 21.7116-39.2655Q23.0097-39.2655 24.103-39.8465Q25.1964-40.4274 26.2205-41.2481L88.7281-93.7479Q91.4286-96.0499 94.1742-93.7479L156.588-41.2481Q157.588-40.4274 158.705-39.8465Q159.821-39.2655 161.119-39.2655Q163.486-39.2655 165.071-40.6282Q166.655-41.9909 166.655-44.3594Q166.655-47.1028 164.509-48.9118L99.6685-103.448Q95.838-106.655 91.4512-106.655Q87.0643-106.655 83.2795-103.448L18.2752-48.9013Q16.084-47.0712 16.084-44.4967ZM131.208-72.9263L147.509-59.2255L147.509-89.3385Q147.509-93.5485 143.251-93.5485L135.544-93.5485Q133.623-93.5485 132.415-92.3935Q131.208-91.2385 131.208-89.3385Z"/>
  </g>
  <g id="Regular-L" transform="matrix(1 0 0 1 1360.18 1556)">
   <path d="M105.731 16.7075L73.544 16.7075L73.544-25.4874Q73.544-27.5519 74.7878-28.7852Q76.0316-30.0185 78.0961-30.0185L101.229-30.0185Q105.731-30.0185 105.731-25.4874ZM34.7297 12.1856Q34.7297 18.3373 38.2837 21.8406Q41.8376 25.3439 48.1204 25.3439L131.375 25.3439Q137.687 25.3439 141.226 21.8406Q144.765 18.3373 144.765 12.1856L144.765-40.288L93.5807-83.2159Q91.6837-84.8121 89.6776-84.7973Q87.6715-84.7824 85.855-83.2159L34.7297-40.3475ZM16.084-44.6843Q16.084-43.0273 17.3014-41.719Q18.5188-40.4107 20.7211-40.4107Q21.8625-40.4107 22.7521-40.9263Q23.6418-41.4419 24.5-42.1184L87.3444-94.9191Q89.7327-96.956 92.1508-94.9191L154.906-42.1184Q155.734-41.4419 156.649-40.9263Q157.564-40.4107 158.706-40.4107Q160.604-40.4107 161.923-41.5014Q163.242-42.5921 163.242-44.5322Q163.242-46.815 161.516-48.278L96.8738-102.662Q93.5104-105.471 89.7476-105.471Q85.9848-105.471 82.6721-102.662L17.8599-48.278Q16.084-46.815 16.084-44.6843ZM130.369-70.9703L144.765-58.8319L144.765-87.8966Q144.765-91.9012 140.701-91.9012L134.504-91.9012Q132.678-91.9012 131.523-90.8018Q130.369-89.7023 130.369-87.8966Z"/>
  </g>
  <g id="Light-L" transform="matrix(1 0 0 1 1065.67 1556)">
   <path d="M103.33 18.3903L71.5739 18.3903L71.5739-24.5639Q71.5739-26.4437 72.7048-27.5847Q73.8357-28.7257 75.7156-28.7257L99.2183-28.7257Q103.33-28.7257 103.33-24.5639ZM33.3342 12.8012Q33.3342 18.4809 36.6214 21.738Q39.9086 24.995 45.6988 24.995L129.466 24.995Q135.307 24.995 138.569 21.738Q141.831 18.4809 141.831 12.8012L141.831-43.1405L91.508-85.3912Q89.4674-87.0901 87.4921-87.0649Q85.5167-87.0398 83.5565-85.3912L33.3342-43.2411ZM16.084-44.91Q16.084-43.6635 17.0038-42.6733Q17.9236-41.6831 19.5924-41.6831Q20.467-41.6831 21.1104-42.055Q21.7538-42.427 22.4273-42.9598L84.9639-95.5142Q87.5574-97.7358 90.2012-95.5142L152.587-42.9598Q153.21-42.427 153.869-42.055Q154.527-41.6831 155.402-41.6831Q156.89-41.6831 157.87-42.5275Q158.85-43.3719 158.85-44.8195Q158.85-46.5687 157.432-47.765L94.0212-101.164Q90.9451-103.747 87.5825-103.747Q84.2199-103.747 81.174-101.164L17.5316-47.765Q16.084-46.5687 16.084-44.91ZM129.486-68.3024L141.831-57.8879L141.831-86.8089Q141.831-90.1364 138.403-90.1364L132.924-90.1364Q131.446-90.1364 130.466-89.2216Q129.486-88.3068 129.486-86.8089Z"/>
  </g>
  <g id="Thin-L" transform="matrix(1 0 0 1 771.859 1556)">
   <path d="M100.154 20.616L68.9683 20.616L68.9683-23.3425Q68.9683-24.9781 69.9499-25.9969Q70.9316-27.0157 72.5671-27.0157L96.5584-27.0157Q100.154-27.0157 100.154-23.3425ZM31.4885 13.6155Q31.4885 18.6709 34.4229 21.6023Q37.3572 24.5336 42.4961 24.5336L126.942 24.5336Q132.158 24.5336 135.054 21.6023Q137.95 18.6709 137.95 13.6155L137.95-46.9133L88.7667-88.2683Q86.536-90.1028 84.6014-90.0641Q82.6668-90.0254 80.5166-88.2683L31.4885-47.0681ZM16.084-45.2086Q16.084-44.5049 16.6103-43.9354Q17.1365-43.3659 18.0996-43.3659Q18.6213-43.3659 18.939-43.5478Q19.2567-43.7298 19.686-44.0726L81.8154-96.3013Q84.6803-98.7672 87.6227-96.3013L149.52-44.0726Q149.872-43.7298 150.191-43.5478Q150.51-43.3659 151.032-43.3659Q151.977-43.3659 152.509-43.8846Q153.041-44.4033 153.041-45.1995Q153.041-46.243 152.031-47.0864L90.2485-99.1826Q87.5524-101.468 84.719-101.468Q81.8857-101.468 79.1926-99.1826L17.0973-47.0864Q16.084-46.243 16.084-45.2086ZM128.319-64.774L137.95-56.6394L137.95-85.3704Q137.95-87.8021 135.363-87.8021L130.834-87.8021Q129.818-87.8021 129.069-87.1316Q128.319-86.4611 128.319-85.3704Z"/>
  </g>
  <g id="Ultralight-L" transform="matrix(1 0 0 1 476.636 1556)">
   <path d="M98.5276 21.7559L67.6337 21.7559L67.6337-22.7169Q67.6337-24.2273 68.5389-25.1836Q69.444-26.1399 70.9545-26.1399L95.196-26.1399Q98.5276-26.1399 98.5276-22.7169ZM30.5432 14.0326Q30.5432 18.7683 33.2968 21.5328Q36.0504 24.2973 40.8557 24.2973L125.649 24.2973Q130.546 24.2973 133.254 21.5328Q135.962 18.7683 135.962 14.0326L135.962-48.8456L87.3626-89.7419Q85.0346-91.646 83.1209-91.6003Q81.2071-91.5547 78.9596-89.7419L30.5432-49.0283ZM16.084-45.3615Q16.084-44.9358 16.4087-44.5818Q16.7334-44.2278 17.335-44.2278Q17.676-44.2278 17.8269-44.3124Q17.9777-44.3971 18.2819-44.6426L80.2028-96.7045Q83.2067-99.2955 86.302-96.7045L147.949-44.6426Q148.162-44.3971 148.307-44.3124Q148.453-44.2278 148.794-44.2278Q149.461-44.2278 149.764-44.5797Q150.066-44.9316 150.066-45.3942Q150.066-46.0762 149.265-46.7389L88.3161-98.1677Q85.8146-100.3 83.2524-100.3Q80.6901-100.3 78.1778-98.1677L16.8749-46.7389Q16.084-46.0762 16.084-45.3615ZM127.721-62.9667L135.962-55.9999L135.962-84.6336Q135.962-86.6066 133.806-86.6066L129.764-86.6066Q128.984-86.6066 128.353-86.0612Q127.721-85.5158 127.721-84.6336Z"/>
  </g>
  <g id="Black-M" transform="matrix(1 0 0 1 2855.41 1126)">
   <path d="M91.7253-1.98749L64.2432-1.98749L64.2432-29.3033Q64.2432-31.1129 65.3637-32.202Q66.4843-33.2911 68.2938-33.2911L87.7372-33.2911Q91.7253-33.2911 91.7253-29.3033ZM30.7778 3.71655Q30.7778 9.70461 34.7768 13.384Q38.7757 17.0635 45.3455 17.0635L110.576 17.0635Q117.145 17.0635 121.144 13.384Q125.143 9.70461 125.143 3.71655L125.143-26.8254L81.3677-63.5944Q79.833-64.9427 78.0439-64.9429Q76.2549-64.943 74.6683-63.5944L30.7778-26.8248ZM12.4609-41.6126Q12.4609-37.9778 14.8274-35.7174Q17.1939-33.4569 21.0487-33.4569Q22.6932-33.4569 24.4049-34.1626Q26.1165-34.8682 27.6195-36.1266L74.374-75.3153Q77.9893-78.3961 81.7184-75.3153L128.36-36.1266Q129.863-34.8682 131.577-34.1626Q133.292-33.4569 134.936-33.4569Q138.815-33.4569 141.164-35.6955Q143.513-37.934 143.513-41.596Q143.513-45.6844 139.999-48.6059L89.2595-91.2319Q84.2143-95.4922 78.0462-95.4922Q71.8781-95.4922 66.8385-91.2319L15.9803-48.5488Q12.4609-45.5131 12.4609-41.6126ZM105.26-72.6344L126.057-55.3314L126.057-83.4936Q126.057-87.4808 122.07-87.4808L109.315-87.4808Q107.503-87.4808 106.382-86.3903Q105.26-85.2998 105.26-83.4936Z"/>
  </g>
  <g id="Heavy-M" transform="matrix(1 0 0 1 2560.42 1126)">
   <path d="M89.7328-0.562795L62.7934-0.562795L62.7934-29.0448Q62.7934-30.8297 63.8921-31.8997Q64.9908-32.9697 66.7757-32.9697L85.8104-32.9697Q89.7328-32.9697 89.7328-29.0448ZM30.0519 3.11182Q30.0519 8.87494 33.7928 12.3597Q37.5337 15.8444 43.7679 15.8444L108.757 15.8444Q114.994 15.8444 118.733 12.3597Q122.473 8.87494 122.473 3.11182L122.473-29.35L79.5539-65.3815Q78.0539-66.6897 76.3161-66.6885Q74.5783-66.6873 73.0534-65.3815L30.0519-29.3549ZM12.4609-41.8045Q12.4609-38.6694 14.5315-36.6604Q16.6021-34.6515 20.0216-34.6515Q21.5226-34.6515 23.0261-35.3042Q24.5295-35.9568 25.8596-37.0613L73.1119-76.6886Q76.283-79.39 79.5438-76.6886L126.702-37.0613Q128.029-35.9568 129.541-35.3042Q131.052-34.6515 132.553-34.6515Q135.919-34.6515 138-36.5942Q140.082-38.537 140.082-41.7558Q140.082-45.3685 137.04-47.9038L86.2902-90.5461Q81.7821-94.345 76.3279-94.345Q70.8736-94.345 66.3818-90.5461L15.5186-47.8602Q12.4609-45.2376 12.4609-41.8045ZM104.374-70.7004L123.171-55.0297L123.171-81.8792Q123.171-85.7486 119.297-85.7486L108.322-85.7486Q106.557-85.7486 105.465-84.6896Q104.374-83.6307 104.374-81.8792Z"/>
  </g>
  <g id="Bold-M" transform="matrix(1 0 0 1 2265.63 1126)">
   <path d="M87.5038 1.03093L61.1717 1.03093L61.1717-28.7557Q61.1717-30.5129 62.246-31.5615Q63.3202-32.6101 65.0774-32.6101L83.655-32.6101Q87.5038-32.6101 87.5038-28.7557ZM29.2398 2.43534Q29.2398 7.94685 32.692 11.2138Q36.1442 14.4808 42.0032 14.4808L106.722 14.4808Q112.587 14.4808 116.036 11.2138Q119.486 7.94685 119.486 2.43534L119.486-32.1742L77.5249-67.3807Q76.0636-68.644 74.3832-68.6412Q72.7028-68.6384 71.2468-67.3807L29.2398-32.1852ZM12.4609-42.0192Q12.4609-39.443 14.2006-37.7154Q15.9402-35.9877 18.8727-35.9877Q20.2131-35.9877 21.4837-36.5812Q22.7543-37.1747 23.8909-38.1069L71.7-78.2248Q74.3743-80.5017 77.1112-78.2248L124.847-38.1069Q125.978-37.1747 127.262-36.5812Q128.547-35.9877 129.888-35.9877Q132.679-35.9877 134.461-37.5997Q136.243-39.2116 136.243-41.9345Q136.243-45.015 133.73-47.1185L82.9686-89.7789Q79.0613-93.0616 74.4056-93.0616Q69.7499-93.0616 65.8709-89.7789L15.0021-47.09Q12.4609-44.9294 12.4609-42.0192ZM103.383-68.537L119.943-54.6923L119.943-80.0732Q119.943-83.811 116.194-83.811L107.211-83.811Q105.498-83.811 104.44-82.7872Q103.383-81.7634 103.383-80.0732Z"/>
  </g>
  <g id="Semibold-M" transform="matrix(1 0 0 1 1970.24 1126)">
   <path d="M85.9672 2.12964L60.0537 2.12964L60.0537-28.5564Q60.0537-30.2945 61.1111-31.3283Q62.1685-32.3622 63.9066-32.3622L82.169-32.3622Q85.9672-32.3622 85.9672-28.5564ZM28.6799 1.96898Q28.6799 7.30702 31.9331 10.4238Q35.1863 13.5407 40.7866 13.5407L105.32 13.5407Q110.928 13.5407 114.177 10.4238Q117.426 7.30702 117.426 1.96898L117.426-34.1211L76.1261-68.7589Q74.6916-69.9912 73.0507-69.9874Q71.4099-69.9836 70.0013-68.7589L28.6799-34.1364ZM12.4609-42.1672Q12.4609-39.9764 13.9724-38.4427Q15.4838-36.909 18.0806-36.909Q19.3104-36.909 20.4204-37.4616Q21.5305-38.0143 22.5337-38.8277L70.7266-79.2839Q73.0584-81.2681 75.4342-79.2839L123.568-38.8277Q124.563-38.0143 125.692-37.4616Q126.82-36.909 128.05-36.909Q130.446-36.909 132.021-38.2928Q133.597-39.6767 133.597-42.0577Q133.597-44.7713 131.448-46.5771L80.6787-89.2501Q77.1856-92.1769 73.0804-92.1769Q68.9753-92.1769 65.5187-89.2501L14.6461-46.5589Q12.4609-44.7169 12.4609-42.1672ZM102.699-67.0456L117.717-54.4597L117.717-78.8281Q117.717-82.4752 114.055-82.4752L106.445-82.4752Q104.768-82.4752 103.734-81.4757Q102.699-80.4762 102.699-78.8281Z"/>
  </g>
  <g id="Medium-M" transform="matrix(1 0 0 1 1674.53 1126)">
   <path d="M84.8021 2.96272L59.206 2.96272L59.206-28.4052Q59.206-30.1289 60.2506-31.1516Q61.2952-32.1743 63.0188-32.1743L81.0423-32.1743Q84.8021-32.1743 84.8021-28.4052ZM28.2554 1.61536Q28.2554 6.82188 31.3577 9.82485Q34.46 12.8278 39.8641 12.8278L104.256 12.8278Q109.67 12.8278 112.767 9.82485Q115.865 6.82188 115.865 1.61536L115.865-35.5974L75.0655-69.8039Q73.6512-71.0127 72.0403-71.0081Q70.4295-71.0035 69.057-69.8039L28.2554-35.6159ZM12.4609-42.2795Q12.4609-40.3808 13.7994-38.9941Q15.1378-37.6075 17.4801-37.6075Q18.6259-37.6075 19.6142-38.1292Q20.6025-38.6509 21.5046-39.3742L69.9886-80.0869Q72.0607-81.8492 74.1626-80.0869L122.598-39.3742Q123.491-38.6509 124.501-38.1292Q125.511-37.6075 126.656-37.6075Q128.752-37.6075 130.171-38.8184Q131.59-40.0293 131.59-42.1511Q131.59-44.5866 129.718-46.1666L78.9424-88.8491Q75.7633-91.5061 72.0756-91.5061Q68.3879-91.5061 65.2516-88.8491L14.3761-46.1563Q12.4609-44.5558 12.4609-42.2795ZM102.181-65.9147L116.029-54.2833L116.029-77.8841Q116.029-81.4623 112.433-81.4623L105.864-81.4623Q104.215-81.4623 103.198-80.4812Q102.181-79.5002 102.181-77.8841Z"/>
  </g>
  <g id="Regular-M" transform="matrix(1 0 0 1 1379.13 1126)">
   <path d="M83.2824 4.04936L58.1003 4.04936L58.1003-28.2081Q58.1003-29.9128 59.1282-30.921Q60.1562-31.9291 61.8609-31.9291L79.5727-31.9291Q83.2824-31.9291 83.2824-28.2081ZM27.7018 1.15413Q27.7018 6.18909 30.6072 9.04357Q33.5126 11.898 38.6609 11.898L102.869 11.898Q108.029 11.898 110.928 9.04357Q113.828 6.18909 113.828 1.15413L113.828-37.523L73.6821-71.167Q72.2942-72.3452 70.7225-72.3395Q69.1507-72.3338 67.8252-71.167L27.7018-37.5457ZM12.4609-42.4259Q12.4609-40.9082 13.5737-39.7134Q14.6864-38.5185 16.6967-38.5185Q17.733-38.5185 18.5626-38.9999Q19.3922-39.4812 20.1623-40.0871L69.0259-81.1344Q70.7593-82.6072 72.504-81.1344L121.334-40.0871Q122.092-39.4812 122.947-38.9999Q123.803-38.5185 124.839-38.5185Q126.543-38.5185 127.758-39.5039Q128.973-40.4892 128.973-42.273Q128.973-44.3456 127.461-45.6311L76.6777-88.326Q73.9082-90.6311 70.765-90.6311Q67.6218-90.6311 64.9032-88.326L14.0239-45.6311Q12.4609-44.3456 12.4609-42.4259ZM101.505-64.4397L113.828-54.0532L113.828-76.6527Q113.828-80.1412 110.317-80.1412L105.107-80.1412Q103.493-80.1412 102.499-79.1841Q101.505-78.2271 101.505-76.6527Z"/>
  </g>
  <g id="Light-M" transform="matrix(1 0 0 1 1084.39 1126)">
   <path d="M81.1297 5.55808L56.334 5.55808L56.334-27.3802Q56.334-28.9193 57.2607-29.8446Q58.1875-30.77 59.7266-30.77L77.7696-30.77Q81.1297-30.77 81.1297-27.3802ZM26.4506 1.7061Q26.4506 6.31788 29.1169 8.95157Q31.7831 11.5853 36.4898 11.5853L101.158 11.5853Q105.894 11.5853 108.546 8.95157Q111.197 6.31788 111.197 1.7061L111.197-40.0805L71.8238-73.1173Q70.3071-74.3875 68.763-74.3726Q67.2188-74.3577 65.7645-73.1173L26.4506-40.1399ZM12.4609-42.6283Q12.4609-41.4786 13.3069-40.5689Q14.1528-39.6593 15.6848-39.6593Q16.4819-39.6593 17.0907-40.0118Q17.6995-40.3643 18.304-40.8415L66.8917-81.668Q68.809-83.3064 70.7561-81.668L119.255-40.8415Q119.829-40.3643 120.454-40.0118Q121.079-39.6593 121.877-39.6593Q123.213-39.6593 124.124-40.4238Q125.035-41.1884 125.035-42.5306Q125.035-44.1248 123.799-45.1711L74.1202-86.9829Q71.6083-89.0856 68.8239-89.0856Q66.0395-89.0856 63.5601-86.9829L13.7296-45.1711Q12.4609-44.1248 12.4609-42.6283ZM100.714-62.0478L111.197-53.2069L111.197-75.6776Q111.197-78.5589 108.256-78.5589L103.69-78.5589Q102.389-78.5589 101.551-77.7674Q100.714-76.9759 100.714-75.6776Z"/>
  </g>
  <g id="Thin-M" transform="matrix(1 0 0 1 790.278 1126)">
   <path d="M78.2826 7.55348L53.9979 7.55348L53.9979-26.2851Q53.9979-27.6053 54.7908-28.4211Q55.5837-29.2369 56.9039-29.2369L75.3849-29.2369Q78.2826-29.2369 78.2826-26.2851ZM24.7959 2.43612Q24.7959 6.48822 27.1458 8.8299Q29.4957 11.1716 33.6184 11.1716L98.8949 11.1716Q103.072 11.1716 105.394 8.8299Q107.717 6.48822 107.717 2.43612L107.717-43.4629L69.366-75.6967Q67.6791-77.0885 66.1714-77.0615Q64.6638-77.0345 63.0391-75.6967L24.7959-43.5711ZM12.4609-42.8959Q12.4609-42.233 12.954-41.7005Q13.4472-41.168 14.3464-41.168Q14.8272-41.168 15.1439-41.3502Q15.4607-41.5324 15.8463-41.8392L64.0689-82.3736Q66.2296-84.2311 68.4444-82.3736L116.505-41.8392Q116.836-41.5324 117.157-41.3502Q117.478-41.168 117.959-41.168Q118.809-41.168 119.318-41.6405Q119.828-42.1131 119.828-42.8713Q119.828-43.8328 118.957-44.5628L70.7378-85.2065Q68.5666-87.0415 66.2566-87.0415Q63.9467-87.0415 61.7837-85.2065L13.3402-44.5628Q12.4609-43.8328 12.4609-42.8959ZM99.6674-58.8844L107.717-52.0875L107.717-74.3878Q107.717-76.4661 105.531-76.4661L101.816-76.4661Q100.929-76.4661 100.298-75.8937Q99.6674-75.3212 99.6674-74.3878Z"/>
  </g>
  <g id="Ultralight-M" transform="matrix(1 0 0 1 494.9 1126)">
   <path d="M76.8243 8.57551L52.8014 8.57551L52.8014-25.7242Q52.8014-26.9322 53.5257-27.6919Q54.2501-28.4517 55.458-28.4517L74.1634-28.4517Q76.8243-28.4517 76.8243-25.7242ZM23.9484 2.81004Q23.9484 6.57546 26.1362 8.76758Q28.3241 10.9597 32.1476 10.9597L97.7358 10.9597Q101.626 10.9597 103.78 8.76758Q105.935 6.57546 105.935 2.81004L105.935-45.1954L68.1072-77.0178Q66.333-78.472 64.844-78.4388Q63.3551-78.4055 61.6432-77.0178L23.9484-45.3285ZM12.4609-43.033Q12.4609-42.6194 12.7733-42.2801Q13.0857-41.9408 13.6609-41.9408Q13.9796-41.9408 14.1468-42.0357Q14.314-42.1307 14.5874-42.3502L62.6231-82.7351Q64.9084-84.7047 67.2603-82.7351L115.096-42.3502Q115.303-42.1307 115.468-42.0357Q115.633-41.9408 115.952-41.9408Q116.553-41.9408 116.857-42.2637Q117.161-42.5867 117.161-43.0458Q117.161-43.6832 116.476-44.2512L69.0053-84.2966Q67.0086-85.9945 64.9417-85.9945Q62.8748-85.9945 60.8739-84.2966L13.1408-44.2512Q12.4609-43.6832 12.4609-43.033ZM99.1315-57.2641L105.935-51.5142L105.935-73.7273Q105.935-75.3943 104.135-75.3943L100.857-75.3943Q100.181-75.3943 99.6562-74.934Q99.1315-74.4737 99.1315-73.7273Z"/>
  </g>
  <g id="Black-S" transform="matrix(1 0 0 1 2871.88 696)">
   <path d="M72.3633-9.52148L50.6836-9.52148L50.6836-30.6152Q50.6836-32.0312 51.5625-32.8857Q52.4414-33.7402 53.8574-33.7402L69.2383-33.7402Q72.3633-33.7402 72.3633-30.6152ZM24.2676-4.49219Q24.2676 0.244141 27.4658 3.17383Q30.6641 6.10352 35.8887 6.10352L87.1094 6.10352Q92.334 6.10352 95.5322 3.17383Q98.7305 0.244141 98.7305-4.49219L98.7305-28.0273L64.209-57.0312Q62.9883-58.1055 61.5723-58.1055Q60.1562-58.1055 58.8867-57.0312L24.2676-28.0273ZM9.76562-40.1855Q9.76562-37.207 11.6943-35.376Q13.623-33.5449 16.748-33.5449Q18.0664-33.5449 19.458-34.1064Q20.8496-34.668 22.0703-35.6934L58.5449-66.2598Q61.5234-68.7988 64.5996-66.2598L100.977-35.6934Q102.197-34.668 103.589-34.1064Q104.98-33.5449 106.299-33.5449Q109.473-33.5449 111.377-35.376Q113.281-37.207 113.281-40.1855Q113.281-43.5059 110.4-45.8984L70.7031-79.248Q66.6016-82.7148 61.5723-82.7148Q56.543-82.7148 52.4414-79.248L12.6465-45.8496Q9.76562-43.3594 9.76562-40.1855ZM82.7148-64.9902L99.5117-51.0254L99.5117-73.4863Q99.5117-76.6113 96.3867-76.6113L85.8887-76.6113Q84.4727-76.6113 83.5938-75.7568Q82.7148-74.9023 82.7148-73.4863Z"/>
  </g>
  <g id="Heavy-S" transform="matrix(1 0 0 1 2576.38 696)">
   <path d="M70.9342-8.49581L49.6694-8.49581L49.6694-30.5Q49.6694-31.916 50.5426-32.7647Q51.4157-33.6135 52.8317-33.6135L67.8208-33.6135Q70.9342-33.6135 70.9342-30.5ZM23.8066-5.07994Q23.8066-0.481901 26.8147 2.30949Q29.8228 5.10089 34.8169 5.10089L85.7725 5.10089Q90.7667 5.10089 93.7747 2.30949Q96.7828-0.481901 96.7828-5.07994L96.7828-29.8597L62.8952-58.3105Q61.7206-59.3386 60.3449-59.3386Q58.9692-59.3386 57.7688-58.3105L23.8066-29.8597ZM9.76562-40.3238Q9.76562-37.7256 11.4754-36.0732Q13.1851-34.4208 15.999-34.4208Q17.2251-34.4208 18.4669-34.9535Q19.7087-35.4862 20.8026-36.3964L57.7382-67.3661Q60.3134-69.5594 62.9631-67.3661L99.8241-36.3964Q100.918-35.4862 102.166-34.9535Q103.413-34.4208 104.639-34.4208Q107.421-34.4208 109.135-36.0271Q110.85-37.6334 110.85-40.2893Q110.85-43.2638 108.338-45.3568L68.4904-78.8332Q64.8153-81.9312 60.3507-81.9312Q55.8861-81.9312 52.2224-78.8332L12.2892-45.3195Q9.76562-43.1519 9.76562-40.3238ZM82.0579-63.6419L97.3797-50.8756L97.3797-72.2302Q97.3797-75.3321 94.2777-75.3321L85.2203-75.3321Q83.8042-75.3321 82.9311-74.4834Q82.0579-73.6347 82.0579-72.2302Z"/>
  </g>
  <g id="Bold-S" transform="matrix(1 0 0 1 2281.03 696)">
   <path d="M69.3359-7.34863L48.5352-7.34863L48.5352-30.3711Q48.5352-31.7871 49.4019-32.6294Q50.2686-33.4717 51.6846-33.4717L66.2354-33.4717Q69.3359-33.4717 69.3359-30.3711ZM23.291-5.7373Q23.291-1.29395 26.0864 1.34277Q28.8818 3.97949 33.6182 3.97949L84.2773 3.97949Q89.0137 3.97949 91.8091 1.34277Q94.6045-1.29395 94.6045-5.7373L94.6045-31.9092L61.4258-59.7412Q60.3027-60.7178 58.9722-60.7178Q57.6416-60.7178 56.5186-59.7412L23.291-31.9092ZM9.76562-40.4785Q9.76562-38.3057 11.2305-36.853Q12.6953-35.4004 15.1611-35.4004Q16.2842-35.4004 17.3584-35.9009Q18.4326-36.4014 19.3848-37.1826L56.8359-68.6035Q58.96-70.4102 61.1328-68.6035L98.5352-37.1826Q99.4873-36.4014 100.574-35.9009Q101.66-35.4004 102.783-35.4004Q105.127-35.4004 106.628-36.7554Q108.13-38.1104 108.13-40.4053Q108.13-42.9932 106.03-44.751L66.0156-78.3691Q62.8174-81.0547 58.9844-81.0547Q55.1514-81.0547 51.9775-78.3691L11.8896-44.7266Q9.76562-42.9199 9.76562-40.4785ZM81.3232-62.1338L94.9951-50.708L94.9951-70.8252Q94.9951-73.9014 91.9189-73.9014L84.4727-73.9014Q83.0566-73.9014 82.1899-73.0591Q81.3232-72.2168 81.3232-70.8252Z"/>
  </g>
  <g id="Semibold-S" transform="matrix(1 0 0 1 1985.26 696)">
   <path d="M68.234-6.55771L47.7531-6.55771L47.7531-30.2822Q47.7531-31.6982 48.6154-32.5361Q49.4776-33.3739 50.8937-33.3739L65.1423-33.3739Q68.234-33.3739 68.234-30.2822ZM22.9355-6.19053Q22.9355-1.85381 25.5843 0.67627Q28.2331 3.20635 32.7917 3.20635L83.2465 3.20635Q87.8051 3.20635 90.4539 0.67627Q93.1026-1.85381 93.1026-6.19053L93.1026-33.3222L60.4127-60.7276Q59.3252-61.6687 58.0257-61.6687Q56.7263-61.6687 55.6565-60.7276L22.9355-33.3222ZM9.76562-40.5852Q9.76562-38.7056 11.0616-37.3907Q12.3576-36.0758 14.5835-36.0758Q15.6354-36.0758 16.5941-36.5541Q17.5528-37.0323 18.4072-37.7247L56.2139-69.4566Q58.0269-70.9967 59.8709-69.4566L97.6465-37.7247Q98.5009-37.0323 99.4762-36.5541Q100.452-36.0758 101.504-36.0758Q103.545-36.0758 104.9-37.2575Q106.255-38.4392 106.255-40.4853Q106.255-42.8065 104.44-44.3333L64.3094-78.0492Q61.4399-80.4504 58.0424-80.4504Q54.6448-80.4504 51.8087-78.0492L11.6142-44.3178Q9.76562-42.76 9.76562-40.5852ZM80.8167-61.094L93.3511-50.5925L93.3511-69.8565Q93.3511-72.9149 90.2927-72.9149L83.9572-72.9149Q82.5412-72.9149 81.679-72.0771Q80.8167-71.2393 80.8167-69.8565Z"/>
  </g>
  <g id="Medium-S" transform="matrix(1 0 0 1 1689.26 696)">
   <path d="M67.3984-5.95801L47.1602-5.95801L47.1602-30.2148Q47.1602-31.6309 48.019-32.4653Q48.8779-33.2998 50.2939-33.2998L64.3135-33.2998Q67.3984-33.2998 67.3984-30.2148ZM22.666-6.53418Q22.666-2.27832 25.2036 0.170898Q27.7412 2.62012 32.165 2.62012L82.4648 2.62012Q86.8887 2.62012 89.4263 0.170898Q91.9639-2.27832 91.9639-6.53418L91.9639-34.3936L59.6445-61.4756Q58.584-62.3896 57.3081-62.3896Q56.0322-62.3896 55.0029-61.4756L22.666-34.3936ZM9.76562-40.666Q9.76562-39.0088 10.9336-37.7983Q12.1016-36.5879 14.1455-36.5879Q15.1436-36.5879 16.0146-37.0493Q16.8857-37.5107 17.666-38.1357L55.7422-70.1035Q57.3193-71.4414 58.9141-70.1035L96.9727-38.1357Q97.7529-37.5107 98.644-37.0493Q99.5352-36.5879 100.533-36.5879Q102.346-36.5879 103.589-37.6382Q104.833-38.6885 104.833-40.5459Q104.833-42.665 103.233-44.0166L63.0156-77.8066Q60.3955-79.9922 57.3281-79.9922Q54.2607-79.9922 51.6807-77.8066L11.4053-44.0078Q9.76562-42.6387 9.76562-40.666ZM80.4326-60.3057L92.1045-50.5049L92.1045-69.1221Q92.1045-72.167 89.0596-72.167L83.5664-72.167Q82.1504-72.167 81.2915-71.3325Q80.4326-70.498 80.4326-69.1221Z"/>
  </g>
  <g id="Regular-S" transform="matrix(1 0 0 1 1393.47 696)">
   <path d="M66.3086-5.17578L46.3867-5.17578L46.3867-30.127Q46.3867-31.543 47.2412-32.373Q48.0957-33.2031 49.5117-33.2031L63.2324-33.2031Q66.3086-33.2031 66.3086-30.127ZM22.3145-6.98242Q22.3145-2.83203 24.707-0.488281Q27.0996 1.85547 31.3477 1.85547L81.4453 1.85547Q85.6934 1.85547 88.0859-0.488281Q90.4785-2.83203 90.4785-6.98242L90.4785-35.791L58.6426-62.4512Q57.6172-63.3301 56.3721-63.3301Q55.127-63.3301 54.1504-62.4512L22.3145-35.791ZM9.76562-40.7715Q9.76562-39.4043 10.7666-38.3301Q11.7676-37.2559 13.5742-37.2559Q14.502-37.2559 15.2588-37.6953Q16.0156-38.1348 16.6992-38.6719L55.127-70.9473Q56.3965-72.0215 57.666-70.9473L96.0938-38.6719Q96.7773-38.1348 97.5586-37.6953Q98.3398-37.2559 99.2676-37.2559Q100.781-37.2559 101.88-38.1348Q102.979-39.0137 102.979-40.625Q102.979-42.4805 101.66-43.6035L61.3281-77.4902Q59.0332-79.3945 56.3965-79.3945Q53.7598-79.3945 51.5137-77.4902L11.1328-43.6035Q9.76562-42.4805 9.76562-40.7715ZM79.9316-59.2773L90.4785-50.3906L90.4785-68.1641Q90.4785-71.1914 87.4512-71.1914L83.0566-71.1914Q81.6406-71.1914 80.7861-70.3613Q79.9316-69.5312 79.9316-68.1641Z"/>
  </g>
  <g id="Light-S" transform="matrix(1 0 0 1 1098.5 696)">
   <path d="M64.4043-3.84115L44.8242-3.84115L44.8242-29.3945Q44.8242-30.6641 45.5892-31.4209Q46.3542-32.1777 47.6237-32.1777L61.6374-32.1777Q64.4043-32.1777 64.4043-29.3945ZM21.2077-6.49414Q21.2077-2.7181 23.3887-0.569661Q25.5697 1.57878 29.4271 1.57878L79.9316 1.57878Q83.8053 1.57878 85.9782-0.569661Q88.151-2.7181 88.151-6.49414L88.151-38.0534L56.9987-64.1764Q55.8594-65.1367 54.6387-65.1286Q53.418-65.1204 52.3275-64.1764L21.2077-38.0859ZM9.76562-40.9505Q9.76562-39.9089 10.5306-39.0869Q11.2956-38.265 12.679-38.265Q13.3952-38.265 13.9567-38.5905Q14.5182-38.916 15.0553-39.3392L53.2389-71.4193Q54.6712-72.64 56.1198-71.4193L94.2546-39.3392Q94.7754-38.916 95.3532-38.5905Q95.931-38.265 96.6471-38.265Q97.8353-38.265 98.6654-38.9486Q99.4954-39.6322 99.4954-40.8529Q99.4954-42.2852 98.4212-43.1966L59.0658-76.3021Q56.9987-78.0273 54.6794-78.0273Q52.36-78.0273 50.3255-76.3021L10.8724-43.1966Q9.76562-42.2852 9.76562-40.9505ZM79.2318-57.1615L88.151-49.6419L88.151-67.3014Q88.151-69.7917 85.6283-69.7917L81.8034-69.7917Q80.6641-69.7917 79.9479-69.1081Q79.2318-68.4245 79.2318-67.3014Z"/>
  </g>
  <g id="Thin-S" transform="matrix(1 0 0 1 804.095 696)">
   <path d="M61.8857-2.07598L42.7577-2.07598L42.7577-28.4258Q42.7577-29.5016 43.4043-30.1616Q44.0508-30.8216 45.1266-30.8216L59.5278-30.8216Q61.8857-30.8216 61.8857-28.4258ZM19.7439-5.84835Q19.7439-2.56741 21.645-0.677293Q23.5462 1.21283 26.887 1.21283L77.9297 1.21283Q81.3083 1.21283 83.1905-0.677293Q85.0728-2.56741 85.0728-5.84835L85.0728-41.0456L54.8245-66.4582Q53.5345-67.5261 52.3461-67.5072Q51.1577-67.4883 49.9165-66.4582L19.7439-41.1212ZM9.76562-41.1873Q9.76562-40.5762 10.2185-40.0879Q10.6713-39.5996 11.4951-39.5996Q11.9314-39.5996 12.2346-39.7744Q12.5378-39.9493 12.8812-40.2218L50.7419-72.0435Q52.3894-73.458 54.0748-72.0435L91.8221-40.2218Q92.1276-39.9493 92.4364-39.7744Q92.7451-39.5996 93.1814-39.5996Q93.939-39.5996 94.4139-40.0249Q94.8888-40.4502 94.8888-41.1542Q94.8888-42.0268 94.1375-42.6585L56.0736-74.7307Q54.3079-76.2191 52.4083-76.2191Q50.5088-76.2191 48.7541-74.7307L10.528-42.6585Q9.76562-42.0268 9.76562-41.1873ZM78.3061-54.363L85.0728-48.6517L85.0728-66.1605Q85.0728-67.9404 83.2173-67.9404L80.1459-67.9404Q79.3725-67.9404 78.8393-67.4505Q78.3061-66.9607 78.3061-66.1605Z"/>
  </g>
  <g id="Ultralight-S" transform="matrix(1 0 0 1 508.564 696)">
   <path d="M60.5957-1.17188L41.6992-1.17188L41.6992-27.9297Q41.6992-28.9062 42.2852-29.5166Q42.8711-30.127 43.8477-30.127L58.4473-30.127Q60.5957-30.127 60.5957-27.9297ZM18.9941-5.51758Q18.9941-2.49023 20.752-0.732422Q22.5098 1.02539 25.5859 1.02539L76.9043 1.02539Q80.0293 1.02539 81.7627-0.732422Q83.4961-2.49023 83.4961-5.51758L83.4961-42.5781L53.7109-67.627Q52.3438-68.75 51.1719-68.7256Q50-68.7012 48.6816-67.627L18.9941-42.6758ZM9.76562-41.3086Q9.76562-40.918 10.0586-40.6006Q10.3516-40.2832 10.8887-40.2832Q11.1816-40.2832 11.3525-40.3809Q11.5234-40.4785 11.7676-40.6738L49.4629-72.3633Q51.2207-73.877 53.0273-72.3633L90.5762-40.6738Q90.7715-40.4785 90.9424-40.3809Q91.1133-40.2832 91.4062-40.2832Q91.9434-40.2832 92.2363-40.5762Q92.5293-40.8691 92.5293-41.3086Q92.5293-41.8945 91.9434-42.3828L54.541-73.9258Q52.9297-75.293 51.2451-75.293Q49.5605-75.293 47.9492-73.9258L10.3516-42.3828Q9.76562-41.8945 9.76562-41.3086ZM77.832-52.9297L83.4961-48.1445L83.4961-65.5762Q83.4961-66.9922 81.9824-66.9922L79.2969-66.9922Q78.7109-66.9922 78.2715-66.6016Q77.832-66.2109 77.832-65.5762Z"/>
  </g>
 </g>
</svg>
